<svg width="60" height="60" viewBox="0 0 60 60" fill="none" xmlns="http://www.w3.org/2000/svg">
<g id="&#208;&#186;&#208;&#190;&#209;&#136;&#208;&#184;&#208;&#186;" filter="url(#filter0_i_483_96)">
<rect id="Rectangle 6368" width="60" height="60" rx="10" fill="#2C73BB"/>
<g id="Group 119">
<path id="Vector" fill-rule="evenodd" clip-rule="evenodd" d="M21.5989 24.319C25.3939 20.529 31.5639 20.569 35.3819 24.388C39.2019 28.208 39.2419 34.381 35.4459 38.176C31.6499 41.971 25.4779 41.932 21.6579 38.112C20.5832 37.042 19.7713 35.7375 19.2858 34.3008C18.8003 32.8642 18.6545 31.3345 18.8599 29.832C18.8868 29.6348 18.9909 29.4564 19.1494 29.336C19.3079 29.2156 19.5077 29.1631 19.7049 29.19C19.9021 29.2169 20.0805 29.3211 20.2009 29.4796C20.3213 29.638 20.3738 29.8378 20.3469 30.035C20.1726 31.3083 20.2959 32.6047 20.7074 33.8223C21.1188 35.0399 21.807 36.1454 22.7179 37.052C25.9629 40.296 31.1859 40.315 34.3859 37.116C37.5849 33.916 37.5659 28.693 34.3219 25.448C31.0789 22.206 25.8589 22.185 22.6589 25.38L23.4069 25.383C23.5054 25.3835 23.6028 25.4033 23.6936 25.4415C23.7844 25.4796 23.8669 25.5352 23.9362 25.6052C24.0055 25.6751 24.0604 25.7581 24.0976 25.8492C24.1349 25.9404 24.1538 26.038 24.1534 26.1365C24.1529 26.235 24.1331 26.3324 24.0949 26.4233C24.0568 26.5141 24.0012 26.5965 23.9312 26.6658C23.8613 26.7351 23.7783 26.79 23.6871 26.8273C23.596 26.8645 23.4984 26.8835 23.3999 26.883L20.8539 26.871C20.6562 26.87 20.4669 26.7909 20.3272 26.651C20.1875 26.5111 20.1087 26.3217 20.1079 26.124L20.0949 23.58C20.0943 23.4815 20.1132 23.3839 20.1504 23.2927C20.1876 23.2015 20.2424 23.1185 20.3117 23.0485C20.381 22.9785 20.4634 22.9228 20.5542 22.8846C20.645 22.8465 20.7424 22.8265 20.8409 22.826C20.9394 22.8255 21.037 22.8444 21.1282 22.8816C21.2194 22.9188 21.3024 22.9736 21.3724 23.0429C21.4424 23.1121 21.4981 23.1945 21.5362 23.2853C21.5744 23.3761 21.5943 23.4735 21.5949 23.572L21.5989 24.319Z" fill="#E1E7F6"/>
<path id="Vector_2" opacity="0.5" d="M28.5195 26.5C28.7184 26.5 28.9092 26.579 29.0499 26.7197C29.1905 26.8603 29.2695 27.0511 29.2695 27.25V30.94L31.5495 33.22C31.6232 33.2887 31.6823 33.3715 31.7233 33.4635C31.7643 33.5555 31.7863 33.6548 31.7881 33.7555C31.7899 33.8562 31.7714 33.9562 31.7337 34.0496C31.6959 34.143 31.6398 34.2278 31.5686 34.299C31.4974 34.3703 31.4125 34.4264 31.3191 34.4641C31.2257 34.5018 31.1257 34.5204 31.025 34.5186C30.9243 34.5168 30.825 34.4948 30.733 34.4538C30.641 34.4128 30.5582 34.3537 30.4895 34.28L28.0625 31.854C27.9695 31.761 27.8958 31.6507 27.8455 31.5292C27.7953 31.4077 27.7694 31.2775 27.7695 31.146V27.25C27.7695 27.0511 27.8485 26.8603 27.9892 26.7197C28.1299 26.579 28.3206 26.5 28.5195 26.5Z" fill="#E1E7F6"/>
</g>
</g>
<defs>
<filter id="filter0_i_483_96" x="0" y="0" width="60" height="64" filterUnits="userSpaceOnUse" color-interpolation-filters="sRGB">
<feFlood flood-opacity="0" result="BackgroundImageFix"/>
<feBlend mode="normal" in="SourceGraphic" in2="BackgroundImageFix" result="shape"/>
<feColorMatrix in="SourceAlpha" type="matrix" values="0 0 0 0 0 0 0 0 0 0 0 0 0 0 0 0 0 0 127 0" result="hardAlpha"/>
<feOffset dy="4"/>
<feGaussianBlur stdDeviation="2"/>
<feComposite in2="hardAlpha" operator="arithmetic" k2="-1" k3="1"/>
<feColorMatrix type="matrix" values="0 0 0 0 0 0 0 0 0 0 0 0 0 0 0 0 0 0 0.25 0"/>
<feBlend mode="normal" in2="shape" result="effect1_innerShadow_483_96"/>
</filter>
</defs>
</svg>
