<svg width="80" height="80" viewBox="0 0 80 80" fill="none" xmlns="http://www.w3.org/2000/svg">
<path d="M30.7236 22.3038C33.8033 22.3038 36.2894 24.6739 36.2894 27.61C36.2894 30.5461 33.8033 32.9162 30.7236 32.9162C27.6438 32.9162 25.1577 30.5461 25.1577 27.61C25.1577 24.6739 27.6438 22.3038 30.7236 22.3038ZM49.2764 47.0661C52.3562 47.0661 54.8423 49.4362 54.8423 52.3723C54.8423 55.3084 52.3562 57.6785 49.2764 57.6785C46.1967 57.6785 43.7106 55.3084 43.7106 52.3723C43.7106 49.4362 46.1967 47.0661 49.2764 47.0661ZM26.679 57.6785L21.4471 52.6907L53.321 22.3038L58.5529 27.2916L26.679 57.6785ZM64.6753 7.62326L66.9388 21.2779L79.9629 27.61L73.3952 39.9912L80 52.3723L66.8646 58.7044L64.6011 72.3591L50.167 70.2012L39.8887 80L29.5733 70.0597L15.2505 72.3237L12.9499 58.5629L0 52.2662L6.60482 39.885L0.0371057 27.61L13.0612 21.2072L15.3247 7.69401L29.6846 9.92262L40 0L50.2412 9.78112L64.6753 7.62326ZM70.0557 30.6876L60.4082 25.8413L58.5529 15.618L47.7922 17.1037L40 9.92262L32.2078 17.1037L21.4471 15.618L19.5918 25.8413L9.94434 30.6876L14.7681 39.9912L9.94434 49.2947L19.5918 54.1411L21.4471 64.3644L32.2078 62.8786L40 70.0597L47.7922 62.8786L58.5529 64.3644L60.4082 54.1411L70.0557 49.2947L65.2319 39.9912L70.0557 30.6876Z" fill="#2C73BB"/>
</svg>
