<svg width="70" height="80" viewBox="0 0 70 80" fill="none" xmlns="http://www.w3.org/2000/svg">
<path fill-rule="evenodd" clip-rule="evenodd" d="M10.015 20.4206L31.115 9.24753C32.3279 8.60702 33.6554 8.27455 35 8.27455C36.3446 8.27455 37.6721 8.60702 38.885 9.24753L59.985 20.4206C60.7375 20.8216 61.3725 21.4483 61.8172 22.2289C62.262 23.0095 62.4986 23.9126 62.5 24.8347V27.5825C62.4997 35.4976 60.6947 43.2855 57.2511 50.2289C53.8076 57.1722 48.8363 63.0478 42.795 67.3146L37.865 70.7962C37.0103 71.4022 36.0159 71.7244 35 71.7244C33.9841 71.7244 32.9897 71.4022 32.135 70.7962L27.205 67.3201C21.163 63.0528 16.1912 57.1764 12.7477 50.232C9.3041 43.2876 7.49946 35.4986 7.5 27.5825V24.8347C7.5 22.9532 8.48 21.2372 10.015 20.4206ZM27.865 1.78775L6.77 12.9609C4.74344 14.0366 3.03306 15.7215 1.83547 17.8219C0.637883 19.9224 0.00168302 22.3531 6.19709e-08 24.8347V27.5825C-0.000418625 36.8867 2.12071 46.0415 6.16803 54.2036C10.2153 62.3658 16.0587 69.2729 23.16 74.2889L28.09 77.7649C30.1521 79.2243 32.5503 80 35 80C37.4497 80 39.8479 79.2243 41.91 77.7649L46.84 74.2889C53.9413 69.2729 59.7847 62.3658 63.832 54.2036C67.8793 46.0415 70.0004 36.8867 70 27.5825V24.8347C70 19.7696 67.37 15.1513 63.23 12.9609L42.13 1.78775C39.9044 0.610914 37.4679 0 35 0C32.5321 0 30.0906 0.610914 27.865 1.78775ZM37.35 49.4873C36.9816 49.8661 36.6861 50.323 36.4811 50.8306C36.2761 51.3382 36.1659 51.8862 36.157 52.4418C36.1482 52.9975 36.2408 53.5494 36.4294 54.0647C36.618 54.5799 36.8987 55.048 37.2548 55.441C37.6109 55.8339 38.0351 56.1437 38.502 56.3519C38.969 56.56 39.4691 56.6622 39.9726 56.6524C40.4761 56.6426 40.9727 56.521 41.4327 56.2948C41.8927 56.0686 42.3067 55.7425 42.65 55.3359C45.525 52.1688 48.24 47.6223 50.23 43.2248C52.16 38.9653 53.75 34.1043 53.75 30.3413C53.75 29.2437 53.3549 28.1912 52.6516 27.4151C51.9484 26.6391 50.9946 26.2031 50 26.2031C49.0054 26.2031 48.0516 26.6391 47.3484 27.4151C46.6451 28.1912 46.25 29.2437 46.25 30.3413C46.25 32.0959 45.34 35.5112 43.52 39.528C41.76 43.4069 39.475 47.1368 37.35 49.4873Z" fill="#2C73BB"/>
</svg>
