<svg width="86" height="76" viewBox="0 0 86 76" fill="none" xmlns="http://www.w3.org/2000/svg">
<path d="M63 73.0002C67.4183 73.0002 71 69.0826 71 64.2501C71 59.4175 67.4183 55.5 63 55.5C58.5817 55.5 55 59.4175 55 64.2501C55 69.0826 58.5817 73.0002 63 73.0002Z" stroke="#2C73BB" stroke-width="6" stroke-linecap="round" stroke-linejoin="round"/>
<path d="M23 73.0002C27.4183 73.0002 31 69.0826 31 64.2501C31 59.4175 27.4183 55.5 23 55.5C18.5817 55.5 15 59.4175 15 64.2501C15 69.0826 18.5817 73.0002 23 73.0002Z" stroke="#2C73BB" stroke-width="6" stroke-linecap="round" stroke-linejoin="round"/>
<path d="M15 64.1281C10.612 63.8919 7.88 63.1787 5.928 61.0481C3.976 58.9174 3.328 55.9249 3.112 51.1255M31 64.2506H55M71 64.1281C75.388 63.8919 78.12 63.1787 80.072 61.0481C83 57.8412 83 52.6874 83 42.3754V33.6253H64.2C61.22 33.6253 59.732 33.6253 58.528 33.1966C57.3274 32.7698 56.2362 32.0384 55.3435 31.0621C54.4509 30.0857 53.7821 28.8922 53.392 27.579C53 26.2621 53 24.6346 53 21.3752C53 16.4883 53 14.047 52.412 12.0695C51.8268 10.0997 50.8237 8.3094 49.4847 6.84488C48.1457 5.38036 46.5089 4.28321 44.708 3.64313C42.9 3 40.668 3 36.2 3H3M3 20.5002H27M3 33.6253H19" stroke="#2C73BB" stroke-width="6" stroke-linecap="round" stroke-linejoin="round"/>
<path d="M53 11.75H60.284C66.108 11.75 69.016 11.75 71.384 13.2988C73.756 14.8432 75.136 17.6476 77.896 23.2564L83 33.6252" stroke="#2C73BB" stroke-width="6" stroke-linecap="round" stroke-linejoin="round"/>
</svg>
