<svg width="76" height="78" viewBox="0 0 76 78" fill="none" xmlns="http://www.w3.org/2000/svg">
<path fill-rule="evenodd" clip-rule="evenodd" d="M5.81723 52.1058C5.75342 52.1225 5.6664 52.1669 5.6432 52.2224C5.60839 52.3223 5.60839 52.4388 5.58518 52.6664C5.44596 52.9605 5.78823 53.2324 5.92166 53.5654C5.93906 53.6042 6.08989 53.6486 6.1189 53.6209C6.40896 53.3823 6.68741 53.1325 6.95427 52.8717C6.99488 52.8328 6.99488 52.7163 6.96587 52.6664C6.68161 52.2945 6.36835 51.9727 5.81723 52.1058Z" fill="#2A8E9E" fill-opacity="0.3"/>
<path fill-rule="evenodd" clip-rule="evenodd" d="M4.6407 53.1491C4.56529 52.8994 4.35645 52.7274 4.03738 52.7662C3.96777 52.7884 3.88655 52.794 3.83434 52.8384C3.81693 52.855 3.84014 52.966 3.88075 52.9993C4.1186 53.2046 4.26943 53.4322 4.19981 53.7596C4.17081 53.8983 4.18821 54.0482 4.21142 54.1925C4.21722 54.2424 4.31004 54.309 4.37385 54.309C4.66391 54.3312 4.98878 53.9594 4.84375 53.7485C4.70452 53.5487 4.70452 53.3489 4.6407 53.1491Z" fill="#2A8E9E" fill-opacity="0.3"/>
<path fill-rule="evenodd" clip-rule="evenodd" d="M8.47416 55.4077C8.41614 55.3356 8.35233 55.2079 8.2247 55.2745C8.13188 55.3245 7.99266 55.4854 8.00426 55.502C8.2015 55.7573 7.91724 55.9516 7.94045 56.1791C7.94045 56.2068 7.98105 56.2346 8.02166 56.2845C8.10288 56.2401 8.1899 56.1902 8.27691 56.1458C8.7004 55.9183 8.74681 55.7462 8.47416 55.4077Z" fill="#2A8E9E" fill-opacity="0.3"/>
<path fill-rule="evenodd" clip-rule="evenodd" d="M3.42651 49.7249C3.3859 49.7138 3.28728 49.7804 3.28148 49.8192C3.25827 49.9247 3.27568 50.0356 3.27568 50.1466C3.28148 50.1466 3.28728 50.1466 3.29888 50.1466C3.29888 50.2909 3.28728 50.4408 3.30468 50.5851C3.31628 50.6794 3.3859 50.7127 3.44391 50.6794C3.65275 50.5517 3.76878 50.3797 3.75137 50.1355C3.73397 49.9801 3.57734 49.7582 3.42651 49.7249Z" fill="#2A8E9E" fill-opacity="0.3"/>
<path fill-rule="evenodd" clip-rule="evenodd" d="M22.31 64.7032C22.3158 64.7032 22.3042 64.6422 22.2868 64.62C22.0432 64.3092 21.6661 64.2537 21.347 64.0928C21.2774 64.1927 21.2136 64.2426 21.202 64.3037C21.1962 64.3647 21.231 64.4757 21.2716 64.4812C21.3644 64.5034 21.4572 64.5312 21.5443 64.5534C21.5849 64.6033 21.6313 64.6477 21.7067 64.6921C21.7357 64.6588 21.7241 64.6255 21.7067 64.5978C21.8459 64.6422 21.9794 64.6921 22.107 64.7643C22.1534 64.792 22.2462 64.731 22.31 64.7032Z" fill="#2A8E9E" fill-opacity="0.3"/>
<path fill-rule="evenodd" clip-rule="evenodd" d="M5.21355 54.7751C5.08592 54.7363 4.91769 54.8528 4.90608 54.9971C4.87708 55.2635 4.95249 55.4078 5.12653 55.4189C5.24835 55.43 5.53841 55.2413 5.56162 55.1359C5.58482 55.036 5.38758 54.8306 5.21355 54.7751Z" fill="#2A8E9E" fill-opacity="0.3"/>
<path fill-rule="evenodd" clip-rule="evenodd" d="M7.41855 53.987C7.40695 53.9593 7.36634 53.9426 7.34314 53.9204C7.31993 53.9482 7.27352 53.9759 7.27352 54.0037C7.26772 54.2867 7.26192 54.5642 7.26772 54.8472C7.26772 54.8749 7.30253 54.9249 7.32573 54.9304C7.34894 54.936 7.38955 54.9027 7.41855 54.8805C7.71441 54.653 7.72602 54.5975 7.54038 54.27C7.49397 54.1812 7.46496 54.0813 7.41855 53.987Z" fill="#2A8E9E" fill-opacity="0.3"/>
<path fill-rule="evenodd" clip-rule="evenodd" d="M6.04309 51.3398C6.03729 51.312 5.99668 51.2566 5.97348 51.2621C5.79944 51.2788 5.6022 51.5507 5.6254 51.7449C5.63121 51.7782 5.67182 51.806 5.69502 51.8337C5.85165 51.8115 6.0663 51.5174 6.04309 51.3398Z" fill="#2A8E9E" fill-opacity="0.3"/>
<path fill-rule="evenodd" clip-rule="evenodd" d="M6.11246 56.0016C6.08345 56.0959 6.03704 56.1903 6.15887 56.268C6.20528 56.2402 6.3039 56.2014 6.2981 56.1847C6.26909 56.0959 6.22268 56.0127 6.18207 55.9294C6.15887 55.9516 6.11826 55.9738 6.11246 56.0016Z" fill="#2A8E9E" fill-opacity="0.3"/>
<path fill-rule="evenodd" clip-rule="evenodd" d="M24.6821 69.8754C24.7459 69.8754 24.8155 69.8255 24.8794 69.7977C24.8155 69.77 24.7517 69.7145 24.6879 69.7145C24.6705 69.7145 24.6531 69.7256 24.6299 69.7311C24.5197 69.6701 24.3747 69.609 24.3398 69.6701C24.3979 69.7034 24.4211 69.7422 24.3921 69.7866C24.4733 69.8199 24.5487 69.8421 24.6067 69.8476C24.6241 69.8587 24.6531 69.8698 24.6821 69.8754Z" fill="#2A8E9E" fill-opacity="0.3"/>
<path fill-rule="evenodd" clip-rule="evenodd" d="M11.5085 19.2136C11.4678 19.2358 11.4562 19.3023 11.4388 19.3578C11.4969 19.3412 11.5607 19.3356 11.5897 19.2968C11.6361 19.2468 11.5781 19.1803 11.5085 19.2136Z" fill="#2A8E9E" fill-opacity="0.3"/>
<path fill-rule="evenodd" clip-rule="evenodd" d="M11.4396 19.3577C11.4279 19.3577 11.4162 19.3633 11.4104 19.3633C11.4104 19.3689 11.4104 19.3801 11.4104 19.3857C11.4162 19.3857 11.4279 19.3857 11.4337 19.3801C11.4337 19.3801 11.4396 19.3689 11.4396 19.3577Z" fill="#2A8E9E" fill-opacity="0.3"/>
<path fill-rule="evenodd" clip-rule="evenodd" d="M11.2639 19.5243C11.2697 19.552 11.3509 19.5631 11.4089 19.5853C11.4089 19.5187 11.4089 19.4577 11.4089 19.3911C11.3219 19.3967 11.2349 19.4133 11.2639 19.5243Z" fill="#2A8E9E" fill-opacity="0.3"/>
<path fill-rule="evenodd" clip-rule="evenodd" d="M11.4104 19.5852C11.4104 19.5964 11.4104 19.602 11.4104 19.6133C11.416 19.6133 11.4216 19.6133 11.4216 19.6133C11.4216 19.6077 11.4272 19.602 11.4272 19.5964C11.4216 19.5852 11.416 19.5852 11.4104 19.5852Z" fill="#2A8E9E" fill-opacity="0.3"/>
<path fill-rule="evenodd" clip-rule="evenodd" d="M3.58303 25.6787C3.57723 25.6787 3.57143 25.7453 3.57723 25.7508C3.62364 25.773 3.67585 25.7897 3.72226 25.8063C3.71066 25.7342 3.70486 25.6565 3.58303 25.6787Z" fill="#2A8E9E" fill-opacity="0.3"/>
<path fill-rule="evenodd" clip-rule="evenodd" d="M3.72296 25.8064C3.72296 25.8176 3.72879 25.8288 3.72879 25.8457C3.74046 25.8457 3.75212 25.8457 3.76379 25.8457C3.76379 25.8345 3.75796 25.8288 3.75796 25.8176C3.74629 25.8176 3.73463 25.812 3.72296 25.8064Z" fill="#2A8E9E" fill-opacity="0.3"/>
<path fill-rule="evenodd" clip-rule="evenodd" d="M2.69006 27.3604C2.71906 27.3382 2.74227 27.3104 2.77127 27.2882C2.73067 27.1828 2.67265 27.1772 2.62044 27.2827C2.61464 27.2882 2.66685 27.3326 2.69006 27.3604Z" fill="#2A8E9E" fill-opacity="0.3"/>
<path fill-rule="evenodd" clip-rule="evenodd" d="M1.96536 28.3482C1.93636 28.3537 1.91895 28.4314 1.90155 28.4869C1.96536 28.4869 2.03498 28.4869 2.09879 28.4869C2.08139 28.4148 2.08139 28.326 1.96536 28.3482Z" fill="#2A8E9E" fill-opacity="0.3"/>
<path fill-rule="evenodd" clip-rule="evenodd" d="M1.66464 28.7087C1.65297 28.7087 1.64131 28.7087 1.63547 28.7087C1.63547 28.72 1.62964 28.7368 1.62964 28.748C1.6413 28.7424 1.65297 28.7368 1.66464 28.7368C1.66464 28.7256 1.66464 28.72 1.66464 28.7087Z" fill="#2A8E9E" fill-opacity="0.3"/>
<path fill-rule="evenodd" clip-rule="evenodd" d="M1.86613 28.5144C1.7443 28.5311 1.67469 28.5921 1.66309 28.7086C1.7327 28.7086 1.79651 28.7086 1.86613 28.7086C1.86613 28.6476 1.86613 28.581 1.86613 28.5144Z" fill="#2A8E9E" fill-opacity="0.3"/>
<path fill-rule="evenodd" clip-rule="evenodd" d="M1.62888 28.7476C1.58247 28.7642 1.53606 28.7809 1.48965 28.803C1.47805 28.8086 1.48965 28.8696 1.48965 28.8696C1.61148 28.8863 1.61728 28.8197 1.62888 28.7476Z" fill="#2A8E9E" fill-opacity="0.3"/>
<path fill-rule="evenodd" clip-rule="evenodd" d="M15.2672 63.1772C15.2904 63.155 15.331 63.1384 15.331 63.1162C15.331 63.094 15.2962 63.0718 15.273 63.0496C15.2498 63.0829 15.2266 63.1161 15.2034 63.1439C15.2266 63.155 15.244 63.1661 15.2672 63.1772Z" fill="#2A8E9E" fill-opacity="0.3"/>
<path fill-rule="evenodd" clip-rule="evenodd" d="M18.9055 64.2205C18.9403 64.3037 18.9925 64.3204 19.0332 64.2649C19.0448 64.2482 19.039 64.2205 19.039 64.1927C19.0158 64.1816 18.9867 64.1539 18.9751 64.1594C18.9461 64.1705 18.8997 64.2094 18.9055 64.2205Z" fill="#2A8E9E" fill-opacity="0.3"/>
<path fill-rule="evenodd" clip-rule="evenodd" d="M23.0983 69.3427C23.0925 69.3649 23.1389 69.3926 23.1563 69.4148C23.1854 69.3926 23.2086 69.3704 23.2376 69.3482C23.2144 69.3205 23.1912 69.2983 23.1679 69.2705C23.1447 69.2983 23.1041 69.3149 23.0983 69.3427Z" fill="#2A8E9E" fill-opacity="0.3"/>
<path fill-rule="evenodd" clip-rule="evenodd" d="M27.4216 69.7921C27.4042 69.7699 27.3752 69.72 27.3636 69.7255C27.2592 69.7588 27.2534 69.8143 27.352 69.8643C27.3636 69.8643 27.3984 69.8143 27.4216 69.7921Z" fill="#2A8E9E" fill-opacity="0.3"/>
<path fill-rule="evenodd" clip-rule="evenodd" d="M64.9544 13.17C65.0704 12.9868 65.0066 12.7316 64.7397 12.4319C64.5367 12.5817 64.9196 12.9258 64.9544 13.17Z" fill="#2A8E9E" fill-opacity="0.3"/>
<path fill-rule="evenodd" clip-rule="evenodd" d="M38.5299 3.9687C38.0716 3.92985 39.0926 3.85216 38.5415 3.75781C38.5531 3.9132 38.0774 3.76891 37.8802 3.80221C37.7873 3.9687 38.4255 4.11854 38.5299 3.9687Z" fill="#2A8E9E" fill-opacity="0.3"/>
<path fill-rule="evenodd" clip-rule="evenodd" d="M23.2545 5.2395C22.918 5.34494 22.8832 5.48923 22.9876 5.64462C23.3183 5.53918 23.3589 5.40044 23.2545 5.2395Z" fill="#2A8E9E" fill-opacity="0.3"/>
<path fill-rule="evenodd" clip-rule="evenodd" d="M43.2536 4.30171C43.01 4.32391 42.8417 4.4016 42.5691 4.3905C42.5749 4.23511 40.9389 3.87995 40.6199 4.12968C41.4726 4.24622 42.25 4.34055 43.0332 4.47929C43.4277 4.54589 43.8221 4.61248 44.2398 4.67908C44.6517 4.75677 45.0752 4.84001 45.5335 4.92881C45.3537 4.67908 44.9186 4.60138 44.4603 4.54034C44.0078 4.48484 43.5263 4.47375 43.2536 4.30171Z" fill="#2A8E9E" fill-opacity="0.3"/>
<path fill-rule="evenodd" clip-rule="evenodd" d="M40.2759 3.67466C39.835 3.63581 39.8002 3.86334 39.3361 3.8023C39.5044 3.97988 38.9764 4.03538 39.3129 4.08533C39.4811 3.8467 40.0729 3.89109 40.2759 3.67466Z" fill="#2A8E9E" fill-opacity="0.3"/>
<path fill-rule="evenodd" clip-rule="evenodd" d="M1.93592 28.1649C2.06935 27.6488 2.23759 27.3269 2.35941 27.0439C2.26659 27.0217 2.12736 27.3269 2.02874 27.6266C1.92432 27.9262 1.90112 28.2259 1.93592 28.1649Z" fill="#2A8E9E" fill-opacity="0.3"/>
<path fill-rule="evenodd" clip-rule="evenodd" d="M19.5367 12.7481C19.7398 12.615 19.8268 12.7204 20.053 12.5539C20.024 12.3874 19.4033 12.6316 19.5367 12.7481Z" fill="#2A8E9E" fill-opacity="0.3"/>
<path fill-rule="evenodd" clip-rule="evenodd" d="M45.0567 1.02195L45.3409 1.08855C45.3815 1.0053 45.2539 0.960908 45.2829 0.883214C45.1031 0.849917 44.958 0.838814 44.8826 0.88876C45.1611 0.938707 45.2075 0.972007 45.0567 1.02195Z" fill="#2A8E9E" fill-opacity="0.3"/>
<path fill-rule="evenodd" clip-rule="evenodd" d="M47.4641 6.39406L47.8701 6.52726C47.9804 6.34412 47.4931 6.24422 47.4641 6.39406Z" fill="#2A8E9E" fill-opacity="0.3"/>
<path fill-rule="evenodd" clip-rule="evenodd" d="M49.2739 4.86232C49.2158 4.79573 48.7576 4.5793 48.6705 4.65699C48.9084 4.69584 49.094 4.95111 49.2739 4.86232Z" fill="#2A8E9E" fill-opacity="0.3"/>
<path fill-rule="evenodd" clip-rule="evenodd" d="M49.6212 6.98216C49.3718 6.88782 49.1629 6.84342 49.0237 6.87672C49.2151 6.90446 49.6212 7.17084 49.6212 6.98216Z" fill="#2A8E9E" fill-opacity="0.3"/>
<path fill-rule="evenodd" clip-rule="evenodd" d="M50.6834 6.87693C50.7878 6.82143 50.608 6.71599 50.4398 6.65494C50.2657 6.60499 50.1149 6.59945 50.2831 6.71044C50.405 6.605 50.463 6.84363 50.6834 6.87693Z" fill="#2A8E9E" fill-opacity="0.3"/>
<path fill-rule="evenodd" clip-rule="evenodd" d="M50.84 6.94897C51.1822 7.12655 51.2635 7.06551 51.4723 7.232C51.5999 7.09326 50.8516 6.82133 50.84 6.94897Z" fill="#2A8E9E" fill-opacity="0.3"/>
<path fill-rule="evenodd" clip-rule="evenodd" d="M54.9591 8.80232C54.7908 8.66359 54.7212 8.66359 54.6516 8.4638C54.6168 8.5193 54.495 8.42495 54.4543 8.45825C54.5066 8.54704 54.7792 8.84672 54.9591 8.80232Z" fill="#2A8E9E" fill-opacity="0.3"/>
<path fill-rule="evenodd" clip-rule="evenodd" d="M57.4243 5.55035C57.2155 5.46711 56.8094 5.10083 56.7862 5.29507C57.0298 5.42826 57.3431 5.66134 57.4243 5.55035Z" fill="#2A8E9E" fill-opacity="0.3"/>
<path fill-rule="evenodd" clip-rule="evenodd" d="M57.2672 11.2053C57.5224 11.394 57.7313 11.5827 57.8995 11.7658C57.9517 11.6326 57.4528 11.222 57.2672 11.2053Z" fill="#2A8E9E" fill-opacity="0.3"/>
<path fill-rule="evenodd" clip-rule="evenodd" d="M60.8988 11.2333C61.0786 11.3776 61.2411 11.4886 61.3687 11.5108C61.3049 11.3332 61.0206 11.2055 60.8988 11.2333Z" fill="#2A8E9E" fill-opacity="0.3"/>
<path fill-rule="evenodd" clip-rule="evenodd" d="M61.8793 13.9191C61.7053 13.747 61.4094 13.5583 61.4965 13.4529C61.6299 13.5306 61.8387 13.8247 61.9199 13.7581C61.6183 13.2476 60.9105 13.1144 60.3884 12.7537C60.6495 13.1366 61.5371 13.7581 61.8793 13.9191Z" fill="#2A8E9E" fill-opacity="0.3"/>
<path fill-rule="evenodd" clip-rule="evenodd" d="M68.2615 16.4386C68.424 16.655 68.598 16.5496 68.5748 16.4441L68.4008 16.2222C68.2789 16.261 68.4182 16.4164 68.2615 16.4386Z" fill="#2A8E9E" fill-opacity="0.3"/>
<path fill-rule="evenodd" clip-rule="evenodd" d="M69.8553 20.5289C69.4434 20.1626 69.571 19.924 69.1823 19.5632C69.1649 19.7297 69.6464 20.6676 69.8553 20.5289Z" fill="#2A8E9E" fill-opacity="0.3"/>
<path fill-rule="evenodd" clip-rule="evenodd" d="M71.7948 24.2024C71.8702 24.1636 71.9398 24.158 72.0095 24.2079C71.7484 23.7584 71.6788 23.3422 71.3829 22.9981C71.4177 23.148 71.0987 22.9482 71 22.6763C70.9536 22.7151 70.8666 22.7207 70.9072 22.8206C71.2437 23.3533 71.6962 23.4477 71.7948 24.2024Z" fill="#2A8E9E" fill-opacity="0.3"/>
<path fill-rule="evenodd" clip-rule="evenodd" d="M72.2057 23.925L72.3797 24.3467C72.5712 24.4189 72.2927 23.7363 72.2057 23.925Z" fill="#2A8E9E" fill-opacity="0.3"/>
<path fill-rule="evenodd" clip-rule="evenodd" d="M72.0831 25.0573C72.147 25.0129 72.263 25.0184 72.234 24.9019C71.9729 24.9851 72.2282 24.4024 71.9439 24.4357C71.9961 24.6577 72.0135 24.7298 72.0831 25.0573Z" fill="#2A8E9E" fill-opacity="0.3"/>
<path fill-rule="evenodd" clip-rule="evenodd" d="M69.1661 58.8042C68.9979 58.8985 69.0791 59.0262 68.847 59.2648C68.9109 59.4479 69.2647 59.2759 69.2299 59.065C69.1545 59.1483 69.0617 59.2093 68.9805 59.2426C68.9515 59.1538 69.2415 58.8819 69.1661 58.8042Z" fill="#2A8E9E" fill-opacity="0.3"/>
<path fill-rule="evenodd" clip-rule="evenodd" d="M54.5987 71.3185C54.9584 71.1021 55.3297 70.9411 55.2891 70.8135C55.028 71.0743 54.5407 71.1465 54.3783 71.3185C54.4885 71.2685 54.5871 71.2297 54.5987 71.3185Z" fill="#2A8E9E" fill-opacity="0.3"/>
<path fill-rule="evenodd" clip-rule="evenodd" d="M45.7001 74.5592C45.9147 74.4871 46.0888 74.4094 46.1294 74.304C45.8799 74.3705 45.5318 74.4094 45.7001 74.5592Z" fill="#2A8E9E" fill-opacity="0.3"/>
<path fill-rule="evenodd" clip-rule="evenodd" d="M37.2357 75.9355C36.5222 76.0299 36.1683 75.9966 35.594 76.0299C36.0697 76.1298 36.7252 76.2019 37.1487 76.0354C36.9747 76.0188 37.1835 75.9799 37.2357 75.9355Z" fill="#2A8E9E" fill-opacity="0.3"/>
<path fill-rule="evenodd" clip-rule="evenodd" d="M36.2606 75.6247C36.4695 75.5248 36.8291 75.4638 37.0148 75.3306C36.5739 75.3805 36.3476 75.3583 36.2606 75.6247Z" fill="#2A8E9E" fill-opacity="0.3"/>
<path fill-rule="evenodd" clip-rule="evenodd" d="M35.4961 75.647C35.6934 75.536 35.8906 75.8191 36.1691 75.6692C36.1807 75.5527 36.1169 75.475 35.9718 75.425C35.7108 75.475 35.4613 75.536 35.1133 75.536C35.1945 75.7081 35.1249 75.6526 35.2061 75.8191C35.0494 75.7969 34.945 75.8746 35.1075 75.9079C35.2293 75.7858 35.676 75.8246 35.7804 75.697C35.6702 75.697 35.5135 75.7025 35.4961 75.647Z" fill="#2A8E9E" fill-opacity="0.3"/>
<path fill-rule="evenodd" clip-rule="evenodd" d="M33.942 76.1076C34.4235 76.3961 33.9652 76.1686 34.3307 76.1242C34.5569 76.0965 34.8818 76.2297 35.0152 76.0576C34.5627 76.102 34.3481 76.0077 33.942 76.1076Z" fill="#2A8E9E" fill-opacity="0.3"/>
<path fill-rule="evenodd" clip-rule="evenodd" d="M30.9253 75.8302C31.2502 75.8579 32.0855 75.9467 31.9985 75.8746C31.5692 75.8135 31.1747 75.7747 30.9253 75.8302Z" fill="#2A8E9E" fill-opacity="0.3"/>
<path fill-rule="evenodd" clip-rule="evenodd" d="M29.6308 75.2197C29.8686 75.2475 29.9382 75.1753 30.1123 75.2919C30.2341 75.1143 29.567 75.0199 29.6308 75.2197Z" fill="#2A8E9E" fill-opacity="0.3"/>
<path fill-rule="evenodd" clip-rule="evenodd" d="M28.7136 74.3151C29.0385 74.3207 29.1081 74.4095 29.2821 74.3595C29.2241 74.3096 28.6614 74.1375 28.7136 74.3151Z" fill="#2A8E9E" fill-opacity="0.3"/>
<path fill-rule="evenodd" clip-rule="evenodd" d="M27.6183 69.0263C27.8678 69.0873 28.1172 69.2594 28.3377 69.1983L28.3725 69.0596C28.0476 68.9819 27.8852 69.054 27.6183 69.0263Z" fill="#2A8E9E" fill-opacity="0.3"/>
<path fill-rule="evenodd" clip-rule="evenodd" d="M23.8304 69.7921C24.1263 69.8254 24.2597 69.9641 24.4222 69.9419C24.3642 69.9086 24.341 69.8698 24.37 69.8254C24.1205 69.7422 23.842 69.6145 23.8304 69.7921Z" fill="#2A8E9E" fill-opacity="0.3"/>
<path fill-rule="evenodd" clip-rule="evenodd" d="M21.9796 70.6302C22.0666 70.6802 22.0898 70.7356 22.1072 70.7911C22.5133 70.83 22.6409 70.8799 22.9426 70.8855C22.5713 70.719 22.5133 70.7523 22.2813 70.6025C22.3451 70.8133 21.9854 70.5137 21.9796 70.6302Z" fill="#2A8E9E" fill-opacity="0.3"/>
<path fill-rule="evenodd" clip-rule="evenodd" d="M20.6514 64.7144C20.895 64.8253 21.0226 64.9419 21.1735 65.0584C21.3359 64.6977 21.7362 65.458 21.9914 65.1805C21.8116 65.1361 21.4055 65.0473 21.539 64.8697C21.8406 64.8475 22.2177 65.3082 22.3047 65.064C21.829 64.8975 21.5215 64.7809 21.2199 64.4868C21.4113 64.842 20.9414 64.5534 21.1039 64.8586C20.9472 64.8087 20.6688 64.5257 20.6514 64.7144Z" fill="#2A8E9E" fill-opacity="0.3"/>
<path fill-rule="evenodd" clip-rule="evenodd" d="M12.1749 64.3091C11.9545 64.4312 12.2619 64.6421 12.4476 64.6698C12.2213 64.52 12.407 64.4589 12.1749 64.3091Z" fill="#2A8E9E" fill-opacity="0.3"/>
<path fill-rule="evenodd" clip-rule="evenodd" d="M9.1594 63.0661C9.40885 63.1382 8.83453 62.4778 8.66049 62.4167C8.65469 62.6221 8.56767 62.7997 8.66049 63.0383C8.78812 63.0161 8.88674 62.894 9.06078 63.0328C9.08398 63.1438 9.6467 63.8042 9.73372 63.6432C9.57708 63.4101 9.37404 63.2658 9.1594 63.0661Z" fill="#2A8E9E" fill-opacity="0.3"/>
<path fill-rule="evenodd" clip-rule="evenodd" d="M23.2023 66.6624C23.2079 66.6624 23.2136 66.668 23.2192 66.668C23.2136 66.6623 23.2079 66.6624 23.2079 66.6567L23.2023 66.6624Z" fill="#2A8E9E" fill-opacity="0.3"/>
<path fill-rule="evenodd" clip-rule="evenodd" d="M40.5011 73.5158L40.5069 73.5547C40.6577 73.5214 40.8086 73.4825 40.9536 73.4492C40.8028 73.477 40.6519 73.4992 40.5011 73.5158Z" fill="#2A8E9E" fill-opacity="0.3"/>
<path fill-rule="evenodd" clip-rule="evenodd" d="M76 37.9378C75.9362 36.9278 75.8724 35.9344 75.8144 34.9743C75.797 34.7357 75.7795 34.4971 75.7621 34.264C75.7273 34.0309 75.6983 33.7978 75.6635 33.5703C75.5939 33.1152 75.5301 32.6712 75.4663 32.2439C75.2284 31.8999 75.2691 30.6013 74.805 30.3071C74.7818 29.791 74.7759 29.6079 74.5439 29.1362C74.863 29.2694 74.4163 28.5812 74.6541 28.6256C74.4395 28.2427 74.5265 27.6988 74.3002 27.5657C74.4105 28.1317 74.6425 28.448 74.4627 28.6756C74.3757 28.1373 74.0856 27.6211 74.1958 27.2049C74.0276 26.8054 73.5461 26.1228 73.6099 25.7343C73.3836 25.7676 73.4707 25.2515 73.2502 25.0794C73.1574 25.0739 73.1864 25.2515 73.1168 25.1349C72.8905 24.8353 72.9196 24.3414 72.7049 24.1083C72.7397 24.2137 72.7745 24.3136 72.6817 24.3192C72.5425 24.0694 72.6585 24.0361 72.5193 23.7864C72.3568 23.8197 72.5947 24.186 72.5947 24.358C72.8093 24.4745 73.2096 25.4568 73.1458 25.6233C72.9544 25.3569 72.8035 25.307 72.8325 24.9574C72.6817 24.9463 72.8093 25.1627 72.7165 25.2015C72.8267 25.4846 72.9776 25.4346 73.0878 25.7454C72.9428 25.7343 72.8209 25.5678 72.6817 25.5068C72.7861 25.8175 72.9544 25.6677 73.0646 25.9507C73.0124 26.0617 72.8151 25.7509 72.8789 26.0173C72.9196 26.0451 72.9486 26.0784 72.966 26.1172C72.937 26.1228 72.908 26.1283 72.8789 26.1394C72.8209 26.1672 72.7571 26.2005 72.6991 26.2282C72.7107 26.1894 72.7339 26.1616 72.7745 26.145C72.6237 25.9119 72.6527 25.8619 72.6237 25.6177C72.5135 25.6621 72.6005 26.0451 72.6643 26.2449C72.5367 26.3114 72.4091 26.3725 72.2756 26.4335C72.264 26.4391 72.2408 26.4224 72.2176 26.4002C72.1944 26.317 72.1654 26.2393 72.1364 26.1561C72.1306 26.0617 72.1132 25.9674 72.0204 25.8952C71.9101 25.6455 71.8231 25.4013 71.9392 25.2126C71.6317 25.0683 71.2778 23.9307 71.3184 23.6255C71.2024 23.6477 71.069 23.4978 70.9529 23.3202C70.9529 23.2536 70.9529 23.1926 70.9645 23.126C70.9762 23.0372 70.9007 23.0039 70.8021 23.0261C70.7325 22.8652 70.7035 22.7264 70.7441 22.7042C70.5991 22.5766 70.4598 22.4434 70.3148 22.2991C70.2684 22.1881 70.222 22.0771 70.1698 21.9661C70.1814 21.9661 70.193 21.9717 70.2046 21.9772C70.0247 21.6054 69.8391 21.2613 69.6419 20.9284C69.6361 20.9228 69.6361 20.9173 69.6303 20.9117C69.201 20.1514 68.7021 19.4133 68.151 18.7307C67.9595 18.42 67.7623 18.0925 67.5535 17.7318C67.4896 17.7818 67.4084 17.7485 67.3272 17.6708C67.2866 17.3156 66.9037 16.9549 66.5904 16.633C66.515 16.3888 66.3932 16.1557 66.2366 15.9282C66.2482 15.9116 66.2598 15.8949 66.283 15.8783C66.1728 15.7395 66.1264 15.7229 66.0915 15.7395C66.0451 15.6785 65.9929 15.623 65.9465 15.5675C65.7377 15.3233 65.5056 15.0847 65.291 14.846C65.0647 14.613 64.8501 14.3799 64.6818 14.1357C64.1597 13.3532 63.6376 12.5485 63.0459 11.7827C62.431 11.0446 61.7406 10.3509 60.8298 9.91248C60.65 9.77374 60.6384 10.0179 60.476 9.90693C59.9423 9.42966 59.2345 8.9968 58.521 8.53618C57.7784 8.11996 57.0359 7.66491 56.3281 7.27644C55.3419 6.68818 54.4833 5.93898 53.3753 5.54496C52.7256 5.33408 52.1397 5.18425 51.5885 5.13985C51.0374 5.101 50.5269 5.1454 50.0454 5.28969C49.0824 4.90122 47.7191 5.32854 46.8548 4.69034C46.6401 4.71808 46.6169 4.92896 46.263 4.81797C46.0078 4.76803 46.0368 4.65704 45.915 4.57935C45.857 4.83463 46.002 4.80687 45.7989 4.99001C46.5473 5.05105 46.8722 5.17869 47.5509 5.1121C47.7191 5.18424 47.7598 5.27859 48.0324 5.33963C49.5407 5.36183 51.3391 5.49502 53.2361 6.10548C55.0577 6.71593 56.5718 7.97567 57.906 8.3364C58.1497 8.52508 57.8886 8.66938 58.0395 8.84696C58.7704 9.03565 59.0663 9.67385 59.7914 10.0956C60.2903 10.4119 60.9111 10.4563 61.4506 10.8615C61.9843 11.2888 62.3498 11.7105 62.7326 12.1545C63.0981 12.6096 63.4752 13.0868 64.0263 13.6362C64.0321 13.6695 64.0379 13.6973 64.0437 13.7306C63.7769 13.5197 63.5912 13.3199 63.1677 13.0091C63.2257 12.9092 63.3882 13.1534 63.4578 13.0979C63.1503 12.7927 62.8777 12.604 62.6456 12.4098C62.4136 12.2156 62.2221 12.0102 62.0539 11.6994C61.9263 11.8881 61.584 11.5108 61.4216 11.5995C61.7812 11.927 62.2453 12.3376 62.2395 12.6817C61.8857 12.4986 61.9437 12.1933 61.7348 12.1823C61.9553 12.5818 62.2163 12.7983 62.5238 13.0036C62.8313 13.2089 63.1387 13.4365 63.4868 13.8138C63.4404 13.8638 63.3824 13.8582 63.3186 13.8471C63.4984 14.1523 63.8581 14.3577 64.1249 14.5408C64.183 14.6296 64.2526 14.7128 64.3164 14.7961C64.27 14.7683 64.2236 14.7462 64.1655 14.7351C64.2236 14.8516 64.299 14.9737 64.3454 15.0902C64.2932 15.0625 64.2468 15.0458 64.2178 15.0514C64.2816 15.1124 64.3396 15.1735 64.3918 15.2345C64.4034 15.2956 64.4092 15.3566 64.3918 15.4065C63.9277 15.1624 63.4984 15.0458 63.0807 14.9515C63.0169 14.8627 62.9705 14.7739 62.9357 14.6962L62.8313 14.7961C62.8951 14.846 62.9357 14.8904 62.9705 14.9293C62.9067 14.9182 62.8487 14.9015 62.7849 14.8904C62.7559 14.8627 62.7268 14.8349 62.7036 14.8016C62.7559 14.7517 62.6572 14.5242 62.5818 14.6796C62.663 14.7573 62.6804 14.8127 62.6514 14.8571C62.5064 14.7739 62.3382 14.724 62.2221 14.613C62.0945 14.4909 62.0481 14.2966 61.9437 14.1579C61.7986 13.9692 61.3636 13.9692 61.2649 14.1856C61.2301 14.2578 61.1953 14.3188 61.1547 14.3854C61.0213 14.3188 60.8879 14.2411 60.7544 14.1579C60.8067 13.9248 60.7718 13.6862 60.6616 13.4476C60.6442 13.4143 60.5282 13.4087 60.4586 13.4087C60.4296 13.4087 60.3832 13.4365 60.3716 13.4642C60.3658 13.4753 60.36 13.4864 60.3542 13.5031C60.1511 13.4198 59.9423 13.3088 59.8901 13.0757C59.8321 13.1368 59.803 13.1978 59.8262 13.2755C59.9829 13.3754 60.1337 13.4587 60.3135 13.6307C60.3135 13.6473 60.3135 13.664 60.3194 13.6695C60.4064 13.7528 60.447 13.8471 60.4818 13.9415C60.0699 13.5641 59.687 13.2478 59.3041 13.0091C59.2171 12.9536 59.1301 12.9092 59.0489 12.8593C59.0605 12.8482 59.0721 12.8371 59.0837 12.826C59.0605 12.7983 59.0373 12.7705 59.0141 12.7428C58.9909 12.765 58.9677 12.7816 58.9503 12.8038C58.6776 12.654 58.4166 12.5374 58.1613 12.4375C58.0685 12.3487 57.9815 12.2599 57.9118 12.1823C57.819 12.1157 57.7146 12.0602 57.6102 11.9991C56.0787 10.6617 54.0715 9.36862 51.8728 8.41965C49.4711 7.35968 46.8896 6.71593 44.7315 6.49394C44.2384 6.27196 43.7743 6.10547 43.2638 6.00558C42.7533 5.90014 42.208 5.82244 41.5583 5.82244C40.8911 5.25084 39.5801 5.17315 38.3038 5.23419C37.9847 5.25084 37.6657 5.26749 37.3582 5.28413C37.0507 5.30633 36.7491 5.33408 36.4706 5.34518C35.9079 5.36183 35.4206 5.34518 35.0609 5.22864C34.4518 5.95564 32.3982 5.77805 31.6788 5.53387C31.5918 5.7947 31.2901 5.91124 30.9363 5.95564C30.5824 6.00558 30.1705 6.00003 29.8456 5.97783C29.8224 5.87794 30.3213 5.66151 29.7992 5.7725C29.5498 5.80025 29.573 5.91124 29.457 5.98339C29.2017 5.87239 28.8826 5.82245 28.726 5.63376C28.2561 5.69481 28.2271 5.87794 27.7572 5.93899C27.8442 5.7725 27.8906 5.59491 28.1633 5.47837C28.813 5.22864 28.9581 5.42288 29.3351 5.43398C29.2829 5.26194 29.0451 5.26194 29.399 5.1343C29.66 5.53387 30.1879 4.87347 30.5882 5.20089C30.3561 5.25639 30.1763 5.32298 30.1125 5.43398C30.5882 5.27304 31.1683 5.11765 31.586 4.98446C31.4526 5.00666 31.2553 4.99556 31.4468 4.93452C29.1437 4.85127 26.9915 5.25084 24.9668 5.92789C22.9364 6.61048 21.0278 7.56501 19.1076 8.70267C18.806 8.66937 18.3709 8.86361 17.9474 9.02455C16.9322 9.84588 16.1548 10.3509 16.3288 11.1556C17.5703 10.2954 18.4985 9.50181 20.7088 8.43629C21.2483 8.3697 21.724 8.4474 22.0024 8.76927C20.3897 9.79039 18.3419 10.3731 16.9554 11.5884C16.7581 11.766 16.7349 11.9048 16.5377 12.0546C15.3368 12.9703 14.6349 13.3144 13.7937 13.9193C12.1578 15.1013 10.7829 16.744 9.45442 18.2146C9.16436 18.5421 8.61325 18.6863 8.57844 19.2302C8.97873 18.8528 9.39061 18.4533 9.73288 18.0537C10.0868 17.6597 10.4058 17.2879 10.6089 16.9549C11.0614 16.6053 11.6705 16.128 12.2506 15.5952C12.8655 15.0958 13.4631 14.5408 13.991 14.1301C14.2926 13.9692 14.5769 13.8027 14.8495 13.6362C15.128 13.4753 15.3891 13.3144 15.6443 13.1479C16.149 12.8038 16.6421 12.4708 17.1468 12.1212C18.1562 11.422 19.2527 10.7061 20.7552 10.0845C21.0858 10.3398 21.3933 10.1067 21.8922 9.91248C22.0546 10.3009 22.4897 10.2899 23.0408 10.0956C23.2961 9.86808 22.7276 9.91803 22.9944 9.72934C23.3599 9.70715 23.708 9.70714 23.882 9.96797C23.5919 10.0845 23.2845 10.2565 23.0988 10.2288C23.3425 10.4896 23.9748 10.1733 24.1431 10.5507C23.6384 10.8115 23.1685 11.1112 22.716 11.4053C22.2751 11.7216 21.8458 12.0324 21.4281 12.3487C20.5927 12.9925 19.7748 13.6085 18.8176 14.1301C18.4637 14.1357 18.1678 13.9914 17.7849 14.0636C17.7791 14.4354 18.5449 14.108 18.8118 14.3077C18.6145 14.5852 18.3071 14.8571 18.0286 15.1402C17.9474 15.229 17.8662 15.3178 17.7849 15.401C17.7675 15.4066 17.7501 15.4121 17.7269 15.4176C17.3673 15.5009 16.9496 15.6174 16.7871 15.9782C16.7581 16.0392 16.7233 16.0947 16.6943 16.1502C16.4217 16.35 16.1722 16.5498 15.946 16.7495C15.9344 16.7551 15.9228 16.7606 15.9054 16.7662C15.8822 16.7995 15.8531 16.8217 15.8299 16.8494C15.7893 16.8883 15.7371 16.9271 15.6965 16.9715C15.4065 17.188 15.0352 17.1991 14.6581 17.1935C14.5247 17.1935 14.4551 17.2657 14.4203 17.3822C14.397 17.4488 14.3622 17.5209 14.3158 17.5709C14.1998 17.693 14.0954 17.9094 13.8749 17.6819C13.6719 17.7263 13.5675 17.8761 13.4979 18.037C13.3702 18.3367 13.1962 18.5476 12.8191 18.5254C12.7495 18.5199 12.6567 18.5476 12.6103 18.592C12.3492 18.8584 11.9663 19.0249 11.8445 19.4022C11.7691 19.6464 11.5603 19.5965 11.392 19.6242C11.363 19.6853 11.3398 19.7685 11.2992 19.7852C10.7249 19.9516 10.2956 20.3013 9.88951 20.7008C9.67487 20.9117 9.47763 21.1171 9.17017 21.2336C8.75828 21.3945 8.27098 21.5388 8.3522 22.1437C8.3638 22.2214 8.22457 22.3213 8.14335 22.4046C8.00412 22.5377 7.8649 22.6598 7.71407 22.7819C7.63865 22.843 7.56903 22.9873 7.44721 22.8485C7.36599 22.7542 7.15715 22.6987 7.31958 22.51C7.36599 22.4545 7.4008 22.3824 7.4008 22.3102C7.4008 22.2436 7.35439 22.177 7.33119 22.116C7.29638 22.1382 7.26737 22.1548 7.23256 22.177C6.97731 22.3602 6.82068 22.6265 6.83808 22.904C6.84969 23.0483 6.89029 23.1537 6.77427 23.2647C6.58283 23.4423 6.40879 23.6477 6.10133 23.6421C5.73005 23.6366 6.00271 23.8363 5.9737 23.9584C5.91569 24.1915 5.77646 24.4967 5.57342 24.5966C5.36458 24.7021 5.21955 24.8408 5.10933 24.9962C5.15574 24.7853 5.20795 24.5744 5.29496 24.3691C5.77066 23.1149 6.9193 21.7664 7.3892 20.5232C7.96352 20.3401 7.50522 20.1514 8.13755 19.6964C8.06214 19.5354 7.96932 19.2302 7.78368 19.319C7.70246 19.2968 7.60964 19.3689 7.51682 19.4411C7.23837 20.1403 6.79167 20.5454 6.61184 21.2058C5.23695 22.5488 4.45379 24.1471 3.88527 25.873C3.83306 25.8786 3.78665 25.8841 3.72864 25.8786C3.73444 25.9507 3.77505 26.0062 3.82726 26.0395C3.81566 26.0784 3.80405 26.1117 3.79245 26.1505C3.74024 26.317 3.69383 26.4835 3.64742 26.65C3.5488 26.711 3.45018 26.7665 3.33996 26.8165C3.14272 26.8997 3.00929 27.0662 3.00349 27.327C2.99189 28.0707 2.97448 28.0762 2.27254 28.4647C2.21453 28.498 2.15071 28.5146 2.0869 28.5313C2.0695 28.6645 1.99408 28.7422 1.86065 28.7588C1.87806 28.9364 2.16812 29.1029 1.86065 29.2971C1.70402 29.397 1.56479 29.5413 1.46617 29.6967C1.42556 29.7633 1.38495 29.8243 1.33854 29.8854C1.33854 29.8576 1.33274 29.8354 1.32694 29.8132C1.31534 29.8576 1.29794 29.9131 1.28053 29.9631C1.21672 30.0352 1.1413 30.1018 1.03108 30.1573C0.810636 30.2683 1.01948 30.4736 1.1065 30.6235C0.746823 31.0397 1.1123 31.6557 0.688811 32.0552C0.68301 32.3494 0.73522 32.6601 0.659804 32.9376C0.572786 33.254 0.410353 33.537 0.462563 33.8866C0.503172 34.1419 0.358142 34.2973 0.10289 34.3694C0.0564801 34.3805 -0.00153267 34.5193 0.0216721 34.5526C0.184106 34.7912 0.0796851 35.0132 0.0158719 35.2407C0.311733 35.5903 0.242118 36.0121 0.224714 36.4117C0.207311 36.8057 0.334937 37.2274 0.0216721 37.5826C-0.0363399 37.6492 0.027474 37.8046 0.149299 37.849C0.294329 37.9045 0.44516 37.9378 0.433558 38.132C0.427757 38.2819 0.433558 38.4262 0.445161 38.576C0.485769 39.1864 0.358142 39.8191 0.677208 40.4074C0.717817 40.4795 0.654003 40.6182 0.619196 40.7181C0.584389 40.8069 0.456763 40.868 0.572787 40.9901C0.752624 41.1732 0.706215 41.4063 0.688811 41.6227C0.654004 42.0889 0.659805 42.2998 0.770028 42.4884C0.932461 42.7715 1.06009 43.0822 1.34435 43.2987C1.45457 43.3819 1.588 43.5262 1.5938 43.6483C1.6112 43.9868 1.68082 44.2976 1.84905 44.5862C1.77944 45.1633 2.0695 45.6406 2.33055 46.1234C2.36536 46.1845 2.42337 46.2954 2.44657 46.2899C2.89327 46.1789 2.96288 46.6229 3.23554 46.7616C3.50819 46.9003 3.79245 47.028 4.07671 47.1556C4.12892 47.2777 4.18113 47.4054 4.23334 47.533C4.21594 47.5718 4.22754 47.6051 4.27395 47.6273C4.32036 47.7494 4.36677 47.8826 4.41318 48.0103C4.25075 48.1712 4.14052 48.321 4.31456 48.6041C4.5002 48.9037 4.56401 49.2756 4.65683 49.6196C4.68584 49.7362 4.72064 49.8361 4.83087 49.8694C4.9933 49.9193 5.09192 49.9526 4.9817 50.1524C4.90048 50.3078 4.94109 50.5464 4.83087 50.6685C4.55821 50.9626 4.91789 51.1236 4.94689 51.3511C4.95849 51.4676 5.15574 51.4565 5.23695 51.3955C5.4516 51.2346 5.62563 51.0348 5.83448 50.8738C6.03752 50.7184 5.92149 50.6075 5.85768 50.4299C5.73005 50.0802 5.80547 49.7084 5.85768 49.3421C5.86348 49.3144 5.90409 49.2922 5.92729 49.2645C5.9563 49.2922 6.00271 49.32 6.00271 49.3477C6.02011 49.6418 6.32178 49.7528 6.4378 49.9748C6.49581 50.0802 6.21155 50.2523 6.4378 50.3133C6.78587 50.4077 6.9251 50.6352 7.03532 50.9238C7.16875 51.2623 7.29638 51.6008 7.45301 51.9282C7.62125 52.289 7.81849 52.6441 8.00412 52.9993C8.05053 53.0937 8.13755 53.2046 8.12595 53.2934C8.07374 53.6708 8.25938 53.9483 8.53783 54.1536C8.8337 54.3701 8.8337 54.642 8.82789 54.9472C8.82209 55.1304 8.79309 55.3246 8.95552 55.4633C9.27459 55.7352 9.38481 56.1348 9.61106 56.4622C9.70968 56.6065 9.73288 56.3957 9.77349 56.3235C9.8025 56.268 9.85471 56.2236 9.89532 56.1737C9.91852 56.2014 9.96493 56.2347 9.96493 56.2625C9.95333 56.6953 10.081 57.1226 9.8373 57.55C9.66907 57.8441 9.77349 58.1715 9.97073 58.4823C10.3014 58.9984 10.342 59.0761 10.8583 59.2426C11.2934 59.3813 11.3688 59.459 11.3804 59.8419C11.392 60.1749 11.3514 60.5134 11.6879 60.7465C11.7459 60.7854 11.8213 60.863 11.8213 60.9241C11.8155 61.4402 12.2216 61.701 12.5465 62.0063C12.7901 62.2338 12.9874 62.5335 13.3586 62.6112C13.5269 62.9497 13.8285 63.1828 14.0606 63.4714C14.3158 63.7932 14.8321 63.8154 14.954 64.2594C14.9714 64.3315 15.0642 64.3093 15.1048 64.215C15.1338 64.1484 15.128 64.0707 15.1628 64.0041C15.1744 63.9819 15.1918 63.9597 15.2034 63.9375C15.3833 64.0763 15.5863 64.215 15.7835 64.3482C15.6443 64.215 15.4819 63.9764 15.3136 63.771C15.3194 63.7544 15.331 63.7433 15.331 63.7266C15.3658 63.549 15.2266 63.4935 15.0642 63.4492C14.9656 63.4214 14.8379 63.3326 14.8031 63.2494C14.7799 63.1883 14.7451 63.1384 14.7161 63.0829C14.7335 63.0829 14.7567 63.0884 14.7799 63.094C14.7393 63.044 14.7045 63.0218 14.6697 62.9996C14.4725 62.7055 14.1766 62.4891 13.9736 62.2005C13.8285 61.9896 13.5791 61.7787 13.5791 61.5623C13.5733 61.2959 13.7763 61.0295 13.8865 60.7632C13.9271 60.6633 13.962 60.5634 14.0084 60.4635C14.02 60.4302 14.0548 60.4024 14.0838 60.3802C14.2114 60.297 14.1186 60.3414 14.1476 60.4635C14.2114 60.741 14.368 60.8076 14.6291 60.802C14.8785 60.7965 14.8089 60.913 14.7451 61.0684C14.6465 61.3181 14.9308 61.196 15.0178 61.2737C15.1048 61.3459 15.1222 61.418 15.012 61.4291C14.6407 61.4513 14.7451 61.64 14.8321 61.8342C14.6407 62.0063 14.6349 62.2227 14.6929 62.4447C14.6987 62.478 14.7277 62.5224 14.7567 62.5335C14.7799 62.5446 14.8263 62.5113 14.8495 62.4891C14.9308 62.4114 15.0526 62.3392 15.0758 62.2449C15.186 61.8231 15.4529 61.6622 15.8996 61.6622C16.0678 61.7454 16.236 61.7898 16.3695 61.751C16.323 61.8509 16.2998 61.9452 16.3346 62.0507C16.3056 62.034 16.2882 62.0229 16.2824 62.0174C16.3056 62.0451 16.3346 62.0673 16.3579 62.0951C16.3811 62.145 16.4159 62.1894 16.4797 62.2394C16.5435 62.2893 16.5203 62.4003 16.4797 62.5002C16.4217 62.4613 16.3637 62.4169 16.294 62.3781C16.3811 62.195 15.9924 61.8065 15.9692 62.0285C16.3637 62.0729 15.9576 62.2338 16.0388 62.3115C16.1722 62.3781 16.2824 62.5168 16.4043 62.65C16.294 62.8775 16.2012 63.1051 16.12 63.3382C15.9924 63.71 15.9982 64.0652 16.3811 64.3204C16.7407 64.5591 16.8336 64.892 16.7639 65.2861C16.7465 65.3915 16.7697 65.508 16.7523 65.619C16.7465 65.669 16.7523 65.7134 16.7523 65.7578C16.6943 65.7467 16.6305 65.7356 16.5609 65.7134C16.6305 65.78 16.7001 65.8299 16.7697 65.8743C16.7755 65.9076 16.7871 65.9409 16.7987 65.9687C16.3405 65.7522 15.8706 65.3915 15.3949 65.003C15.0236 64.6922 14.6465 64.3704 14.2926 64.0707C13.9504 63.7599 13.6371 63.4602 13.3296 63.2494C13.4457 63.3493 12.9758 63.1217 12.8481 62.8997C12.8481 63.2827 13.5153 63.9653 13.6197 64.4925C13.8981 64.7367 14.0664 64.942 14.1012 65.1418C14.223 65.2306 14.3274 65.2916 14.4145 65.3083C14.2752 65.6967 16.004 66.7733 15.6617 66.8788C15.9692 67.0009 16.2476 67.0397 16.6653 67.2839C16.7581 67.2062 16.5841 67.1174 16.7175 67.0397C16.9322 67.1729 17.112 67.2506 17.2222 67.2229C16.7697 66.9343 16.5841 67.1008 16.1838 66.8899C16.3346 66.79 16.1606 66.5902 15.975 66.5736C15.7661 66.6346 16.207 66.7678 16.1142 66.8399C15.9982 66.7622 15.9924 66.901 15.8415 66.7678C16.1374 66.6568 15.2266 66.3682 15.157 66.063C15.2208 65.9964 15.2962 65.9687 15.4123 66.0075C15.8938 66.4237 15.7429 66.1185 16.0214 66.1962C16.2592 66.3294 16.1374 66.4348 16.2998 66.5625C16.4681 66.4015 16.8684 66.6346 17.1526 66.851C17.5529 66.9842 17.9706 67.012 18.3593 67.0564C18.3825 67.073 18.3999 67.0897 18.4231 67.1063C18.6435 67.295 18.9046 67.4448 19.154 67.6058C19.212 67.6446 19.2933 67.6113 19.2991 67.517C19.3107 67.3005 19.4093 67.0508 19.2468 66.8788C19.0264 66.6457 18.8582 66.3183 18.4289 66.3516C18.3361 66.3571 18.1968 66.2905 18.1388 66.2128C18.0576 66.1018 17.9822 65.9853 17.901 65.8743C17.9184 65.8632 17.9474 65.8521 17.9822 65.8466C17.9184 65.8188 17.872 65.7911 17.8256 65.7633C17.7037 65.5857 17.5877 65.4026 17.4659 65.2195C17.5819 64.9198 17.6863 64.6146 17.8198 64.3204C17.872 64.215 17.901 64.1206 17.8662 64.0152C17.8546 63.9875 17.8024 63.9431 17.8024 63.9431C17.3789 64.2705 17.3092 63.7988 17.112 63.6545C16.9612 63.549 16.9554 63.3715 16.967 63.205C17.2164 63.1217 17.3151 63.5823 17.5993 63.4714C17.6225 63.4936 17.6515 63.5213 17.6805 63.5435C17.8372 63.7599 18.1098 64.0263 18.4173 64.2316C18.7363 64.4536 19.038 64.6479 19.183 64.77C19.1598 64.72 19.3281 64.6534 19.3861 64.6756C19.5427 64.9087 20.3723 65.0141 19.9836 65.0696C20.2331 65.2361 20.3491 65.1584 20.4941 65.1362C19.8792 64.9087 19.3977 64.5258 18.951 64.4758C18.8756 64.2094 18.4869 64.043 18.1968 63.8654C18.0866 63.7932 17.988 63.7322 17.9126 63.6656C17.959 63.66 18.017 63.6323 18.0634 63.6156C18.0808 63.6101 18.0924 63.5546 18.0808 63.5379C18.046 63.4714 17.9822 63.4214 17.959 63.3548C17.9242 63.2549 17.8894 63.1328 18.017 63.0662C18.1156 63.0163 18.2258 62.9941 18.3361 63.0718C18.4231 63.1328 18.5159 63.1772 18.6087 63.2272C18.6203 63.3382 18.6029 63.4658 18.6609 63.5435C18.7131 63.6156 18.8466 63.6489 18.951 63.6656C19.1076 63.6878 19.2643 63.6711 19.4151 63.7155C19.3397 63.7433 19.2585 63.7322 19.4441 63.8321C19.5137 63.8321 19.5949 63.8432 19.6761 63.8654C19.7051 63.882 19.7342 63.8876 19.7632 63.8931C20.1982 64.0374 20.7146 64.4092 21.0452 64.4647C20.8422 64.3371 20.6449 64.2205 20.4535 64.0984C20.5695 64.104 20.6855 64.104 20.8074 64.0984C20.8364 64.0984 20.8712 64.0596 20.8828 64.0319C20.8886 64.0208 20.8654 63.9764 20.848 63.9653C20.6855 63.8598 20.5173 63.8654 20.3549 63.9653C20.3375 63.9764 20.3317 63.9986 20.3201 64.0208C20.2099 63.9542 20.1054 63.882 20.001 63.8154C20.1054 63.7433 20.204 63.66 20.3317 63.6822C20.4651 63.7044 20.6043 63.6989 20.7436 63.6878C20.8654 63.8043 20.9988 63.9153 21.1496 63.9819C21.1903 63.8598 21.4223 64.0929 21.4397 63.9264C21.4571 63.8876 21.4455 63.8487 21.4223 63.8099C21.6544 63.9264 21.8806 63.9098 22.1184 63.9042C22.3679 63.8987 22.5245 63.9375 22.6173 64.2205C22.6638 64.3648 22.774 64.4758 22.9248 64.5369C22.9016 64.6201 22.9886 64.72 23.0988 64.8199C22.8494 64.8088 22.7566 65.0363 22.4491 64.942C22.5767 65.0086 22.6696 65.0752 22.687 65.1529C22.5883 65.225 22.3737 65.1251 22.3041 65.2361C22.5883 65.3027 22.9016 65.4858 23.1859 65.7356C23.2845 65.5025 23.6964 65.78 23.8124 65.8577C23.6732 65.9409 23.4585 65.8743 23.2787 65.7245C23.3251 65.9798 22.9712 65.6579 22.9654 65.8466C23.2323 66.0297 24.2185 65.8688 24.4389 66.3682C23.8066 66.063 23.5977 66.2184 23.1743 66.1462C22.9596 66.3516 23.0292 66.5181 23.2033 66.6679L23.2555 66.5458C23.4179 66.5958 23.4353 66.6623 23.5281 66.7178C23.4643 66.7345 23.4063 66.7567 23.4933 66.8066C23.4295 66.9065 23.3947 66.7068 23.2207 66.679C23.4411 66.8621 23.8066 67.0231 24.0154 67.2173C24.6884 67.3838 25.576 67.972 26.1387 67.9887C25.9182 67.8555 25.3671 67.7556 25.3787 67.4837C25.6166 67.3172 25.7906 67.7445 25.9414 67.5725C25.6282 67.4004 25.4483 67.4559 25.3845 67.234C25.4831 67.2673 25.4831 67.1785 25.5644 67.1951C25.8486 67.3505 26.1503 67.5947 26.0633 67.7112C26.0865 67.5614 26.2431 67.8999 26.3069 67.7445C26.2083 67.6668 26.2431 67.5614 26.2257 67.467C25.8544 67.356 25.634 67.2062 25.6282 67.0175C26.1155 66.9787 26.4403 67.2118 26.8058 67.2451C26.8754 67.3783 26.9624 67.5003 27.0727 67.6058C27.1713 67.7001 27.2757 67.6779 27.3859 67.6391C27.4788 67.6058 27.531 67.467 27.6702 67.5503C27.8616 67.6613 28.0937 67.7334 28.2503 67.8777C28.6042 68.2218 29.0161 68.4549 29.486 68.6269C29.4918 68.6269 29.4918 68.6325 29.4918 68.638C29.4802 68.6546 29.4628 68.6713 29.457 68.6935C29.0161 68.6269 28.7028 68.7323 28.2619 68.5104C28.2793 68.5492 28.3141 68.5659 28.3431 68.5936C28.0647 68.5381 27.7804 68.4882 27.4904 68.4382C27.2931 68.7268 27.821 68.4327 27.7978 68.6713C27.6122 68.7157 27.0031 68.5881 26.9915 68.3883C27.1307 68.4493 27.2757 68.5104 27.4091 68.5492C27.3685 68.4438 27.1829 68.3772 27.0205 68.3106V68.305C27.0147 68.305 27.0031 68.2995 26.9973 68.2995C26.8986 68.2551 26.8058 68.2107 26.7652 68.1441C26.7072 68.1718 26.3185 68.1163 26.4925 68.2051C26.4984 68.2051 26.5158 68.2107 26.5216 68.2162C25.9414 68.0941 25.4019 67.9054 24.8856 67.7612C24.2301 67.5503 23.6036 67.3838 22.9538 67.3838C22.8262 67.123 22.5709 67.0231 22.3041 67.0009C21.6137 66.8066 21.08 66.4071 20.7204 66.0686C20.4999 66.3183 20.175 65.6468 19.8502 65.6357C19.856 65.5635 19.8038 65.5191 19.9198 65.5136C19.2294 65.4692 19.183 64.7477 18.4579 64.5147C18.7363 64.7144 18.0576 64.5813 18.6087 64.8754C18.7596 64.8365 18.5275 64.6201 18.7131 64.7145C18.5391 64.9475 19.1482 65.2306 19.2352 65.5635C19.7632 65.558 20.03 66.0075 20.5869 66.3183C20.5985 66.4237 20.5985 66.7456 20.848 66.7012C20.5347 66.5847 20.9814 66.5791 21.0336 66.5236C21.3353 66.6568 21.5789 66.851 21.8284 67.0231C21.6543 67.0564 21.5093 67.1063 21.4281 67.1563C21.4977 67.184 21.5615 67.2062 21.6311 67.234C21.6253 67.2839 21.6369 67.3117 21.5383 67.3727C21.8632 67.5836 21.9444 67.4615 22.13 67.4837C21.8922 67.7223 22.9538 67.9831 23.1569 68.2495C23.1801 68.1496 23.2729 68.1441 23.4469 68.2051C23.3889 68.2551 23.3193 68.244 23.3947 68.3383C24.9204 68.8433 26.3301 69.2318 27.7282 69.6314C28.2445 69.5981 29.6484 69.7812 29.486 70.2363C31.1857 70.7524 33.0073 70.8578 34.9159 71.0132C35.5598 70.7968 36.3488 70.9078 36.9347 70.9577C36.8477 70.9466 37.1087 70.8412 37.2712 70.8967C37.8745 71.0853 36.8593 71.274 36.3546 71.2518C36.7955 71.2463 36.3662 71.5626 36.2792 71.6736C35.3162 71.7624 34.533 71.7236 33.686 71.8068C33.4598 71.7791 33.4366 71.657 33.1755 71.6403C32.7985 71.8068 32.4214 71.4627 31.9805 71.4516C31.7252 71.4405 31.5164 71.6237 31.2669 71.5904C30.9827 71.5571 30.7564 71.3295 30.5186 71.2962C30.3736 71.274 30.1125 71.324 29.9907 71.3129C30.0023 71.3129 30.0661 71.2296 30.0893 71.2352C29.834 71.1964 29.6832 71.3073 29.4628 71.2851C29.4222 71.2796 29.4222 71.1353 29.4047 71.1298C29.1147 70.9855 28.6912 71.1409 28.3547 71.0798C28.1401 70.8911 28.6854 70.9355 28.3199 70.8301C28.2619 70.9799 27.908 70.8689 27.7572 70.9411C27.5774 70.6303 26.8 70.7357 26.9682 70.5082C26.6724 70.4749 26.2605 70.4472 25.866 70.3584C25.4773 70.2696 25.0945 70.1697 24.8392 70.0753C24.932 70.1142 24.903 70.1752 24.8798 70.2363C24.2591 70.0254 24.056 69.9588 23.6906 69.931C23.708 69.8867 23.7776 69.9033 23.8066 69.87C23.3367 69.7146 22.8958 69.5981 22.5187 69.4371C22.1417 69.2762 21.811 69.1208 21.5441 68.971C21.4397 68.9932 21.3527 69.0431 21.2251 69.0376C21.0742 68.8378 21.0046 68.86 20.8074 68.8988C20.6855 68.749 20.8364 68.6047 20.5695 68.5825C20.7842 68.8267 20.1866 68.5825 20.0068 68.5326C20.0474 68.4493 19.8154 68.3772 19.9314 68.2884C19.9604 68.1829 20.1866 68.3494 20.2331 68.2717C19.7109 68.0442 19.6471 68.1718 19.5021 68.355C19.6587 68.5104 19.9778 68.6602 20.1576 68.8156C20.4245 68.6435 21.2135 69.1763 21.3585 69.3594C21.2541 69.315 21.2541 69.4038 21.1612 69.3705C21.1728 69.315 21.2309 69.254 21.138 69.2041C20.5463 69.2596 20.1112 68.8822 19.4963 68.5603C19.5949 68.8156 19.2759 68.6158 19.183 68.7767C19.8212 69.0709 20.4709 69.3539 21.0452 69.6258C20.8306 69.426 21.3411 69.6036 21.4455 69.5981C21.5731 69.7313 21.9792 70.0587 22.1184 70.0531C22.0256 70.0032 22.0604 69.9477 22.0894 69.8867C22.3389 70.2474 22.8958 70.3306 23.3541 70.5637C22.832 70.3528 23.035 70.5471 22.6289 70.4583C22.977 70.6469 23.1627 70.7801 23.4933 70.708L23.4469 70.8412C23.8704 70.9078 24.3693 71.1131 24.8972 71.3295C25.1641 71.435 25.4309 71.5515 25.7036 71.6403C25.982 71.718 26.2605 71.7735 26.5332 71.8012C26.5332 71.8567 26.4867 71.9289 26.5854 71.9622C27.5426 72.0121 28.8246 72.6503 29.3235 72.5393C29.3293 72.728 28.871 72.7058 28.6796 72.5504C28.6738 72.8834 29.2365 72.7558 29.4686 72.7502C29.457 72.7502 29.4686 72.8446 29.4512 72.8446C29.8166 72.8501 30.0081 72.6614 30.391 72.6947C30.8783 72.7336 30.9827 73 31.6266 73.0055C31.4642 72.7613 32.2879 73.0777 32.5374 72.9833C32.0559 72.9112 32.3344 72.889 32.723 72.9278C33.1117 72.9556 33.6222 72.9944 33.6106 73.1553C33.3148 73.1276 33.2626 73.2441 33.0595 73.2663C33.5584 73.2719 33.3206 73.3274 33.4076 73.5216C33.8137 73.4883 33.8543 73.6215 34.1327 73.6493C34.0979 73.4994 33.7324 73.4994 33.599 73.3884C33.7208 73.394 33.7963 73.3773 33.8717 73.3551C34.0805 73.4217 34.2081 73.6659 34.4112 73.4717C34.3996 73.5549 34.4286 73.6215 34.4982 73.6659C33.7615 73.6881 33.2567 73.7103 32.7636 73.6936C32.2763 73.6437 31.8006 73.5549 31.1277 73.3718C30.71 73.3884 30.2923 73.2885 29.8747 73.1998C29.4512 73.111 29.0277 73.0444 28.581 73.061C28.5868 72.9722 28.2909 72.9611 28.3431 72.8612C27.2003 72.728 26.1329 72.001 25.1467 72.0621C25.3903 72.1564 25.7558 72.2008 25.7326 72.334C25.4541 72.273 24.1837 71.9955 24.5666 71.7735C24.3519 71.7291 24.1489 71.7069 23.8588 71.5848C23.6616 71.7291 24.3055 71.7457 24.2475 71.8678C23.8472 71.7568 22.9364 71.5404 22.7392 71.2019C21.9444 70.9522 21.2831 70.6358 20.6855 70.3639C20.0938 70.0809 19.5775 69.7923 19.1482 69.4482C18.9858 69.6425 19.0322 69.2762 18.864 69.2096C18.6319 69.1541 18.8292 69.4538 18.6725 69.3761C18.5913 69.3317 18.5623 69.3595 18.4927 69.3317C18.1678 69.1985 18.2664 69.0709 18.0866 68.9432C17.9242 69.0043 17.5587 68.749 17.2512 68.5825C17.3731 68.2384 16.6943 68.1108 16.3869 67.9165C15.7487 67.5447 15.099 66.9842 14.4493 66.4903C13.8169 65.9797 13.1846 65.5302 12.7437 65.1584C13.3586 65.8355 13.7067 65.891 14.1824 66.5125C14.6755 66.7456 15.157 67.1063 15.6443 67.4892C16.1432 67.8555 16.6711 68.2107 17.1932 68.4937C17.1178 68.5881 17.2396 68.6879 17.228 68.7878C17.1004 68.7934 16.8916 68.6824 16.7581 68.6824C17.0134 68.9488 18.0054 69.1708 18.3825 69.7091C18.4985 69.5981 18.7189 69.8145 18.8988 69.9144C19.3165 69.7535 20.5521 70.3417 21.0046 70.6081C20.9466 70.6802 20.2447 70.2751 20.4651 70.4694C20.7146 70.5803 20.9756 70.6913 20.9118 70.8245C20.7552 70.7857 20.4419 70.5526 20.3897 70.6414C20.6275 70.8245 21.2135 70.991 20.9466 71.2019C21.2889 71.3906 20.906 70.9855 21.2773 71.1408C21.2831 71.1852 21.3295 71.2241 21.4281 71.2574C21.4513 71.5071 21.1845 71.4017 21.0452 71.4516C21.3759 71.7346 21.4745 71.5682 21.5267 71.5071C21.7414 71.7402 21.2367 71.5737 21.4165 71.768C21.7472 72.0066 22.1533 72.1509 22.3505 72.2175C22.2519 72.1731 22.2287 72.1176 22.2055 72.0676C22.3505 72.1509 22.6231 72.0676 22.6464 72.223C22.5419 72.1953 22.3969 72.1287 22.3621 72.1731C22.8146 72.4672 23.6616 72.6392 23.8878 72.95C24.1257 72.9667 23.7718 72.7613 24.0386 72.8002C24.5723 72.9056 24.4505 73.111 24.787 73.2497C24.8566 73.1997 24.7522 72.9833 24.9436 73.0555C25.2511 73.1886 25.8428 73.2108 25.721 73.4162C25.6166 73.4273 25.0132 73.283 25.2337 73.394C25.7732 73.4384 26.1097 73.6271 26.3823 73.4828C26.7362 73.6271 26.2547 73.7103 26.5912 73.8213C26.7246 73.8268 26.6492 73.6493 26.8174 73.6826C26.916 73.7935 27.85 74.2209 27.4381 73.9267C27.821 74.0599 27.8964 74.071 28.4476 74.2042C28.4766 74.1376 28.4476 74.0266 28.5752 74.0377C29.3351 74.2764 30.0719 74.3485 30.7796 74.4428C31.4874 74.5205 32.1719 74.6093 32.8623 74.7314C32.9029 74.6537 32.7346 74.6038 32.8739 74.5927C33.396 74.6926 33.8253 74.7814 34.1849 74.6093C34.1849 74.6759 34.1385 74.7092 34.0863 74.7481C34.475 74.6815 34.9623 74.8036 35.3104 74.8924C35.0493 75.0699 34.5678 74.8924 34.4518 75.192C35.1131 75.192 35.4032 74.8147 36.1573 74.9201C36.285 74.8147 35.9137 74.737 36.1516 74.7314C36.4358 74.798 36.517 74.7869 36.7143 74.687C36.7143 74.848 36.9927 74.848 37.19 74.9035C37.9267 74.6926 38.6751 74.9756 39.3364 74.6482C39.7135 74.6537 40.1312 74.6593 40.5663 74.626C41.0014 74.576 41.448 74.515 41.8831 74.4373C42.7591 74.2875 43.5829 74.0988 44.1514 73.9101C44.2616 74.0155 44.6735 73.8435 44.6677 74.0377C45.1492 73.7436 45.5147 73.9545 45.8337 73.6548C45.7177 73.677 45.6133 73.6937 45.6249 73.6104C45.8338 73.5161 45.857 73.5216 46.2456 73.4051C46.2746 73.4717 46.2804 73.566 46.4719 73.4939C46.6749 73.1276 47.4871 73.2275 47.9396 73.1553C47.9338 73.061 47.783 73.0999 47.7075 73.0721C48.0556 72.9611 48.6763 72.6892 48.8446 72.8945C48.6357 73.0222 48.4617 72.8113 48.3863 73.0055C48.5139 72.9722 48.5255 73.0666 48.6125 73.0777C49.4885 72.4894 50.8402 72.0898 51.4783 71.89C51.7046 71.8068 51.7394 71.6126 51.8438 71.5682C52.1106 71.4572 52.4181 71.5515 52.8416 71.2629C52.7662 71.3129 52.9634 71.213 53.1781 71.102C53.2651 71.0632 54.0947 70.5581 54.4079 70.6192C54.5065 70.708 53.7814 70.9966 54.0599 70.9466C54.3557 70.7857 54.4311 70.6858 54.7386 70.6192C54.64 70.5304 54.727 70.4305 54.8604 70.3639C54.988 70.2862 55.1679 70.2252 55.2665 70.2307C55.0519 70.4472 54.6806 70.6414 54.6458 70.8301C55.1447 70.5248 55.951 69.7701 56.1193 70.1752C56.0961 70.1364 56.2295 70.042 56.2817 70.0809C56.0149 70.375 56.2005 70.3806 55.9742 70.6469C56.3919 70.1641 56.9024 69.9421 57.3897 69.698C57.8712 69.4482 58.3527 69.2152 58.608 68.6491C58.6834 68.7101 58.5848 68.7934 58.6486 68.8544C58.8923 68.6879 58.7762 68.5825 59.1243 68.3938C59.1649 68.4771 59.2751 68.416 59.3215 68.4882C59.5072 68.3328 59.7276 68.1663 59.7972 68.0275C59.4724 68.2884 59.2635 68.3161 59.1127 68.2273C59.6638 67.9165 59.774 67.5725 60.389 67.4171C60.0583 67.6058 60.2555 67.6946 59.9191 67.8777C60.0641 67.911 60.1395 68.0941 60.4122 67.8722C60.3774 67.8111 60.2729 67.7556 60.3658 67.6724C60.447 67.8666 61.5144 67.2062 61.9031 66.851C61.8567 66.6568 61.6304 66.9065 61.5608 66.7622C61.6826 66.729 61.8509 66.5847 62.0191 66.4293C61.9495 66.6402 61.9901 66.5902 62.1467 66.7012C62.4078 66.5347 62.1351 66.5014 62.3324 66.3516C62.4484 66.4903 62.7733 66.0963 62.9299 66.1518C63.1271 65.7633 63.3128 65.78 63.3534 65.9021C63.5274 65.5691 63.6666 65.508 63.7479 65.2306C63.9335 65.1917 63.7885 65.2805 63.8871 65.3637C64.1539 65.0585 64.1365 65.1029 64.415 64.9531C64.4846 64.8199 64.4846 64.7034 64.5426 64.5591C64.7341 64.5036 64.8327 64.3038 64.7167 64.5868C65.5114 63.8987 65.3258 63.2882 65.7493 62.9996C65.5114 62.7333 65.9117 62.5057 66.2424 62.3226C66.2424 62.1617 65.9349 62.3892 66.0915 62.206C66.3468 62.0784 66.4918 61.923 66.6833 61.6123C66.8573 61.64 66.7123 61.8176 66.7645 61.9008C66.8283 61.6899 67.0835 61.5124 67.0719 61.4347C66.9675 61.5235 66.8689 61.5678 66.7819 61.5678C66.9211 61.3958 66.8863 61.307 67.0893 61.1017L67.2054 61.1849C67.4722 60.4135 68.3366 59.681 68.3598 59.287C68.499 59.0261 68.5803 59.1982 68.7079 59.0705C68.6557 59.0317 68.5919 59.0483 68.528 59.0705C68.5919 58.843 69.4736 58.1049 68.9457 58.4601C69.1952 58.1049 69.433 58.0883 69.4736 57.8052C69.346 57.9828 69.2474 57.9218 69.346 57.7331C69.3402 57.8774 69.4446 57.8663 69.5723 57.6499C69.5491 57.5333 69.6303 57.3557 69.6883 57.1892C69.6709 57.4612 69.99 56.8729 70.019 56.7397C69.9725 56.7952 69.9203 56.8951 69.8797 56.8729C69.9609 56.7064 70.1292 56.2403 70.3148 56.1681C70.3438 56.2458 70.135 56.4734 70.2104 56.5288C70.4482 56.3013 70.367 56.1459 70.5063 55.8573C70.8485 55.8685 70.7267 54.9528 71.1038 55.0249C70.8485 55.3135 70.8195 55.6354 70.7615 55.9073C70.6977 56.1737 70.6281 56.4012 70.3438 56.5011C70.5817 56.6398 70.2684 56.8285 70.1292 57.2225C70.3206 57.2059 70.1582 57.4001 70.2046 57.4723C70.4656 57.1226 70.2974 57.2225 70.3148 57.1115C70.4076 57.0616 70.5062 56.8285 70.5933 56.9395C70.5411 57.0339 70.4482 57.1615 70.4889 57.2003C70.6571 56.8507 70.8137 56.712 70.9587 56.7064C71.0342 56.4678 71.1502 56.2958 71.301 56.0627C71.4402 55.8185 71.6085 55.5188 71.8115 55.0416C71.8115 54.8529 71.6143 55.0971 71.7187 54.7974C72.4555 53.7929 72.5715 52.6497 72.9776 51.8062C72.9021 51.5786 72.6527 51.8728 72.7977 51.451C72.9428 51.2623 73.0182 51.3511 73.111 51.4565C73.227 50.6019 73.6969 50.1801 73.958 49.2978C73.6679 48.8316 74.3873 47.705 74.2016 47.0835C74.161 47.5108 74.0218 48.0436 73.8013 48.21C73.7201 47.8382 73.929 46.7949 74.2248 46.9891C74.1784 46.473 74.6483 46.1234 74.3931 45.907C74.7469 45.8681 74.9094 44.8359 74.892 44.231C74.892 44.3198 74.9674 44.1034 74.9964 43.8758C75.0718 43.2765 75.1762 42.605 75.2516 41.9446C75.2806 41.4285 75.2748 40.9124 75.2284 40.4406C75.2806 40.4406 75.3387 40.4462 75.4083 40.4684C75.3677 39.9023 75.3271 39.3418 75.2864 38.7869C75.298 38.798 75.3097 38.8035 75.3387 38.7924C75.2574 38.5149 75.2807 38.4151 75.24 38.1542C75.2226 37.9655 75.211 37.7824 75.1936 37.5937C75.2923 37.3606 75.3677 36.9389 75.3909 36.7002C75.4025 36.8778 75.5301 36.8057 75.5069 37.0554C75.4373 37.455 75.4663 37.9489 75.6519 38.2375C75.6171 38.4262 75.5707 38.4317 75.5011 38.3318C75.6229 39.3973 75.4663 40.1909 75.6751 41.1676C75.5069 40.9235 75.5011 42.0611 75.6867 41.8114C75.5475 42.4274 75.4025 43.2154 75.3271 43.9979C75.2864 44.3919 75.2574 44.7804 75.2516 45.1467C75.2458 45.3298 75.2458 45.5074 75.2516 45.6739C75.2458 45.8404 75.2458 45.9958 75.2516 46.1456C75.3155 45.6905 75.5939 44.8914 75.4605 44.4863C75.6403 44.7249 75.5591 44.0867 75.4837 44.0201L75.6287 44.0368C75.942 42.0611 75.9768 39.9634 76 37.9378ZM62.1235 12.2766C62.2918 12.1989 62.3962 12.4431 62.46 12.5707C62.3672 12.6373 62.1467 12.3376 62.1235 12.2766ZM21.4339 69.4038C21.4513 69.1596 21.8574 69.5148 21.8922 69.4538C22.101 69.6369 21.6427 69.5315 21.4339 69.4038ZM24.2475 70.9855C24.3693 70.7413 24.5201 71.0632 24.8566 71.1408C24.787 71.2296 24.4331 71.0188 24.2475 70.9855ZM24.9552 70.2751C24.9958 70.153 25.3787 70.2973 25.4657 70.3972C25.4193 70.4915 25.1061 70.2973 24.9552 70.2751ZM31.0291 72.6614C31.1103 72.6337 31.2379 72.6392 31.3888 72.6614C31.3714 72.728 31.3598 72.7946 31.4584 72.8168C31.383 72.9112 30.9073 72.7835 31.0291 72.6614ZM33.8717 73.1831C33.8137 73.0499 34.0573 73.0943 34.0573 73.0055C33.3496 72.839 32.6128 72.9389 32.3866 72.556C32.9957 72.7225 33.2451 72.5893 33.7208 72.5171C33.8369 72.5671 33.8891 72.6503 34.0689 72.6725C33.9297 72.778 33.8485 72.7336 33.6222 72.7003C33.686 72.8834 33.9239 72.9889 34.3242 73.0166C34.388 73.1942 34.1791 73.2164 33.8717 73.1831ZM72.2872 47.1223C72.3974 47.1334 72.2292 47.4275 72.2234 47.5552C72.1944 47.5108 72.1654 47.4609 72.1538 47.3943C72.1886 47.3166 72.2234 47.2444 72.2524 47.1667C72.264 47.1667 72.2756 47.1556 72.2872 47.1223ZM71.4983 53.1991C71.301 53.5154 71.3532 53.4766 71.1792 53.8539C71.0342 53.9594 70.8833 53.8096 71.0748 53.5154C71.2198 53.8762 71.2256 53.1436 71.4983 53.1991ZM47.7017 70.6358C47.6785 70.7524 47.2492 70.8301 47.052 70.8967C47.1274 70.6414 47.3537 70.7413 47.7017 70.6358ZM43.1014 72.6004C42.6025 72.6448 42.3704 72.5782 41.8135 72.5615C42.0688 72.3118 42.5967 72.4228 43.1188 72.2619C43.113 72.3784 43.0144 72.4616 43.1014 72.6004ZM40.3748 72.6337C40.3052 72.7946 40.0732 72.6392 40.0151 72.617C39.9745 72.5116 40.2646 72.5504 40.2588 72.4561C40.5721 72.4283 40.0674 72.667 40.3748 72.6337ZM41.448 72.5726C41.4074 72.6892 41.1754 72.7391 41.1348 72.8557C40.9955 72.7336 40.369 72.9611 40.3052 72.7835C40.7171 72.8668 40.9839 72.5393 41.448 72.5726ZM40.7867 71.9011C40.5024 71.9677 40.2472 72.0565 39.7773 72.1176C39.5743 71.8789 39.9803 71.7902 40.4908 71.6681C41.0014 71.5571 41.6279 71.4794 41.8715 71.4128C42.2544 71.4794 42.3588 71.657 41.8541 71.7957C41.8657 71.7569 41.9353 71.7347 41.9237 71.6903C41.3726 71.7735 41.071 71.8345 40.7867 71.9011ZM39.9339 72.6725C39.29 72.8335 37.7875 72.839 38.1472 72.5948C38.6055 72.7669 39.1914 72.5282 39.9339 72.6725ZM42.3414 71.5793C42.2892 71.4627 42.4981 71.4294 42.6547 71.385C42.6779 71.5071 42.5097 71.6403 42.3414 71.5793ZM42.997 70.153C42.3994 70.2363 41.7961 70.2918 41.332 70.3528C41.129 70.4305 41.4364 70.547 41.6163 70.5026C41.5583 70.6469 41.2624 70.5415 41.1174 70.5804C41.0942 70.4971 41.2044 70.4694 41.1696 70.3806C41.1174 70.2807 40.7577 70.425 40.5837 70.4194C41.1116 70.1086 41.6627 69.9976 42.3008 69.9255C42.6199 69.8922 42.9622 69.8589 43.3218 69.82C43.6815 69.7645 44.0644 69.6758 44.4821 69.5648C44.4937 69.6314 44.5053 69.698 44.6039 69.6813C44.3893 69.7868 44.1398 69.8811 43.8671 69.9643C43.7337 70.0087 43.5887 70.0476 43.4437 70.0809C43.2928 70.1031 43.1478 70.1308 42.997 70.153ZM23.2671 64.5591C23.3019 64.5535 23.3425 64.5591 23.3773 64.5757C23.3715 64.5868 23.3773 64.5979 23.3657 64.609C23.2555 64.5868 23.2033 64.5757 23.1743 64.5591C23.2091 64.5591 23.2381 64.5646 23.2671 64.5591ZM18.6087 62.6667C18.5855 62.6889 18.5565 62.7111 18.5333 62.7333C18.5101 62.7222 18.4869 62.7111 18.4637 62.7C18.4753 62.6833 18.4869 62.6667 18.4985 62.65C18.5101 62.6334 18.5217 62.6167 18.5333 62.6001C18.5565 62.6223 18.5797 62.6445 18.6087 62.6667ZM33.4598 10.8171C33.396 10.8781 33.2974 10.9114 33.1465 10.9225C33.1233 10.9225 33.1001 10.9225 33.0769 10.9225C33.0131 10.9003 32.9087 10.917 32.8043 10.9281C33.0131 10.8226 33.2335 10.8004 33.4598 10.8171ZM73.9 29.4081C73.9638 29.6134 73.9116 29.7022 73.8536 29.7855C73.7839 29.5357 73.7665 29.2749 73.6853 29.0252C73.6911 28.9752 73.6969 28.9308 73.7085 28.8975C73.8709 29.4192 73.6563 29.3748 73.9 29.4081ZM74.0218 29.8465C74.0508 30.0075 74.0798 30.124 74.103 30.2294C74.0914 30.2239 74.0856 30.2183 74.0682 30.2183C74.0334 30.1739 74.0044 30.1295 73.9812 30.0852C73.9348 29.9409 73.9 29.8132 74.0218 29.8465ZM73.7027 41.595C73.7143 41.4729 73.6911 41.4007 73.6505 41.3563C73.6679 41.151 73.6969 40.9568 73.7433 40.8125C73.7781 40.868 73.8071 40.929 73.8361 40.9901C73.8477 40.9068 73.8129 40.7847 73.8013 40.6737C73.8071 40.6626 73.8129 40.646 73.8187 40.6349C73.8129 40.6127 73.8071 40.5849 73.8013 40.5572C73.8071 40.5183 73.8245 40.485 73.8594 40.4628C73.871 40.6293 73.9928 40.6238 73.9348 40.9068C73.6041 41.2453 73.8245 41.0566 73.7027 41.595ZM43.2174 11.2943C43.1594 11.3054 43.1304 11.2888 43.113 11.2666C43.1478 11.2555 43.1884 11.2499 43.229 11.2388C43.229 11.2666 43.2232 11.2943 43.2174 11.2943ZM66.8631 20.2624C66.7123 20.2513 66.5846 20.2125 66.573 20.0349C66.573 20.0293 66.573 20.0293 66.573 20.0238C66.6717 20.0959 66.7703 20.1736 66.8631 20.2624ZM73.6099 38.8812C73.5983 38.7425 73.5867 38.5982 73.5751 38.4539C73.5809 38.4428 73.5867 38.4317 73.5867 38.4206C73.6215 38.3152 73.7201 38.2264 73.8129 38.1376C73.8129 38.2819 73.8129 38.4317 73.8187 38.576C73.8303 38.8979 73.8536 39.2086 73.9058 39.5028C73.8303 39.5083 73.7375 39.4917 73.7491 39.6748C73.8245 39.6915 73.9348 39.6471 73.9406 39.7636C73.9058 40.0244 73.8478 40.2353 73.7607 40.4018C73.6621 39.9745 73.6331 39.4417 73.6099 38.8812ZM73.7897 37.6381C73.7897 37.6603 73.7897 37.6881 73.7955 37.7103C73.7839 37.6825 73.7839 37.6603 73.7897 37.6381ZM68.9747 22.449C68.8645 22.338 68.8877 22.1826 69.0269 22.0771C69.0386 22.0716 69.0502 22.066 69.0676 22.066C69.23 22.2547 69.3808 22.4711 69.5259 22.7153C69.317 22.7542 69.201 22.682 68.9747 22.449ZM68.8123 21.8052C68.6441 21.7608 68.5339 21.6554 68.4758 21.4944C68.5919 21.5888 68.7021 21.6887 68.8123 21.8052ZM73.6447 41.434C73.6621 41.5395 73.6563 41.656 73.6331 41.7725C73.6331 41.6615 73.6331 41.545 73.6447 41.434ZM74.7411 33.2706C74.7643 33.204 74.7991 33.1319 74.8398 33.0653C74.8456 33.2151 74.8224 33.3428 74.7585 33.3927C74.7527 33.3538 74.7469 33.3095 74.7411 33.2706ZM74.6251 32.3993C74.6251 32.3716 74.6251 32.3327 74.6309 32.3105C74.6657 32.3494 74.6947 32.4104 74.7237 32.4881C74.6947 32.4659 74.6599 32.4382 74.6251 32.3993ZM74.3293 31.4448C74.2074 31.7001 74.3815 32.0053 74.4685 31.972C74.4569 32.0886 74.4221 32.1274 74.3815 32.1329C74.3409 32.083 74.3002 32.033 74.2654 31.9831C74.2538 31.9498 74.248 31.9165 74.2422 31.8832C74.1958 31.8277 74.1436 31.7778 74.0914 31.7334C74.0624 31.6834 74.0334 31.639 74.0218 31.6113C73.9812 31.5169 74.0972 31.3893 74.219 31.406C74.248 31.4115 74.2828 31.417 74.3118 31.4281C74.3234 31.4337 74.3235 31.4392 74.3293 31.4448ZM73.6389 28.9086C73.6331 28.9031 73.6331 28.892 73.6273 28.8809C73.6099 28.842 73.6099 28.8143 73.6157 28.781C73.6273 28.8254 73.6331 28.8698 73.6389 28.9086ZM34.0225 10.9336C33.9645 10.928 33.9181 10.9169 33.8717 10.8947C33.9181 10.9058 33.9703 10.9169 34.0225 10.9336ZM45.8047 70.7357C45.8744 70.9355 45.5437 70.7801 45.3116 70.9078C45.3929 70.769 45.5785 70.7579 45.8047 70.7357ZM64.8095 62.0174C64.9023 62.1727 64.5542 62.2782 64.3512 62.5779C64.2932 62.5168 64.1945 62.5945 64.1423 62.5224C64.3744 62.3337 64.6064 62.1283 64.8095 62.0174ZM65.262 61.4569C65.3084 61.5068 65.3606 61.5512 65.436 61.479C65.5462 61.5678 65.1808 61.9286 65.0473 61.973C64.9835 61.8564 65.0647 61.6788 65.262 61.4569ZM72.4439 46.695C72.4613 46.7061 72.4787 46.7117 72.4961 46.7228C72.438 46.8504 72.4148 46.8615 72.3858 46.8448C72.4032 46.7893 72.4265 46.745 72.4439 46.695ZM73.5113 43.1655C73.5055 43.0933 73.4997 43.0267 73.4881 42.9657C73.5171 42.938 73.5461 42.9158 73.5751 42.9047C73.5693 42.9879 73.5461 43.0767 73.5113 43.1655ZM73.6911 42.5994C73.6737 42.4884 73.6563 42.3441 73.6447 42.1888C73.6737 42.0611 73.7085 41.9446 73.7839 41.7781C73.7607 42.1721 73.7201 42.2997 73.7375 42.5883C73.7259 42.5939 73.7085 42.5994 73.6911 42.5994ZM74.863 34.8966C74.9094 34.6802 74.9268 34.4638 74.8862 34.1974C75.1588 34.3028 75.0428 34.9244 74.9036 35.1464C74.892 35.0631 74.8746 34.9799 74.863 34.8966ZM74.7875 33.5703C74.8746 33.6702 74.9268 33.8644 74.9674 34.0919C74.7934 34.1974 74.7353 33.7146 74.7875 33.5703ZM74.0914 29.1695L73.9 29.2194C73.8303 29.0696 73.9406 28.8199 73.7781 28.781C73.7433 28.4758 73.9 28.8532 73.9464 28.831C73.9696 28.7144 73.9058 28.6478 73.8245 28.559C73.8594 28.5313 73.8884 28.5035 73.9174 28.4758C74.0392 28.6589 74.1262 28.8864 74.0914 29.1695ZM73.7143 27.66C73.6505 27.6544 73.6157 27.4935 73.5809 27.3659C73.5867 27.3659 73.5925 27.3659 73.5983 27.3659C73.6447 27.3603 73.6853 27.327 73.7143 27.2882C73.8361 27.5379 73.6969 27.5157 73.7143 27.66ZM72.9196 26.7832C72.937 26.7721 72.9834 26.7776 73.0066 26.7943C73.1748 26.8997 73.285 27.0329 73.3256 27.2327C73.343 27.327 73.4243 27.3603 73.5171 27.3659C73.5345 27.438 73.5461 27.5157 73.5461 27.6156C73.4997 27.6267 73.5113 27.7044 73.4765 27.7321C73.3546 27.327 73.1226 27.4658 73.4069 27.66C73.4185 27.7155 73.4301 27.771 73.4417 27.8265C73.285 27.8209 73.1284 27.8209 72.9718 27.8043C72.9254 27.7987 72.8557 27.6877 72.8673 27.6378C72.9021 27.5046 73.0298 27.3714 73.0124 27.2604C72.9892 27.1328 72.8209 27.0384 72.8557 26.872C72.8557 26.8387 72.8848 26.8054 72.9196 26.7832ZM71.2604 23.8474C71.2024 23.8197 71.1444 23.7975 71.0864 23.8252C71.0516 23.742 71.011 23.6754 70.9762 23.6144C70.9645 23.5589 70.9587 23.4978 70.9587 23.4423C71.0516 23.5644 71.1618 23.7143 71.2604 23.8474ZM64.9487 15.5675C64.9835 15.6063 65.0241 15.6507 65.0589 15.6896C65.0531 15.7007 65.0473 15.7173 65.0357 15.7284C64.8327 15.6896 64.7341 15.4343 64.6122 15.1901C64.7225 15.3178 64.8327 15.4454 64.9487 15.5675ZM61.584 14.5408C61.6014 14.5519 61.613 14.5741 61.6246 14.5963C61.584 14.5797 61.5434 14.563 61.5028 14.5519C61.5202 14.5297 61.5492 14.5186 61.584 14.5408ZM32.1313 11.0168C32.1313 11.0557 32.1313 11.0945 32.1371 11.1278C32.2299 11.1278 32.288 11.0779 32.3228 11.0113C32.4794 11.0113 32.636 11.0168 32.7985 11.0224C32.7404 11.1445 32.6244 11.2222 32.5142 11.2943C32.3286 11.4109 32.1951 11.3443 32.1313 11.15C32.0675 11.1722 31.9979 11.1889 31.9341 11.2166C31.6266 11.3665 31.5164 11.3609 31.354 11.1611C31.3482 11.1556 31.3424 11.1445 31.3365 11.1389C31.5976 11.0557 31.8587 11.0279 32.1313 11.0168ZM29.863 11.3609C30.1299 11.311 30.3852 11.2888 30.6172 11.2888C30.5592 11.3387 30.4838 11.372 30.3619 11.3665C30.2865 11.3665 30.1821 11.3665 30.1473 11.4109C29.8863 11.7272 29.4686 11.4664 29.1785 11.6661C28.9755 11.8049 28.8594 11.7327 28.7608 11.6273C29.1321 11.5052 29.5092 11.422 29.863 11.3609ZM10.5741 56.0183C10.5392 56.0127 10.5102 55.9073 10.516 55.8518C10.5218 55.8241 10.5392 55.7963 10.5567 55.7686C10.5741 55.7408 10.5973 55.7186 10.6147 55.6909C10.6437 55.7463 10.6901 55.7963 10.7017 55.8518C10.7191 55.9406 10.7075 56.046 10.5741 56.0183ZM11.6357 58.8097C11.6241 58.8597 11.5545 58.893 11.5139 58.9374C11.4906 58.9096 11.4442 58.8874 11.4442 58.8597C11.4326 58.7598 11.4326 58.6599 11.4268 58.56C11.421 58.56 11.4152 58.56 11.4094 58.56C11.4094 58.5544 11.4094 58.5433 11.4094 58.5378C11.3572 58.5156 11.305 58.4934 11.2586 58.4656C11.247 58.4601 11.2644 58.3935 11.2702 58.3935C11.3978 58.3768 11.4036 58.4545 11.4094 58.5378C11.4152 58.5378 11.421 58.5433 11.4268 58.5433C11.4268 58.5489 11.4268 58.5544 11.4268 58.56C11.5951 58.56 11.6821 58.6432 11.6357 58.8097ZM12.3376 59.4202C12.2796 59.3869 12.2216 59.3536 12.1578 59.3203C12.2216 59.287 12.2854 59.2315 12.3492 59.237C12.413 59.237 12.471 59.2981 12.5349 59.3369C12.471 59.3591 12.4014 59.3924 12.3376 59.4202ZM12.8075 59.8974C12.8017 59.9807 12.7959 60.0639 12.6625 60.0417C12.6567 60.0417 12.6393 59.9751 12.6509 59.9696C12.6973 59.9418 12.7495 59.9196 12.8075 59.8974C12.8075 59.8919 12.8075 59.8808 12.8075 59.8752C12.8133 59.8752 12.8191 59.8752 12.8249 59.8752C12.8191 59.742 12.8017 59.6088 12.9177 59.5034C12.9874 59.4424 13.2136 59.4424 13.2078 59.5034C13.202 59.5589 13.1846 59.6255 13.1498 59.6643C13.0628 59.7642 12.9874 59.8863 12.8191 59.8752C12.8191 59.8808 12.8191 59.8863 12.8191 59.8919C12.8191 59.8919 12.8133 59.8974 12.8075 59.8974ZM13.7241 60.1028C13.5617 60.4579 13.2194 60.7299 13.1846 61.1516C13.1846 61.1738 13.0454 61.2071 12.9874 61.1905C12.9293 61.1738 12.8423 61.0906 12.8481 61.0517C12.9583 60.6355 13.1498 60.247 13.4224 59.903C13.4457 59.8752 13.5675 59.903 13.6371 59.9196C13.6371 59.9196 13.6371 59.9196 13.6429 59.9196C13.6603 59.9363 13.6777 59.9529 13.7009 59.9696C13.7067 59.9807 13.7125 59.9862 13.7241 59.9918C13.7183 60.0362 13.7415 60.075 13.7241 60.1028ZM17.199 62.8609C17.1584 62.9441 17.1004 62.9774 17.0134 62.9497C17.0366 62.8776 17.083 62.8165 17.199 62.7998C17.3963 62.7721 17.4833 62.8887 17.4601 63.0551C17.4601 63.0773 17.4659 63.0884 17.4659 63.1051C17.4021 63.044 17.3267 62.9663 17.199 62.8609ZM18.6493 63.205C18.6493 63.2105 18.6435 63.2216 18.6435 63.2272L18.6261 63.2105C18.6319 63.2105 18.6377 63.2105 18.6493 63.205C18.6551 63.1883 18.6609 63.1717 18.6667 63.155C18.6841 63.1661 18.7015 63.1717 18.7131 63.1828C18.6899 63.1939 18.6667 63.1994 18.6493 63.205ZM26.4867 69.0542C25.7674 68.7379 25.0655 68.4216 24.2127 68.2717C23.9342 68.1496 23.6616 67.9776 23.3657 67.8C23.3367 67.7778 23.3019 67.7556 23.2671 67.739C23.4005 67.7667 23.5339 67.7945 23.6616 67.8222C23.9806 67.8888 24.2881 67.9554 24.5956 68.0442C24.9088 68.1219 25.2337 68.2218 25.5818 68.3716C26.1677 68.1219 26.9973 69.1153 27.5542 69.0431C27.3337 68.7046 28.2735 68.9821 28.813 69.0431C28.726 69.1929 28.7898 69.3872 28.8246 69.6591C27.9661 69.5759 27.2235 69.3151 26.4867 69.0542ZM37.3408 70.7968C37.5148 70.6913 37.6193 70.9078 37.9325 70.8578C37.9267 70.8134 37.8281 70.8301 37.7585 70.819C37.7759 70.7524 38.0079 70.7912 38.0021 70.7135C37.9035 70.6136 37.4742 70.7246 37.248 70.708C37.5902 70.4749 38.443 70.4915 38.7215 70.3417C38.8607 70.4361 38.8027 70.5914 38.7505 70.6247C38.8433 70.7801 38.9361 70.6192 39.0928 70.6969C39.319 70.6192 38.8201 70.6192 38.9013 70.4749C39.5394 70.4305 39.6903 70.4805 39.9687 70.314C40.2414 70.3528 39.9687 70.3972 40.4676 70.2918C40.5547 70.6081 39.9455 70.4472 39.7483 70.5637C40.0558 70.7635 40.7983 70.2474 40.8505 70.5692C40.5895 70.597 40.3168 70.6525 40.0325 70.708C39.7483 70.7468 39.4524 70.7912 39.1508 70.8301C38.5532 70.9022 37.9267 70.9411 37.3408 70.7968ZM37.5322 72.7169C37.451 72.8612 37.7353 72.7891 37.8919 72.7946C37.6018 72.8723 37.1261 72.8945 36.5982 72.9112C36.0645 72.8945 35.4786 72.8668 34.9565 72.9001C35.583 72.5504 36.5924 72.8834 37.5322 72.7169ZM34.6896 73.0277C35.1943 73.1054 35.3162 73.0721 35.8557 73.1165C35.351 72.8779 36.9753 73 37.1087 73.111C36.6853 73.2441 36.1864 73.2164 35.7165 73.1886C35.2466 73.1664 34.8115 73.1442 34.504 73.2552C34.4286 73.1054 34.649 73.1165 34.6896 73.0277ZM34.4054 73.4439C34.4808 73.283 34.7245 73.4051 34.8579 73.4606C34.8347 73.5716 34.4576 73.4717 34.4054 73.4439ZM40.5257 73.7048L40.5024 73.5549C40.4618 73.566 40.4212 73.5715 40.3806 73.5826C40.1834 73.6159 39.9803 73.6382 39.7657 73.6659C39.3422 73.7159 38.8955 73.7603 38.443 73.788C37.5322 73.8379 36.5692 73.8823 35.67 73.7214C35.5714 73.7325 35.6062 73.8157 35.4902 73.8102C35.2756 73.788 35.1131 73.738 34.9449 73.6936C34.9681 73.5494 35.3974 73.6326 35.6758 73.6271C35.6817 73.5605 35.6875 73.4939 35.583 73.4828C36.4648 73.4606 38.0601 73.4661 39.3596 73.1276C39.6555 73.1609 39.9397 73.1997 40.108 73.3107C40.369 73.2552 40.0326 73.1664 40.079 73.0777C40.3052 73.0333 40.5141 73.2164 40.6243 73.0665C40.8911 73.0721 40.7345 73.122 40.7403 73.2386C41.187 73.1054 41.5061 73 41.8019 72.9889C41.8657 72.8224 41.5119 72.9611 41.3378 72.9611C41.5931 72.7558 42.2254 72.7225 42.4981 72.7835C42.6025 72.95 42.1384 73.1553 42.6547 73.0943C42.2892 73.3218 41.1986 73.1553 41.042 73.3884C41.7497 73.4051 42.9331 73.0499 43.3508 73.2719C42.4168 73.6381 41.5525 73.4939 40.5257 73.7048ZM44.6735 72.5782C44.6619 72.4949 44.5401 72.5061 44.5401 72.4173C44.8766 72.2841 44.8417 72.4894 45.1782 72.3562C45.1086 72.4505 44.8185 72.5005 44.6735 72.5782ZM47.0578 71.7236C45.9846 71.8845 45.0622 72.1509 43.9658 72.3618C44.0006 72.445 44.2674 72.3174 44.337 72.3673C44.3602 72.5116 43.8207 72.5837 43.7975 72.4394C43.5713 72.5726 43.5597 72.617 43.6931 72.7891C43.287 72.6892 43.2058 72.5671 43.345 72.4616C43.4901 72.3507 43.8613 72.2674 44.3718 72.162C44.279 72.112 44.076 72.162 43.9136 72.1786C43.8381 72.0454 44.3022 72.0454 44.3138 71.9344C44.4357 71.9178 44.4183 72.0343 44.4473 72.0954C45.2768 71.8401 45.3348 71.8013 46.2398 71.546C46.4081 71.6847 46.6749 71.435 46.907 71.5682C47.1274 71.4683 46.6111 71.5349 46.8432 71.3906C47.4639 71.2685 47.4465 71.4017 48.0614 71.1076C48.0266 70.9799 47.5335 71.3517 47.5915 71.1242C48.0034 71.0576 48.2935 70.9133 48.5777 70.7246C48.6473 70.819 48.6299 70.8967 48.5835 70.9744C48.8098 70.9078 48.833 70.8134 48.7634 70.708C49.1694 70.5082 49.3087 70.6025 49.5059 70.6414C49.1984 71.1187 47.5567 71.3573 47.0578 71.7236ZM55.1157 69.648C55.1041 69.4038 55.4695 69.3817 55.6726 69.1597C55.748 69.304 55.2839 69.4871 55.1157 69.648ZM57.6798 69.1264C57.529 69.4704 57.5406 69.0598 57.3027 69.2429C57.2911 69.1763 57.4826 69.0875 57.5986 69.0098C57.6334 69.0709 57.6624 69.1264 57.761 69.0764C57.7726 69.1319 57.6914 69.1485 57.6798 69.1264ZM57.3839 68.416L57.6972 68.2273L57.7842 68.3439C57.6218 68.416 57.4361 68.5326 57.3839 68.416ZM57.7494 68.1385C57.6856 68.0386 57.9409 67.8888 58.1381 67.7445L58.2251 67.8555C58.0453 67.9943 57.8712 68.1219 57.7494 68.1385ZM57.616 67.911C57.1287 68.2329 56.6298 68.5326 56.3803 68.7379C56.4093 68.5437 56.827 68.244 57.3259 67.9165C57.819 67.5836 58.3701 67.184 58.7356 66.8954C58.5384 67.1896 58.0859 67.5614 57.616 67.911ZM61.0677 67.2062C60.8995 67.1008 60.8705 67.1063 60.9169 66.901C61.0967 66.8899 61.381 66.9676 61.0677 67.2062ZM61.3462 66.8177C61.2649 66.8177 61.1431 66.9121 61.0967 66.8233C61.1837 66.7955 61.2707 66.7678 61.2475 66.7123C61.3346 66.6568 61.3578 66.7401 61.4564 66.6624C61.4448 66.7234 61.4332 66.7844 61.4796 66.8288C61.3926 66.8899 61.2417 66.9121 61.3462 66.8177ZM62.6804 66.174C62.6572 66.1074 62.8313 65.9909 62.9299 65.891C62.8777 65.8632 62.7733 65.9742 62.6804 66.0463C62.5528 66.0408 62.7791 65.7467 62.547 65.9076C62.5644 65.7966 62.9415 65.7689 63.0691 65.7633C62.8313 65.9964 62.9879 66.0131 62.6804 66.174ZM64.357 63.4159L64.4672 63.5102L64.1481 63.8432C64.0205 63.771 64.2816 63.5601 64.357 63.4159ZM64.8791 63.9875C64.9371 63.771 64.7863 63.9375 64.6122 64.1262C64.5426 63.9153 65.0299 63.7322 65.2272 63.5435C65.3026 63.6267 64.9719 63.8487 64.8791 63.9875ZM65.1633 62.7721C65.0995 63.1717 64.9893 63.538 64.357 63.9042C64.4208 63.6434 65.0009 63.2827 64.7979 62.9497C65.3838 62.4391 65.7435 61.9341 66.0625 61.7288C66.0567 62.0951 65.5288 62.6334 65.1633 62.7721ZM66.8399 60.9296C66.515 61.2793 66.3352 61.3625 66.2018 61.7177L66.0103 61.5734C66.3932 61.2349 66.6891 60.6411 67.1358 60.2415C67.1358 60.5079 66.7587 60.6799 66.8399 60.9296ZM70.7035 55.1415C70.5411 55.1359 70.6455 54.9417 70.4772 54.9361C70.6223 54.8473 70.7499 54.3756 70.9007 54.531C70.7963 54.3423 71.1502 53.9982 71.3068 53.7152C71.0052 54.2424 70.9762 54.7696 70.7035 55.1415ZM70.7673 56.7064C70.6977 56.662 70.6165 56.7064 70.5411 56.8008C70.454 56.7397 70.5701 56.5566 70.6977 56.3623C70.7035 56.5455 70.8195 56.3457 70.8253 56.5288C70.9355 56.3901 71.0574 56.0183 71.156 56.1737C71.0284 56.2458 70.8949 56.4955 70.7673 56.7064ZM71.2836 55.7186C71.2662 55.4356 71.4112 55.3801 71.5795 55.1359C71.5911 55.4189 71.4519 55.4744 71.2836 55.7186ZM71.6201 52.3778C71.5911 52.2834 71.6143 52.1336 71.7013 51.9282C71.8405 51.956 71.7535 52.289 71.6201 52.3778ZM71.5389 51.1125C71.5331 50.8738 71.6665 50.7961 71.7419 50.4299C71.8869 50.4854 71.6491 51.0126 71.5389 51.1125ZM72.032 49.2256C72.1712 49.3477 71.8985 49.5586 71.9159 49.8361C71.7129 49.8527 71.9972 49.4254 72.032 49.2256ZM72.0088 50.7074C71.9566 50.3744 72.0262 50.219 72.1132 49.714C72.1422 49.8583 72.061 50.3244 72.2698 49.8527C72.4323 50.0303 72.0958 50.391 72.0088 50.7074ZM72.7107 46.8559C72.5193 47.7161 72.6063 48.0435 72.5889 48.4598C72.5483 48.6595 72.4265 48.5208 72.3742 48.6762C72.6353 48.593 72.4555 49.2423 72.3336 49.6751C72.177 49.5974 72.09 49.5974 72.0842 49.5086C72.1712 49.4365 72.2408 49.1313 72.2176 48.9925C72.0378 49.2034 72.1364 48.6984 72.0204 48.6651C72.1016 48.4986 72.148 48.5042 72.1886 48.6207C72.2524 47.9659 72.5831 47.2111 72.6353 46.5618C72.6875 46.584 72.7049 46.7339 72.7803 46.5896C72.5773 46.6839 72.8267 46.2954 72.6991 46.3065C72.6353 46.4009 72.5947 46.3731 72.5715 46.2954C72.6411 46.0957 72.7107 45.8959 72.7687 45.6905C72.9486 45.6295 72.6817 46.0624 72.8093 46.0624C72.8848 45.6794 73.2328 45.0967 73.0588 44.9524C72.9544 45.3298 72.9602 45.4907 72.7745 45.6683C72.7803 45.6572 72.7803 45.6461 72.7861 45.635C72.8673 45.3021 72.9312 44.958 72.9834 44.6028C73.0588 44.6028 73.1226 44.5695 73.1864 44.5196C73.1864 44.5251 73.1864 44.5251 73.1806 44.5307C73.3198 44.7194 73.2908 44.9635 73.2328 45.2133C73.169 45.463 73.0646 45.7127 73.0936 45.9403C72.9718 46.1401 72.908 46.1179 72.8383 46.1622C72.966 46.3343 72.8093 47.139 72.7455 47.311C72.5831 47.3221 72.8093 46.917 72.7107 46.8559ZM72.7049 51.2179C72.8615 50.9238 72.7571 50.7684 72.9312 50.6186C73.169 50.5797 72.8673 51.3844 72.7049 51.2179ZM72.9428 50.4299C73.1458 50.2967 73.314 49.936 73.5403 49.936C73.3662 50.2634 73.1922 50.5797 72.9428 50.4299ZM74.9326 35.3739C74.9326 35.3739 74.9326 35.3794 74.9326 35.385C74.9326 35.385 74.9326 35.3794 74.9326 35.3739ZM75.153 34.9854C75.1936 34.8467 75.1994 35.3683 75.2516 35.7069C75.0312 35.6125 75.0834 35.2019 75.153 34.9854Z" fill="#2A8E9E" fill-opacity="0.3"/>
<path fill-rule="evenodd" clip-rule="evenodd" d="M21.3585 6.76587C21.2192 6.9712 20.32 7.24313 20.2678 7.33192C20.4651 7.30417 21.6485 6.80472 21.3585 6.76587Z" fill="#2A8E9E" fill-opacity="0.3"/>
<path fill-rule="evenodd" clip-rule="evenodd" d="M40.9247 0.311622C40.8667 0.200631 40.3852 0.261674 40.3504 0.161781C40.9653 0.0341413 41.3598 0.439263 41.9863 0.494759C42.0095 0.439263 41.9863 0.361563 42.0965 0.367113C42.1893 0.444806 42.2416 0.528052 42.3634 0.594647C43.0247 0.566899 44.2488 0.938721 44.8057 0.777784C44.6665 0.672342 44.0979 0.627945 44.4576 0.516953C43.9761 0.422611 44.3764 0.644593 44.1327 0.655692C44.1211 0.616845 44.0631 0.589098 43.9471 0.577999C44.1211 0.389314 43.3148 0.450362 42.9957 0.294974C42.7463 0.322722 43.1523 0.46146 42.8739 0.467009C42.6766 0.283873 42.2764 0.195081 42.2938 0.389316C42.3576 0.32827 41.5164 0.306075 41.8239 0.183984C40.7796 0.0896417 40.8899 -0.0102515 40.0719 0.000847601C40.1473 0.172884 40.0777 0.117382 40.1531 0.289419C40.536 0.217275 40.6694 0.367118 40.9247 0.311622Z" fill="#2A8E9E" fill-opacity="0.3"/>
<path fill-rule="evenodd" clip-rule="evenodd" d="M52.0312 7.47602C52.2691 7.53707 52.594 7.71465 52.7854 7.71465C52.594 7.59811 52.1589 7.40943 52.0312 7.47602Z" fill="#2A8E9E" fill-opacity="0.3"/>
<path fill-rule="evenodd" clip-rule="evenodd" d="M55.6381 7.65364C55.5453 7.79793 55.174 7.50381 54.9942 7.50936C55.0928 7.68694 55.8006 7.87007 55.6381 7.65364Z" fill="#2A8E9E" fill-opacity="0.3"/>
<path fill-rule="evenodd" clip-rule="evenodd" d="M58.1391 6.23848C58.1855 6.17189 58.3827 6.34948 58.4407 6.30508C58.2957 6.24404 58.2551 5.98876 58.4581 6.0942C58.5626 6.24404 58.6902 6.14414 58.9454 6.19964C58.4697 6.0498 57.7852 5.61139 57.5706 5.68908C57.9302 5.75568 58.3595 6.14414 58.1391 6.23848Z" fill="#2A8E9E" fill-opacity="0.3"/>
<path fill-rule="evenodd" clip-rule="evenodd" d="M58.3407 10.9058C58.2188 11.0001 58.3987 11.1333 58.6075 11.272C58.5611 11.0501 59.0484 11.5051 58.8338 11.2609C58.6539 11.1388 58.5553 11.1777 58.5785 11.0223C58.6191 11.0501 58.6829 11.0501 58.6075 10.9835C58.5379 11.0057 58.4683 11.0168 58.3755 10.9946C58.3987 10.9668 58.4045 10.9391 58.3407 10.9058Z" fill="#2A8E9E" fill-opacity="0.3"/>
<path fill-rule="evenodd" clip-rule="evenodd" d="M58.985 11.4829C59.3911 11.938 59.8784 12.6816 60.3889 12.7538C60.3425 12.7038 60.2613 12.6428 60.2903 12.6039C60.4992 12.7593 60.621 12.6927 60.8762 12.9813C60.9807 12.9036 60.824 12.7704 60.708 12.6483C60.3831 12.5041 59.2113 11.766 59.3157 11.4829C59.2055 11.4829 59.0663 11.4219 58.985 11.4829Z" fill="#2A8E9E" fill-opacity="0.3"/>
<path fill-rule="evenodd" clip-rule="evenodd" d="M62.3904 9.91797C62.518 10.2121 63.5158 10.7282 63.51 11.0667C63.6783 11.211 63.7769 11.1888 63.9683 11.4053C63.8813 11.4219 63.7827 11.3997 63.6957 11.4219C63.8465 11.5218 64.0031 11.6272 64.154 11.7549C64.299 11.8881 64.444 12.0324 64.5948 12.1877C64.8907 12.493 65.1866 12.8315 65.4824 13.1645C66.0799 13.836 66.6891 14.4964 67.2808 14.9681C67.3388 15.5452 68.1568 15.7006 68.0756 16.1224C68.1568 15.9837 68.1104 16.0169 68.267 15.9781C67.7797 15.6118 67.3272 14.8737 67.3736 14.5852C67.3562 14.5741 67.3562 14.5519 67.3968 14.5075C67.3794 14.5241 67.3794 14.5574 67.3736 14.5852C67.4316 14.624 67.7275 14.5408 67.7333 14.846C67.9015 14.8793 67.7217 14.5408 67.8841 14.7239C67.9363 14.907 67.9711 15.0791 67.9885 15.24C68.1394 15.4009 68.2786 15.5064 68.4178 15.6229C68.383 15.6673 68.296 15.6951 68.3598 15.7839C68.5339 15.5508 68.7195 16.1224 68.8065 16.2722C68.8413 16.0391 68.4874 15.6229 68.5513 15.4009C68.3656 15.4342 68.4236 15.2788 68.2148 15.0569C68.2496 15.0125 68.3308 14.9847 68.2728 14.8959C68.1858 14.8682 68.0872 14.4908 67.8145 14.4076C67.9189 14.5796 67.8841 14.6129 67.7623 14.5741C67.5302 14.1578 67.0719 13.8304 66.8747 13.3309C66.6369 13.4752 66.4976 13.1367 66.2772 12.8426C66.2134 12.8814 66.167 12.9869 66.0683 12.9036C65.9465 12.7538 66.0335 12.6817 66.0161 12.5707C66.1206 12.6983 66.4744 12.9147 66.3178 12.6817C66.2076 12.7649 65.8943 12.1822 65.7841 12.2654C65.9349 12.4097 65.9639 12.5096 65.8769 12.5707C65.8073 12.3209 65.6623 12.493 65.4476 12.1933C65.3316 12.2543 65.2214 12.3431 65.0705 12.2932C65.0879 11.9602 64.6354 11.988 64.4092 11.7604C64.3106 11.494 64.2236 11.2665 64.2932 11.0667C64.0437 10.8947 64.0031 10.8059 63.9045 10.7893C64.0437 10.928 63.9567 11.0057 63.9857 11.1167C63.4752 10.8059 63.3534 10.6394 62.9125 10.1899C62.7385 10.201 62.5528 10.1289 62.3904 9.91797ZM66.2192 13.4086C66.3236 13.4586 66.4396 13.5474 66.5788 13.7194C66.5266 13.9581 66.225 13.331 66.1728 13.5751C66.109 13.4863 66.1902 13.453 66.2192 13.4086Z" fill="#2A8E9E" fill-opacity="0.3"/>
<path fill-rule="evenodd" clip-rule="evenodd" d="M62.014 13.908C62.1242 14.0689 62.0894 14.191 62.0836 14.3187C62.2228 14.5074 62.275 14.3742 62.3911 14.4963C62.3272 14.5517 62.3504 14.6294 62.4085 14.7182C62.5767 14.4408 62.13 14.2299 62.2054 13.9579C62.1532 14.0079 62.0662 13.8858 62.014 13.908Z" fill="#2A8E9E" fill-opacity="0.3"/>
<path fill-rule="evenodd" clip-rule="evenodd" d="M72.3217 23.5755C72.2869 23.0982 72.6408 23.7142 72.6814 23.4201C72.519 23.47 72.3681 23.1482 72.2057 23.126C72.4261 23.4035 72.1651 23.3369 72.3217 23.5755Z" fill="#2A8E9E" fill-opacity="0.3"/>
<path fill-rule="evenodd" clip-rule="evenodd" d="M72.4559 25.2014C72.3862 25.2014 72.3224 25.1126 72.2412 25.1903C72.3514 25.4345 72.2702 25.5122 72.2702 25.662C72.3282 25.6232 72.5313 26.0561 72.4733 25.7786C72.2006 25.4733 72.5081 25.4067 72.4559 25.2014Z" fill="#2A8E9E" fill-opacity="0.3"/>
<path fill-rule="evenodd" clip-rule="evenodd" d="M69.7704 57.7607C69.9386 57.6497 70.1997 57.6774 70.1301 57.6386C70.1997 57.3944 69.8748 57.5498 69.7704 57.7607Z" fill="#2A8E9E" fill-opacity="0.3"/>
<path fill-rule="evenodd" clip-rule="evenodd" d="M66.6315 62.0339C66.3936 62.317 66.092 62.4446 66.1036 62.6832C66.2718 62.5834 66.6141 62.2837 66.5503 62.5556C66.6083 62.3225 67.2986 61.8897 67.113 61.923C66.9216 62.0672 66.4285 62.4224 66.6315 62.0339Z" fill="#2A8E9E" fill-opacity="0.3"/>
<path fill-rule="evenodd" clip-rule="evenodd" d="M69.9887 65.7189C69.9771 65.8299 69.9771 65.8188 69.9307 66.2073C70.215 65.8354 70.4644 65.4747 70.3078 65.2971C70.2266 65.4248 69.8959 65.6634 69.9887 65.7189Z" fill="#2A8E9E" fill-opacity="0.3"/>
<path fill-rule="evenodd" clip-rule="evenodd" d="M57.8533 70.1919C57.7199 70.2918 57.598 70.2585 57.6038 70.3417C57.9403 70.2474 57.3254 70.5859 57.3544 70.6581C57.5748 70.5915 58.1027 70.2474 57.9925 70.2196C57.6502 70.4305 57.7779 70.314 57.8533 70.1919Z" fill="#2A8E9E" fill-opacity="0.3"/>
<path fill-rule="evenodd" clip-rule="evenodd" d="M46.7028 74.5481C46.842 74.5592 47.0683 74.4982 47.1205 74.587C46.6796 74.7201 45.937 74.6258 46.1807 74.8256C46.3141 74.6813 46.7666 74.7368 46.8826 74.7923C46.9638 74.6646 47.8282 74.2873 47.5614 74.3705C47.1553 74.5703 46.8362 74.3983 46.7028 74.5481Z" fill="#2A8E9E" fill-opacity="0.3"/>
<path fill-rule="evenodd" clip-rule="evenodd" d="M44.4416 74.6702C44.4474 74.8921 44.0877 75.1419 44.4822 75.2362C44.43 75.153 44.5866 75.1197 44.6388 75.0586C44.3314 75.0087 44.372 74.7312 44.9289 74.648C44.9869 74.4704 44.6214 74.648 44.4416 74.6702Z" fill="#2A8E9E" fill-opacity="0.3"/>
<path fill-rule="evenodd" clip-rule="evenodd" d="M42.7766 75.131C42.5852 75.2032 42.9971 75.2864 42.939 75.4418L42.5562 75.5029L42.5098 75.2698C42.2197 75.464 41.6512 75.4973 41.889 75.6471C41.7324 75.5972 41.4887 75.6694 41.4133 75.7637C42.1559 75.7193 42.3415 75.5195 42.9564 75.5306C42.9564 75.4751 42.9622 75.4196 43.1305 75.4085C42.8346 75.3308 43.1073 75.1199 42.7766 75.131Z" fill="#2A8E9E" fill-opacity="0.3"/>
<path fill-rule="evenodd" clip-rule="evenodd" d="M38.6573 77.7947C38.8488 77.8557 39.3361 77.7558 39.1911 78C39.922 77.9334 38.8952 77.6226 38.6573 77.7947Z" fill="#2A8E9E" fill-opacity="0.3"/>
<path fill-rule="evenodd" clip-rule="evenodd" d="M34.6371 75.2862C34.7473 75.3139 34.8517 75.3472 34.9213 75.3916C35.983 75.3528 34.8459 75.2806 34.6371 75.2862Z" fill="#2A8E9E" fill-opacity="0.3"/>
<path fill-rule="evenodd" clip-rule="evenodd" d="M34.0572 75.4972C34.1384 75.6415 34.5735 75.697 34.823 75.6693C34.7534 75.5638 34.4053 75.4806 34.6373 75.3807C34.1268 75.3252 33.8194 75.3807 33.4887 75.4251C33.7671 75.5971 33.2044 75.586 33.3785 75.6526C33.5061 75.5916 33.8368 75.6082 33.9586 75.6804C34.0804 75.5694 33.9122 75.5361 34.0572 75.4972Z" fill="#2A8E9E" fill-opacity="0.3"/>
<path fill-rule="evenodd" clip-rule="evenodd" d="M32.741 75.0588C32.7468 75.1753 32.5844 75.2031 32.4451 75.2197C32.4277 75.1198 32.0274 75.1531 31.981 75.0643C31.8766 75.0921 31.9346 75.2308 31.6852 75.1698C30.0376 74.9256 28.8078 74.7758 27.6649 74.4594C27.0906 74.3151 26.5279 74.1708 25.9304 74.021C25.6345 73.9433 25.3271 73.8656 25.008 73.7824C24.6947 73.6769 24.3699 73.5715 24.0218 73.455C23.9638 73.7657 23.7259 73.3107 23.5403 73.3939C23.6389 73.688 23.8594 73.7102 24.277 73.9378C24.4047 73.8212 24.0682 73.7657 24.0624 73.6658C24.1842 73.7102 24.2712 73.7102 24.3467 73.7102C24.161 73.8656 24.7759 73.9933 24.4453 74.0432C25.124 74.2208 25.8898 74.3151 26.7193 74.4872C27.137 74.5704 27.5663 74.6592 28.0246 74.7591C28.2509 74.8091 28.4829 74.8645 28.7266 74.92C28.9702 74.9644 29.2139 75.0088 29.4691 75.0588C29.4749 74.9755 29.5619 74.9478 29.678 74.9478C29.8926 75.0976 29.9216 75.031 30.3393 75.0921C30.2117 75.2142 30.2581 75.2586 30.4959 75.3529C30.5191 75.303 30.4959 75.2197 30.6119 75.2253C31.105 75.2919 31.7606 75.3196 32.3349 75.2974C32.8512 75.2752 33.2979 75.1809 33.53 75.0921C33.3501 75.1254 32.9614 75.0421 32.741 75.0588Z" fill="#2A8E9E" fill-opacity="0.3"/>
<path fill-rule="evenodd" clip-rule="evenodd" d="M20.6047 67.3616C20.9353 67.4837 21.3008 67.7223 20.9237 67.6613C21.1036 67.7944 21.3414 67.9443 21.4865 67.861C21.7243 68.0775 21.7533 68.4271 22.1246 68.5103C22.0956 68.588 22.0492 68.638 21.968 68.6491C22.2406 68.7323 22.3798 68.6491 22.6061 68.6713C22.7511 68.7545 22.5945 68.8655 22.8613 68.9376C22.9832 68.8544 23.4241 68.9598 23.8359 69.1097C23.8127 69.1319 23.7895 69.1596 23.7837 69.1818C23.7779 69.2429 23.8243 69.3039 23.8417 69.3705C23.8824 69.3317 23.9462 69.2928 23.9462 69.254C23.9462 69.2207 23.9404 69.1818 23.923 69.1485C24.3813 69.3317 24.7699 69.5592 24.6075 69.6535C24.8454 69.709 25.0832 69.7978 25.3153 69.8922H25.3094C25.2804 69.8977 25.2514 69.9366 25.2224 69.9588C25.1702 70.0032 25.1934 70.0698 25.292 70.092C25.5067 70.1419 25.7503 70.0809 25.9186 70.2751C26.1158 70.1419 26.284 70.203 26.4871 70.3029C26.6031 70.3583 26.6901 70.3028 26.7365 70.1863C26.7539 70.1808 26.7656 70.1808 26.783 70.1752C26.7714 70.1697 26.7598 70.1641 26.7481 70.1586C26.7598 70.1197 26.7598 70.0809 26.7656 70.0309C26.9106 70.0587 27.073 70.0975 27.0962 70.0087C26.9918 69.9865 26.8758 69.9643 26.7656 69.9421C26.7481 69.8422 26.7017 69.7035 26.6437 69.7423C26.5625 69.7978 26.4755 69.8311 26.3885 69.8533C26.3073 69.8367 26.2318 69.82 26.1506 69.7978C25.8316 69.6979 25.5009 69.587 25.1818 69.4704C24.5437 69.2429 23.9288 69.0209 23.4473 68.8544C23.5053 68.8156 23.5749 68.7823 23.6619 68.7767C23.9056 68.8489 23.9926 69.0875 24.1434 68.9432C23.894 68.86 23.7779 68.7545 23.6155 68.6602C23.4879 68.7656 23.2558 68.7157 23.0296 68.6324C22.8033 68.5381 22.5771 68.4215 22.4263 68.4382C22.5481 68.4271 22.5945 68.3217 22.5191 68.2218C22.1884 68.1163 21.7591 67.8777 21.5793 67.6446C21.6257 67.5891 21.7417 67.6279 21.7939 67.5836C21.3066 67.3727 21.0978 67.4559 20.6047 67.3616Z" fill="#2A8E9E" fill-opacity="0.3"/>
<path fill-rule="evenodd" clip-rule="evenodd" d="M22.7751 71.0741C23.2392 71.124 23.6395 71.1684 24.0804 71.4736C24.1036 71.4126 24.0746 71.3626 24.0398 71.3127C24.1848 71.3626 24.2719 71.3515 24.3241 71.3071C23.7846 71.1906 23.5351 71.063 23.0072 70.9575C23.5757 71.1462 22.9086 71.0796 22.7751 71.0741Z" fill="#2A8E9E" fill-opacity="0.3"/>
<path fill-rule="evenodd" clip-rule="evenodd" d="M21.9318 70.508C21.7868 70.447 21.6766 70.3859 21.6185 70.3193C21.4735 70.4081 21.897 70.7799 21.7926 70.6024C21.5605 70.4692 21.9492 70.5857 21.9318 70.508Z" fill="#2A8E9E" fill-opacity="0.3"/>
<path fill-rule="evenodd" clip-rule="evenodd" d="M20.0061 70.7913C19.7798 71.0521 20.7718 71.263 20.8066 71.5127L20.8414 71.4239C20.8936 71.4461 20.9458 71.4628 20.9458 71.4184C20.7486 71.3018 20.4643 71.1964 20.1163 70.9966C20.1395 70.9245 20.1975 70.8523 20.0061 70.7913Z" fill="#2A8E9E" fill-opacity="0.3"/>
<path fill-rule="evenodd" clip-rule="evenodd" d="M17.1295 72.9111C17.2223 72.9222 17.5123 72.8445 17.3267 72.7446C17.0889 72.8112 16.9786 72.6447 16.7872 72.6946C16.938 72.7779 17.0018 72.8445 17.0134 72.9166C16.6944 72.8389 16.7118 72.7668 16.3927 72.5892C16.3289 72.6558 16.4391 72.7335 16.3927 72.8056C16.1201 72.5781 15.8416 72.6114 15.6154 72.5337C15.8822 72.6669 15.8358 72.7779 16.1027 72.9166C16.4391 72.8833 16.6538 73.0831 17.2745 73.2995C17.2919 73.2052 17.4427 73.2718 17.524 73.2551C17.2861 73.1386 17.2397 73.022 17.1295 72.9111Z" fill="#2A8E9E" fill-opacity="0.3"/>
<path fill-rule="evenodd" clip-rule="evenodd" d="M19.5372 64.1373C19.7345 64.1817 19.8099 64.4147 19.8737 64.3315C19.5778 64.1428 19.7461 64.0984 19.7287 63.9763C19.572 64.0152 19.543 63.9708 19.5372 64.1373Z" fill="#2A8E9E" fill-opacity="0.3"/>
<path fill-rule="evenodd" clip-rule="evenodd" d="M60.1969 7.4817C60.5334 7.74252 60.69 7.67038 60.9395 7.77027C61.1367 7.95896 61.1483 8.1199 61.2644 8.29748C61.4558 8.35853 61.6588 8.52501 61.8909 8.7137C62.1113 8.91903 62.3608 9.14657 62.6508 9.32416C62.2796 9.04113 62.3028 8.85799 62.2158 8.64711C61.8735 8.51947 61.7459 8.30303 61.4326 8.24198C61.4906 8.17539 61.4326 8.1199 61.305 8.09215C61.392 8.00891 61.4616 7.92011 61.2934 7.79247C61.0381 7.77582 60.6668 7.53719 60.4116 7.51499C60.371 7.40955 60.3652 7.30966 60.284 7.19312C60.2491 7.24861 60.1853 7.25416 60.1215 7.25416C60.2666 7.3485 60.2782 7.42065 60.1969 7.4817Z" fill="#2A8E9E" fill-opacity="0.3"/>
<path fill-rule="evenodd" clip-rule="evenodd" d="M24.6481 74.465C24.4567 74.3318 24.2304 74.2041 23.9926 74.0876C23.5111 73.8545 22.9542 73.6714 22.4204 73.6547C22.3856 74.0432 21.9912 74.0709 21.4632 73.971C21.5793 73.7602 20.9875 73.6214 20.9353 73.4272C20.8889 73.6325 20.5641 73.4105 20.5757 73.5271C20.5525 73.4438 20.477 73.3606 20.361 73.2773C20.2972 73.5049 19.7461 73.1663 19.3864 73.0498C19.3226 73.2163 19.4328 73.2163 19.2704 73.3106C19.6301 73.6325 20.535 74.0654 20.8251 74.2374C21.7649 74.304 22.7743 75.3529 23.9694 75.6137C24.7699 75.7802 25.292 75.4472 25.1296 74.8146C25.0078 74.7091 24.8453 74.5926 24.6481 74.465Z" fill="#2A8E9E" fill-opacity="0.3"/>
<mask id="path-98-inside-1_721_162" fill="white">
<path d="M50.5873 34.6093V33.1997C50.5873 29.8257 49.3933 26.6906 47.2288 24.3642C45.0103 21.9763 41.9599 20.6667 38.6321 20.6667H37.469C34.1412 20.6667 31.0908 21.9763 28.8723 24.3642C26.7078 26.6906 25.5138 29.8257 25.5138 33.1997V34.6093C22.887 34.7865 20.7995 36.9742 20.7995 39.6471V41.8502C20.7995 44.631 23.0642 46.8957 25.845 46.8957H28.6875C29.1959 46.8957 29.6118 46.4798 29.6118 45.9714V35.5183C29.6118 35.0099 29.1959 34.5939 28.6875 34.5939H27.3625V33.1997C27.3625 27.1065 31.7071 22.5155 37.4613 22.5155H38.6244C44.3863 22.5155 48.7232 27.1065 48.7232 33.1997V34.5939H47.3982C46.8898 34.5939 46.4739 35.0099 46.4739 35.5183V45.9637C46.4739 46.4721 46.8898 46.888 47.3982 46.888H48.6924C48.3149 51.7102 44.9949 52.8271 43.4543 53.0813C43.0306 51.7795 41.8058 50.8397 40.3653 50.8397H38.0544C36.2673 50.8397 34.8114 52.2956 34.8114 54.0827C34.8114 55.8698 36.2673 57.3334 38.0544 57.3334H40.373C41.8674 57.3334 43.123 56.3166 43.5005 54.9455C44.2554 54.8376 45.4494 54.568 46.6356 53.8747C48.3072 52.8964 50.2869 50.9013 50.5488 46.8803C53.191 46.7186 55.2862 44.5232 55.2862 41.8425V39.6394C55.2939 36.9742 53.2141 34.7788 50.5873 34.6093ZM27.7785 45.0393H25.8604C24.0964 45.0393 22.6636 43.6065 22.6636 41.8425V39.6394C22.6636 37.8754 24.0964 36.4427 25.8604 36.4427H27.7785V45.0393ZM40.373 55.4847H38.0544C37.2841 55.4847 36.6601 54.8607 36.6601 54.0904C36.6601 53.3201 37.2841 52.6962 38.0544 52.6962H40.373C41.1433 52.6962 41.7673 53.3201 41.7673 54.0904C41.7673 54.8607 41.1433 55.4847 40.373 55.4847ZM53.4452 41.8425C53.4452 43.6065 52.0124 45.0393 50.2484 45.0393H48.3303V36.4427H50.2484C52.0124 36.4427 53.4452 37.8754 53.4452 39.6394V41.8425Z"/>
</mask>
<path d="M50.5873 34.6093V33.1997C50.5873 29.8257 49.3933 26.6906 47.2288 24.3642C45.0103 21.9763 41.9599 20.6667 38.6321 20.6667H37.469C34.1412 20.6667 31.0908 21.9763 28.8723 24.3642C26.7078 26.6906 25.5138 29.8257 25.5138 33.1997V34.6093C22.887 34.7865 20.7995 36.9742 20.7995 39.6471V41.8502C20.7995 44.631 23.0642 46.8957 25.845 46.8957H28.6875C29.1959 46.8957 29.6118 46.4798 29.6118 45.9714V35.5183C29.6118 35.0099 29.1959 34.5939 28.6875 34.5939H27.3625V33.1997C27.3625 27.1065 31.7071 22.5155 37.4613 22.5155H38.6244C44.3863 22.5155 48.7232 27.1065 48.7232 33.1997V34.5939H47.3982C46.8898 34.5939 46.4739 35.0099 46.4739 35.5183V45.9637C46.4739 46.4721 46.8898 46.888 47.3982 46.888H48.6924C48.3149 51.7102 44.9949 52.8271 43.4543 53.0813C43.0306 51.7795 41.8058 50.8397 40.3653 50.8397H38.0544C36.2673 50.8397 34.8114 52.2956 34.8114 54.0827C34.8114 55.8698 36.2673 57.3334 38.0544 57.3334H40.373C41.8674 57.3334 43.123 56.3166 43.5005 54.9455C44.2554 54.8376 45.4494 54.568 46.6356 53.8747C48.3072 52.8964 50.2869 50.9013 50.5488 46.8803C53.191 46.7186 55.2862 44.5232 55.2862 41.8425V39.6394C55.2939 36.9742 53.2141 34.7788 50.5873 34.6093ZM27.7785 45.0393H25.8604C24.0964 45.0393 22.6636 43.6065 22.6636 41.8425V39.6394C22.6636 37.8754 24.0964 36.4427 25.8604 36.4427H27.7785V45.0393ZM40.373 55.4847H38.0544C37.2841 55.4847 36.6601 54.8607 36.6601 54.0904C36.6601 53.3201 37.2841 52.6962 38.0544 52.6962H40.373C41.1433 52.6962 41.7673 53.3201 41.7673 54.0904C41.7673 54.8607 41.1433 55.4847 40.373 55.4847ZM53.4452 41.8425C53.4452 43.6065 52.0124 45.0393 50.2484 45.0393H48.3303V36.4427H50.2484C52.0124 36.4427 53.4452 37.8754 53.4452 39.6394V41.8425Z" fill="#1D1F20"/>
<path d="M50.5873 34.6093H48.5873V36.4845L50.4586 36.6052L50.5873 34.6093ZM47.2288 24.3642L45.7635 25.7255L45.7646 25.7266L47.2288 24.3642ZM28.8723 24.3642L30.3365 25.7266L30.3376 25.7255L28.8723 24.3642ZM25.5138 34.6093L25.6484 36.6048L27.5138 36.479V34.6093H25.5138ZM27.3625 34.5939H25.3625V36.5939H27.3625V34.5939ZM48.7232 34.5939V36.5939H50.7232V34.5939H48.7232ZM48.6924 46.888L50.6863 47.0441L50.855 44.888H48.6924V46.888ZM43.4543 53.0813L41.5524 53.7002L42.0843 55.3344L43.7799 55.0546L43.4543 53.0813ZM43.5005 54.9455L43.2176 52.9656L41.9201 53.1509L41.5722 54.4146L43.5005 54.9455ZM46.6356 53.8747L47.6448 55.6015L47.6459 55.6008L46.6356 53.8747ZM50.5488 46.8803L50.4266 44.8841L48.6676 44.9918L48.553 46.7503L50.5488 46.8803ZM55.2862 39.6394L53.2862 39.6337V39.6394H55.2862ZM27.7785 45.0393V47.0393H29.7785V45.0393H27.7785ZM27.7785 36.4427H29.7785V34.4427H27.7785V36.4427ZM48.3303 45.0393H46.3303V47.0393H48.3303V45.0393ZM48.3303 36.4427V34.4427H46.3303V36.4427H48.3303ZM52.5873 34.6093V33.1997H48.5873V34.6093H52.5873ZM52.5873 33.1997C52.5873 29.353 51.2236 25.7216 48.693 23.0018L45.7646 25.7266C47.5631 27.6595 48.5873 30.2985 48.5873 33.1997H52.5873ZM48.694 23.003C46.0871 20.1969 42.501 18.6667 38.6321 18.6667V22.6667C41.4188 22.6667 43.9334 23.7556 45.7635 25.7255L48.694 23.003ZM38.6321 18.6667H37.469V22.6667H38.6321V18.6667ZM37.469 18.6667C33.6001 18.6667 30.014 20.1969 27.4071 23.003L30.3376 25.7255C32.1677 23.7556 34.6823 22.6667 37.469 22.6667V18.6667ZM27.4081 23.0018C24.8775 25.7216 23.5138 29.353 23.5138 33.1997H27.5138C27.5138 30.2985 28.538 27.6595 30.3365 25.7266L27.4081 23.0018ZM23.5138 33.1997V34.6093H27.5138V33.1997H23.5138ZM25.3792 32.6139C21.7152 32.861 18.7995 35.9092 18.7995 39.6471H22.7995C22.7995 38.0392 24.0589 36.712 25.6484 36.6048L25.3792 32.6139ZM18.7995 39.6471V41.8502H22.7995V39.6471H18.7995ZM18.7995 41.8502C18.7995 45.7356 21.9596 48.8957 25.845 48.8957V44.8957C24.1688 44.8957 22.7995 43.5265 22.7995 41.8502H18.7995ZM25.845 48.8957H28.6875V44.8957H25.845V48.8957ZM28.6875 48.8957C30.3004 48.8957 31.6118 47.5843 31.6118 45.9714H27.6118C27.6118 45.3752 28.0913 44.8957 28.6875 44.8957V48.8957ZM31.6118 45.9714V35.5183H27.6118V45.9714H31.6118ZM31.6118 35.5183C31.6118 33.9053 30.3004 32.5939 28.6875 32.5939V36.5939C28.0913 36.5939 27.6118 36.1145 27.6118 35.5183H31.6118ZM28.6875 32.5939H27.3625V36.5939H28.6875V32.5939ZM29.3625 34.5939V33.1997H25.3625V34.5939H29.3625ZM29.3625 33.1997C29.3625 28.1041 32.9157 24.5155 37.4613 24.5155V20.5155C30.4984 20.5155 25.3625 26.109 25.3625 33.1997H29.3625ZM37.4613 24.5155H38.6244V20.5155H37.4613V24.5155ZM38.6244 24.5155C43.1767 24.5155 46.7232 28.1031 46.7232 33.1997H50.7232C50.7232 26.11 45.5959 20.5155 38.6244 20.5155V24.5155ZM46.7232 33.1997V34.5939H50.7232V33.1997H46.7232ZM48.7232 32.5939H47.3982V36.5939H48.7232V32.5939ZM47.3982 32.5939C45.7853 32.5939 44.4739 33.9053 44.4739 35.5183H48.4739C48.4739 36.1145 47.9944 36.5939 47.3982 36.5939V32.5939ZM44.4739 35.5183V45.9637H48.4739V35.5183H44.4739ZM44.4739 45.9637C44.4739 47.5766 45.7853 48.888 47.3982 48.888V44.888C47.9944 44.888 48.4739 45.3675 48.4739 45.9637H44.4739ZM47.3982 48.888H48.6924V44.888H47.3982V48.888ZM46.6985 46.732C46.5483 48.6503 45.8499 49.6308 45.2105 50.1769C44.5154 50.7706 43.6914 51.0151 43.1287 51.108L43.7799 55.0546C44.7577 54.8933 46.364 54.4522 47.8085 53.2184C49.3087 51.937 50.459 49.9479 50.6863 47.0441L46.6985 46.732ZM45.3561 52.4624C44.6719 50.3602 42.6961 48.8397 40.3653 48.8397V52.8397C40.9155 52.8397 41.3893 53.1988 41.5524 53.7002L45.3561 52.4624ZM40.3653 48.8397H38.0544V52.8397H40.3653V48.8397ZM38.0544 48.8397C35.1627 48.8397 32.8114 51.191 32.8114 54.0827H36.8114C36.8114 53.4002 37.3719 52.8397 38.0544 52.8397V48.8397ZM32.8114 54.0827C32.8114 56.9682 35.1566 59.3334 38.0544 59.3334V55.3334C37.378 55.3334 36.8114 54.7714 36.8114 54.0827H32.8114ZM38.0544 59.3334H40.373V55.3334H38.0544V59.3334ZM40.373 59.3334C42.7987 59.3334 44.8208 57.6849 45.4288 55.4763L41.5722 54.4146C41.4253 54.9483 40.9361 55.3334 40.373 55.3334V59.3334ZM43.7833 56.9254C44.6914 56.7956 46.16 56.4692 47.6448 55.6015L45.6265 52.148C44.7387 52.6668 43.8193 52.8796 43.2176 52.9656L43.7833 56.9254ZM47.6459 55.6008C49.8182 54.3295 52.2343 51.7735 52.5446 47.0103L48.553 46.7503C48.3395 50.0292 46.7962 51.4634 45.6254 52.1486L47.6459 55.6008ZM50.671 48.8766C54.3606 48.6507 57.2862 45.588 57.2862 41.8425H53.2862C53.2862 43.4584 52.0213 44.7864 50.4266 44.8841L50.671 48.8766ZM57.2862 41.8425V39.6394H53.2862V41.8425H57.2862ZM57.2862 39.6452C57.297 35.9167 54.391 32.8506 50.7161 32.6135L50.4586 36.6052C52.0371 36.707 53.2908 38.0317 53.2862 39.6337L57.2862 39.6452ZM27.7785 43.0393H25.8604V47.0393H27.7785V43.0393ZM25.8604 43.0393C25.201 43.0393 24.6636 42.502 24.6636 41.8425H20.6636C20.6636 44.7111 22.9918 47.0393 25.8604 47.0393V43.0393ZM24.6636 41.8425V39.6394H20.6636V41.8425H24.6636ZM24.6636 39.6394C24.6636 38.98 25.201 38.4427 25.8604 38.4427V34.4427C22.9918 34.4427 20.6636 36.7709 20.6636 39.6394H24.6636ZM25.8604 38.4427H27.7785V34.4427H25.8604V38.4427ZM25.7785 36.4427V45.0393H29.7785V36.4427H25.7785ZM40.373 53.4847H38.0544V57.4847H40.373V53.4847ZM38.0544 53.4847C38.3887 53.4847 38.6601 53.7562 38.6601 54.0904H34.6601C34.6601 55.9653 36.1795 57.4847 38.0544 57.4847V53.4847ZM38.6601 54.0904C38.6601 54.4247 38.3887 54.6962 38.0544 54.6962V50.6962C36.1795 50.6962 34.6601 52.2155 34.6601 54.0904H38.6601ZM38.0544 54.6962H40.373V50.6962H38.0544V54.6962ZM40.373 54.6962C40.0388 54.6962 39.7673 54.4247 39.7673 54.0904H43.7673C43.7673 52.2155 42.2479 50.6962 40.373 50.6962V54.6962ZM39.7673 54.0904C39.7673 53.7562 40.0388 53.4847 40.373 53.4847V57.4847C42.2479 57.4847 43.7673 55.9653 43.7673 54.0904H39.7673ZM51.4452 41.8425C51.4452 42.502 50.9078 43.0393 50.2484 43.0393V47.0393C53.117 47.0393 55.4452 44.7111 55.4452 41.8425H51.4452ZM50.2484 43.0393H48.3303V47.0393H50.2484V43.0393ZM50.3303 45.0393V36.4427H46.3303V45.0393H50.3303ZM48.3303 38.4427H50.2484V34.4427H48.3303V38.4427ZM50.2484 38.4427C50.9078 38.4427 51.4452 38.98 51.4452 39.6394H55.4452C55.4452 36.7709 53.117 34.4427 50.2484 34.4427V38.4427ZM51.4452 39.6394V41.8425H55.4452V39.6394H51.4452Z" fill="#1D1F20" mask="url(#path-98-inside-1_721_162)"/>
</svg>
