<svg width="288" height="213" viewBox="0 0 288 213" fill="none" xmlns="http://www.w3.org/2000/svg">
<g clip-path="url(#clip0_226_7929)">
<path d="M40.2982 29.2736C-23.9059 91.573 13.6946 210.476 13.6946 210.476L267.207 210.992C267.207 210.992 314.445 126.412 265.639 57.687C220.571 -5.77433 89.5224 -18.4904 40.2982 29.2736Z" fill="#2A8E9E" fill-opacity="0.3"/>
<path d="M18.0889 208.947H96.1602L96.1602 29.2739H18.0889L18.0889 208.947Z" fill="#0D5370" fill-opacity="0.3"/>
<path d="M65.5301 208.999H70.6348L70.6348 18.6608H65.5301L65.5301 208.999Z" fill="#0D5370"/>
<path d="M65.5357 18.6641C65.5361 19.1477 65.5706 208.923 65.5706 208.923H18.3169V29.159L65.5357 18.6641Z" fill="#2A8E9E"/>
<path d="M23.7256 44.9131L23.9583 95.1595C24.1571 95.135 24.3542 95.1232 24.5491 95.1232C27.1302 95.1232 29.2945 97.2149 29.3069 99.8698L55.5308 96.6412C55.52 94.2248 57.3176 92.1827 59.7148 91.8874L59.4788 39.2958C59.1418 39.3675 58.8069 39.4017 58.4782 39.4017C55.9231 39.4017 53.7339 37.3321 53.7218 34.6533L27.5009 40.2274C27.5116 42.4868 25.9351 44.4435 23.7256 44.9131ZM25.5648 46.2116C27.3698 45.3494 28.7012 43.6968 29.1601 41.7493L52.2677 36.837C53.0884 39.146 55.159 40.8691 57.6542 41.1838L57.8754 90.4774C55.9065 91.2541 54.421 92.9419 53.9 94.9941L30.8122 97.8367C30.0714 95.5821 28.1471 93.8579 25.7836 93.4058L25.5648 46.2116Z" fill="#0D5370" fill-opacity="0.3"/>
<path d="M23.8071 136.475L23.913 196.36C23.9159 196.36 23.9188 196.36 23.9216 196.36C26.5499 196.36 28.6829 198.489 28.6877 201.12L35.54 201.107C35.54 198.477 37.6688 196.344 40.2979 196.339V135.867C40.1581 135.879 40.0193 135.885 39.8817 135.885C37.2802 135.885 35.1223 133.771 35.1223 131.116L28.1638 131.716C28.1684 134.194 26.2747 136.263 23.8071 136.475ZM25.6428 137.929C27.6578 137.191 29.2141 135.491 29.773 133.418L33.5896 133.089C34.2907 135.327 36.1521 137.056 38.4647 137.565V194.767C36.3011 195.398 34.5919 197.111 33.9655 199.276L30.2582 199.283C29.6263 197.117 27.9114 195.407 25.7434 194.782L25.6428 137.929Z" fill="#0D5370" fill-opacity="0.3"/>
<path d="M43.3535 134.783V196.318H43.3621C45.9938 196.318 48.1282 198.452 48.1282 201.086L53.7251 201.076C53.7449 198.461 55.8679 196.35 58.4828 196.345L58.9567 134.296C58.8169 134.308 58.678 134.313 58.5404 134.313C55.925 134.313 53.7608 132.178 53.7812 129.509L47.7104 130.032C47.7104 132.507 45.818 134.57 43.3535 134.783ZM45.1866 136.247C47.2302 135.519 48.7771 133.833 49.3263 131.733L52.2348 131.483C52.5435 132.494 53.0956 133.422 53.8618 134.195C54.7671 135.107 55.8887 135.723 57.1104 135.992L56.6615 194.771C54.5093 195.397 52.8006 197.096 52.1622 199.245L49.7014 199.25C49.0723 197.08 47.3573 195.367 45.1864 194.741L45.1866 136.247Z" fill="#0D5370" fill-opacity="0.3"/>
<path d="M54.7456 117.629C55.8089 117.629 56.6708 115.956 56.6708 113.893C56.6708 111.831 55.8089 110.158 54.7456 110.158C53.6823 110.158 52.8203 111.831 52.8203 113.893C52.8203 115.956 53.6823 117.629 54.7456 117.629Z" fill="#F7C5C2"/>
<path d="M51.0176 112.578V115.523H55.0519C55.1711 115.037 55.2374 114.493 55.2374 113.92C55.2374 113.448 55.192 112.995 55.1084 112.578H51.0176Z" fill="#FE7E75"/>
<path d="M48.2393 113.893C48.2393 117.002 49.5383 119.522 51.1407 119.522C52.7431 119.522 54.042 117.002 54.042 113.893C54.042 110.784 52.7431 108.264 51.1407 108.264C49.5383 108.264 48.2393 110.784 48.2393 113.893Z" fill="#F7C5C2"/>
<path d="M50.3624 119.522C51.9648 119.522 53.2638 117.002 53.2638 113.893C53.2638 110.784 51.9648 108.264 50.3624 108.264C48.76 108.264 47.4609 110.784 47.4609 113.893C47.4609 117.002 48.76 119.522 50.3624 119.522Z" fill="#F7C5C2"/>
<path d="M1.95217 212.652H283.151C283.865 212.652 284.443 211.807 284.443 210.763C284.443 209.719 283.865 208.873 283.151 208.873H1.95217C1.23858 208.873 0.660156 209.719 0.660156 210.763C0.660156 211.807 1.23858 212.652 1.95217 212.652Z" fill="#0D5370"/>
<path d="M250.099 200.033C250.099 200.033 250.119 200.214 250.119 200.516C250.119 201.423 249.943 203.421 248.526 204.895C246.637 206.861 246.626 209.306 248.622 209.724C250.617 210.141 255.375 209.59 255.375 209.59C255.375 209.59 256.451 207.72 255.716 202.725C254.982 197.73 254.555 192.252 254.555 192.252L249.134 191.405L250.099 200.033Z" fill="#FEBBBA"/>
<path d="M249.037 202.157C249.037 202.157 247.026 204.887 246.555 206.027C246.084 207.166 246.186 209.999 246.555 210.291C249.807 212.859 255.973 210.548 255.973 210.548C255.973 210.548 256.397 208.664 256.611 206.352C256.825 204.041 256.705 201.887 255.973 201.887C255.242 201.887 255.114 203.099 253.445 202.757C251.776 202.414 250.749 201.815 249.037 202.157Z" fill="#013A51"/>
<path d="M256.485 207.504C255.231 207.994 253.529 208.567 251.947 208.793C250.258 209.034 247.983 208.282 246.267 207.526C246.178 208.737 246.305 210.094 246.555 210.291C249.807 212.86 255.973 210.548 255.973 210.548C255.973 210.548 256.263 209.258 256.485 207.504Z" fill="#F9FEFF"/>
<path d="M256.485 207.504C251.819 208.906 250.961 209.155 246.267 207.526C247.048 207.946 247.87 208.295 248.721 208.564C250.525 209.123 251.59 209.074 252.715 208.822C254.057 208.523 255.321 208.066 256.485 207.504Z" fill="#957447"/>
<path d="M195.857 115.066C197.191 115.568 198.961 116.314 198.961 116.314C199.19 115.763 194.784 114.821 194.166 113.479C193.835 112.761 199.222 115.405 199.596 115.09C199.751 114.959 193.503 112.924 193.791 112.433C194.034 112.02 200.361 114.251 200.396 113.942C200.444 113.513 194.918 112.404 195.412 111.787C195.666 111.47 202.373 113.285 203.097 113.391C203.983 113.391 200.778 111.214 201.87 110.923C203.352 110.527 207.074 114.796 207.365 114.856C208.208 115.031 215.382 115.91 218.895 113.611C221.733 111.755 224.485 108.9 225.16 106.442C225.82 104.032 226.736 100.59 225.953 97.9344C229.149 97.4478 232.249 97.3362 235.493 97.7238C235.69 101.712 230.917 117.512 228.921 118.813C224.531 121.673 216.698 120.973 211.176 120.518C206.726 120.152 202.367 119.275 198.359 117.24C197.463 116.785 196.262 116.275 195.569 115.484C195.39 115.279 195.602 114.97 195.857 115.066Z" fill="#FE9D9A"/>
<path d="M227.949 84.5501C225.57 87.0076 223.169 101.732 224.053 105.241C225.579 108.092 232.49 108.584 234.725 109.936C239.881 107.815 236.349 98.3044 236.349 98.3044L238.229 79.7793C238.229 79.7793 232.479 79.8691 227.949 84.5501Z" fill="#E65A53"/>
<path d="M234.451 196.74C235.155 198.954 234.459 201.391 232.655 202.853C232.032 203.358 231.309 203.831 230.491 204.188C227.333 205.57 223.242 205.259 222.672 208.096C222.101 210.933 242.699 207.3 242.699 207.3C242.699 207.3 241.269 200.4 241.177 199.244C241.084 198.088 241.303 193.844 241.303 193.844L233.349 193.272L234.451 196.74Z" fill="#FEBBBA"/>
<path d="M241.862 202.418C241.862 202.418 242.114 203.514 242.691 205.371C243.267 207.229 242.908 208.979 242.908 208.979C242.908 208.979 223.615 209.893 222.835 209.282C222.054 208.67 222.455 206.445 222.652 206.248C222.85 206.051 225.298 205.39 226.553 204.615C227.809 203.84 232.097 200.908 233.546 201.026C234.995 201.144 235.664 202.215 238.415 202.337C241.167 202.46 241.179 201.883 241.862 202.418Z" fill="#013A51"/>
<path d="M222.835 209.281C223.615 209.892 242.908 208.978 242.908 208.978C242.908 208.978 243.144 207.829 242.927 206.406C232.856 208.272 222.652 206.247 222.652 206.247C222.455 206.444 222.054 208.669 222.835 209.281Z" fill="#F9FEFF"/>
<path d="M242.927 206.406C236.05 207.78 228.425 207.489 222.652 206.247C233.153 207.833 241.621 206.604 241.035 206.663C241.06 206.66 243.054 206.389 242.927 206.406Z" fill="#957447"/>
<path d="M257.826 129.869C261.137 141.977 257.027 196.29 257.027 196.29L247.117 195.611C247.117 195.611 244.863 141.581 243.228 139.945C242.749 139.466 242.235 139.618 241.84 139.89C241.442 140.164 241.162 140.578 241.021 141.041C240.001 144.374 234.172 163.781 235.347 168.03C236.634 172.684 242.375 197.612 242.375 197.612L234.06 197.944C234.06 197.944 222.66 178.9 222.66 165.605C222.66 152.31 224.514 134.687 229.902 127.516C232.354 124.252 244.426 121.728 244.426 121.728C244.426 121.728 256.792 126.087 257.826 129.869Z" fill="#013A51"/>
<path d="M239.917 197.59C239.917 197.59 234.176 171.01 232.889 166.048C231.955 162.445 235.449 148.624 237.432 141.326C238.028 139.135 240.659 138.253 242.455 139.641C242.455 139.641 234.061 163.377 235.347 168.031C236.634 172.684 242.376 197.612 242.376 197.612L234.061 197.944C234.061 197.944 234.04 197.909 234 197.842L239.917 197.59Z" fill="#013A51"/>
<path d="M255.77 127.356C256.832 128.187 257.6 129.042 257.826 129.869C261.136 141.977 257.027 196.29 257.027 196.29L254.573 196.122C254.711 194.157 258.269 143.035 255.77 127.356Z" fill="#013A51"/>
<path d="M227.998 130.763C228.577 129.53 229.21 128.437 229.902 127.517C230.186 127.137 230.601 126.768 231.111 126.412C232.489 127.116 234.393 127.884 237.027 128.694C244.971 131.138 253.537 129.835 257.095 128.596C257.457 129.023 257.711 129.45 257.826 129.87C258.113 130.92 258.345 132.288 258.528 133.91C256.751 135.232 246.424 138.426 237.027 135.434C231.064 133.536 228.841 132.385 227.998 130.763Z" fill="#013A51"/>
<path d="M257.023 200.401C254.484 201.226 248.373 201.022 246.913 200.401C245.568 199.83 245.477 194.822 246.913 194.551C248.932 194.169 254.653 194.212 257.023 194.551C258.47 194.758 258.414 199.95 257.023 200.401Z" fill="#013A51"/>
<path d="M241.954 198.165C239.415 198.99 233.304 198.785 231.844 198.165C230.499 197.593 230.408 192.586 231.844 192.315C233.863 191.933 239.585 191.975 241.954 192.315C243.402 192.522 243.345 197.714 241.954 198.165Z" fill="#013A51"/>
<path d="M245.74 79.3647C245.74 79.3647 254.004 78.9396 257.381 82.9433C260.758 86.947 260.483 129.009 259.115 130.183C257.748 131.356 246.004 134.902 236.676 132.141C227.347 129.379 226.753 125.589 226.753 125.589C226.753 125.589 229.236 97.3017 229.236 89.5703C229.236 81.8389 236.781 77.2846 245.74 79.3647Z" fill="#FE7A6F"/>
<path d="M253.029 121.97C253.759 119.939 252.977 113.479 252.146 108.805C251.496 108.93 250.87 109.078 250.279 109.248C249.281 106.157 248.401 98.1341 248.372 93.0902C248.316 83.6287 253.104 80.877 253.104 80.877C254.053 80.6602 255.571 81.5536 257.946 84.0261C260.688 91.5267 260.114 126.433 258.828 127.536C258.281 128.007 257.209 130.957 254.445 131.543C253.727 128.721 252.354 123.848 253.029 121.97Z" fill="#E65A53"/>
<path d="M246.452 79.4512C248.244 81.099 248.383 81.1305 246.521 83.2923C244.66 85.4541 238.495 87.9122 237.616 87.4969C235.435 86.4665 237.465 83.0263 238.917 80.5521C239.371 79.7794 244.66 77.8036 246.452 79.4512Z" fill="#E65A53"/>
<path d="M238.443 73.2216C238.443 73.2216 237.961 84.6052 238.443 85.1037C238.926 85.6024 245.842 83.1927 246.445 81.7801C247.048 80.3675 243.925 59.7881 243.925 59.7881L238.443 73.2216Z" fill="#FE9D9A"/>
<path opacity="0.6" d="M238.234 80.7287C239.457 80.5084 240.509 80.1973 240.818 79.848C243.639 76.6601 241.526 71.4872 241.747 70.1419C242.188 67.4648 243.087 65.2529 242.637 62.9443L238.443 73.2221C238.443 73.2221 238.268 77.3381 238.234 80.7287Z" fill="#FE9D9A"/>
<path d="M201.359 86.1539C200.889 87.3393 201.867 88.489 202.89 87.9795C203.131 87.8595 203.315 87.644 203.415 87.3939C203.886 86.2079 202.907 85.0568 201.883 85.568C201.642 85.6882 201.459 85.9038 201.359 86.1539Z" fill="#013A51"/>
<path d="M201.994 86.7244L202.344 87.2155L202.556 86.6278C202.832 85.8614 205.182 79.0938 202.588 77.554C201.822 77.0976 201.1 77.2452 200.607 77.9534C199.473 79.5838 199.826 83.6812 201.994 86.7244ZM201.124 78.4345C201.363 78.091 201.659 77.9839 202.024 78.1123C202.108 78.1416 202.195 78.1831 202.285 78.2367C203.861 79.1726 202.867 83.4866 202.155 85.7075C200.422 82.895 200.352 79.5452 201.124 78.4345Z" fill="#013A51"/>
<path d="M202.321 86.349L202.862 86.4662C203.355 86.5725 203.846 86.6222 204.324 86.6222C206.732 86.6222 208.834 85.3776 209.343 83.9407C209.613 83.1769 209.397 82.4506 208.751 81.9472C206.591 80.2684 203.059 85.273 202.664 85.8503L202.321 86.349ZM203.558 85.8083C204.567 84.4659 206.438 82.3722 207.747 82.3722C207.979 82.3722 208.192 82.4373 208.381 82.5844C208.763 82.8823 208.877 83.2306 208.729 83.6495C208.326 84.7882 206.12 86.1165 203.558 85.8083Z" fill="#013A51"/>
<path d="M185.091 116.282H217.599C219.379 116.282 220.822 114.838 220.822 113.058V90.1005C220.822 88.3201 219.379 86.877 217.6 86.877H185.091C183.311 86.877 181.868 88.3203 181.868 90.1006V113.058C181.868 114.839 183.311 116.282 185.091 116.282Z" fill="#FE7A6F"/>
<path d="M184.417 86.877H196.592V116.282H184.417C183.009 116.282 181.868 114.457 181.868 112.207V90.9521C181.868 88.7015 183.009 86.877 184.417 86.877Z" fill="#E65A53"/>
<path d="M207.542 86.877H208.503C213.699 96.261 210.515 112.698 209.732 116.282H208.982C209.52 113.867 213.232 95.9893 207.586 86.9636C207.569 86.9363 207.555 86.9073 207.542 86.877Z" fill="#013A51"/>
<path d="M189.576 116.171C189.581 116.208 189.583 116.245 189.583 116.282H188.871C186.774 99.5289 189.088 90.6668 190.65 86.877H191.53C190.11 90.0447 187.383 98.7757 189.576 116.171Z" fill="#013A51"/>
<path d="M247.388 148.072H271.655C272.115 148.072 272.487 147.7 272.487 147.24V131.48C272.487 131.021 272.115 130.648 271.655 130.648H247.388C246.929 130.648 246.557 131.021 246.557 131.48V147.24C246.557 147.7 246.929 148.072 247.388 148.072Z" fill="#50BFA5"/>
<path d="M247.546 146.065H269.509V132.655H247.546V146.065Z" fill="#F9FEFF"/>
<path d="M246.471 143.194H247.849C248.108 143.194 248.318 142.984 248.318 142.725V135.996C248.318 135.736 248.108 135.526 247.849 135.526H246.471C246.212 135.526 246.002 135.736 246.002 135.996V142.725C246.002 142.984 246.212 143.194 246.471 143.194Z" fill="#E65A53"/>
<path d="M255.022 121.97C253.387 126.946 259.144 137.71 256.806 141.155C254.468 144.599 255.644 148.217 258.477 150.01C261.311 151.803 264.832 149.29 264.548 147.925C264.264 146.559 263.5 142.884 263.151 141.204C262.801 139.523 269.391 126.063 264.752 117.899C262 113.055 266.07 104.718 263.92 99.3311C261.995 102.919 252.886 100.677 253.409 104.614C254.24 107.977 255.941 119.173 255.022 121.97Z" fill="#FE9D9A"/>
<path d="M234.383 61.4188C234.383 61.4188 233.197 65.5043 233.197 68.8544C233.197 72.2046 233.276 78.0061 235.649 78.0061C238.021 78.0061 241.421 77.3525 242.212 72.6132C243.003 67.874 242.212 62.6444 239.84 61.4188C237.467 60.1931 234.383 61.4188 234.383 61.4188Z" fill="#FEBBBA"/>
<path d="M235.31 64.437C235.948 64.1736 236.608 64.7435 236.486 65.4423C236.29 66.5623 236.338 67.7893 237.386 68.0451C239.402 68.5374 240.355 68.0451 240.685 68.386C241.015 68.7268 239.732 70.5449 240.685 70.8858C241.638 71.2267 242.151 67.9694 242.994 67.9694C243.837 67.9694 244.02 72.666 242.994 73.7266C241.968 74.7871 243.14 76.2264 244.497 76.2264C245.853 76.2264 244.325 77.9309 246.152 78.499C247.979 79.0671 249.445 79.0671 250.032 76.7566C250.618 74.4462 250.032 73.1583 250.032 73.1583C250.032 73.1583 251.899 70.9741 251.425 68.8152C251.161 67.6151 249.947 65.4565 249.947 65.4565C249.947 65.4565 249.006 62.8939 248.749 61.4167C248.493 59.9395 244.857 58.4623 242.368 58.1972C239.878 57.9321 241.125 56.417 239.035 56.417C236.946 56.417 236.659 59.1772 236.659 59.1772C236.659 59.1772 233.675 57.393 233.537 57.4775C231.8 58.5357 233.244 60.3939 233.244 60.3939C233.244 60.3939 231.814 60.5454 231.521 62.4015C231.228 64.2573 232.437 65.3937 234.343 64.7877C234.704 64.673 235.026 64.5542 235.31 64.437Z" fill="#013A51"/>
<path d="M233.245 57.6865C233.613 57.7392 234.097 57.8556 234.677 58.0286C235.57 58.5255 236.659 59.177 236.659 59.177C236.659 59.177 240.553 60.2674 242.785 61.3314C245.645 62.6951 248.152 64.063 249.835 65.141C249.905 65.3392 249.948 65.4562 249.948 65.4562C249.948 65.4562 250.394 66.2499 250.804 67.1424C249.032 66.7552 245.573 65.4205 241.714 63.5807C237.356 61.503 233 57.895 233.245 57.6865Z" fill="#013A51"/>
<path d="M241.671 67.7142C241.671 67.7142 242.679 65.8574 243.577 66.8934C244.474 67.9296 244.003 72.3105 242.624 72.3105C241.245 72.3105 241.182 68.8882 241.671 67.7142Z" fill="#FEBBBA"/>
<path d="M252.851 80.9656C252.851 80.9656 250.04 83.1054 250.091 92.5668C250.118 97.6108 251.598 106.157 252.51 109.248C256.295 108.052 261.633 107.974 265.499 109.248C266.02 105.121 264.967 96.3116 264.311 93.4657C262.698 86.467 256.867 79.3643 252.851 80.9656Z" fill="#FE7A6F"/>
<path d="M235.842 58.1802C237.711 54.257 242.435 52.6066 246.394 54.4939C250.352 56.3813 252.046 61.0917 250.177 65.0149C250.105 65.166 250.028 65.3124 249.947 65.4566L235.644 58.637C235.705 58.4838 235.77 58.3313 235.842 58.1802Z" fill="#E65A53"/>
<path d="M238.815 59.9701C238.877 59.817 238.941 59.6645 239.013 59.5134C240.575 56.2364 244.128 54.5452 247.563 55.1768C247.199 54.9209 246.809 54.6919 246.394 54.4939C242.435 52.6066 237.711 54.257 235.842 58.1802C235.77 58.3313 235.705 58.4838 235.644 58.6371L249.947 65.4567C249.974 65.4096 238.815 59.9701 238.815 59.9701Z" fill="#FE7A6F"/>
<path d="M229.257 55.786C229.409 55.4664 236.856 58.5052 241.618 60.7753C246.379 63.0454 250.115 65.1447 249.963 65.4643C249.811 65.7838 241.914 63.9285 237.152 61.6585C232.391 59.3884 229.104 56.1055 229.257 55.786Z" fill="#E65A53"/>
<path d="M88.4446 196.532C88.4446 196.532 86.7616 198.197 86.7233 198.808C86.6851 199.419 86.5744 205.966 87.2612 206.577C87.9482 207.189 89.9663 207.622 89.3178 208.31C88.8273 208.829 85.0545 208.718 82.5542 208.579C81.8244 208.538 80.9091 202.633 80.6199 201.765C80.2002 200.504 78.8736 197.333 79.2551 196.455C79.4413 196.027 80.6365 195.479 81.8902 194.658C83.209 193.794 84.4708 191.871 84.4708 191.871L88.4446 196.532Z" fill="#FE9D9A"/>
<path d="M110.939 200.661C110.939 200.661 109.433 204.975 109.431 204.986C109.319 205.669 108.878 207.358 108.878 207.979C108.878 210.314 119.26 205.998 116.933 204.964C116.723 204.87 116.062 204.122 115.993 203.328C115.886 202.104 116.867 200.568 116.867 200.568L110.939 200.661Z" fill="#FE9D9A"/>
<path d="M110.096 123.701L104.721 129.974L99.4505 162.791L82.8638 193.406C82.8638 193.406 85.358 197.237 88.0359 197.839L111.578 166.897L124.337 128.161L123.889 119.555L110.096 123.701Z" fill="#013A51"/>
<path d="M123.55 117.646L127.265 129.107C127.265 129.107 130.535 163.25 130.07 165.602C128.935 171.339 117.468 202.583 117.468 202.583L110.122 201.647L118.185 164.706L104.75 130.003L123.55 117.646Z" fill="#013A51"/>
<path d="M159.216 78.6287C157.479 80.5456 157.857 80.7761 157.628 81.0155C157.356 81.2989 152.315 82.3731 152.315 82.3731C152.315 82.3731 137.48 85.6423 136.672 85.7895L121.282 82.2876L117.535 89.7476C117.535 89.7476 134.37 93.0929 135.278 93.1076C136.186 93.1223 155.72 86.2582 157.459 85.7121C157.459 85.7121 159.772 85.8626 161.228 85.9074C162.683 85.9518 164.074 85.3186 164.485 85.2652C164.546 85.2574 165.903 84.997 167.487 84.2106C168.852 83.5329 167.253 83.5197 167.253 83.5197C167.253 83.5197 164.502 84.2986 164.478 84.0611C164.46 83.8778 165.987 83.5451 167.505 82.8118C167.896 82.6233 168.28 82.4357 168.632 82.2605C169.556 81.8006 169.543 81.0742 168.501 81.3939C168.133 81.5067 167.526 81.71 167.114 81.9187C166.669 82.1446 166.188 82.201 165.786 82.3305C164.986 82.588 164.406 82.7864 164.414 82.7461C164.423 82.6937 164.229 82.6271 164.637 82.4137C165.128 82.1569 166.289 81.8535 166.982 81.417C167.375 81.1695 168.227 80.7049 168.227 80.7049C168.227 80.7049 169.649 79.7752 169.51 79.583C169.208 79.1635 168.214 79.5882 167.723 79.9979C167.28 80.0896 166.397 80.6051 166.397 80.6051C166.397 80.6051 164.383 81.2262 164.292 80.9288C164.255 80.8106 165.293 80.208 166.331 79.4884C167.429 78.7277 168.183 78.1246 168.077 77.8799C167.911 77.4902 166.986 78.0314 166.986 78.0314C166.986 78.0314 166.171 78.509 165.888 78.6458C165.557 78.806 164.529 79.207 164.529 79.207C164.529 79.207 160.886 80.4272 160.822 80.1379C160.758 79.849 160.877 79.0429 161.077 78.8852C161.276 78.7275 161.789 78.641 161.989 78.4834C162.189 78.3257 162.586 77.9458 162.416 77.6729C162.247 77.3993 160.731 77.765 160.731 77.765C160.731 77.765 159.718 78.0754 159.216 78.6287Z" fill="#FE9D9A"/>
<path d="M126.559 83.0797C126.559 83.0797 126.03 86.3499 125.689 87.56C125.406 88.5653 123.414 92.7004 123.414 92.7004C123.414 92.7004 116.278 90.3599 112.906 89.0211C108.815 87.3971 104.086 83.8989 104.393 83.4559C105.254 82.2139 106.645 80.7632 108.608 80.2724C115.401 78.5738 126.559 83.0797 126.559 83.0797Z" fill="#35E0FB"/>
<path d="M127.383 128.866C120.575 131.554 104.572 130.003 104.572 130.003C104.572 130.003 105.586 123.013 105.945 118.292C106.303 113.574 103.3 106.104 102.032 93.1423C101.763 90.3934 102.838 82.9697 106.69 80.6398C108.045 79.8221 108.872 79.7146 108.872 79.7146C108.908 79.7139 114.173 78.6398 116.859 79.4678C117.622 80.1483 120.002 82.1129 121.371 84.4107C123.169 87.4537 124.646 90.9631 124.993 92.1174C126.545 97.2577 127.204 112.141 127.204 114.947C127.204 117.754 127.383 128.866 127.383 128.866Z" fill="#2CCBE4"/>
<path d="M121.37 84.4106C121.367 84.4142 121.359 84.4142 121.352 84.4176C118.736 85.2312 108.868 79.7432 108.868 79.7432L108.872 79.7144L110.069 71.8858C110.069 71.8858 116.228 70.4345 115.87 72.6602C115.511 74.8826 116.705 79.3272 116.705 79.3272C116.744 79.3671 116.794 79.4136 116.859 79.4676C117.622 80.1482 120.001 82.1127 121.37 84.4106Z" fill="#FE9D9A"/>
<path d="M115.869 72.6596C116.228 70.4356 110.067 71.8874 110.067 71.8874L109.968 72.5388C110.148 72.9745 110.368 73.3475 110.636 73.6336C112.012 75.1052 114.163 75.989 116.023 76.0559C115.836 74.8569 115.722 73.5715 115.869 72.6596Z" fill="#FE9D9A"/>
<path d="M108.878 59.8503C108.689 59.7821 107.366 69.5408 109.877 72.2259C112.388 74.9111 117.28 75.7899 119.035 73.6751C120.976 71.3361 120.879 60.8476 116.975 58.0856C113.07 55.3231 108.878 59.8503 108.878 59.8503Z" fill="#FEBBBA"/>
<path d="M115.488 52.865C112.471 53.4762 110.516 55.3088 109.798 56.0901C108.428 56.2502 106.565 57.0031 104.642 60.1669C102.277 64.0575 104.024 68.3681 106.776 70.4829C109.529 72.5973 109.498 75.0528 109.498 75.0528C109.498 75.0528 114.162 72.6582 113.709 68.9696C113.519 67.4215 112.848 67.0704 113.351 65.8583C113.873 64.6 113.483 62.6439 113.58 60.9449L113.86 59.8738C113.86 59.8738 115.813 58.3633 117.724 58.7892C119.635 59.2155 119.36 52.0806 115.488 52.865Z" fill="#013A51"/>
<path d="M114.115 66.8757C114.135 68.0663 113.894 69.0198 113.202 69.0315C112.51 69.0435 112.315 68.5771 111.742 66.8969C111.205 65.3215 111.857 64.7315 112.549 64.7198C113.241 64.7077 114.095 65.6854 114.115 66.8757Z" fill="#FEBBBA"/>
<path d="M81.9722 194.616C81.9722 194.616 85.4875 205.42 87.0057 205.955C87.4087 206.096 89.7073 206.728 90.0722 207.595C90.0812 207.617 90.089 207.643 90.0953 207.672C90.2129 208.222 89.7514 208.729 89.1894 208.729H81.9868C81.9868 208.729 80.9643 203.85 80.5601 201.706C80.5601 201.706 78.4197 196.468 78.6576 195.991C78.8956 195.516 81.9722 194.616 81.9722 194.616Z" fill="#35E0FB"/>
<path d="M108.308 208.712L109.497 204.903C109.497 204.903 111.994 205.975 113.242 205.796C114.49 205.617 116.928 204.903 116.928 204.903C121.911 206.566 125.994 207.374 125.251 208.712H108.308Z" fill="#35E0FB"/>
<path d="M159.644 95.1224C157.351 96.5134 157.486 96.6794 157.187 96.8504C156.834 97.0522 151.385 96.8134 151.385 96.8134C151.385 96.8134 135.319 96.2135 134.453 96.1512L119.638 88.9619L113.8 95.1308C113.8 95.1308 130.136 102.533 131.061 102.775C131.987 103.016 153.826 101.367 155.753 101.283C155.753 101.283 158.081 102.005 159.559 102.412C161.037 102.819 162.632 102.564 163.066 102.616C163.13 102.624 164.59 102.715 166.422 102.363C168.002 102.059 166.368 101.646 166.368 101.646C166.368 101.646 163.343 101.699 163.383 101.467C163.413 101.288 165.065 101.353 166.816 101.035C167.267 100.953 167.711 100.87 168.118 100.792C169.187 100.584 169.369 99.8895 168.216 99.9334C167.809 99.9485 167.134 99.9903 166.656 100.086C166.139 100.19 165.632 100.123 165.185 100.145C164.298 100.191 163.701 100.233 163.72 100.197C163.743 100.149 163.512 100.039 163.987 99.9375C164.559 99.816 165.829 99.8174 166.656 99.575C167.124 99.4379 168.121 99.2084 168.121 99.2084C168.121 99.2084 169.304 98.502 169.296 98.4081C169.252 97.9001 168.408 98.1414 167.795 98.4089C167.317 98.3848 166.275 98.655 166.275 98.655C166.275 98.655 164.046 98.7425 164.032 98.4366C164.027 98.3194 165.312 98.2326 166.638 97.8108C168.157 97.3274 168.533 96.6465 168.49 96.3768C168.424 95.9637 167.568 96.351 167.568 96.351C167.568 96.351 166.397 96.8849 166.071 96.9444C165.689 97.0142 160.681 97.1055 160.693 96.8144C160.705 96.5232 161.189 96.1412 161.435 96.041C161.682 95.9405 162.152 95.8049 162.398 95.7052C162.645 95.6047 162.815 95.0945 162.715 94.7918C162.614 94.4888 161.525 94.6521 161.525 94.6521C161.525 94.6521 160.306 94.7208 159.644 95.1224Z" fill="#FE9D9A"/>
<path d="M118.187 101.745C118.187 101.745 121.103 98.0666 122.119 96.5773C124.091 93.6864 125.743 90.4285 125.743 90.4285C125.743 90.4285 117.62 85.7488 114.593 84.153C103.486 78.296 103.744 87.0305 104.26 88.9688C105.415 93.3044 118.187 101.745 118.187 101.745Z" fill="#35E0FB"/>
<path d="M159.403 82.6836C160.364 82.1357 161.107 81.2766 160.863 80.1953C161.686 81.0514 160.648 82.6325 159.403 82.6836Z" fill="#FE875E"/>
</g>
<defs>
<clipPath id="clip0_226_7929">
<rect width="287.748" height="213" fill="white"/>
</clipPath>
</defs>
</svg>
