<svg width="1440" height="181" viewBox="0 0 1440 181" fill="none" xmlns="http://www.w3.org/2000/svg">
<g opacity="0.5">
<path d="M45.9193 38.9231C45.9193 51.5831 35.6399 61.8462 22.9596 61.8462C10.2794 61.8462 0 51.5831 0 38.9231C0 26.263 10.2794 16 22.9596 16C35.6399 16 45.9193 26.263 45.9193 38.9231Z" fill="#2A8E9E"/>
<path d="M45.9193 38.9231C45.9193 51.5831 35.6399 61.8462 22.9596 61.8462C10.2794 61.8462 0 51.5831 0 38.9231C0 26.263 10.2794 16 22.9596 16C35.6399 16 45.9193 26.263 45.9193 38.9231Z" fill="#2A8E9E"/>
<path d="M200.897 38.9231C200.897 51.5831 190.617 61.8462 177.937 61.8462C165.257 61.8462 154.978 51.5831 154.978 38.9231C154.978 26.263 165.257 16 177.937 16C190.617 16 200.897 26.263 200.897 38.9231Z" fill="#2A8E9E"/>
<path d="M200.897 38.9231C200.897 51.5831 190.617 61.8462 177.937 61.8462C165.257 61.8462 154.978 51.5831 154.978 38.9231C154.978 26.263 165.257 16 177.937 16C190.617 16 200.897 26.263 200.897 38.9231Z" fill="#0D5370"/>
<path d="M355.874 38.9231C355.874 51.5831 345.595 61.8462 332.915 61.8462C320.235 61.8462 309.955 51.5831 309.955 38.9231C309.955 26.263 320.235 16 332.915 16C345.595 16 355.874 26.263 355.874 38.9231Z" fill="#2A8E9E"/>
<path d="M355.874 38.9231C355.874 51.5831 345.595 61.8462 332.915 61.8462C320.235 61.8462 309.955 51.5831 309.955 38.9231C309.955 26.263 320.235 16 332.915 16C345.595 16 355.874 26.263 355.874 38.9231Z" fill="#2A8E9E"/>
<path d="M614.17 38.9231C614.17 51.5831 603.891 61.8462 591.211 61.8462C578.531 61.8462 568.251 51.5831 568.251 38.9231C568.251 26.263 578.531 16 591.211 16C603.891 16 614.17 26.263 614.17 38.9231Z" fill="#0D5370"/>
<path d="M614.17 38.9231C614.17 51.5831 603.891 61.8462 591.211 61.8462C578.531 61.8462 568.251 51.5831 568.251 38.9231C568.251 26.263 578.531 16 591.211 16C603.891 16 614.17 26.263 614.17 38.9231Z" fill="#0D5370"/>
<path d="M717.489 38.9231C717.489 51.5831 707.209 61.8462 694.529 61.8462C681.849 61.8462 671.569 51.5831 671.569 38.9231C671.569 26.263 681.849 16 694.529 16C707.209 16 717.489 26.263 717.489 38.9231Z" fill="#0D5370"/>
<path d="M717.489 38.9231C717.489 51.5831 707.209 61.8462 694.529 61.8462C681.849 61.8462 671.569 51.5831 671.569 38.9231C671.569 26.263 681.849 16 694.529 16C707.209 16 717.489 26.263 717.489 38.9231Z" fill="#0D5370"/>
<path d="M45.9193 142.077C45.9193 154.737 35.6399 165 22.9596 165C10.2794 165 0 154.737 0 142.077C0 129.417 10.2794 119.154 22.9596 119.154C35.6399 119.154 45.9193 129.417 45.9193 142.077Z" fill="#2A8E9E"/>
<path d="M45.9193 142.077C45.9193 154.737 35.6399 165 22.9596 165C10.2794 165 0 154.737 0 142.077C0 129.417 10.2794 119.154 22.9596 119.154C35.6399 119.154 45.9193 129.417 45.9193 142.077Z" fill="#2A8E9E"/>
<path d="M252.556 142.077C252.556 154.737 242.277 165 229.596 165C216.916 165 206.637 154.737 206.637 142.077C206.637 129.417 216.916 119.154 229.596 119.154C242.277 119.154 252.556 129.417 252.556 142.077Z" fill="#2A8E9E"/>
<path d="M252.556 142.077C252.556 154.737 242.277 165 229.596 165C216.916 165 206.637 154.737 206.637 142.077C206.637 129.417 216.916 119.154 229.596 119.154C242.277 119.154 252.556 129.417 252.556 142.077Z" fill="#2A8E9E"/>
<path d="M459.193 142.077C459.193 154.737 448.913 165 436.233 165C423.553 165 413.274 154.737 413.274 142.077C413.274 129.417 423.553 119.154 436.233 119.154C448.913 119.154 459.193 129.417 459.193 142.077Z" fill="#2A8E9E"/>
<path d="M459.193 142.077C459.193 154.737 448.913 165 436.233 165C423.553 165 413.274 154.737 413.274 142.077C413.274 129.417 423.553 119.154 436.233 119.154C448.913 119.154 459.193 129.417 459.193 142.077Z" fill="#2A8E9E"/>
<path d="M665.83 142.077C665.83 154.737 655.55 165 642.87 165C630.19 165 619.91 154.737 619.91 142.077C619.91 129.417 630.19 119.154 642.87 119.154C655.55 119.154 665.83 129.417 665.83 142.077Z" fill="#2A8E9E"/>
<path d="M665.83 142.077C665.83 154.737 655.55 165 642.87 165C630.19 165 619.91 154.737 619.91 142.077C619.91 129.417 630.19 119.154 642.87 119.154C655.55 119.154 665.83 129.417 665.83 142.077Z" fill="#2A8E9E"/>
<path d="M296.102 66.4091C292.32 62.6333 286.604 61.8462 281.256 61.8462C268.575 61.8462 258.296 51.5831 258.296 38.9231C258.296 26.263 268.575 16 281.256 16C293.936 16 304.215 26.263 304.215 38.9231C304.215 44.2629 305.004 49.9701 308.786 53.7459L318.068 63.0139C321.85 66.7898 327.566 67.5769 332.915 67.5769C337.404 67.5769 342.116 66.727 345.29 63.5577L357.589 51.2787C360.763 48.1094 361.614 43.405 361.614 38.9231C361.614 26.263 371.894 16 384.574 16C397.254 16 407.534 26.263 407.534 38.9231C407.534 43.9494 408.354 49.2856 411.914 52.8397L422.294 63.2037C425.854 66.7579 431.199 67.5769 436.233 67.5769C448.913 67.5769 459.193 77.8399 459.193 90.5C459.193 95.2057 460.035 100.168 463.368 103.496L474.876 114.985C478.209 118.313 483.179 119.154 487.892 119.154C500.573 119.154 510.852 129.417 510.852 142.077C510.852 154.737 500.573 165 487.892 165C475.212 165 464.933 154.737 464.933 142.077C464.933 136.13 464.236 129.689 460.024 125.484L452.853 118.324C448.641 114.118 442.19 113.423 436.233 113.423C431.623 113.423 426.771 114.269 423.511 117.524L411.641 129.375C408.381 132.63 407.534 137.474 407.534 142.077C407.534 154.737 397.254 165 384.574 165C371.894 165 361.614 154.737 361.614 142.077C361.614 129.417 371.894 119.154 384.574 119.154C390.624 119.154 397.19 118.476 401.468 114.205L408.317 107.367C412.595 103.096 413.274 96.5406 413.274 90.5C413.274 84.8533 412.527 78.7782 408.527 74.7854L400.314 66.5848C396.315 62.592 390.23 61.8462 384.574 61.8462C378.415 61.8462 371.715 62.502 367.359 66.8504L360.887 73.3126C356.531 77.661 355.874 84.3505 355.874 90.5C355.874 103.16 345.595 113.423 332.915 113.423C320.235 113.423 309.955 103.16 309.955 90.5C309.955 85.1602 309.167 79.4531 305.385 75.6773L296.102 66.4091Z" fill="#0D5370"/>
<path d="M141.124 66.4092C137.343 62.6333 131.626 61.8462 126.278 61.8462C113.598 61.8462 103.318 51.5831 103.318 38.9231C103.318 26.263 113.598 16 126.278 16C138.958 16 149.238 26.263 149.238 38.9231C149.238 44.2629 150.026 49.97 153.808 53.7458L163.091 63.0139C166.873 66.7897 172.589 67.5769 177.937 67.5769C183.383 67.5769 189.216 66.8018 193.066 62.9571L202.01 54.0283C205.86 50.1836 206.637 44.3603 206.637 38.9231C206.637 26.263 216.916 16 229.596 16C242.277 16 252.556 26.263 252.556 38.9231C252.556 44.2629 253.344 49.97 257.126 53.7458L266.409 63.0139C270.191 66.7897 275.907 67.5769 281.256 67.5769C293.936 67.5769 304.215 77.8399 304.215 90.5C304.215 95.8398 305.004 101.547 308.786 105.323L318.068 114.591C321.85 118.367 327.566 119.154 332.915 119.154C338.361 119.154 344.193 118.379 348.044 114.534L356.987 105.605C360.838 101.761 361.614 95.9372 361.614 90.5C361.614 77.8399 371.894 67.5769 384.574 67.5769C397.254 67.5769 407.534 77.8399 407.534 90.5C407.534 103.16 397.254 113.423 384.574 113.423C379.324 113.423 373.724 114.221 370.012 117.928L360.386 127.538C356.674 131.245 355.874 136.835 355.874 142.077C355.874 154.737 345.595 165 332.915 165C320.235 165 309.955 154.737 309.955 142.077C309.955 136.737 309.167 131.03 305.385 127.254L296.102 117.986C292.32 114.21 286.604 113.423 281.256 113.423C268.575 113.423 258.296 103.16 258.296 90.5C258.296 85.1602 257.508 79.4531 253.726 75.6772L244.443 66.4092C240.661 62.6333 234.945 61.8462 229.596 61.8462C224.346 61.8462 218.747 62.6444 215.034 66.3509L205.409 75.9611C201.696 79.6676 200.897 85.2582 200.897 90.5C200.897 103.16 190.617 113.423 177.937 113.423C165.257 113.423 154.978 103.16 154.978 90.5C154.978 85.1602 154.189 79.4531 150.407 75.6772L141.124 66.4092Z" fill="#2A8E9E"/>
<path d="M89.4652 117.986C85.6834 114.21 79.9672 113.423 74.6188 113.423C61.9386 113.423 51.6592 103.16 51.6592 90.5C51.6592 77.8399 61.9386 67.5769 74.6188 67.5769C87.2991 67.5769 97.5785 77.8399 97.5785 90.5C97.5785 95.8398 98.3669 101.547 102.149 105.323L111.432 114.591C115.213 118.367 120.93 119.154 126.278 119.154C138.958 119.154 149.238 129.417 149.238 142.077C149.238 154.737 138.958 165 126.278 165C113.598 165 103.318 154.737 103.318 142.077C103.318 136.737 102.53 131.03 98.7481 127.254L89.4652 117.986Z" fill="#2A8E9E"/>
<path d="M459.193 38.9231C459.193 44.2629 459.981 49.97 463.763 53.7458L473.046 63.0139C476.828 66.7897 482.544 67.5769 487.892 67.5769C500.573 67.5769 510.852 77.8399 510.852 90.5C510.852 95.8398 511.64 101.547 515.422 105.323L524.705 114.591C528.487 118.367 534.203 119.154 539.552 119.154C552.232 119.154 562.511 129.417 562.511 142.077C562.511 154.737 552.232 165 539.552 165C526.871 165 516.592 154.737 516.592 142.077C516.592 136.737 515.804 131.03 512.022 127.254L502.739 117.986C498.957 114.21 493.241 113.423 487.892 113.423C475.212 113.423 464.933 103.16 464.933 90.5C464.933 85.1602 464.144 79.4531 460.362 75.6772L451.08 66.4092C447.298 62.6333 441.582 61.8462 436.233 61.8462C423.553 61.8462 413.274 51.5831 413.274 38.9231C413.274 26.263 423.553 16 436.233 16C448.913 16 459.193 26.263 459.193 38.9231Z" fill="#2A8E9E"/>
<path d="M504.512 66.7469C500.3 62.5415 493.849 61.8462 487.892 61.8462C475.212 61.8462 464.933 51.5831 464.933 38.9231C464.933 26.263 475.212 16 487.892 16C500.573 16 510.852 26.263 510.852 38.9231C510.852 43.6288 511.694 48.5911 515.027 51.9186L526.535 63.4085C529.868 66.7359 534.838 67.5769 539.552 67.5769C552.232 67.5769 562.511 77.8399 562.511 90.5C562.511 96.4473 563.208 102.888 567.42 107.093L574.591 114.253C578.803 118.458 585.254 119.154 591.211 119.154C596.345 119.154 601.807 118.344 605.437 114.719L615.469 104.704C619.099 101.079 619.91 95.6258 619.91 90.5C619.91 77.8399 630.19 67.5769 642.87 67.5769C655.55 67.5769 665.83 77.8399 665.83 90.5C665.83 96.4473 666.526 102.888 670.738 107.093L677.909 114.253C682.122 118.458 688.572 119.154 694.529 119.154C699.663 119.154 705.125 118.344 708.755 114.719L717.884 105.605C721.735 101.761 722.511 95.9372 722.511 90.5C722.511 77.8399 732.791 67.5769 745.471 67.5769C750.919 67.5769 756.754 66.8021 760.607 62.9558L769.542 54.0347C773.394 50.1884 774.17 44.3625 774.17 38.9231C774.17 26.263 784.45 16 797.13 16C809.81 16 820.09 26.263 820.09 38.9231C820.09 43.9493 820.91 49.2855 824.47 52.8396L834.85 63.2038C838.41 66.7579 843.755 67.5769 848.789 67.5769C861.469 67.5769 871.749 77.8399 871.749 90.5C871.749 96.7416 872.386 103.545 876.807 107.959L882.962 114.104C887.382 118.517 894.197 119.154 900.448 119.154C905.582 119.154 911.044 118.344 914.675 114.719L924.706 104.704C928.337 101.079 929.148 95.6257 929.148 90.5C929.148 77.8399 939.427 67.5769 952.108 67.5769C964.788 67.5769 975.067 77.8399 975.067 90.5C975.067 95.8398 975.856 101.547 979.638 105.323L988.92 114.591C992.702 118.367 998.418 119.154 1003.77 119.154C1016.45 119.154 1026.73 129.417 1026.73 142.077C1026.73 154.737 1016.45 165 1003.77 165C991.087 165 980.807 154.737 980.807 142.077C980.807 136.737 980.019 131.03 976.237 127.254L966.954 117.986C963.172 114.21 957.456 113.423 952.108 113.423C946.548 113.423 940.579 114.183 936.648 118.108L928.1 126.642C924.169 130.567 923.408 136.526 923.408 142.077C923.408 154.737 913.129 165 900.448 165C887.768 165 877.489 154.737 877.489 142.077C877.489 137.699 876.635 133.114 873.534 130.018L860.867 117.371C857.767 114.275 853.174 113.423 848.789 113.423C836.109 113.423 825.83 103.16 825.83 90.5C825.83 84.8532 825.083 78.7781 821.083 74.7853L812.87 66.5848C808.871 62.5919 802.786 61.8462 797.13 61.8462C791.882 61.8462 786.285 62.6447 782.574 66.3496L772.941 75.9676C769.23 79.6725 768.43 85.2605 768.43 90.5C768.43 95.8398 769.219 101.547 773.001 105.323L782.284 114.591C786.065 118.367 791.782 119.154 797.13 119.154C809.81 119.154 820.09 129.417 820.09 142.077C820.09 154.737 809.81 165 797.13 165C784.45 165 774.17 154.737 774.17 142.077C774.17 136.737 773.382 131.03 769.6 127.254L760.317 117.986C756.535 114.21 750.819 113.423 745.471 113.423C740.221 113.423 734.621 114.221 730.909 117.928L722.181 126.642C718.25 130.567 717.489 136.526 717.489 142.077C717.489 154.737 707.209 165 694.529 165C681.849 165 671.569 154.737 671.569 142.077C671.569 137.371 670.727 132.409 667.394 129.081L655.886 117.592C652.553 114.264 647.583 113.423 642.87 113.423C637.31 113.423 631.341 114.183 627.41 118.108L618.863 126.642C614.931 130.567 614.17 136.526 614.17 142.077C614.17 154.737 603.891 165 591.211 165C578.531 165 568.251 154.737 568.251 142.077C568.251 137.371 567.409 132.409 564.076 129.081L552.568 117.592C549.235 114.264 544.265 113.423 539.552 113.423C526.871 113.423 516.592 103.16 516.592 90.5C516.592 84.5527 515.895 78.1122 511.683 73.9068L504.512 66.7469Z" fill="#0D5370"/>
<path d="M555.291 66.5848C551.292 62.5919 545.207 61.8462 539.552 61.8462C526.871 61.8462 516.592 51.5831 516.592 38.9231C516.592 26.263 526.871 16 539.552 16C552.232 16 562.511 26.263 562.511 38.9231C562.511 43.9494 563.332 49.2856 566.891 52.8397L577.272 63.2037C580.832 66.7579 586.176 67.5769 591.211 67.5769C596.026 67.5769 601.115 66.7417 604.519 63.3423L615.669 52.2104C619.074 48.811 619.91 43.7305 619.91 38.9231C619.91 26.263 630.19 16 642.87 16C655.55 16 665.83 26.263 665.83 38.9231C665.83 43.9493 666.65 49.2855 670.21 52.8396L680.59 63.2038C684.15 66.7578 689.495 67.5769 694.529 67.5769C699.975 67.5769 705.808 66.8018 709.659 62.9571L717.712 54.916C721.779 50.8557 722.511 44.6652 722.511 38.9231C722.511 26.263 732.791 16 745.471 16C758.151 16 768.43 26.263 768.43 38.9231C768.43 51.5831 758.151 61.8462 745.471 61.8462C740.537 61.8462 735.31 62.6732 731.821 66.1565L722.001 75.9612C718.288 79.6677 717.489 85.2582 717.489 90.5C717.489 103.16 707.209 113.423 694.529 113.423C681.849 113.423 671.569 103.16 671.569 90.5C671.569 84.8532 670.823 78.7781 666.823 74.7853L658.61 66.5848C654.611 62.5919 648.526 61.8462 642.87 61.8462C637.007 61.8462 630.672 62.5584 626.526 66.6972L619.029 74.1821C614.884 78.321 614.17 84.6467 614.17 90.5C614.17 103.16 603.891 113.423 591.211 113.423C578.531 113.423 568.251 103.16 568.251 90.5C568.251 84.8533 567.504 78.7782 563.505 74.7853L555.291 66.5848Z" fill="#2A8E9E"/>
<path d="M90.3586 66.5848C86.3594 62.5919 80.2746 61.8462 74.6188 61.8462C68.4595 61.8462 61.7593 62.502 57.404 66.8504L50.9315 73.3126C46.5762 77.6609 45.9193 84.3504 45.9193 90.5C45.9193 95.8398 46.7077 101.547 50.4896 105.323L59.7724 114.591C63.5543 118.367 69.2705 119.154 74.6188 119.154C87.2991 119.154 97.5785 129.417 97.5785 142.077C97.5785 154.737 87.2991 165 74.6188 165C61.9386 165 51.6592 154.737 51.6592 142.077C51.6592 136.737 50.8708 131.03 47.0889 127.254L37.806 117.986C34.0242 114.21 28.308 113.423 22.9596 113.423C10.2794 113.423 0 103.16 0 90.5C0 77.8399 10.2794 67.5769 22.9596 67.5769C27.4487 67.5769 32.1606 66.727 35.3348 63.5578L47.6336 51.2786C50.8079 48.1094 51.6592 43.405 51.6592 38.9231C51.6592 26.263 61.9386 16 74.6188 16C87.2991 16 97.5785 26.263 97.5785 38.9231C97.5785 43.9493 98.3989 49.2856 101.959 52.8396L112.339 63.2038C115.899 66.7578 121.244 67.5769 126.278 67.5769C138.958 67.5769 149.238 77.8399 149.238 90.5C149.238 96.7416 149.875 103.545 154.296 107.959L160.451 114.104C164.871 118.517 171.686 119.154 177.937 119.154C183.071 119.154 188.533 118.344 192.163 114.719L202.195 104.704C205.825 101.079 206.637 95.6258 206.637 90.5C206.637 77.8399 216.916 67.5769 229.596 67.5769C242.277 67.5769 252.556 77.8399 252.556 90.5C252.556 95.8398 253.344 101.547 257.126 105.323L266.409 114.591C270.191 118.367 275.907 119.154 281.256 119.154C293.936 119.154 304.215 129.417 304.215 142.077C304.215 154.737 293.936 165 281.256 165C268.575 165 258.296 154.737 258.296 142.077C258.296 136.737 257.508 131.03 253.726 127.254L244.443 117.986C240.661 114.21 234.945 113.423 229.596 113.423C224.037 113.423 218.068 114.183 214.137 118.108L205.589 126.642C201.658 130.567 200.897 136.526 200.897 142.077C200.897 154.737 190.617 165 177.937 165C165.257 165 154.978 154.737 154.978 142.077C154.978 137.699 154.124 133.114 151.023 130.018L138.356 117.371C135.255 114.275 130.663 113.423 126.278 113.423C113.598 113.423 103.318 103.16 103.318 90.5C103.318 84.8533 102.571 78.7781 98.5722 74.7853L90.3586 66.5848Z" fill="#0D5370"/>
<path d="M923.408 38.9231C923.408 51.5831 913.129 61.8462 900.448 61.8462C887.768 61.8462 877.489 51.5831 877.489 38.9231C877.489 26.263 887.768 16 900.448 16C913.129 16 923.408 26.263 923.408 38.9231Z" fill="#0D5370"/>
<path d="M923.408 38.9231C923.408 51.5831 913.129 61.8462 900.448 61.8462C887.768 61.8462 877.489 51.5831 877.489 38.9231C877.489 26.263 887.768 16 900.448 16C913.129 16 923.408 26.263 923.408 38.9231Z" fill="#0D5370"/>
<path d="M1078.39 38.9231C1078.39 51.5831 1068.11 61.8462 1055.43 61.8462C1042.75 61.8462 1032.47 51.5831 1032.47 38.9231C1032.47 26.263 1042.75 16 1055.43 16C1068.11 16 1078.39 26.263 1078.39 38.9231Z" fill="#2A8E9E"/>
<path d="M1078.39 38.9231C1078.39 51.5831 1068.11 61.8462 1055.43 61.8462C1042.75 61.8462 1032.47 51.5831 1032.47 38.9231C1032.47 26.263 1042.75 16 1055.43 16C1068.11 16 1078.39 26.263 1078.39 38.9231Z" fill="#2A8E9E"/>
<path d="M1336.68 38.9231C1336.68 51.5831 1326.4 61.8462 1313.72 61.8462C1301.04 61.8462 1290.76 51.5831 1290.76 38.9231C1290.76 26.263 1301.04 16 1313.72 16C1326.4 16 1336.68 26.263 1336.68 38.9231Z" fill="#0D5370"/>
<path d="M1336.68 38.9231C1336.68 51.5831 1326.4 61.8462 1313.72 61.8462C1301.04 61.8462 1290.76 51.5831 1290.76 38.9231C1290.76 26.263 1301.04 16 1313.72 16C1326.4 16 1336.68 26.263 1336.68 38.9231Z" fill="#0D5370"/>
<path d="M1440 38.9231C1440 51.5831 1429.72 61.8462 1417.04 61.8462C1404.36 61.8462 1394.08 51.5831 1394.08 38.9231C1394.08 26.263 1404.36 16 1417.04 16C1429.72 16 1440 26.263 1440 38.9231Z" fill="#0D5370"/>
<path d="M1440 38.9231C1440 51.5831 1429.72 61.8462 1417.04 61.8462C1404.36 61.8462 1394.08 51.5831 1394.08 38.9231C1394.08 26.263 1404.36 16 1417.04 16C1429.72 16 1440 26.263 1440 38.9231Z" fill="#0D5370"/>
<path d="M768.43 142.077C768.43 154.737 758.151 165 745.471 165C732.791 165 722.511 154.737 722.511 142.077C722.511 129.417 732.791 119.154 745.471 119.154C758.151 119.154 768.43 129.417 768.43 142.077Z" fill="#2A8E9E"/>
<path d="M768.43 142.077C768.43 154.737 758.151 165 745.471 165C732.791 165 722.511 154.737 722.511 142.077C722.511 129.417 732.791 119.154 745.471 119.154C758.151 119.154 768.43 129.417 768.43 142.077Z" fill="#2A8E9E"/>
<path d="M975.067 142.077C975.067 154.737 964.788 165 952.108 165C939.427 165 929.148 154.737 929.148 142.077C929.148 129.417 939.427 119.154 952.108 119.154C964.788 119.154 975.067 129.417 975.067 142.077Z" fill="#2A8E9E"/>
<path d="M975.067 142.077C975.067 154.737 964.788 165 952.108 165C939.427 165 929.148 154.737 929.148 142.077C929.148 129.417 939.427 119.154 952.108 119.154C964.788 119.154 975.067 129.417 975.067 142.077Z" fill="#2A8E9E"/>
<path d="M1181.7 142.077C1181.7 154.737 1171.42 165 1158.74 165C1146.06 165 1135.78 154.737 1135.78 142.077C1135.78 129.417 1146.06 119.154 1158.74 119.154C1171.42 119.154 1181.7 129.417 1181.7 142.077Z" fill="#2A8E9E"/>
<path d="M1181.7 142.077C1181.7 154.737 1171.42 165 1158.74 165C1146.06 165 1135.78 154.737 1135.78 142.077C1135.78 129.417 1146.06 119.154 1158.74 119.154C1171.42 119.154 1181.7 129.417 1181.7 142.077Z" fill="#2A8E9E"/>
<path d="M1388.34 142.077C1388.34 154.737 1378.06 165 1365.38 165C1352.7 165 1342.42 154.737 1342.42 142.077C1342.42 129.417 1352.7 119.154 1365.38 119.154C1378.06 119.154 1388.34 129.417 1388.34 142.077Z" fill="#2A8E9E"/>
<path d="M1388.34 142.077C1388.34 154.737 1378.06 165 1365.38 165C1352.7 165 1342.42 154.737 1342.42 142.077C1342.42 129.417 1352.7 119.154 1365.38 119.154C1378.06 119.154 1388.34 129.417 1388.34 142.077Z" fill="#2A8E9E"/>
<path d="M1018.61 66.4091C1014.83 62.6333 1009.12 61.8462 1003.77 61.8462C991.087 61.8462 980.807 51.5831 980.807 38.9231C980.807 26.263 991.087 16 1003.77 16C1016.45 16 1026.73 26.263 1026.73 38.9231C1026.73 44.2629 1027.51 49.9701 1031.3 53.7459L1040.58 63.0139C1044.36 66.7898 1050.08 67.5769 1055.43 67.5769C1059.92 67.5769 1064.63 66.727 1067.8 63.5577L1080.1 51.2787C1083.27 48.1094 1084.13 43.405 1084.13 38.9231C1084.13 26.263 1094.4 16 1107.09 16C1119.77 16 1130.04 26.263 1130.04 38.9231C1130.04 43.9494 1130.87 49.2856 1134.42 52.8397L1144.81 63.2037C1148.37 66.7579 1153.71 67.5769 1158.74 67.5769C1171.42 67.5769 1181.7 77.8399 1181.7 90.5C1181.7 95.2057 1182.55 100.168 1185.88 103.496L1197.39 114.985C1200.72 118.313 1205.69 119.154 1210.4 119.154C1223.08 119.154 1233.36 129.417 1233.36 142.077C1233.36 154.737 1223.08 165 1210.4 165C1197.72 165 1187.44 154.737 1187.44 142.077C1187.44 136.13 1186.75 129.689 1182.54 125.484L1175.36 118.324C1171.15 114.118 1164.7 113.423 1158.74 113.423C1154.13 113.423 1149.28 114.269 1146.02 117.524L1134.15 129.375C1130.89 132.63 1130.04 137.474 1130.04 142.077C1130.04 154.737 1119.77 165 1107.09 165C1094.4 165 1084.13 154.737 1084.13 142.077C1084.13 129.417 1094.4 119.154 1107.09 119.154C1113.14 119.154 1119.7 118.476 1123.98 114.205L1130.83 107.367C1135.11 103.096 1135.78 96.5406 1135.78 90.5C1135.78 84.8533 1135.04 78.7782 1131.04 74.7854L1122.82 66.5848C1118.83 62.592 1112.74 61.8462 1107.09 61.8462C1100.93 61.8462 1094.23 62.502 1089.87 66.8504L1083.4 73.3126C1079.04 77.661 1078.39 84.3505 1078.39 90.5C1078.39 103.16 1068.11 113.423 1055.43 113.423C1042.75 113.423 1032.47 103.16 1032.47 90.5C1032.47 85.1602 1031.68 79.4531 1027.9 75.6773L1018.61 66.4091Z" fill="#0D5370"/>
<path d="M863.636 66.4092C859.854 62.6333 854.138 61.8462 848.789 61.8462C836.109 61.8462 825.83 51.5831 825.83 38.9231C825.83 26.263 836.109 16 848.789 16C861.469 16 871.749 26.263 871.749 38.9231C871.749 44.2629 872.537 49.97 876.319 53.7458L885.602 63.0139C889.384 66.7897 895.1 67.5769 900.448 67.5769C905.894 67.5769 911.727 66.8018 915.578 62.9571L924.521 54.0283C928.372 50.1836 929.148 44.3603 929.148 38.9231C929.148 26.263 939.427 16 952.108 16C964.788 16 975.067 26.263 975.067 38.9231C975.067 45.4531 975.637 52.6174 980.262 57.2348L985.426 62.3904C990.051 67.0077 997.226 67.5769 1003.77 67.5769C1016.45 67.5769 1026.73 77.8399 1026.73 90.5C1026.73 95.8398 1027.51 101.547 1031.3 105.323L1040.58 114.591C1044.36 118.367 1050.08 119.154 1055.43 119.154C1060.87 119.154 1066.7 118.379 1070.56 114.534L1079.5 105.605C1083.35 101.761 1084.13 95.9372 1084.13 90.5C1084.13 77.8399 1094.4 67.5769 1107.09 67.5769C1119.77 67.5769 1130.04 77.8399 1130.04 90.5C1130.04 103.16 1119.77 113.423 1107.09 113.423C1101.84 113.423 1096.24 114.221 1092.52 117.928L1082.9 127.538C1079.19 131.245 1078.39 136.835 1078.39 142.077C1078.39 154.737 1068.11 165 1055.43 165C1042.75 165 1032.47 154.737 1032.47 142.077C1032.47 136.737 1031.68 131.03 1027.9 127.254L1018.61 117.986C1014.83 114.21 1009.12 113.423 1003.77 113.423C991.087 113.423 980.807 103.16 980.807 90.5C980.807 86.4576 979.953 82.253 977.09 79.3946L963.231 65.5572C960.368 62.6988 956.156 61.8462 952.108 61.8462C946.857 61.8462 941.258 62.6444 937.546 66.3509L927.92 75.9611C924.208 79.6676 923.408 85.2582 923.408 90.5C923.408 103.16 913.129 113.423 900.448 113.423C887.768 113.423 877.489 103.16 877.489 90.5C877.489 85.1602 876.7 79.4531 872.918 75.6772L863.636 66.4092Z" fill="#2A8E9E"/>
<path d="M811.976 117.986C808.195 114.21 802.478 113.423 797.13 113.423C784.45 113.423 774.17 103.16 774.17 90.5C774.17 77.8399 784.45 67.5769 797.13 67.5769C809.81 67.5769 820.09 77.8399 820.09 90.5C820.09 95.8398 820.878 101.547 824.66 105.323L833.943 114.591C837.725 118.367 843.441 119.154 848.789 119.154C861.469 119.154 871.749 129.417 871.749 142.077C871.749 154.737 861.469 165 848.789 165C836.109 165 825.83 154.737 825.83 142.077C825.83 136.737 825.041 131.03 821.259 127.254L811.976 117.986Z" fill="#2A8E9E"/>
<path d="M1181.7 38.9231C1181.7 44.2629 1182.49 49.97 1186.27 53.7458L1195.56 63.0139C1199.34 66.7897 1205.06 67.5769 1210.4 67.5769C1223.08 67.5769 1233.36 77.8399 1233.36 90.5C1233.36 95.8398 1234.15 101.547 1237.93 105.323L1247.22 114.591C1251 118.367 1256.71 119.154 1262.06 119.154C1274.74 119.154 1285.02 129.417 1285.02 142.077C1285.02 154.737 1274.74 165 1262.06 165C1249.38 165 1239.1 154.737 1239.1 142.077C1239.1 136.737 1238.31 131.03 1234.53 127.254L1225.25 117.986C1221.47 114.21 1215.75 113.423 1210.4 113.423C1197.72 113.423 1187.44 103.16 1187.44 90.5C1187.44 85.1602 1186.66 79.4531 1182.87 75.6772L1173.59 66.4092C1169.81 62.6333 1164.09 61.8462 1158.74 61.8462C1146.06 61.8462 1135.78 51.5831 1135.78 38.9231C1135.78 26.263 1146.06 16 1158.74 16C1171.42 16 1181.7 26.263 1181.7 38.9231Z" fill="#2A8E9E"/>
<path d="M1221.53 65.5572C1218.66 62.6988 1214.45 61.8462 1210.4 61.8462C1197.72 61.8462 1187.44 51.5831 1187.44 38.9231C1187.44 26.263 1197.72 16 1210.4 16C1223.08 16 1233.36 26.263 1233.36 38.9231C1233.36 45.4531 1233.93 52.6175 1238.56 57.2349L1243.72 62.3903C1248.35 67.0077 1255.52 67.5769 1262.06 67.5769C1274.74 67.5769 1285.02 77.8399 1285.02 90.5C1285.02 96.4473 1285.72 102.888 1289.93 107.093L1297.1 114.253C1301.31 118.458 1307.77 119.154 1313.72 119.154C1318.86 119.154 1324.32 118.344 1327.95 114.719L1337.98 104.704C1341.61 101.079 1342.42 95.6258 1342.42 90.5C1342.42 77.8399 1352.7 67.5769 1365.38 67.5769C1378.06 67.5769 1388.34 77.8399 1388.34 90.5C1388.34 95.2057 1389.18 100.168 1392.52 103.495L1404.02 114.985C1407.36 118.313 1412.33 119.154 1417.04 119.154C1429.72 119.154 1440 129.417 1440 142.077C1440 154.737 1429.72 165 1417.04 165C1404.36 165 1394.08 154.737 1394.08 142.077C1394.08 136.13 1393.38 129.689 1389.17 125.484L1382 118.324C1377.79 114.118 1371.34 113.423 1365.38 113.423C1359.82 113.423 1353.85 114.183 1349.92 118.108L1341.37 126.642C1337.44 130.567 1336.68 136.526 1336.68 142.077C1336.68 154.737 1326.4 165 1313.72 165C1301.04 165 1290.76 154.737 1290.76 142.077C1290.76 137.371 1289.92 132.409 1286.59 129.081L1275.08 117.592C1271.75 114.264 1266.78 113.423 1262.06 113.423C1249.38 113.423 1239.1 103.16 1239.1 90.5C1239.1 86.4576 1238.25 82.253 1235.39 79.3947L1221.53 65.5572Z" fill="#0D5370"/>
<path d="M1277.8 66.5848C1273.8 62.5919 1267.72 61.8462 1262.06 61.8462C1249.38 61.8462 1239.1 51.5831 1239.1 38.9231C1239.1 26.263 1249.38 16 1262.06 16C1274.74 16 1285.02 26.263 1285.02 38.9231C1285.02 43.9494 1285.84 49.2856 1289.4 52.8397L1299.78 63.2037C1303.34 66.7579 1308.69 67.5769 1313.72 67.5769C1318.54 67.5769 1323.63 66.7417 1327.03 63.3423L1338.18 52.2104C1341.58 48.811 1342.42 43.7305 1342.42 38.9231C1342.42 26.263 1352.7 16 1365.38 16C1378.06 16 1388.34 26.263 1388.34 38.9231C1388.34 43.9493 1389.16 49.2855 1392.72 52.8396L1403.1 63.2038C1406.66 66.7578 1412.01 67.5769 1417.04 67.5769C1429.72 67.5769 1440 77.8399 1440 90.5C1440 103.16 1429.72 113.423 1417.04 113.423C1404.36 113.423 1394.08 103.16 1394.08 90.5C1394.08 84.8532 1393.33 78.7781 1389.33 74.7852L1381.12 66.5848C1377.12 62.5919 1371.04 61.8462 1365.38 61.8462C1359.52 61.8462 1353.18 62.5584 1349.04 66.6972L1341.54 74.1821C1337.39 78.321 1336.68 84.6467 1336.68 90.5C1336.68 103.16 1326.4 113.423 1313.72 113.423C1301.04 113.423 1290.76 103.16 1290.76 90.5C1290.76 84.8533 1290.02 78.7782 1286.02 74.7853L1277.8 66.5848Z" fill="#2A8E9E"/>
</g>
</svg>
