<svg width="437" height="425" viewBox="0 0 437 425" fill="none" xmlns="http://www.w3.org/2000/svg">
<path d="M376.186 365.43C365.055 376.904 355.095 383.648 347.47 388.74C273.1 438.397 188.088 424.085 161.804 419.193C119.398 411.3 83.602 405.732 52.8466 377.946C-17.0388 314.808 -13.6397 183.096 39.7613 101.506C46.093 91.8315 99.4132 12.7945 184.61 1.65756C186.694 1.38516 188.248 1.23007 189.61 1.08591C202.79 -0.309454 284.462 -7.67428 351.057 48.1193C360.59 56.1059 375.931 70.5116 390.157 92.4828C442.174 172.819 442.339 297.242 376.186 365.43Z" fill="#F9FEFF"/>
<g opacity="0.64">
<path d="M5.41569 101.551C4.9061 101.465 4.49243 101.053 4.42869 100.514C4.35221 99.8704 4.28468 99.2248 4.22671 98.5778C4.16814 97.9205 4.65374 97.3404 5.31128 97.2818C5.96518 97.2217 6.54806 97.7085 6.60755 98.3661C6.66279 98.9896 6.72774 99.6115 6.80164 100.231C6.87994 100.887 6.41179 101.481 5.75622 101.559C5.64013 101.573 5.52571 101.569 5.41569 101.551Z" fill="#2A8E9E" fill-opacity="0.3"/>
<path d="M4.95481 93.3167C4.3868 93.2208 3.95644 92.725 3.96023 92.1306C3.96903 90.8107 4.01714 89.4745 4.10409 88.1596C4.14764 87.5011 4.71687 87.0026 5.37517 87.046C6.03787 87.088 6.53273 87.6589 6.48872 88.3172C6.40495 89.5851 6.35837 90.8733 6.34987 92.1462C6.34547 92.8061 5.80705 93.3376 5.14739 93.3332C5.08168 93.3329 5.01733 93.3273 4.95481 93.3167ZM5.81495 83.1173C5.16772 83.008 4.72901 82.3968 4.83432 81.748L4.90489 81.3212C5.09928 80.1692 5.32797 79.0004 5.58352 77.8477C5.72677 77.2035 6.35503 76.7907 7.00908 76.9402C7.65327 77.0833 8.05966 77.7213 7.91686 78.3656C7.66935 79.4789 7.44901 80.6072 7.26129 81.7191L7.19331 82.1303C7.08753 82.7818 6.47416 83.2243 5.82268 83.1188C5.81995 83.1182 5.81722 83.1177 5.81495 83.1173ZM8.21687 73.1696C8.16027 73.1601 8.10336 73.1463 8.04691 73.1279C7.41896 72.9249 7.07433 72.2512 7.27738 71.6233C7.68377 70.366 8.13189 69.1072 8.60915 67.8818C8.84877 67.2666 9.54227 66.9639 10.1563 67.202C10.7715 67.4418 11.0759 68.1342 10.8361 68.7491C10.3758 69.9313 9.94351 71.1456 9.55138 72.3584C9.367 72.9299 8.79232 73.2668 8.21687 73.1696ZM12.1025 63.7041C11.987 63.6847 11.873 63.6478 11.763 63.5926C11.1736 63.2954 10.937 62.5769 11.234 61.9876C11.8261 60.8131 12.4627 59.6379 13.1258 58.4954C13.4575 57.9239 14.1891 57.7314 14.7588 58.0612C15.3295 58.3926 15.5237 59.1238 15.1926 59.6944C14.5531 60.7968 13.939 61.9303 13.3681 63.0634C13.1262 63.5429 12.6055 63.7891 12.1025 63.7041ZM17.4011 54.9504C17.2276 54.9212 17.0573 54.8526 16.9045 54.743C16.3682 54.3585 16.2453 53.6121 16.6297 53.0759C17.3986 52.0036 18.2102 50.9396 19.0413 49.9133C19.4575 49.4004 20.2088 49.3214 20.7222 49.7372C21.2348 50.1525 21.3137 50.9049 20.8985 51.4178C20.0962 52.4078 19.3136 53.4343 18.572 54.4683C18.2973 54.852 17.8369 55.024 17.4011 54.9504ZM23.9932 47.115C23.7602 47.0757 23.5367 46.9672 23.3557 46.7892C22.8846 46.3268 22.8784 45.5702 23.3408 45.0996C24.2668 44.1571 25.2315 43.2312 26.2086 42.3476C26.6975 41.9049 27.4524 41.9421 27.8961 42.432C28.3389 42.9214 28.3008 43.6771 27.8114 44.1196C26.8693 44.9721 25.9385 45.8652 25.0453 46.7743C24.761 47.064 24.3651 47.1777 23.9932 47.115ZM31.7084 40.386C31.4157 40.3366 31.1408 40.1787 30.9493 39.922C30.5549 39.393 30.6642 38.6442 31.1932 38.2498C32.2514 37.4609 33.3459 36.6938 34.4466 35.9698C34.9982 35.6068 35.7383 35.7602 36.1016 36.311C36.4638 36.8624 36.3113 37.6035 35.7597 37.9659C34.6984 38.6644 33.6423 39.4045 32.6212 40.1655C32.3494 40.3687 32.0186 40.4384 31.7084 40.386ZM40.3595 34.9154C40.0056 34.8556 39.6825 34.638 39.5016 34.2965C39.1925 33.7135 39.4148 32.9904 39.9977 32.6811C41.1632 32.0638 42.3612 31.4726 43.5579 30.9248C44.1572 30.6501 44.8673 30.9135 45.1418 31.514C45.4163 32.1142 45.1527 32.8233 44.5525 33.0978C43.3972 33.6264 42.2417 34.1967 41.1172 34.7929C40.8754 34.9208 40.6099 34.9576 40.3595 34.9154ZM49.7408 30.8288C49.3242 30.7586 48.958 30.469 48.8099 30.0419C48.5938 29.4183 48.9236 28.7376 49.547 28.5213C50.7909 28.0896 52.0647 27.6893 53.3323 27.3307C53.9677 27.1505 54.6277 27.5205 54.8073 28.1553C54.987 28.7904 54.6175 29.4508 53.9827 29.6303C52.7594 29.9762 51.5305 30.3628 50.3303 30.7789C50.1343 30.8472 49.9321 30.8612 49.7408 30.8288ZM111.724 40.7006C111.54 40.6695 111.36 40.5947 111.201 40.4739C110.189 39.705 109.14 38.9556 108.083 38.2466C107.534 37.8791 107.388 37.1367 107.756 36.5886C108.123 36.0402 108.865 35.894 109.414 36.2616C110.51 36.9967 111.598 37.7736 112.647 38.5706C113.172 38.9697 113.275 39.7197 112.876 40.2452C112.597 40.6117 112.148 40.7722 111.724 40.7006ZM59.6332 28.2286C59.1514 28.1472 58.7492 27.7729 58.6567 27.2637C58.5386 26.6145 58.9693 25.9925 59.6183 25.8743C60.9144 25.6386 62.2338 25.4389 63.5394 25.2806C64.192 25.2002 64.79 25.6676 64.8697 26.3229C64.9489 26.9778 64.4824 27.5735 63.8272 27.653C62.5682 27.806 61.2959 27.9985 60.0458 28.2257C59.9053 28.2515 59.7661 28.251 59.6332 28.2286ZM103.119 35.1588C102.993 35.1375 102.869 35.0958 102.751 35.0321C101.631 34.4278 100.478 33.8496 99.3255 33.3133C98.7273 33.0349 98.468 32.3241 98.7465 31.726C99.0244 31.1281 99.7325 30.8678 100.334 31.1466C101.529 31.7026 102.723 32.3024 103.885 32.9286C104.466 33.2422 104.683 33.9668 104.37 34.5477C104.12 35.0099 103.61 35.2416 103.119 35.1588ZM69.8045 27.1841C69.2517 27.0907 68.8248 26.6168 68.8102 26.0355C68.7938 25.3756 69.3157 24.8275 69.9754 24.8113C71.295 24.7786 72.6312 24.785 73.9471 24.8304C74.6038 24.8513 75.1227 25.4061 75.0999 26.0657C75.0776 26.7253 74.5242 27.2413 73.8648 27.2188C72.596 27.175 71.3072 27.1687 70.0341 27.2003C69.9558 27.2021 69.879 27.1967 69.8045 27.1841ZM93.7621 31.0111C93.6949 30.9997 93.6278 30.9826 93.5612 30.9589C92.3622 30.5348 91.1342 30.1402 89.9117 29.7862C89.2779 29.6028 88.9127 28.9401 89.0965 28.3064C89.2801 27.6726 89.9431 27.3068 90.5765 27.4909C91.8433 27.8574 93.1159 28.2662 94.358 28.7058C94.9803 28.9259 95.3062 29.6088 95.0861 30.2308C94.8896 30.7865 94.324 31.1059 93.7621 31.0111ZM80.0235 27.7225C79.3934 27.6161 78.9547 27.029 79.0386 26.3896C79.1239 25.7353 79.7239 25.2741 80.3778 25.3597C81.6797 25.5295 82.9953 25.7403 84.2991 25.9881C84.9476 26.1113 85.3732 26.7367 85.25 27.3851C85.1272 28.0337 84.4799 28.4679 83.8536 28.3362C82.5937 28.0967 81.3248 27.8937 80.0687 27.7295C80.0534 27.7273 80.0387 27.7251 80.0235 27.7225Z" fill="#2A8E9E" fill-opacity="0.3"/>
<path d="M118.001 46.123C117.769 46.0837 117.546 45.9758 117.365 45.7986C116.919 45.3617 116.466 44.9306 116.006 44.5058C115.522 44.0581 115.492 43.3021 115.939 42.8174C116.388 42.3327 117.143 42.3031 117.628 42.7503C118.105 43.1909 118.574 43.6379 119.037 44.0915C119.509 44.5535 119.517 45.3099 119.055 45.7813C118.77 46.0716 118.374 46.1858 118.001 46.123Z" fill="#2A8E9E" fill-opacity="0.3"/>
</g>
<g opacity="0.64">
<path d="M138.033 93.3804C137.47 93.2854 137.041 92.7971 137.038 92.2069C137.036 91.5803 137.024 90.955 137.004 90.3311C136.982 89.6713 137.499 89.1191 138.159 89.0972C138.815 89.077 139.37 89.5924 139.392 90.2521C139.414 90.8991 139.425 91.5477 139.429 92.1977C139.431 92.8575 138.898 93.3945 138.238 93.3973C138.169 93.3974 138.1 93.3918 138.033 93.3804Z" fill="#2A8E9E" fill-opacity="0.3"/>
<path d="M59.2699 159.098C59.2625 159.097 59.2552 159.096 59.2479 159.094C58.111 158.881 56.9648 158.635 55.8408 158.365L55.4275 158.264C54.7868 158.105 54.3959 157.457 54.5547 156.816C54.7134 156.176 55.3728 155.789 56.0018 155.944L56.4001 156.041C57.4855 156.303 58.5919 156.54 59.6889 156.746C60.3376 156.868 60.7647 157.492 60.643 158.141C60.5225 158.782 59.9106 159.207 59.2699 159.098ZM65.4464 159.963C64.836 159.86 64.3987 159.301 64.4568 158.675C64.5175 158.018 65.0995 157.534 65.7567 157.595C67.0039 157.71 68.27 157.79 69.5194 157.834C70.1775 157.855 70.6956 158.409 70.6722 159.069C70.6499 159.729 70.0965 160.245 69.4371 160.222C68.1419 160.177 66.8297 160.094 65.5367 159.975C65.5063 159.972 65.4763 159.968 65.4464 159.963ZM49.5355 156.506C49.4701 156.495 49.4048 156.478 49.34 156.456C48.111 156.028 46.8816 155.559 45.6858 155.063C45.0762 154.81 44.7867 154.111 45.0397 153.502C45.2922 152.892 45.9924 152.602 46.601 152.856C47.7544 153.334 48.9406 153.786 50.1261 154.199C50.7493 154.416 51.0783 155.097 50.8615 155.72C50.6669 156.279 50.0997 156.601 49.5355 156.506ZM75.5156 160.126C74.9794 160.035 74.5569 159.585 74.5226 159.019C74.4829 158.361 74.985 157.794 75.6435 157.755C76.893 157.68 78.1567 157.567 79.3981 157.419C80.0528 157.34 80.6483 157.809 80.7255 158.465C80.8038 159.12 80.3357 159.714 79.6801 159.792C78.3928 159.945 77.083 160.063 75.787 160.14C75.6945 160.146 75.6034 160.141 75.5156 160.126ZM40.2995 152.48C40.1771 152.46 40.0552 152.419 39.9391 152.358C38.7916 151.75 37.6474 151.1 36.5378 150.427C35.974 150.084 35.7942 149.35 36.1365 148.785C36.4787 148.222 37.2118 148.04 37.7782 148.384C38.8477 149.033 39.951 149.659 41.0577 150.246C41.6409 150.555 41.8633 151.278 41.5542 151.861C41.307 152.328 40.7938 152.564 40.2995 152.48ZM85.4939 158.756C85.0257 158.677 84.6309 158.322 84.5245 157.83C84.3849 157.185 84.7952 156.549 85.4401 156.41C86.661 156.146 87.8912 155.843 89.0965 155.509C89.7335 155.333 90.3915 155.705 90.5674 156.341C90.7436 156.977 90.3712 157.636 89.735 157.812C88.4855 158.158 87.2103 158.472 85.9443 158.746C85.7916 158.779 85.6392 158.781 85.4939 158.756ZM31.7838 147.098C31.6034 147.068 31.4273 146.995 31.27 146.878C30.2284 146.103 29.1964 145.287 28.2025 144.454C27.697 144.03 27.6311 143.276 28.055 142.77C28.4797 142.264 29.2339 142.199 29.7385 142.622C30.6968 143.426 31.6925 144.213 32.6974 144.962C33.2264 145.356 33.3362 146.104 32.942 146.634C32.6647 147.006 32.2124 147.171 31.7838 147.098ZM95.1441 155.891C94.7404 155.823 94.382 155.549 94.2255 155.139C93.9908 154.522 94.2999 153.831 94.9162 153.596C96.0874 153.15 97.2586 152.664 98.3979 152.153C98.9998 151.883 99.707 152.152 99.9774 152.754C100.247 153.356 99.9784 154.063 99.3761 154.333C98.1955 154.863 96.9812 155.367 95.7679 155.829C95.5615 155.908 95.347 155.926 95.1441 155.891ZM104.256 151.605C103.913 151.547 103.598 151.341 103.414 151.015C103.089 150.441 103.29 149.712 103.865 149.387C104.955 148.769 106.041 148.113 107.092 147.435C107.646 147.078 108.387 147.238 108.744 147.792C109.101 148.347 108.941 149.087 108.386 149.444C107.297 150.146 106.172 150.827 105.043 151.466C104.794 151.607 104.517 151.649 104.256 151.605ZM112.621 145.998C112.339 145.95 112.072 145.801 111.88 145.557C111.473 145.038 111.564 144.287 112.083 143.88C113.067 143.107 114.042 142.295 114.982 141.465C115.476 141.029 116.23 141.075 116.668 141.57C117.105 142.065 117.058 142.82 116.563 143.257C115.589 144.117 114.578 144.959 113.558 145.759C113.283 145.976 112.942 146.052 112.621 145.998ZM120.05 139.196C119.826 139.158 119.61 139.056 119.432 138.889C118.951 138.437 118.927 137.681 119.379 137.2C120.235 136.287 121.077 135.337 121.881 134.374C122.304 133.868 123.058 133.801 123.564 134.223C124.07 134.646 124.138 135.399 123.715 135.906C122.882 136.904 122.009 137.889 121.121 138.835C120.836 139.138 120.431 139.26 120.05 139.196ZM126.367 131.347C126.202 131.319 126.039 131.255 125.891 131.154C125.347 130.781 125.209 130.037 125.582 129.493C126.29 128.46 126.979 127.392 127.627 126.318C127.968 125.753 128.705 125.573 129.268 125.913C129.832 126.254 130.014 126.988 129.673 127.553C129 128.667 128.287 129.774 127.553 130.845C127.28 131.241 126.812 131.422 126.367 131.347ZM131.419 122.628C131.311 122.61 131.204 122.576 131.099 122.526C130.505 122.24 130.255 121.526 130.541 120.931C131.084 119.803 131.601 118.645 132.077 117.488C132.329 116.878 133.027 116.586 133.638 116.839C134.247 117.09 134.538 117.789 134.287 118.399C133.793 119.598 133.257 120.798 132.694 121.968C132.458 122.458 131.93 122.714 131.419 122.628ZM135.088 113.25C135.037 113.242 134.986 113.23 134.935 113.214C134.304 113.021 133.949 112.353 134.143 111.722C134.509 110.525 134.846 109.302 135.144 108.086C135.301 107.445 135.951 107.047 136.589 107.21C137.23 107.367 137.623 108.014 137.465 108.655C137.157 109.914 136.807 111.182 136.428 112.421C136.25 113.002 135.671 113.349 135.088 113.25ZM137.309 103.427C136.669 103.319 136.231 102.717 136.327 102.072C136.511 100.835 136.662 99.5748 136.775 98.3275C136.834 97.6703 137.415 97.1856 138.073 97.2451C138.732 97.3075 139.215 97.8855 139.155 98.5427C139.038 99.8358 138.882 101.142 138.691 102.425C138.593 103.078 137.985 103.528 137.332 103.43C137.325 103.429 137.317 103.428 137.309 103.427Z" fill="#2A8E9E" fill-opacity="0.3"/>
<path d="M24.1556 140.458C23.9163 140.417 23.6873 140.304 23.5043 140.118C23.0489 139.656 22.6006 139.188 22.159 138.714C21.7094 138.231 21.7367 137.475 22.2197 137.025C22.7028 136.575 23.459 136.602 23.9089 137.086C24.3344 137.543 24.7675 137.995 25.2068 138.441C25.67 138.911 25.6644 139.667 25.1942 140.131C24.91 140.411 24.5211 140.519 24.1556 140.458Z" fill="#2A8E9E" fill-opacity="0.3"/>
</g>
<path d="M30.2207 122.389C30.3892 122.685 30.727 122.842 31.0617 122.779L40.6136 120.99C43.6981 124.319 47.3356 127.18 51.4381 129.412L52.0581 139.104C52.0798 139.444 52.3149 139.733 52.6433 139.823L63.8831 142.912C64.2117 143.002 64.5611 142.874 64.7536 142.593L70.2391 134.579C74.9062 134.757 79.4949 134.156 83.8473 132.871L91.1435 139.29C91.3992 139.515 91.7697 139.553 92.0657 139.384L102.198 133.621C102.494 133.452 102.65 133.114 102.588 132.78L100.798 123.228C104.127 120.143 106.989 116.506 109.221 112.403L118.912 111.783C119.252 111.761 119.541 111.526 119.631 111.198L122.72 99.9578C122.81 99.6294 122.682 99.2798 122.401 99.0875L114.387 93.602C114.565 88.9349 113.964 84.3462 112.679 79.9938L119.098 72.6974C119.323 72.4417 119.361 72.0714 119.192 71.7753L113.429 61.6435C113.26 61.3473 112.922 61.1908 112.588 61.2535L103.036 63.0426C99.9514 59.7135 96.3137 56.8524 92.2111 54.6204L91.5912 44.9283C91.5695 44.5884 91.3346 44.2997 91.0062 44.2094L79.7661 41.1207C79.4377 41.0304 79.0881 41.1585 78.8958 41.4397L73.4103 49.4538C68.7433 49.2758 64.1544 49.8765 59.8019 51.162L52.5058 44.743C52.2501 44.5178 51.8795 44.48 51.5836 44.6483L41.4517 50.4122C41.1557 50.5806 40.9991 50.9182 41.0617 51.2532L42.8509 60.8049C39.5219 63.8894 36.6608 67.527 34.4288 71.6295L24.7367 72.2494C24.3969 72.271 24.1081 72.5062 24.018 72.8347L20.9292 84.0745C20.8389 84.4031 20.967 84.7526 21.2481 84.945L29.2622 90.4305C29.0845 95.0975 29.685 99.6862 30.9704 104.039L24.5514 111.335C24.3264 111.591 24.2884 111.961 24.4569 112.257L30.2207 122.389Z" fill="#2A8E9E" fill-opacity="0.3"/>
<path d="M69.9194 103.163C67.5418 102.762 65.3645 101.615 63.6651 99.8425C61.5745 97.6626 60.4583 94.7995 60.5216 91.7802C60.5844 88.7608 61.8197 85.9469 63.9991 83.8565C66.1792 81.7661 69.0422 80.6497 72.0614 80.7129C78.2986 80.8442 83.2591 86.0203 83.129 92.2532C82.9985 98.4863 77.8216 103.451 71.589 103.321C71.0244 103.309 70.4662 103.256 69.9194 103.163ZM73.3949 82.7534C72.947 82.6778 72.4888 82.6338 72.0217 82.6241C69.5128 82.5717 67.1337 83.4993 65.3224 85.2362C63.5111 86.9732 62.485 89.3115 62.4326 91.8201C62.3803 94.3289 63.3079 96.7079 65.0447 98.5189C66.7812 100.33 69.1179 101.355 71.6285 101.409C76.8073 101.517 81.1087 97.3917 81.2175 92.2129C81.3157 87.501 77.9099 83.5155 73.3949 82.7534Z" fill="#919191"/>
<path d="M67.2892 120.088C66.342 119.928 65.396 119.719 64.4499 119.459C63.0476 119.074 61.6762 118.583 60.3551 117.995C60.3441 117.99 60.3331 117.985 60.3226 117.98C60.2645 117.954 60.2068 117.928 60.1493 117.902C60.1409 117.898 60.133 117.895 60.1252 117.891C60.1252 117.891 60.1252 117.891 60.1247 117.891C60.1173 117.887 60.1103 117.884 60.1029 117.881C60.0751 117.868 60.047 117.855 60.0192 117.843C60.0153 117.841 60.0109 117.839 60.0065 117.837C59.9956 117.832 59.9846 117.827 59.9736 117.822C59.9701 117.82 59.9661 117.818 59.9626 117.816C59.8787 117.778 59.7954 117.739 59.7122 117.699C59.6828 117.685 59.6535 117.671 59.6242 117.657C59.4438 117.57 59.2646 117.482 59.0867 117.392C58.9843 117.34 58.8823 117.288 58.7805 117.235C58.5925 117.137 58.4967 116.931 58.5302 116.732C58.5384 116.684 58.5541 116.636 58.5779 116.59C58.6998 116.357 58.9878 116.266 59.2228 116.388C60.9566 117.291 62.8009 118.015 64.7035 118.537C71.8246 120.495 79.2826 119.561 85.701 115.909C92.1204 112.257 96.7337 106.324 98.6903 99.203C98.942 98.2876 99.1441 97.3703 99.2989 96.454C101.627 82.6476 93.1417 69.0043 79.3564 65.2162C72.2345 63.2599 64.7777 64.1929 58.3589 67.8443C51.9395 71.4963 47.3262 77.429 45.3696 84.5504C45.1204 85.4568 44.9182 86.3719 44.7632 87.293C44.0906 91.2834 44.2979 95.3769 45.3856 99.2784C45.4051 99.3484 45.4078 99.4193 45.3964 99.4863C45.3665 99.6633 45.2377 99.8156 45.0533 99.8672C44.7994 99.9384 44.5349 99.7889 44.4647 99.5352C43.3394 95.498 43.1245 91.2627 43.8205 87.1345C43.9807 86.1819 44.19 85.2347 44.4475 84.2975C46.4723 76.9299 51.2446 70.7917 57.8861 67.0137C64.5275 63.2353 72.2451 62.2708 79.6095 64.2943C93.8716 68.2137 102.65 82.3286 100.242 96.6123C100.082 97.5604 99.8727 98.5095 99.6125 99.4563C95.6923 113.719 81.5739 122.499 67.2892 120.088Z" fill="#919191"/>
<g opacity="0.64">
<path d="M129.608 72.9408C129.303 72.8892 129.055 72.642 129.016 72.3191C128.97 71.9333 128.93 71.5463 128.895 71.1583C128.86 70.7644 129.151 70.4164 129.545 70.3813C129.937 70.3454 130.287 70.6372 130.323 71.0314C130.356 71.4052 130.395 71.7781 130.439 72.1497C130.486 72.5426 130.205 72.8991 129.812 72.9458C129.743 72.954 129.674 72.9519 129.608 72.9408Z" fill="#2A8E9E" fill-opacity="0.3"/>
<path d="M129.332 68.0041C128.991 67.9466 128.733 67.6495 128.736 67.293C128.741 66.5018 128.77 65.7005 128.822 64.9122C128.848 64.5175 129.189 64.2187 129.584 64.2446C129.981 64.2698 130.278 64.612 130.252 65.0069C130.201 65.767 130.173 66.5394 130.168 67.3024C130.166 67.6981 129.843 68.0167 129.447 68.0142C129.408 68.014 129.369 68.0105 129.332 68.0041ZM129.848 61.8894C129.459 61.824 129.196 61.4574 129.26 61.0685L129.302 60.8125C129.419 60.1218 129.556 59.4212 129.709 58.73C129.795 58.3438 130.171 58.0963 130.563 58.1859C130.95 58.2717 131.193 58.6542 131.108 59.0405C130.959 59.7079 130.827 60.3842 130.715 61.0509L130.674 61.2975C130.61 61.6881 130.243 61.9533 129.852 61.8901C129.851 61.8899 129.849 61.8896 129.848 61.8894ZM131.288 55.9256C131.254 55.9198 131.22 55.9115 131.186 55.9006C130.809 55.7789 130.603 55.375 130.724 54.9985C130.968 54.2448 131.237 53.4901 131.523 52.7555C131.666 52.3867 132.082 52.2052 132.45 52.3479C132.819 52.4916 133.002 52.9068 132.858 53.2754C132.582 53.9841 132.323 54.7122 132.088 55.4392C131.977 55.7817 131.632 55.9837 131.288 55.9256ZM133.617 50.2507C133.548 50.239 133.479 50.217 133.414 50.1838C133.06 50.0056 132.918 49.5749 133.096 49.2215C133.451 48.5174 133.833 47.8128 134.231 47.1278C134.429 46.7851 134.868 46.6698 135.21 46.8675C135.552 47.0662 135.668 47.5046 135.47 47.8466C135.086 48.5075 134.718 49.187 134.376 49.8664C134.231 50.154 133.919 50.3017 133.617 50.2507ZM136.794 45.0026C136.69 44.985 136.588 44.9441 136.496 44.8784C136.174 44.6478 136.101 44.2003 136.331 43.8788C136.792 43.2359 137.279 42.5981 137.777 41.9828C138.027 41.6752 138.477 41.6278 138.785 41.8771C139.092 42.1262 139.14 42.5772 138.891 42.8848C138.41 43.4783 137.941 44.0936 137.496 44.7137C137.331 44.9436 137.055 45.0468 136.794 45.0026ZM140.746 40.3051C140.606 40.2816 140.472 40.2165 140.364 40.1098C140.081 39.8326 140.077 39.379 140.355 39.0969C140.91 38.5318 141.488 37.9767 142.074 37.4471C142.367 37.1816 142.82 37.2039 143.086 37.4976C143.351 37.7911 143.328 38.2441 143.035 38.5093C142.47 39.0204 141.912 39.5558 141.377 40.1009C141.206 40.2745 140.969 40.3428 140.746 40.3051ZM145.371 36.271C145.196 36.2414 145.031 36.1467 144.916 35.9928C144.68 35.6756 144.745 35.2268 145.062 34.9903C145.697 34.5173 146.353 34.0575 147.013 33.6234C147.344 33.4057 147.787 33.4977 148.005 33.8281C148.222 34.1586 148.131 34.6029 147.8 34.8202C147.164 35.2389 146.531 35.6826 145.919 36.1389C145.756 36.2607 145.557 36.3022 145.371 36.271ZM150.558 32.9912C150.346 32.9553 150.152 32.8248 150.044 32.6201C149.858 32.2705 149.992 31.8371 150.341 31.6516C151.04 31.2815 151.758 30.927 152.476 30.5986C152.835 30.434 153.261 30.592 153.425 30.9519C153.59 31.3117 153.432 31.7369 153.072 31.9014C152.379 32.2183 151.686 32.5602 151.012 32.9177C150.867 32.9943 150.708 33.0165 150.558 32.9912ZM156.182 30.5411C155.932 30.4989 155.713 30.3253 155.624 30.0693C155.495 29.6956 155.692 29.2873 156.066 29.1578C156.812 28.899 157.575 28.6589 158.335 28.4439C158.716 28.336 159.112 28.5577 159.22 28.9383C159.327 29.3191 159.106 29.715 158.725 29.8226C157.992 30.03 157.255 30.2617 156.536 30.5112C156.418 30.5522 156.297 30.5604 156.182 30.5411ZM193.343 36.4596C193.232 36.4409 193.124 36.396 193.029 36.3236C192.422 35.8626 191.793 35.4134 191.159 34.9884C190.831 34.768 190.743 34.3229 190.963 33.9944C191.184 33.6657 191.629 33.578 191.957 33.7983C192.615 34.239 193.267 34.7049 193.896 35.1826C194.211 35.4219 194.272 35.8714 194.033 36.1864C193.866 36.4062 193.597 36.5025 193.343 36.4596ZM162.113 28.9823C161.824 28.9336 161.583 28.7092 161.527 28.4038C161.457 28.0146 161.715 27.6417 162.104 27.5709C162.881 27.4296 163.672 27.3099 164.455 27.215C164.846 27.1668 165.205 27.447 165.252 27.8399C165.3 28.2327 165.02 28.5897 164.627 28.6374C163.872 28.7291 163.11 28.8445 162.36 28.9808C162.276 28.996 162.193 28.9957 162.113 28.9823ZM188.184 33.137C188.108 33.1242 188.034 33.0992 187.963 33.061C187.291 32.6987 186.6 32.3521 185.909 32.0306C185.551 31.8636 185.395 31.4375 185.562 31.0789C185.729 30.7205 186.153 30.5645 186.514 30.7316C187.231 31.065 187.947 31.4245 188.643 31.8001C188.991 31.9879 189.122 32.4224 188.934 32.7707C188.784 33.0478 188.478 33.1868 188.184 33.137ZM168.211 28.356C167.879 28.3 167.623 28.016 167.615 27.6674C167.605 27.2718 167.918 26.9432 168.313 26.9335C169.104 26.9139 169.905 26.9177 170.694 26.9449C171.088 26.9575 171.399 27.2901 171.386 27.6855C171.372 28.0809 171.04 28.3903 170.645 28.3768C169.884 28.3506 169.112 28.3468 168.348 28.3658C168.302 28.3668 168.256 28.3635 168.211 28.356ZM182.574 30.6504C182.534 30.6436 182.493 30.6332 182.454 30.6191C181.735 30.3648 180.999 30.1284 180.266 29.916C179.886 29.806 179.667 29.4089 179.777 29.0289C179.887 28.6489 180.284 28.4296 180.664 28.5401C181.424 28.7599 182.186 29.0049 182.931 29.2684C183.304 29.4002 183.5 29.8097 183.368 30.1827C183.25 30.5158 182.911 30.7073 182.574 30.6504ZM174.337 28.6788C173.96 28.6151 173.697 28.263 173.747 27.8797C173.798 27.4874 174.158 27.2109 174.55 27.2622C175.33 27.364 176.119 27.4903 176.901 27.6389C177.29 27.7128 177.545 28.0877 177.471 28.4764C177.397 28.8652 177.009 29.1256 176.634 29.0465C175.878 28.903 175.118 28.7813 174.365 28.6828C174.355 28.6817 174.346 28.6803 174.337 28.6788Z" fill="#2A8E9E" fill-opacity="0.3"/>
<path d="M197.106 39.7104C196.967 39.6869 196.833 39.6223 196.725 39.5159C196.457 39.254 196.186 38.9955 195.91 38.7407C195.619 38.4723 195.601 38.019 195.87 37.7286C196.139 37.4379 196.592 37.4202 196.882 37.6883C197.168 37.9524 197.45 38.2205 197.727 38.4923C198.01 38.7693 198.015 39.2227 197.738 39.5054C197.567 39.6795 197.329 39.7481 197.106 39.7104Z" fill="#2A8E9E" fill-opacity="0.3"/>
</g>
<g opacity="0.64">
<path d="M209.116 68.0424C208.778 67.9855 208.521 67.6926 208.519 67.3389C208.518 66.9631 208.511 66.5883 208.499 66.2142C208.486 65.8188 208.796 65.4876 209.191 65.4744C209.584 65.4623 209.917 65.7713 209.931 66.1667C209.944 66.5548 209.951 66.9435 209.952 67.3332C209.954 67.7289 209.634 68.0507 209.239 68.0524C209.197 68.0525 209.156 68.0492 209.116 68.0424Z" fill="#2A8E9E" fill-opacity="0.3"/>
<path d="M161.895 107.442C161.891 107.441 161.886 107.441 161.882 107.44C161.2 107.312 160.513 107.164 159.839 107.002L159.592 106.941C159.208 106.846 158.973 106.458 159.068 106.074C159.164 105.69 159.559 105.458 159.936 105.551L160.175 105.609C160.825 105.766 161.489 105.908 162.146 106.031C162.535 106.104 162.791 106.479 162.718 106.868C162.646 107.252 162.279 107.507 161.895 107.442ZM165.598 107.96C165.232 107.899 164.97 107.564 165.005 107.188C165.041 106.794 165.39 106.504 165.784 106.541C166.532 106.61 167.291 106.658 168.04 106.684C168.434 106.696 168.745 107.029 168.731 107.424C168.718 107.82 168.386 108.129 167.99 108.116C167.214 108.089 166.427 108.039 165.652 107.967C165.634 107.966 165.616 107.963 165.598 107.96ZM156.059 105.888C156.02 105.881 155.981 105.871 155.942 105.858C155.205 105.601 154.468 105.32 153.751 105.023C153.386 104.871 153.212 104.452 153.364 104.087C153.515 103.721 153.935 103.547 154.3 103.699C154.991 103.986 155.702 104.257 156.413 104.505C156.787 104.635 156.984 105.043 156.854 105.417C156.737 105.752 156.397 105.945 156.059 105.888ZM171.635 108.058C171.313 108.004 171.06 107.734 171.04 107.395C171.016 107 171.317 106.66 171.712 106.637C172.461 106.591 173.218 106.524 173.963 106.435C174.355 106.388 174.712 106.669 174.758 107.062C174.805 107.455 174.525 107.811 174.132 107.858C173.36 107.95 172.575 108.02 171.798 108.067C171.742 108.07 171.687 108.067 171.635 108.058ZM150.522 103.474C150.448 103.462 150.375 103.438 150.306 103.401C149.618 103.036 148.932 102.647 148.267 102.243C147.929 102.038 147.821 101.597 148.026 101.259C148.231 100.921 148.671 100.812 149.01 101.018C149.651 101.408 150.313 101.783 150.976 102.135C151.326 102.32 151.459 102.754 151.274 103.103C151.126 103.383 150.818 103.524 150.522 103.474ZM177.617 107.237C177.336 107.19 177.1 106.976 177.036 106.682C176.952 106.295 177.198 105.914 177.585 105.83C178.317 105.672 179.054 105.49 179.777 105.29C180.159 105.184 180.553 105.408 180.659 105.789C180.764 106.17 180.541 106.565 180.16 106.671C179.411 106.878 178.646 107.067 177.887 107.231C177.795 107.25 177.704 107.252 177.617 107.237ZM145.416 100.248C145.308 100.229 145.203 100.186 145.108 100.116C144.484 99.651 143.865 99.1619 143.269 98.6621C142.966 98.408 142.927 97.956 143.181 97.653C143.435 97.3496 143.888 97.3106 144.19 97.5644C144.765 98.0463 145.362 98.5181 145.964 98.9669C146.281 99.203 146.347 99.6519 146.111 99.9692C145.945 100.192 145.673 100.291 145.416 100.248ZM183.403 105.519C183.161 105.479 182.946 105.314 182.852 105.068C182.711 104.698 182.896 104.284 183.266 104.143C183.968 103.876 184.67 103.585 185.353 103.278C185.714 103.116 186.138 103.277 186.3 103.638C186.462 103.999 186.301 104.423 185.94 104.585C185.232 104.903 184.504 105.205 183.777 105.482C183.653 105.529 183.524 105.54 183.403 105.519ZM188.865 102.949C188.66 102.915 188.471 102.791 188.36 102.596C188.166 102.252 188.287 101.814 188.631 101.62C189.284 101.25 189.935 100.856 190.566 100.45C190.898 100.235 191.342 100.332 191.556 100.664C191.77 100.997 191.675 101.44 191.342 101.654C190.689 102.075 190.014 102.483 189.337 102.866C189.188 102.951 189.022 102.976 188.865 102.949ZM193.881 99.5878C193.711 99.5593 193.551 99.4698 193.436 99.3238C193.192 99.0125 193.247 98.5623 193.558 98.318C194.148 97.8548 194.732 97.3678 195.296 96.8706C195.592 96.6088 196.044 96.6364 196.307 96.9332C196.569 97.2299 196.541 97.6824 196.244 97.9445C195.66 98.4602 195.054 98.9649 194.443 99.445C194.277 99.5748 194.073 99.6203 193.881 99.5878ZM198.334 95.51C198.2 95.4872 198.07 95.426 197.964 95.3257C197.675 95.0548 197.661 94.6016 197.932 94.3131C198.445 93.766 198.95 93.1962 199.432 92.6191C199.686 92.3154 200.138 92.2756 200.441 92.5285C200.745 92.782 200.785 93.2338 200.532 93.5375C200.032 94.1357 199.509 94.7266 198.976 95.2937C198.806 95.4755 198.563 95.5485 198.334 95.51ZM202.122 90.8044C202.022 90.7877 201.925 90.7495 201.836 90.6886C201.51 90.465 201.427 90.0189 201.651 89.6927C202.076 89.0735 202.488 88.4331 202.877 87.7893C203.082 87.4507 203.523 87.3424 203.861 87.5463C204.199 87.7507 204.308 88.1911 204.104 88.5298C203.7 89.1974 203.273 89.8613 202.832 90.5032C202.669 90.7408 202.388 90.8495 202.122 90.8044ZM205.15 85.5772C205.086 85.5662 205.021 85.5461 204.959 85.5162C204.602 85.3445 204.452 84.9164 204.624 84.56C204.949 83.8838 205.259 83.1892 205.545 82.4958C205.696 82.1298 206.114 81.9551 206.48 82.1064C206.846 82.2571 207.021 82.6758 206.87 83.0415C206.573 83.7604 206.252 84.4802 205.915 85.1812C205.773 85.4753 205.457 85.6288 205.15 85.5772ZM207.35 79.9549C207.319 79.9497 207.289 79.9425 207.258 79.9332C206.88 79.8174 206.667 79.4168 206.783 79.0385C207.003 78.321 207.205 77.5876 207.384 76.8586C207.478 76.4743 207.868 76.2356 208.25 76.3335C208.634 76.4277 208.87 76.8156 208.775 77.1998C208.59 77.9548 208.381 78.7146 208.153 79.4578C208.047 79.8059 207.699 80.0139 207.35 79.9549ZM208.682 74.0653C208.298 74.0005 208.035 73.6399 208.093 73.2532C208.203 72.5115 208.294 71.7561 208.362 71.0082C208.397 70.6143 208.745 70.3237 209.139 70.3592C209.535 70.3965 209.824 70.7431 209.788 71.1372C209.718 71.9125 209.624 72.6956 209.51 73.4646C209.452 73.8558 209.087 74.1258 208.696 74.0674C208.691 74.0669 208.686 74.0662 208.682 74.0653Z" fill="#2A8E9E" fill-opacity="0.3"/>
<path d="M140.843 96.2663C140.7 96.242 140.563 96.1742 140.453 96.0629C140.18 95.7858 139.911 95.5053 139.646 95.2209C139.377 94.9313 139.393 94.478 139.683 94.2085C139.972 93.9389 140.426 93.9549 140.695 94.2449C140.95 94.5192 141.21 94.79 141.473 95.0573C141.751 95.3391 141.748 95.7927 141.466 96.0704C141.296 96.2382 141.062 96.3033 140.843 96.2663Z" fill="#2A8E9E" fill-opacity="0.3"/>
</g>
<path d="M144.48 85.4341C144.581 85.6115 144.783 85.7056 144.984 85.6679L150.71 84.5952C152.56 86.591 154.74 88.3064 157.2 89.6444L157.572 95.4549C157.585 95.6588 157.726 95.8318 157.922 95.886L164.661 97.7378C164.858 97.7918 165.067 97.7151 165.183 97.5466L168.472 92.742C171.27 92.8485 174.021 92.4886 176.63 91.718L181.004 95.5664C181.158 95.7013 181.38 95.7241 181.557 95.623L187.631 92.1675C187.809 92.0664 187.903 91.864 187.865 91.6632L186.793 85.9367C188.789 84.0874 190.504 81.9066 191.842 79.447L197.653 79.0754C197.856 79.0623 198.03 78.9215 198.084 78.7245L199.935 71.9858C199.99 71.789 199.913 71.5793 199.744 71.4641L194.94 68.1753C195.046 65.3773 194.686 62.6262 193.916 60.0168L197.764 55.6424C197.899 55.4892 197.921 55.2672 197.821 55.0896L194.365 49.0153C194.264 48.8377 194.062 48.7438 193.861 48.7814L188.134 49.8542C186.285 47.8582 184.104 46.1429 181.645 44.8048L181.273 38.9942C181.26 38.7904 181.119 38.6174 180.922 38.5632L174.184 36.7114C173.987 36.6572 173.777 36.734 173.662 36.9026L170.373 41.7072C167.575 41.6005 164.824 41.9606 162.214 42.7312L157.84 38.8829C157.687 38.7479 157.465 38.7253 157.287 38.8262L151.213 42.2817C151.036 42.3828 150.942 42.5852 150.979 42.786L152.052 48.5125C150.056 50.3618 148.341 52.5426 147.002 55.0022L141.192 55.3738C140.988 55.3867 140.815 55.5277 140.761 55.7247L138.909 62.4632C138.855 62.6602 138.932 62.8698 139.1 62.9851L143.905 66.2739C143.798 69.0719 144.158 71.8228 144.929 74.4324L141.081 78.8068C140.946 78.96 140.923 79.182 141.024 79.3596L144.48 85.4341Z" fill="#2A8E9E" fill-opacity="0.3"/>
<path d="M168.28 73.9076C166.854 73.6669 165.549 72.979 164.53 71.9166C163.277 70.6097 162.608 68.8933 162.646 67.083C162.683 65.2728 163.424 63.5857 164.73 62.3324C166.038 61.0791 167.754 60.4099 169.564 60.4478C173.303 60.5264 176.277 63.6298 176.199 67.3665C176.121 71.1034 173.018 74.0799 169.281 74.0017C168.942 73.9946 168.608 73.9629 168.28 73.9076ZM170.363 61.6712C170.095 61.6259 169.82 61.5996 169.54 61.5937C168.036 61.5623 166.61 62.1185 165.524 63.1596C164.438 64.2009 163.823 65.6028 163.791 67.1069C163.76 68.6109 164.316 70.0372 165.357 71.123C166.398 72.2085 167.799 72.8233 169.304 72.8555C172.409 72.9205 174.988 70.4472 175.053 67.3422C175.112 64.5175 173.07 62.1282 170.363 61.6712Z" fill="#919191"/>
<path d="M166.703 84.0541C166.135 83.9582 165.568 83.8331 165.001 83.6774C164.16 83.4463 163.338 83.1521 162.546 82.7994C162.539 82.7963 162.533 82.7935 162.526 82.7906C162.492 82.7751 162.457 82.7596 162.422 82.7438C162.417 82.7416 162.413 82.7394 162.408 82.7373H162.408C162.403 82.7352 162.399 82.7334 162.394 82.7311C162.378 82.7237 162.361 82.7159 162.344 82.7083C162.342 82.7071 162.339 82.7059 162.337 82.7048C162.33 82.7016 162.324 82.6986 162.317 82.6957C162.315 82.6947 162.312 82.6938 162.31 82.6925C162.26 82.6693 162.21 82.6458 162.16 82.6221C162.143 82.6138 162.125 82.6054 162.108 82.5969C161.999 82.5452 161.892 82.4921 161.785 82.4382C161.724 82.4071 161.663 82.3758 161.602 82.344C161.489 82.2852 161.432 82.1616 161.452 82.0426C161.456 82.0136 161.466 81.9849 161.48 81.9576C161.553 81.8175 161.726 81.7628 161.867 81.8361C162.906 82.3778 164.012 82.8115 165.153 83.125C169.422 84.299 173.893 83.7386 177.741 81.5494C181.59 79.3599 184.356 75.803 185.529 71.5336C185.68 70.9849 185.801 70.4348 185.894 69.8854C187.289 61.6081 182.202 53.4287 173.937 51.1576C169.668 49.9847 165.197 50.544 161.349 52.7332C157.5 54.9225 154.734 58.4794 153.561 62.749C153.412 63.2924 153.291 63.841 153.198 64.3932C152.795 66.7854 152.919 69.2397 153.571 71.5787C153.583 71.6207 153.584 71.6631 153.577 71.7034C153.56 71.8095 153.482 71.9008 153.372 71.9318C153.22 71.9744 153.061 71.8849 153.019 71.7327C152.344 69.3123 152.215 66.7731 152.633 64.2981C152.729 63.727 152.854 63.1592 153.009 62.5972C154.222 58.1802 157.084 54.5002 161.065 52.2352C165.047 49.9699 169.674 49.3916 174.089 50.6047C182.639 52.9545 187.903 61.4168 186.458 69.9803C186.363 70.5487 186.237 71.1177 186.081 71.6854C183.732 80.2361 175.267 85.4997 166.703 84.0541Z" fill="#919191"/>
<path d="M417.814 341.966C417.814 345.87 414.63 349.065 410.738 349.065H28.0745C24.1825 349.065 20.9982 345.87 20.9982 341.966L17.814 121.131C17.814 117.227 22.3951 109.604 30.7906 110.177L404.772 100.459C409.655 100.332 414.377 102.22 417.835 105.681C421.293 109.143 423.185 113.875 423.069 118.774L417.814 341.966Z" fill="#0D5370"/>
<path d="M410.828 335.155C410.828 338.852 407.815 341.878 404.133 341.878H37.3024C33.6203 341.878 30.6077 338.852 30.6077 335.155L27.603 134.679C27.9569 122.615 38.4893 118.279 44.8739 118.535C44.8739 118.535 337.174 110.66 403.3 108.879C406.731 108.786 410.048 110.114 412.478 112.548C414.908 114.982 416.245 118.313 416.159 121.758L410.828 335.155Z" fill="url(#paint0_linear_251_6342)"/>
<g opacity="0.58">
<path d="M34.5719 239.394C34.2966 239.394 34.0716 239.19 34.0678 238.935L33.8301 222.677C33.8265 222.42 34.0491 222.209 34.3276 222.206C34.6027 222.197 34.8349 222.408 34.8388 222.664L35.0765 238.923C35.0801 239.18 34.8575 239.391 34.579 239.394C34.5766 239.394 34.5743 239.394 34.5719 239.394Z" fill="#F2F9FA"/>
<path d="M33.9892 199.553C33.714 199.553 33.4889 199.349 33.4851 199.094L32.5745 136.826C32.5942 132.486 33.9909 129.068 36.7262 126.658C41.2656 122.66 48.0037 122.871 48.2846 122.881L162.746 119.796C163.038 119.784 163.257 119.991 163.265 120.247C163.273 120.504 163.054 120.718 162.775 120.726L48.2826 123.81C47.9744 123.8 41.6553 123.602 37.4228 127.331C34.8934 129.559 33.6015 132.752 33.583 136.822L34.4937 199.082C34.4973 199.339 34.2747 199.55 33.9962 199.553C33.994 199.553 33.9918 199.553 33.9892 199.553Z" fill="#F2F9FA"/>
</g>
<path d="M435.599 367.397H3.97093C3.3445 367.397 2.83203 366.885 2.83203 366.258V349.133C2.83203 348.506 3.3445 347.994 3.97093 347.994H435.599C436.225 347.994 436.737 348.506 436.737 349.133V366.258C436.737 366.884 436.225 367.397 435.599 367.397Z" fill="#0D5370"/>
<path d="M65.2004 245.038V370.426C65.2004 380.741 73.4201 389.176 83.7315 389.442C129.529 390.623 289.708 393.487 333.305 392.844C340.798 392.734 346.868 386.737 347.084 379.247C347.925 350.117 349.29 280.071 344.237 247.551C343.173 240.703 337.393 235.582 330.466 235.36C292.093 234.133 122.293 230.235 78.7167 231.213C71.2015 231.382 65.2004 237.521 65.2004 245.038Z" fill="#0D5370"/>
<path d="M73.0681 244.428V363.555C73.0681 369.578 77.9025 374.485 83.9242 374.575L327.033 377.578C333.003 377.667 337.896 372.864 337.919 366.894L338.325 248.831C338.341 244.561 334.94 241.063 330.672 240.96L81.7741 235.931C77.0005 235.815 73.0681 239.653 73.0681 244.428Z" fill="url(#paint1_linear_251_6342)"/>
<path d="M289.841 273.537C289.692 297.723 289.282 381.151 290.519 410.695C290.65 413.825 292.833 416.306 295.511 416.368C308.756 416.676 357.303 417.232 378.939 415.844C383.446 415.555 386.968 411.228 386.982 405.947C387.051 380.561 386.972 309.165 384.122 276.5C383.781 272.587 381.105 269.506 377.755 269.165C363.314 267.694 314.515 264.301 295.83 266.002C292.461 266.309 289.866 269.582 289.841 273.537Z" fill="#0D5370"/>
<path d="M295.859 280.866C295.44 300.393 294.166 365.352 295.24 389.35C295.397 392.857 297.804 395.659 300.803 395.819C313.152 396.479 355.27 397.709 373.339 395.743C376.593 395.388 379.104 392.268 379.222 388.446C379.84 368.522 381.566 308.028 380.526 284.299C380.36 280.514 377.806 277.459 374.575 277.168C361.207 275.967 316.432 273.302 301.07 274.515C298.187 274.742 295.932 277.486 295.859 280.866Z" fill="url(#paint2_linear_251_6342)"/>
<path opacity="0.5" d="M322.508 269.828C322.519 270.57 323.022 271.174 323.656 271.204C326.786 271.348 335.602 271.758 339.542 271.966C340.319 272.007 340.916 271.182 340.755 270.291L340.728 270.139C340.618 269.531 340.179 269.079 339.65 269.03C336.985 268.785 328.945 268.115 323.629 268.417C322.99 268.453 322.497 269.08 322.508 269.828Z" fill="#F2F9FA"/>
<path d="M370.224 158.098C369.746 150.708 365.283 144.162 358.594 140.985L271.929 99.8247C266.379 97.1888 259.938 97.1888 254.388 99.8247L167.723 140.985C161.034 144.162 156.571 150.708 156.093 158.098C147.964 283.754 228.533 329.538 254.945 341.104C260.183 343.397 266.134 343.397 271.372 341.104C297.784 329.538 378.353 283.754 370.224 158.098Z" fill="#2A8E9E"/>
<path d="M236.944 117.245C236.454 117.245 235.985 116.969 235.761 116.497C235.45 115.844 235.729 115.063 236.381 114.754L256.859 105.028C257.511 104.717 258.292 104.996 258.602 105.649C258.912 106.302 258.634 107.083 257.981 107.392L237.504 117.117C237.323 117.204 237.132 117.245 236.944 117.245Z" fill="#2A8E9E" fill-opacity="0.3"/>
<path d="M162.721 185.067C162.018 185.067 161.437 184.51 161.413 183.802C161.139 175.629 161.283 167.106 161.841 158.47C162.184 153.179 165.384 148.473 170.194 146.188L228.495 118.499C229.146 118.188 229.928 118.466 230.238 119.12C230.548 119.773 230.27 120.553 229.617 120.863L171.317 148.552C167.365 150.43 164.735 154.295 164.454 158.639C163.9 167.19 163.758 175.626 164.03 183.714C164.054 184.437 163.488 185.042 162.765 185.067C162.751 185.067 162.735 185.067 162.721 185.067Z" fill="#2A8E9E" fill-opacity="0.3"/>
<path d="M349.266 163.002C349.171 161.129 348.055 159.457 346.361 158.652L265.344 120.174C263.961 119.517 262.356 119.517 260.972 120.174L179.956 158.652C178.262 159.457 177.146 161.129 177.051 163.002C174.655 209.876 185.482 248.986 209.253 279.298C227.377 302.409 248.578 314.794 261.002 320.572C262.371 321.208 263.946 321.209 265.315 320.572C277.738 314.794 298.94 302.409 317.063 279.298C340.835 248.986 351.662 209.876 349.266 163.002Z" fill="#0D5370"/>
<path d="M239.204 213.363H231.13V181.186C231.13 168.547 240.591 157.867 253.137 156.342L269.646 154.336C276.752 153.473 283.901 155.7 289.26 160.446C294.618 165.193 297.691 172.021 297.691 179.179V207.271H289.617V179.179C289.617 174.331 287.535 169.706 283.906 166.49C280.276 163.275 275.433 161.766 270.62 162.352L254.111 164.358C245.613 165.391 239.205 172.625 239.205 181.186V213.363H239.204Z" fill="url(#paint3_linear_251_6342)"/>
<path d="M228.743 206.139L299.523 202.218C302.398 202.059 304.817 204.347 304.817 207.226V263.299C304.817 266.069 302.571 268.315 299.801 268.315H230.721C228.015 268.315 225.796 266.167 225.708 263.462L224.007 211.311C223.918 208.586 226.021 206.29 228.743 206.139Z" fill="url(#paint4_linear_251_6342)"/>
<path d="M275.95 252.252L271.666 239.935C271.151 238.454 271.502 236.799 272.603 235.683C274.798 233.458 276.106 230.356 275.951 226.949C275.678 220.941 270.77 216.07 264.76 215.839C258.11 215.584 252.637 220.9 252.637 227.494C252.637 231.152 254.322 234.415 256.958 236.553C258.325 237.662 258.887 239.484 258.308 241.146L254.446 252.252C253.506 254.952 255.512 257.773 258.371 257.773H272.024C274.884 257.773 276.889 254.952 275.95 252.252Z" fill="#0D5370"/>
<path d="M127.247 411.6C127.247 411.6 126.462 415.813 126.057 419.986C125.898 421.617 127.143 423.047 128.78 423.131C134.34 423.415 146.234 423.979 150.506 423.83C151.148 423.807 151.574 423.154 151.342 422.555C151.148 422.053 150.768 421.644 150.28 421.415L130.713 412.194L127.247 411.6Z" fill="#0D5370"/>
<path d="M126.66 409.115L127.211 414.168C127.211 414.168 130.639 415.804 133.007 414.021L131.635 408.383L126.66 409.115Z" fill="#F2F9FA"/>
<path d="M128.016 314.229C127.744 315.545 126 379.99 132.614 408.941C132.722 409.414 132.478 409.897 132.028 410.076C130.967 410.498 128.89 411.103 126.406 411.163C125.637 411.182 124.952 410.675 124.742 409.935C122.837 403.215 113.72 369.547 112.795 337.459C111.761 301.604 112.806 336.239 112.806 336.239L113.825 314.091L128.016 314.229Z" fill="#0D5370"/>
<path d="M104.618 413.586C104.618 413.586 103.411 415.705 102.208 421.354C101.991 422.375 102.696 423.36 103.733 423.472C105.568 423.67 108.393 423.929 110.659 423.935C111.703 423.938 112.526 423.037 112.41 421.999C112.179 419.931 111.43 416.533 109.041 413.868L104.618 413.586Z" fill="#0D5370"/>
<path d="M103.637 407.084L104.964 414.73C104.964 414.73 106.338 415.772 109.082 415.053L108.492 406.834L103.637 407.084Z" fill="#F2F9FA"/>
<path d="M100.726 315.947C94.7669 349.901 101.147 400.012 103.366 409.829C103.502 410.43 103.982 410.894 104.588 411C105.619 411.181 107.317 411.337 108.998 410.866C109.576 410.704 109.987 410.187 110.016 409.587C110.402 401.671 110.307 353.051 115.741 333.888C116.017 332.917 116.619 332.073 117.448 331.496L127.708 324.349L128.601 312.645L100.726 315.947Z" fill="#0D5370"/>
<path d="M137.248 251.851C120.363 251.411 101.685 255.946 101.685 255.946C96.3714 285.27 100.202 319.187 100.202 319.187C113.243 322.741 128.043 317.357 128.043 317.357C130.333 305.101 140.801 270.647 140.801 270.647C149.062 269.702 155.881 267.386 161.509 264.292C157.286 259.303 155.334 252.986 154.495 249.255C148.507 251.054 142.455 251.987 137.248 251.851Z" fill="#2A8E9E"/>
<path d="M187.367 227.453C185.727 225.434 183.618 226.362 183.618 226.362C181.033 236.835 167.922 245.222 154.495 249.255C155.334 252.986 157.287 259.303 161.509 264.292C183.845 252.013 187.367 227.453 187.367 227.453Z" fill="#F2F9FA"/>
<path d="M186.959 227.959C187.127 228.512 185.109 229.334 183.947 227.065C183.916 225.983 183.302 221.343 183.957 220.468C187.444 215.808 194.174 209.989 194.174 209.989C195.292 211.113 194.352 212.197 194.352 212.197L191.082 215.539C191.748 216.769 192.564 217.81 192.937 219.294C193.219 220.418 193.029 221.614 192.453 222.629C191.875 223.647 191.087 224.971 190.344 226.005C188.937 227.963 186.959 227.959 186.959 227.959Z" fill="#F2F9FA"/>
<path d="M189.645 217.714L186.671 220.187L185.721 222.668L188.324 225.611C188.324 225.611 189.255 220.679 189.923 219.615C190.59 218.552 190.254 218.032 189.645 217.714Z" fill="#F2F9FA"/>
<path d="M108.007 272.36L101.685 255.946C101.685 255.946 85.8096 266.513 83.0859 280.077C86.0642 280.325 91.4803 281.152 96.7632 283.883C97.9909 277.478 108.007 272.36 108.007 272.36Z" fill="#2A8E9E"/>
<path d="M121.644 287.878C121.644 287.878 103.839 297.718 97.9449 289.114C96.7214 287.328 96.4414 285.562 96.7631 283.883C91.4802 281.152 86.0643 280.325 83.0858 280.077C82.2647 284.166 82.6365 288.527 85.0017 292.954C95.2862 312.201 123.946 292.267 123.946 292.267L121.644 287.878Z" fill="#F2F9FA"/>
<path d="M120.273 237.978L114.752 253.466C114.66 253.723 114.763 254.009 115.001 254.143C116.458 254.967 121.712 257.358 128.11 253.387C128.776 252.973 129.234 252.292 129.342 251.515L131.21 238.083L120.273 237.978Z" fill="#F2F9FA"/>
<path d="M132.102 223.701C132.102 223.701 137.896 234.864 137.097 239.343C136.298 243.822 128.989 243.43 122.638 239.726L118.29 227.69L132.102 223.701Z" fill="#F2F9FA"/>
<path d="M122.976 233.839C123.237 233.726 123.336 233.409 123.182 233.17C122.717 232.444 121.845 230.962 121.574 229.67C121.574 229.67 120.52 228.98 124.289 228.116C128.058 227.252 133.679 225.908 134.888 222.719C136.067 219.609 133.122 211.732 128.245 217.939C128.06 218.175 127.701 218.177 127.52 217.937C126.74 216.902 124.684 214.749 121.789 216.015C119.08 217.199 118.758 219.173 118.785 220.17C118.793 220.463 118.529 220.688 118.242 220.631C116.88 220.357 113.61 220.103 112.05 223.446C110.765 226.199 111.568 227.772 112.306 228.545C112.545 228.795 112.435 229.203 112.103 229.301C111.204 229.566 110.04 230.316 110.135 232.417C110.268 235.321 113.516 235.096 114.442 234.973C114.593 234.953 114.745 235.006 114.847 235.12C115.631 236.005 119.165 239.762 123.025 240.248C123.359 240.29 123.622 239.962 123.515 239.642L121.889 234.766C121.814 234.539 121.924 234.292 122.143 234.198L122.976 233.839Z" fill="#0D5370"/>
<path d="M123.642 234.535C123.642 234.535 119.468 231.613 119.138 234.037C118.808 236.461 122.887 237.589 124.922 236.703L123.642 234.535Z" fill="#F2F9FA"/>
<path d="M118.005 303.428L127.704 269.557C127.815 269.172 128.143 268.892 128.54 268.845C130.297 268.64 135.389 268.065 141.268 267.567C148.35 266.968 156.574 266.483 161.489 266.896C162.187 266.955 162.61 267.694 162.299 268.322C159.505 273.976 148.009 296.975 142.252 304.509C142.062 304.759 141.767 304.905 141.453 304.902L118.949 304.692C118.294 304.686 117.825 304.058 118.005 303.428Z" fill="#0D5370"/>
<path d="M120.349 295.245C120.349 295.245 118.997 289.689 119.542 287.718C120.087 285.747 121.143 283.213 124.663 283.776C128.183 284.339 132.335 285.822 132.335 285.822C132.335 285.822 132.125 288.389 129.45 287.561L131.109 288.844C131.109 288.844 130.872 290.9 128.612 289.802L130.155 291.504C130.155 291.504 129.185 293.192 127.522 292.11C125.86 291.027 125.063 295.914 120.349 295.245Z" fill="#F2F9FA"/>
<path d="M140.622 277.679C140.622 279.251 141.897 280.526 143.469 280.526C145.041 280.526 146.316 279.251 146.316 277.679C146.316 276.106 145.041 274.832 143.469 274.832C141.897 274.832 140.622 276.106 140.622 277.679Z" fill="#2A8E9E" fill-opacity="0.3"/>
<path d="M128.802 279.556L130.777 272.857C131.019 272.034 131.68 271.417 132.502 271.245C138.692 269.953 155.633 269.68 155.803 269.677L155.792 268.92C155.093 268.931 138.608 269.198 132.348 270.504C131.252 270.733 130.372 271.552 130.05 272.643L128.076 279.342L128.802 279.556Z" fill="#2A8E9E"/>
<defs>
<linearGradient id="paint0_linear_251_6342" x1="18.8222" y1="379.109" x2="419.804" y2="85.9631" gradientUnits="userSpaceOnUse">
<stop stop-color="#FE7062"/>
<stop offset="1" stop-color="#FF928E"/>
</linearGradient>
<linearGradient id="paint1_linear_251_6342" x1="344.364" y1="399.292" x2="78.4381" y2="222.357" gradientUnits="userSpaceOnUse">
<stop stop-color="#FE7062"/>
<stop offset="1" stop-color="#FF928E"/>
</linearGradient>
<linearGradient id="paint2_linear_251_6342" x1="466.758" y1="479.186" x2="337.983" y2="336.801" gradientUnits="userSpaceOnUse">
<stop stop-color="#FE7062"/>
<stop offset="1" stop-color="#FF928E"/>
</linearGradient>
<linearGradient id="paint3_linear_251_6342" x1="260.608" y1="155.63" x2="269.315" y2="247.341" gradientUnits="userSpaceOnUse">
<stop stop-color="#FE7062"/>
<stop offset="1" stop-color="#FF928E"/>
</linearGradient>
<linearGradient id="paint4_linear_251_6342" x1="258.073" y1="200.886" x2="280.577" y2="308.514" gradientUnits="userSpaceOnUse">
<stop stop-color="#FE7062"/>
<stop offset="1" stop-color="#FF928E"/>
</linearGradient>
</defs>
</svg>
