<svg width="500" height="355" viewBox="0 0 500 355" fill="none" xmlns="http://www.w3.org/2000/svg">
<g clip-path="url(#clip0_582_17762)">
<path d="M331.539 19.0748C331.073 17.6341 330.598 16.1736 329.814 14.9315C329.031 13.6894 327.886 12.6724 326.569 12.4854C325.251 12.2984 323.791 13.1226 323.361 14.5782C323.171 11.2979 322.771 7.93246 321.353 5.08502C319.936 2.23674 317.291 -0.000834092 314.459 0.20025C311.788 0.389749 309.501 2.68773 308.231 5.41519C306.96 8.14348 306.524 11.2723 306.107 14.334C305.095 12.895 302.957 13.3468 301.901 14.7428C300.844 16.1388 300.576 18.0893 300.352 19.928L331.905 20.3086L331.539 19.0748Z" fill="#919191" fill-opacity="0.5"/>
<path d="M93.7943 95.0324C93.0014 92.5805 92.1929 90.0955 90.86 87.9812C89.5264 85.8678 87.5786 84.1366 85.3357 83.8181C83.0929 83.4995 80.6079 84.9029 79.8771 87.3796C79.5557 81.7973 78.8729 76.0701 76.4607 71.2242C74.0486 66.3775 69.5486 62.5702 64.7286 62.9111C60.1836 63.233 56.2929 67.1438 54.13 71.787C51.9679 76.4293 51.2257 81.7543 50.5157 86.9651C48.7929 84.5157 45.155 85.2852 43.3571 87.661C41.5593 90.0359 41.1036 93.3567 40.7214 96.4847L94.4186 97.1326L93.7943 95.0324Z" fill="#919191" fill-opacity="0.5"/>
<path d="M477.588 33.6786C476.795 31.2267 475.986 28.7417 474.654 26.6275C473.32 24.514 471.372 22.7829 469.129 22.4643C466.886 22.1457 464.401 23.5491 463.671 26.0259C463.349 20.4435 462.666 14.7164 460.254 9.87048C457.842 5.02378 453.342 1.21642 448.522 1.55735C443.977 1.87925 440.086 5.79005 437.924 10.4332C435.761 15.0755 435.019 20.4005 434.309 25.6113C432.586 23.1627 428.949 23.9323 427.151 26.3072C425.353 28.6822 424.897 32.0029 424.515 35.1309L478.212 35.7789L477.588 33.6786Z" fill="#919191" fill-opacity="0.5"/>
<path d="M147.492 36.4707C146.994 34.9323 146.487 33.3717 145.651 32.0452C144.814 30.7187 143.591 29.6322 142.184 29.4319C140.776 29.2325 139.216 30.1129 138.757 31.667C138.555 28.1633 138.126 24.5686 136.613 21.5267C135.099 18.4848 132.274 16.095 129.249 16.3093C126.396 16.5112 123.954 18.9664 122.597 21.8801C121.24 24.7937 120.774 28.136 120.329 31.4063C119.247 29.8697 116.964 30.3521 115.836 31.8433C114.707 33.3344 114.421 35.4181 114.181 37.3818L147.884 37.7881L147.492 36.4707Z" fill="#919191" fill-opacity="0.5"/>
<path d="M371.214 62.0969C370.716 60.5585 370.209 58.9979 369.372 57.6714C368.535 56.3449 367.313 55.2584 365.905 55.0581C364.497 54.8587 362.938 55.7391 362.479 57.2932C362.276 53.7895 361.848 50.1949 360.334 47.1529C358.821 44.111 355.996 41.7212 352.971 41.9355C350.118 42.1374 347.676 44.5926 346.319 47.5063C344.961 50.4199 344.496 53.7622 344.05 57.0325C342.969 55.4959 340.686 55.9783 339.557 57.4695C338.429 58.9606 338.143 61.0443 337.903 63.0079L371.606 63.4151L371.214 62.0969Z" fill="#919191" fill-opacity="0.5"/>
<path d="M306.106 54.2893C305.079 51.115 304.033 47.896 302.306 45.1586C300.58 42.4221 298.058 40.1795 295.154 39.7683C292.249 39.3562 289.031 41.1725 288.085 44.38C287.669 37.1517 286.784 29.7356 283.661 23.4598C280.538 17.1831 274.71 12.2537 268.469 12.6956C262.584 13.1126 257.545 18.177 254.745 24.188C251.945 30.199 250.984 37.0946 250.065 43.8421C247.834 40.6711 243.124 41.6674 240.796 44.7432C238.468 47.8191 237.878 52.1188 237.383 56.1694L306.915 57.0085L306.106 54.2893Z" fill="#919191" fill-opacity="0.5"/>
<path d="M128.824 242.365C128.67 241.243 127.504 240.632 126.539 240.836C125.574 241.041 124.782 241.812 124.039 242.555C123.976 240.995 124.728 239.571 125.285 238.149C125.843 236.726 126.194 234.955 125.414 233.68C124.441 232.092 122.325 232.26 120.811 233.103C118.425 234.432 116.599 237.038 115.967 240.016C115.202 235.484 113.229 231.237 110.386 228.001C109.216 226.669 107.514 225.44 106.029 226.249C104.482 227.092 104.284 229.674 105.029 231.457C105.774 233.241 107.151 234.543 108.175 236.13C111.381 241.1 110.357 249.017 106.034 252.68L127.379 252.596C126.069 251.198 125.666 247.511 126.79 245.91C127.594 244.764 129.024 243.822 128.824 242.365Z" fill="#919191" fill-opacity="0.5"/>
<path d="M131.033 221.293C131.033 222.208 130.393 222.949 129.604 222.949C128.814 222.949 128.174 222.208 128.174 221.293C128.174 220.379 128.814 219.637 129.604 219.637C130.393 219.638 131.033 220.379 131.033 221.293Z" fill="#919191" fill-opacity="0.5"/>
<path d="M88.2357 178.7L88.0015 178.901C87.1979 180.107 86.8772 181.706 87.0729 183.208C87.1965 184.157 88.3122 184.355 88.6786 183.494C89.3257 181.973 89.2186 179.985 88.2357 178.7Z" fill="#919191" fill-opacity="0.5"/>
<path d="M94.8757 196.226L94.6829 196.48C94.115 197.853 94.0907 199.495 94.5543 200.917C94.8472 201.815 95.9736 201.737 96.1757 200.806C96.5336 199.162 96.0693 197.243 94.8757 196.226Z" fill="#919191" fill-opacity="0.5"/>
<path d="M447.446 208.403C447.446 208.403 446.781 202.967 446.576 194.107C446.559 192.999 446.541 191.839 446.522 190.631C446.507 189.422 446.551 188.164 446.564 186.862C446.569 184.255 446.727 181.477 446.861 178.552C447.228 172.709 447.854 166.301 448.869 159.641C449.92 152.986 451.26 146.725 452.673 141.099C453.426 138.302 454.114 135.633 454.892 133.188C455.271 131.962 455.609 130.765 455.986 129.638C456.367 128.512 456.734 127.433 457.083 126.401C459.939 118.178 462.195 113.352 462.195 113.352C462.201 113.355 462.175 113.435 462.119 113.59C462.054 113.765 461.969 113.989 461.863 114.269C461.619 114.889 461.279 115.758 460.844 116.864C460.62 117.428 460.371 118.052 460.1 118.733C459.846 119.427 459.57 120.18 459.274 120.987C458.694 122.611 457.984 124.435 457.327 126.512C456.986 127.546 456.628 128.627 456.255 129.754C455.886 130.882 455.555 132.079 455.183 133.305C454.419 135.751 453.744 138.418 453.001 141.211C451.61 146.831 450.284 153.078 449.234 159.717C448.222 166.361 447.588 172.751 447.203 178.579C447.059 181.497 446.89 184.269 446.871 186.87C446.851 188.169 446.801 189.424 446.809 190.631C446.819 191.837 446.829 192.995 446.839 194.101C446.83 196.313 446.947 198.311 447.004 200.067C447.038 200.943 447.07 201.759 447.1 202.513C447.149 203.261 447.194 203.946 447.236 204.566C447.31 205.778 447.369 206.729 447.411 207.409C447.426 207.715 447.438 207.959 447.447 208.149C447.452 208.317 447.452 208.403 447.446 208.403Z" fill="#919191" fill-opacity="0.5"/>
<path d="M462.776 120.105C461.189 126.281 459.175 132.28 456.649 137.911C455.965 139.436 454.933 141.144 453.579 140.909C452.643 140.747 451.944 139.619 451.74 138.428C451.537 137.238 451.733 135.997 451.977 134.82C452.959 130.081 454.711 125.678 456.449 121.317C457.061 119.785 457.716 118.186 458.823 117.223C459.93 116.259 461.634 116.201 462.449 117.565C462.449 117.565 463.184 118.52 462.776 120.105Z" fill="#919191" fill-opacity="0.5"/>
<path d="M456.066 215.284C458.841 208.514 462.65 195.691 461.621 189.253C455.034 192.115 448.652 202.369 443.39 209.471C449.556 193.198 455.724 176.925 461.89 160.652C449.356 169.719 442.094 185.731 435.406 200.996C438.938 188.987 441.071 176.428 441.729 163.764C434.769 170.249 429.856 179.62 428.098 189.764C430.101 168.208 432.104 146.652 434.107 125.096C425.63 134.217 421.308 147.593 419.999 160.91C418.689 174.228 420.109 187.68 421.528 200.982C418.323 194.048 415.119 187.113 411.914 180.179C411.183 193.832 413.398 206.333 419.449 218.08L462.033 218.107C472.77 204.66 480.479 192.572 487.446 176.129C472.86 182.803 463.945 199.576 456.066 215.284Z" fill="#919191" fill-opacity="0.5"/>
<path d="M426.245 212.527C426.238 212.527 426.222 212.452 426.196 212.304C426.169 212.131 426.134 211.913 426.091 211.644C426.002 211.03 425.879 210.178 425.722 209.097C425.644 208.54 425.558 207.925 425.464 207.254C425.389 206.575 425.308 205.84 425.221 205.052C425.059 203.47 424.833 201.673 424.706 199.671C424.631 198.672 424.553 197.625 424.471 196.534C424.393 195.443 424.362 194.304 424.303 193.127C424.166 190.772 424.154 188.251 424.113 185.598C424.116 180.293 424.313 174.458 424.835 168.363C425.389 162.271 426.216 156.509 427.141 151.313C427.644 148.724 428.098 146.258 428.643 143.984C428.906 142.845 429.136 141.737 429.403 140.687C429.674 139.638 429.934 138.632 430.182 137.67C430.656 135.74 431.191 134.033 431.626 132.522C431.849 131.77 432.057 131.069 432.249 130.422C432.459 129.788 432.65 129.205 432.824 128.679C433.166 127.657 433.436 126.852 433.63 126.272C433.719 126.018 433.791 125.812 433.849 125.65C433.9 125.511 433.928 125.441 433.935 125.444C433.941 125.447 433.924 125.522 433.884 125.667C433.836 125.834 433.776 126.043 433.701 126.304C433.522 126.891 433.274 127.705 432.961 128.738C432.796 129.268 432.615 129.853 432.417 130.492C432.234 131.141 432.036 131.846 431.823 132.6C431.408 134.116 430.891 135.827 430.434 137.759C430.193 138.721 429.942 139.728 429.68 140.778C429.421 141.829 429.198 142.937 428.942 144.075C428.411 146.349 427.97 148.812 427.476 151.396C426.572 156.585 425.759 162.333 425.206 168.41C424.685 174.489 424.478 180.307 424.456 185.6C424.488 188.246 424.489 190.762 424.612 193.112C424.664 194.287 424.688 195.425 424.759 196.514C424.832 197.603 424.902 198.648 424.97 199.647C425.079 201.646 425.287 203.441 425.428 205.024C425.505 205.813 425.576 206.549 425.641 207.228C425.724 207.9 425.799 208.517 425.867 209.074C425.994 210.16 426.094 211.015 426.167 211.631C426.195 211.904 426.218 212.124 426.236 212.298C426.247 212.448 426.251 212.526 426.245 212.527Z" fill="#919191" fill-opacity="0.5"/>
<path d="M430.616 211.165C430.603 211.165 430.593 210.992 430.586 210.662C430.582 210.286 430.577 209.808 430.571 209.22C430.564 208.594 430.571 207.827 430.606 206.938C430.636 206.049 430.657 205.034 430.741 203.918C430.859 201.681 431.121 199.027 431.501 196.096C431.912 193.17 432.464 189.971 433.216 186.661C433.984 183.355 434.879 180.261 435.791 177.49C436.276 176.118 436.713 174.802 437.199 173.61C437.435 173.012 437.663 172.432 437.883 171.875C438.119 171.328 438.346 170.804 438.563 170.302C438.983 169.292 439.422 168.413 439.794 167.634C440.16 166.852 440.501 166.195 440.793 165.667C441.065 165.169 441.286 164.766 441.46 164.449C441.616 164.173 441.703 164.032 441.714 164.04C441.724 164.048 441.659 164.204 441.524 164.494C441.366 164.822 441.165 165.239 440.918 165.752C440.645 166.291 440.323 166.958 439.976 167.75C439.623 168.537 439.201 169.422 438.798 170.437C438.589 170.941 438.369 171.468 438.142 172.016C437.93 172.575 437.709 173.155 437.481 173.755C437.009 174.949 436.586 176.264 436.111 177.633C435.221 180.399 434.341 183.482 433.576 186.773C432.828 190.067 432.268 193.249 431.84 196.159C431.443 199.075 431.154 201.715 431.003 203.942C430.903 205.053 430.864 206.063 430.814 206.949C430.759 207.835 430.731 208.598 430.716 209.224C430.693 209.812 430.674 210.287 430.66 210.663C430.644 210.992 430.629 211.165 430.616 211.165Z" fill="#919191" fill-opacity="0.5"/>
<path d="M461.635 161.148C461.645 161.158 461.542 161.324 461.338 161.633C461.107 161.973 460.806 162.417 460.43 162.971C459.63 164.121 458.501 165.812 457.141 167.93C455.775 170.043 454.214 172.615 452.549 175.522C450.901 178.443 449.159 181.706 447.451 185.212C445.755 188.728 444.256 192.151 442.96 195.301C441.684 198.462 440.599 201.345 439.753 203.796C438.9 206.243 438.241 208.24 437.81 209.63C437.597 210.289 437.426 210.819 437.296 211.223C437.175 211.587 437.105 211.774 437.093 211.77C437.081 211.765 437.126 211.568 437.225 211.196C437.339 210.785 437.488 210.246 437.674 209.574C438.063 208.166 438.685 206.15 439.509 203.683C440.326 201.213 441.387 198.311 442.65 195.133C443.931 191.966 445.426 188.527 447.126 185.001C448.84 181.485 450.596 178.218 452.264 175.303C453.949 172.4 455.535 169.84 456.931 167.746C458.321 165.648 459.483 163.983 460.319 162.865C460.717 162.332 461.036 161.904 461.281 161.577C461.504 161.287 461.625 161.139 461.635 161.148Z" fill="#919191" fill-opacity="0.5"/>
<path d="M460.101 191.05C460.191 191.109 457.554 196.592 454.213 203.295C450.871 210 448.091 215.386 448.001 215.326C447.912 215.267 450.549 209.784 453.891 203.08C457.231 196.377 460.013 190.99 460.101 191.05Z" fill="#919191" fill-opacity="0.5"/>
<path d="M486.004 179.351C486.085 179.426 480.349 187.924 473.196 198.332C466.04 208.742 460.175 217.119 460.095 217.045C460.015 216.97 465.749 208.474 472.905 198.063C480.058 187.655 485.924 179.277 486.004 179.351Z" fill="#919191" fill-opacity="0.5"/>
<path d="M424.34 216.36C424.318 216.376 424.061 215.952 423.613 215.168C423.161 214.388 422.543 213.232 421.813 211.779C420.353 208.877 418.513 204.737 416.869 199.97C415.23 195.199 414.107 190.728 413.443 187.457C413.109 185.822 412.871 184.491 412.736 183.564C412.596 182.639 412.53 182.125 412.556 182.119C412.581 182.113 412.694 182.616 412.878 183.53C413.056 184.444 413.333 185.763 413.698 187.383C414.426 190.625 415.583 195.06 417.214 199.81C418.851 204.555 420.645 208.697 422.043 211.629C422.741 213.096 423.322 214.274 423.736 215.079C424.145 215.889 424.361 216.345 424.34 216.36Z" fill="#919191" fill-opacity="0.5"/>
<path d="M46.4014 209.668C46.4014 209.668 46.9793 204.942 47.1579 197.236C47.1729 196.272 47.1886 195.263 47.205 194.212C47.2179 193.161 47.18 192.067 47.1693 190.935C47.1643 188.668 47.0272 186.252 46.91 183.708C46.5914 178.626 46.0472 173.054 45.1643 167.262C44.25 161.475 43.0843 156.03 41.8557 151.137C41.2007 148.705 40.6029 146.384 39.9257 144.257C39.5957 143.191 39.3022 142.151 38.9736 141.17C38.6422 140.192 38.3243 139.252 38.02 138.355C35.5364 131.204 33.5743 127.006 33.5743 127.006C33.5693 127.01 33.5914 127.079 33.6407 127.213C33.6979 127.366 33.7714 127.56 33.8636 127.804C34.075 128.344 34.3722 129.098 34.7493 130.06C34.9443 130.551 35.1607 131.093 35.3964 131.686C35.6179 132.29 35.8572 132.945 36.1143 133.646C36.6193 135.058 37.2372 136.644 37.8079 138.452C38.105 139.35 38.4164 140.29 38.74 141.27C39.0614 142.252 39.3486 143.292 39.6722 144.358C40.3372 146.485 40.9236 148.805 41.5693 151.234C42.78 156.121 43.9329 161.554 44.8457 167.327C45.7257 173.106 46.2779 178.663 46.6122 183.731C46.7372 186.269 46.8843 188.679 46.9007 190.941C46.9179 192.072 46.9614 193.163 46.955 194.212C46.9457 195.262 46.9372 196.269 46.9286 197.23C46.9372 199.154 46.835 200.891 46.7857 202.418C46.7557 203.18 46.7279 203.89 46.7022 204.545C46.6593 205.196 46.62 205.792 46.5843 206.33C46.5193 207.384 46.4686 208.211 46.4322 208.803C46.4193 209.069 46.4086 209.281 46.4007 209.447C46.3957 209.593 46.3957 209.668 46.4014 209.668Z" fill="#919191" fill-opacity="0.5"/>
<path d="M33.0693 132.88C34.45 138.251 36.2014 143.468 38.3979 148.365C38.9929 149.692 39.8907 151.176 41.0672 150.973C41.8814 150.831 42.49 149.851 42.6664 148.815C42.8429 147.78 42.6729 146.701 42.4607 145.677C41.6071 141.556 40.0836 137.728 38.5714 133.935C38.04 132.602 37.47 131.213 36.5071 130.374C35.5443 129.536 34.0629 129.486 33.3536 130.672C33.3536 130.672 32.715 131.501 33.0693 132.88Z" fill="#919191" fill-opacity="0.5"/>
<path d="M38.905 215.652C36.4907 209.765 33.1793 198.614 34.0743 193.014C39.8029 195.502 45.3522 204.42 49.9286 210.597C44.5657 196.445 39.2029 182.294 33.84 168.142C44.74 176.027 51.0565 189.952 56.8722 203.227C53.8007 192.784 51.9457 181.861 51.3736 170.848C57.4264 176.488 61.6986 184.637 63.2279 193.459C61.4857 174.713 59.7443 155.967 58.0022 137.219C65.3743 145.152 69.1329 156.784 70.2715 168.366C71.41 179.948 70.175 191.646 68.9422 203.215C71.7293 197.184 74.5165 191.154 77.3036 185.123C77.9386 196.997 76.0129 207.868 70.7507 218.084L33.7172 218.108C24.3793 206.414 17.6757 195.901 11.6165 181.601C24.3 187.404 32.0529 201.992 38.905 215.652Z" fill="#919191" fill-opacity="0.5"/>
<path d="M64.8393 213.254C64.845 213.255 64.8593 213.189 64.8814 213.06C64.9057 212.91 64.9357 212.721 64.9729 212.486C65.05 211.952 65.1579 211.212 65.2936 210.272C65.3615 209.788 65.4364 209.252 65.5179 208.669C65.5829 208.079 65.6536 207.439 65.7293 206.754C65.87 205.378 66.0665 203.815 66.1765 202.075C66.2415 201.206 66.31 200.295 66.3814 199.347C66.4493 198.398 66.4764 197.407 66.5279 196.384C66.6465 194.336 66.6579 192.144 66.6936 189.836C66.6915 185.223 66.5193 180.149 66.0657 174.849C65.5836 169.55 64.865 164.54 64.0607 160.021C63.6229 157.77 63.2279 155.625 62.7543 153.647C62.525 152.657 62.3257 151.693 62.0929 150.779C61.8572 149.867 61.6315 148.992 61.4157 148.156C61.0036 146.478 60.5379 144.993 60.16 143.679C59.9657 143.025 59.785 142.416 59.6179 141.854C59.4357 141.302 59.2693 140.795 59.1179 140.337C58.82 139.448 58.5857 138.748 58.4164 138.243C58.3386 138.022 58.2764 137.844 58.2264 137.702C58.1822 137.581 58.1565 137.52 58.1515 137.522C58.1465 137.525 58.1614 137.59 58.1957 137.716C58.2379 137.861 58.29 138.044 58.3557 138.27C58.5107 138.78 58.7264 139.488 58.9993 140.386C59.1422 140.846 59.3 141.356 59.4715 141.911C59.6307 142.477 59.8029 143.089 59.9872 143.744C60.3486 145.063 60.7986 146.55 61.1957 148.23C61.405 149.067 61.6236 149.943 61.8522 150.855C62.0779 151.769 62.2707 152.733 62.4943 153.722C62.9557 155.699 63.34 157.842 63.7686 160.089C64.555 164.602 65.2629 169.6 65.7436 174.885C66.1965 180.171 66.3765 185.231 66.395 189.834C66.3679 192.135 66.3664 194.323 66.26 196.367C66.2143 197.389 66.1943 198.378 66.1329 199.325C66.0693 200.272 66.0079 201.182 65.9493 202.05C65.8543 203.789 65.6736 205.351 65.55 206.727C65.4836 207.413 65.4222 208.053 65.365 208.644C65.2936 209.228 65.2279 209.764 65.1693 210.249C65.0586 211.194 64.9715 211.937 64.9086 212.474C64.8843 212.711 64.8643 212.902 64.8486 213.054C64.8372 213.185 64.8336 213.253 64.8393 213.254Z" fill="#919191" fill-opacity="0.5"/>
<path d="M61.0379 212.069C61.0493 212.069 61.0579 211.918 61.0643 211.632C61.0679 211.305 61.0714 210.89 61.0764 210.378C61.0829 209.832 61.0771 209.166 61.0457 208.393C61.0193 207.62 61.0014 206.738 60.9286 205.768C60.8257 203.822 60.5979 201.514 60.2671 198.965C59.91 196.421 59.43 193.639 58.7764 190.76C58.1079 187.885 57.33 185.193 56.5371 182.784C56.115 181.591 55.7357 180.448 55.3129 179.41C55.1079 178.889 54.9093 178.385 54.7186 177.901C54.5136 177.426 54.3157 176.97 54.1271 176.532C53.7614 175.654 53.38 174.89 53.0564 174.213C52.7386 173.532 52.4421 172.961 52.1879 172.502C51.9514 172.07 51.7593 171.719 51.6079 171.443C51.4721 171.203 51.3964 171.08 51.3871 171.087C51.3779 171.093 51.435 171.23 51.5521 171.482C51.6893 171.767 51.8643 172.129 52.0786 172.576C52.3157 173.045 52.595 173.625 52.8971 174.313C53.205 174.998 53.5707 175.767 53.9221 176.649C54.1043 177.088 54.2943 177.546 54.4929 178.023C54.6779 178.509 54.8693 179.014 55.0679 179.535C55.4786 180.573 55.8471 181.717 56.2593 182.908C57.0336 185.313 57.7993 187.994 58.465 190.856C59.1157 193.721 59.6029 196.488 59.9743 199.019C60.32 201.555 60.5707 203.851 60.7021 205.787C60.7893 206.754 60.8229 207.632 60.8664 208.402C60.915 209.173 60.9393 209.837 60.9521 210.38C60.9721 210.891 60.9879 211.305 61.0007 211.632C61.0136 211.919 61.0271 212.069 61.0379 212.069Z" fill="#919191" fill-opacity="0.5"/>
<path d="M34.0621 168.573C34.0536 168.581 34.1429 168.727 34.3207 168.995C34.5207 169.29 34.7829 169.677 35.11 170.158C35.8057 171.158 36.7879 172.628 37.9707 174.47C39.1586 176.308 40.5157 178.545 41.9636 181.073C43.3964 183.613 44.9114 186.451 46.3979 189.5C47.8729 192.558 49.1764 195.535 50.3029 198.275C51.4129 201.023 52.3557 203.53 53.0922 205.662C53.8336 207.79 54.4072 209.527 54.7814 210.735C54.9664 211.309 55.115 211.769 55.2286 212.121C55.3343 212.436 55.395 212.6 55.4057 212.596C55.4164 212.592 55.3764 212.42 55.2907 212.096C55.1914 211.739 55.0621 211.271 54.9007 210.686C54.5621 209.462 54.0207 207.708 53.305 205.563C52.5943 203.415 51.6714 200.891 50.5729 198.127C49.4586 195.372 48.1586 192.383 46.68 189.316C45.19 186.258 43.6629 183.417 42.2122 180.881C40.7464 178.356 39.3672 176.13 38.1536 174.309C36.945 172.484 35.9343 171.036 35.2072 170.064C34.8607 169.601 34.5829 169.228 34.3707 168.944C34.1764 168.693 34.0707 168.565 34.0621 168.573Z" fill="#919191" fill-opacity="0.5"/>
<path d="M35.3958 194.577C35.3186 194.629 37.6115 199.397 40.5165 205.226C43.4229 211.058 45.8408 215.741 45.9179 215.689C45.995 215.637 43.7029 210.87 40.7965 205.039C37.8915 199.21 35.4729 194.525 35.3958 194.577Z" fill="#919191" fill-opacity="0.5"/>
<path d="M12.8693 184.402C12.7993 184.467 17.7872 191.858 24.0086 200.908C30.2315 209.962 35.3315 217.248 35.4015 217.183C35.4715 217.118 30.485 209.729 24.2615 200.675C18.04 191.625 12.9393 184.339 12.8693 184.402Z" fill="#919191" fill-opacity="0.5"/>
<path d="M66.4958 216.588C66.5143 216.602 66.7386 216.232 67.1286 215.551C67.5222 214.873 68.0593 213.867 68.6929 212.604C69.9636 210.08 71.5636 206.479 72.9936 202.334C74.4186 198.185 75.3958 194.297 75.9729 191.453C76.2629 190.031 76.4708 188.872 76.5879 188.067C76.7093 187.262 76.7665 186.816 76.7443 186.811C76.7222 186.806 76.6236 187.244 76.4643 188.037C76.3093 188.833 76.0686 189.979 75.7508 191.388C75.1186 194.207 74.1115 198.065 72.6929 202.195C71.2693 206.322 69.7093 209.923 68.4936 212.474C67.8872 213.75 67.3808 214.773 67.0215 215.474C66.665 216.178 66.4772 216.575 66.4958 216.588Z" fill="#919191" fill-opacity="0.5"/>
<path d="M220.676 345.841C220.676 348.704 208.034 351.026 192.44 351.026C176.846 351.026 164.204 348.704 164.204 345.841C164.204 342.978 176.846 340.657 192.44 340.657C208.035 340.657 220.676 342.978 220.676 345.841Z" fill="#919191" fill-opacity="0.5"/>
<path d="M330.255 349.316C330.255 351.127 322.259 352.595 312.395 352.595C302.531 352.595 294.535 351.127 294.535 349.316C294.535 347.504 302.531 346.036 312.395 346.036C322.259 346.037 330.255 347.505 330.255 349.316Z" fill="#919191" fill-opacity="0.5"/>
<path d="M405.392 354.321C415.256 354.321 423.252 352.852 423.252 351.041C423.252 349.23 415.256 347.762 405.392 347.762C395.528 347.762 387.532 349.23 387.532 351.041C387.532 352.852 395.528 354.321 405.392 354.321Z" fill="#919191" fill-opacity="0.5"/>
<path d="M122.731 331.415C127.433 331.415 131.245 330.653 131.245 329.713C131.245 328.773 127.433 328.011 122.731 328.011C118.03 328.011 114.218 328.773 114.218 329.713C114.218 330.653 118.03 331.415 122.731 331.415Z" fill="#919191" fill-opacity="0.5"/>
<path d="M108.322 337.609C111.185 337.609 113.505 336.856 113.505 335.928C113.505 334.999 111.185 334.246 108.322 334.246C105.46 334.246 103.139 334.999 103.139 335.928C103.139 336.856 105.46 337.609 108.322 337.609Z" fill="#919191" fill-opacity="0.5"/>
<path d="M270.166 331.199C270.166 332.139 266.355 332.902 261.653 332.902C256.951 332.902 253.139 332.139 253.139 331.199C253.139 330.259 256.951 329.497 261.653 329.497C266.354 329.497 270.166 330.259 270.166 331.199Z" fill="#919191" fill-opacity="0.5"/>
<path d="M465.792 337.63C465.792 338.57 461.98 339.332 457.278 339.332C452.576 339.332 448.764 338.57 448.764 337.63C448.764 336.69 452.576 335.928 457.278 335.928C461.98 335.928 465.792 336.69 465.792 337.63Z" fill="#919191" fill-opacity="0.5"/>
<path d="M252.426 337.414C252.426 338.342 250.105 339.095 247.243 339.095C244.381 339.095 242.06 338.342 242.06 337.414C242.06 336.485 244.381 335.732 247.243 335.732C250.105 335.732 252.426 336.485 252.426 337.414Z" fill="#919191" fill-opacity="0.5"/>
<path d="M100.149 346.292C100.149 347.678 94.0272 348.803 86.4765 348.803C78.9257 348.803 72.8043 347.679 72.8043 346.292C72.8043 344.906 78.9257 343.782 86.4765 343.782C94.0272 343.782 100.149 344.906 100.149 346.292Z" fill="#919191" fill-opacity="0.5"/>
<path d="M488.686 304.213C488.686 304.333 380.946 304.429 248.073 304.429C115.154 304.429 7.4364 304.332 7.4364 304.213C7.4364 304.095 115.154 303.998 248.073 303.998C380.946 303.997 488.686 304.094 488.686 304.213Z" fill="#0D5370"/>
<path d="M499.843 217.191C499.843 217.31 388.021 217.406 250.114 217.406C112.159 217.406 0.359985 217.31 0.359985 217.191C0.359985 217.073 112.158 216.976 250.114 216.976C388.021 216.975 499.843 217.072 499.843 217.191Z" fill="#0D5370"/>
<path d="M272.149 226.035C272.149 226.154 256.8 226.25 237.871 226.25C218.936 226.25 203.591 226.153 203.591 226.035C203.591 225.916 218.936 225.82 237.871 225.82C256.8 225.82 272.149 225.916 272.149 226.035Z" fill="#0D5370"/>
<path d="M304.443 234.861C304.443 234.98 289.094 235.076 270.166 235.076C251.23 235.076 235.885 234.98 235.885 234.861C235.885 234.742 251.23 234.646 270.166 234.646C289.095 234.645 304.443 234.742 304.443 234.861Z" fill="#0D5370"/>
<path d="M140.333 252.31C140.333 252.429 129.763 252.525 116.727 252.525C103.687 252.525 93.1193 252.428 93.1193 252.31C93.1193 252.191 103.687 252.095 116.727 252.095C129.764 252.095 140.333 252.191 140.333 252.31Z" fill="#0D5370"/>
<path d="M419.526 290.956C419.526 291.075 375.872 291.171 322.036 291.171C268.18 291.171 224.536 291.074 224.536 290.956C224.536 290.838 268.181 290.741 322.036 290.741C375.872 290.741 419.526 290.837 419.526 290.956Z" fill="#0D5370"/>
<path d="M164.191 344.521L158.231 335.343L159.671 324.843L183.759 312.954L202.915 317.902L210.861 325.896L203.39 345.956L186.05 347.232L164.191 344.521Z" fill="#919191" fill-opacity="0.5"/>
<path d="M158.231 335.343L183.549 341.605L185.576 347.232L164.191 344.521L158.231 335.343Z" fill="#919191" fill-opacity="0.5"/>
<path d="M183.589 341.605C183.589 341.605 196.103 334.067 200.727 334.617L201.29 346.105L185.616 347.232L183.589 341.605Z" fill="#919191" fill-opacity="0.5"/>
<path d="M201.251 346.105L200.687 334.617L210.861 325.896L203.39 345.956L201.251 346.105Z" fill="#919191" fill-opacity="0.5"/>
<path d="M164.191 344.521C164.191 344.521 164.328 344.521 164.594 344.521L165.736 344.642L170.103 345.136L186.067 347L203.406 345.677L203.246 345.807C205.53 339.639 208.071 332.856 210.693 325.748L210.749 326.017L204.251 319.495L202.795 318.032L202.891 318.088L183.743 313.122H183.864L159.736 324.965L159.825 324.834C159.256 328.872 158.764 332.369 158.345 335.325V335.223L162.68 342.089L163.814 343.887L164.104 344.353C164.135 344.407 164.164 344.463 164.191 344.521C164.191 344.521 164.191 344.521 164.087 344.381L163.781 343.944L162.615 342.239L158.144 335.465V335.419V335.362C158.546 332.406 159.015 328.905 159.551 324.862V324.769H159.623L183.694 312.825H183.75H183.814L202.964 317.762H203.02V317.809L204.468 319.263L210.966 325.785L211.079 325.906L211.023 326.064L203.536 346.114L203.487 346.235H203.374L186.027 347.474L170.023 345.405L165.68 344.818L164.562 344.66C164.434 344.629 164.31 344.583 164.191 344.521Z" fill="#0D5370"/>
<path d="M57.5328 43.828C57.5228 43.8603 57.0457 43.6327 56.1436 43.401C55.2464 43.1726 53.9 42.9707 52.2671 43.2281C50.6457 43.4796 48.725 44.2343 47.0436 45.838C45.3657 47.412 43.93 49.7943 43.3564 52.6211C43.3507 52.6468 43.345 52.6724 43.34 52.6964L43.2328 53.1813L43.0721 52.7212C42.1336 50.036 40.4657 47.9018 38.6571 46.5456C36.8436 45.1644 34.8928 44.5918 33.2657 44.4627C31.6278 44.3303 30.2993 44.6026 29.4136 44.8715C28.5243 45.1429 28.0543 45.3829 28.0443 45.3515C28.0407 45.3407 28.1557 45.277 28.3793 45.1645C28.6021 45.0503 28.9393 44.9013 29.3843 44.749C30.2693 44.4404 31.6107 44.1276 33.2786 44.2327C34.9343 44.3336 36.9343 44.8939 38.7986 46.2932C40.6564 47.6668 42.3707 49.844 43.3343 52.5996L43.0664 52.6244C43.0714 52.6004 43.0778 52.5739 43.0836 52.5475C43.6736 49.6413 45.1536 47.2051 46.8821 45.6047C48.615 43.9737 50.5907 43.2248 52.2436 42.9997C53.91 42.768 55.2728 43.0088 56.1714 43.2777C56.6236 43.4093 56.9664 43.5458 57.1936 43.6526C57.4193 43.7569 57.5364 43.8173 57.5328 43.828Z" fill="#0D5370"/>
<path d="M96.2936 21.6641C96.285 21.6914 96.0193 21.5756 95.5243 21.4572C95.0314 21.3406 94.2943 21.2388 93.4036 21.3861C92.5193 21.5301 91.4743 21.9471 90.5614 22.8226C89.65 23.6824 88.87 24.9807 88.5586 26.5174L88.5493 26.558L88.4414 27.0421L88.2807 26.5828C87.77 25.1214 86.8636 23.958 85.8793 23.2157C84.8929 22.4602 83.8314 22.1424 82.9429 22.0654C82.0486 21.9868 81.3207 22.1275 80.8336 22.2657C80.3443 22.4064 80.0829 22.5289 80.0736 22.5024C80.07 22.4916 80.1314 22.4519 80.2536 22.3857C80.375 22.3187 80.5593 22.2318 80.8043 22.1441C81.2907 21.9653 82.0314 21.7841 82.9557 21.8362C83.8729 21.8859 84.9843 22.1904 86.0207 22.9641C87.0536 23.7229 88.0071 24.9303 88.5421 26.462L88.2743 26.4868L88.2836 26.4438C88.6114 24.8277 89.4357 23.4755 90.3979 22.5893C91.3629 21.6864 92.4614 21.276 93.3779 21.1577C94.3021 21.036 95.055 21.1775 95.5493 21.3339C95.7979 21.4109 95.9864 21.4903 96.11 21.554C96.2343 21.6161 96.2971 21.6534 96.2936 21.6641Z" fill="#0D5370"/>
<path d="M70.9514 11.5793C70.9686 11.6 70.6864 11.9318 70.2064 12.5582C69.7257 13.1838 69.0707 14.1346 68.3871 15.4032C67.0129 17.9072 65.6386 21.8983 65.6857 26.4769C65.6857 26.5249 65.685 26.5729 65.685 26.6167L65.405 26.6432C65.1129 24.4089 64.4693 22.3592 63.6571 20.6454C62.8471 18.9275 61.895 17.5315 60.9964 16.4806C60.0986 15.4272 59.2793 14.6841 58.6893 14.2149C58.1007 13.7432 57.7593 13.5057 57.7721 13.4801C57.7771 13.4701 57.8664 13.5206 58.0329 13.6249C58.1964 13.7349 58.4507 13.8756 58.7493 14.1098C59.3621 14.55 60.2086 15.2725 61.1357 16.3184C62.0643 17.3611 63.0471 18.7629 63.8829 20.5006C64.7207 22.2334 65.3843 24.3187 65.6821 26.596L65.4021 26.6225C65.4021 26.5778 65.4029 26.529 65.4029 26.4802C65.355 21.8213 66.785 17.7781 68.2179 15.2791C68.9307 14.0122 69.6157 13.0754 70.1243 12.4713C70.3693 12.1594 70.5871 11.9484 70.725 11.7944C70.8671 11.6455 70.9443 11.571 70.9514 11.5793Z" fill="#0D5370"/>
<path d="M254.066 207.583C254.06 207.582 254.06 207.496 254.066 207.329C254.076 207.139 254.088 206.895 254.103 206.589C254.145 205.909 254.204 204.957 254.278 203.745C254.319 203.125 254.364 202.44 254.414 201.692C254.443 200.938 254.475 200.122 254.509 199.246C254.566 197.49 254.683 195.493 254.674 193.281C254.684 192.174 254.694 191.016 254.704 189.81C254.711 188.603 254.661 187.348 254.641 186.049C254.623 183.448 254.454 180.677 254.31 177.758C253.926 171.93 253.291 165.54 252.279 158.896C251.229 152.257 249.903 146.009 248.511 140.391C247.769 137.597 247.094 134.93 246.33 132.485C245.958 131.258 245.627 130.062 245.258 128.933C244.885 127.807 244.528 126.725 244.186 125.692C243.529 123.614 242.819 121.789 242.239 120.166C241.943 119.359 241.668 118.606 241.413 117.912C241.142 117.231 240.894 116.607 240.669 116.043C240.234 114.938 239.894 114.069 239.65 113.449C239.544 113.169 239.459 112.945 239.394 112.77C239.338 112.616 239.311 112.535 239.318 112.532C239.318 112.532 241.574 117.358 244.43 125.581C244.779 126.613 245.145 127.692 245.526 128.818C245.904 129.945 246.241 131.141 246.621 132.368C247.399 134.813 248.086 137.482 248.84 140.279C250.253 145.904 251.593 152.165 252.644 158.82C253.659 165.48 254.285 171.888 254.651 177.731C254.786 180.656 254.944 183.435 254.949 186.042C254.962 187.344 255.006 188.602 254.991 189.811C254.972 191.019 254.954 192.179 254.936 193.288C254.731 202.148 254.066 207.583 254.066 207.583Z" fill="#0D5370"/>
<path d="M216.128 97.0217C216.133 97.0168 216.194 97.0904 216.308 97.2385C216.433 97.4049 216.598 97.6242 216.808 97.9022C217.242 98.4906 217.894 99.3487 218.674 100.508C220.262 102.801 222.471 106.214 224.886 110.672C227.31 115.121 229.924 120.625 232.367 126.982C234.83 133.328 237.085 140.538 238.979 148.259C242.764 163.727 244.441 178.193 245.41 188.633C245.652 191.247 245.843 193.612 246.09 195.677C246.333 197.742 246.624 199.506 246.933 200.928C247.239 202.35 247.546 203.433 247.771 204.161C247.882 204.506 247.969 204.779 248.036 204.985C248.094 205.171 248.121 205.268 248.116 205.271C248.116 205.271 247.454 203.819 246.793 200.97C246.461 199.548 246.148 197.78 245.884 195.711C245.616 193.643 245.407 191.275 245.149 188.666C244.115 178.242 242.399 163.807 238.622 148.377C236.732 140.674 234.494 133.48 232.054 127.142C229.634 120.794 227.052 115.291 224.663 110.833C222.283 106.365 220.111 102.933 218.561 100.611C217.798 99.4381 217.166 98.5634 216.751 97.9576C216.553 97.668 216.397 97.4396 216.279 97.2667C216.174 97.1095 216.123 97.0267 216.128 97.0217Z" fill="#0D5370"/>
<path d="M239.441 118.193C241.029 124.369 243.042 130.369 245.568 136C246.252 137.525 247.284 139.232 248.637 138.998C249.574 138.836 250.273 137.708 250.476 136.517C250.679 135.326 250.484 134.086 250.239 132.908C249.258 128.17 247.506 123.767 245.766 119.406C245.155 117.873 244.5 116.275 243.393 115.311C242.286 114.347 240.583 114.289 239.766 115.654C239.766 115.654 239.034 116.609 239.441 118.193Z" fill="#FE7062"/>
<path d="M217.202 103.027C219.72 108.772 222.629 114.256 225.986 119.272C226.894 120.63 228.175 122.095 229.47 121.584C230.366 121.23 230.88 119.975 230.895 118.761C230.911 117.547 230.526 116.368 230.104 115.26C228.404 110.802 225.999 106.834 223.614 102.905C222.775 101.524 221.883 100.088 220.644 99.3702C219.406 98.6519 217.721 98.949 217.13 100.461C217.13 100.461 216.556 101.553 217.202 103.027Z" fill="#FE7062"/>
<path d="M235.865 214.367C233.089 207.597 229.281 194.774 230.31 188.336C236.897 191.198 243.279 201.452 248.541 208.554C242.374 192.281 236.207 176.008 230.041 159.735C242.574 168.802 249.837 184.814 256.525 200.079C252.993 188.071 250.86 175.511 250.202 162.847C257.162 169.332 262.075 178.703 263.833 188.848C261.83 167.291 259.827 145.735 257.824 124.179C266.301 133.3 270.623 146.676 271.932 159.993C273.241 173.311 271.821 186.763 270.403 200.065C273.608 193.131 276.812 186.196 280.017 179.262C280.748 192.916 278.533 205.416 272.482 217.163L229.898 217.19C219.161 203.744 211.452 191.655 204.484 175.212C219.071 181.885 227.986 198.659 235.865 214.367Z" fill="#2A8E9E"/>
<path d="M265.686 211.61C265.68 211.609 265.684 211.53 265.697 211.38C265.715 211.205 265.738 210.985 265.766 210.713C265.838 210.096 265.939 209.241 266.066 208.156C266.134 207.598 266.209 206.982 266.291 206.31C266.357 205.63 266.428 204.895 266.504 204.106C266.646 202.524 266.854 200.727 266.963 198.728C267.03 197.729 267.101 196.684 267.174 195.595C267.245 194.505 267.269 193.368 267.321 192.193C267.444 189.843 267.445 187.327 267.476 184.681C267.455 179.389 267.248 173.57 266.727 167.491C266.174 161.414 265.36 155.666 264.456 150.478C263.962 147.893 263.521 145.43 262.99 143.157C262.734 142.018 262.511 140.91 262.252 139.859C261.99 138.81 261.739 137.803 261.498 136.841C261.041 134.908 260.524 133.199 260.109 131.682C259.896 130.927 259.699 130.224 259.515 129.573C259.317 128.935 259.136 128.349 258.971 127.819C258.657 126.786 258.41 125.972 258.231 125.385C258.156 125.125 258.096 124.915 258.048 124.748C258.009 124.604 257.991 124.528 257.997 124.526C258.003 124.523 258.032 124.593 258.084 124.732C258.141 124.895 258.213 125.099 258.302 125.353C258.496 125.933 258.766 126.738 259.109 127.76C259.282 128.287 259.474 128.869 259.683 129.504C259.875 130.151 260.083 130.852 260.306 131.603C260.741 133.114 261.276 134.821 261.75 136.751C261.999 137.713 262.259 138.72 262.529 139.768C262.796 140.818 263.026 141.927 263.289 143.066C263.834 145.34 264.288 147.807 264.791 150.394C265.716 155.591 266.543 161.352 267.097 167.445C267.619 173.54 267.816 179.374 267.819 184.679C267.779 187.332 267.765 189.853 267.629 192.208C267.57 193.386 267.539 194.524 267.461 195.616C267.379 196.706 267.301 197.752 267.226 198.753C267.099 200.754 266.873 202.551 266.711 204.133C266.624 204.921 266.543 205.657 266.468 206.335C266.374 207.006 266.288 207.621 266.21 208.178C266.054 209.259 265.93 210.111 265.841 210.725C265.799 210.995 265.764 211.213 265.736 211.386C265.709 211.535 265.692 211.611 265.686 211.61Z" fill="#0D5370"/>
<path d="M261.315 210.247C261.302 210.247 261.287 210.074 261.27 209.745C261.256 209.369 261.237 208.892 261.214 208.306C261.2 207.681 261.172 206.917 261.116 206.031C261.066 205.145 261.027 204.135 260.927 203.024C260.776 200.797 260.488 198.156 260.091 195.241C259.664 192.331 259.104 189.149 258.355 185.855C257.59 182.564 256.709 179.48 255.819 176.715C255.345 175.345 254.921 174.03 254.449 172.836C254.221 172.236 254.001 171.656 253.789 171.098C253.561 170.55 253.342 170.023 253.133 169.519C252.729 168.504 252.309 167.619 251.954 166.832C251.607 166.04 251.286 165.373 251.013 164.833C250.766 164.32 250.565 163.904 250.407 163.576C250.272 163.285 250.206 163.13 250.217 163.121C250.228 163.113 250.315 163.254 250.471 163.53C250.644 163.848 250.866 164.251 251.137 164.748C251.43 165.276 251.77 165.933 252.136 166.716C252.508 167.495 252.947 168.373 253.367 169.383C253.584 169.885 253.811 170.411 254.047 170.956C254.266 171.514 254.494 172.093 254.731 172.691C255.217 173.884 255.654 175.2 256.139 176.572C257.051 179.342 257.945 182.437 258.714 185.743C259.466 189.053 260.019 192.251 260.429 195.177C260.809 198.108 261.071 200.762 261.189 203C261.273 204.116 261.294 205.13 261.324 206.019C261.36 206.908 261.366 207.675 261.359 208.301C261.353 208.89 261.349 209.367 261.344 209.744C261.339 210.074 261.328 210.247 261.315 210.247Z" fill="#0D5370"/>
<path d="M230.296 160.231C230.306 160.221 230.427 160.369 230.65 160.66C230.894 160.987 231.214 161.415 231.612 161.948C232.448 163.066 233.61 164.731 235 166.829C236.396 168.923 237.982 171.483 239.667 174.386C241.335 177.302 243.091 180.568 244.804 184.084C246.505 187.61 247.999 191.049 249.281 194.216C250.544 197.395 251.605 200.296 252.422 202.766C253.246 205.233 253.868 207.249 254.257 208.657C254.443 209.328 254.591 209.867 254.706 210.279C254.804 210.652 254.85 210.848 254.838 210.853C254.826 210.858 254.756 210.67 254.634 210.306C254.504 209.902 254.334 209.372 254.121 208.713C253.69 207.322 253.031 205.326 252.178 202.879C251.331 200.428 250.247 197.546 248.971 194.384C247.675 191.234 246.176 187.812 244.48 184.295C242.771 180.789 241.029 177.526 239.381 174.605C237.716 171.698 236.156 169.126 234.79 167.013C233.43 164.895 232.301 163.204 231.501 162.055C231.125 161.501 230.824 161.056 230.593 160.717C230.389 160.407 230.286 160.241 230.296 160.231Z" fill="#0D5370"/>
<path d="M231.829 190.133C231.919 190.073 234.699 195.46 238.04 202.162C241.382 208.867 244.018 214.349 243.929 214.408C243.841 214.468 241.06 209.083 237.718 202.377C234.377 195.675 231.74 190.192 231.829 190.133Z" fill="#0D5370"/>
<path d="M205.926 178.433C206.006 178.359 211.872 186.737 219.026 197.145C226.181 207.556 231.916 216.053 231.836 216.127C231.756 216.202 225.891 207.825 218.735 197.414C211.581 187.006 205.846 178.508 205.926 178.433Z" fill="#0D5370"/>
<path d="M267.591 215.444C267.57 215.428 267.786 214.972 268.196 214.163C268.609 213.357 269.191 212.179 269.889 210.712C271.286 207.78 273.08 203.638 274.717 198.894C276.348 194.144 277.506 189.708 278.233 186.466C278.598 184.846 278.875 183.527 279.054 182.613C279.237 181.7 279.35 181.197 279.376 181.202C279.401 181.208 279.336 181.722 279.196 182.647C279.061 183.573 278.822 184.905 278.489 186.54C277.825 189.811 276.701 194.283 275.063 199.053C273.419 203.82 271.579 207.96 270.118 210.862C269.389 212.314 268.771 213.471 268.319 214.251C267.87 215.035 267.613 215.459 267.591 215.444Z" fill="#0D5370"/>
<path d="M114.226 282.117C114.226 282.236 96.6693 282.332 75.0164 282.332C53.3557 282.332 35.8029 282.235 35.8029 282.117C35.8029 281.998 53.3564 281.901 75.0164 281.901C96.6693 281.901 114.226 281.997 114.226 282.117Z" fill="#0D5370"/>
<path d="M67.57 288.524C67.57 288.643 60.4579 288.739 51.6871 288.739C42.9129 288.739 35.8029 288.642 35.8029 288.524C35.8029 288.405 42.9136 288.309 51.6871 288.309C60.4579 288.309 67.57 288.405 67.57 288.524Z" fill="#0D5370"/>
<path d="M43.0485 240.932C43.0543 240.929 43.0935 241.014 43.1635 241.182C43.24 241.371 43.34 241.618 43.4664 241.93C43.735 242.618 44.1143 243.589 44.5985 244.828C45.5664 247.351 46.9407 251.017 48.5828 255.574C51.8828 264.681 56.2464 277.353 60.8857 291.43C65.5135 305.517 69.5443 318.338 72.3478 327.665C73.7557 332.326 74.8578 336.112 75.6035 338.735C75.9643 340.03 76.2471 341.043 76.4471 341.762C76.535 342.091 76.6043 342.352 76.6578 342.552C76.7035 342.731 76.7235 342.823 76.7171 342.826C76.7107 342.828 76.6785 342.74 76.6214 342.566C76.5593 342.37 76.4785 342.113 76.3757 341.789C76.16 341.077 75.855 340.072 75.4664 338.789C74.6635 336.161 73.5157 332.402 72.1 327.767C69.2335 318.469 65.1657 305.667 60.5385 291.584C55.9 277.512 51.5764 264.824 48.34 255.692C46.7293 251.122 45.3928 247.439 44.4657 244.895C44.0093 243.643 43.6514 242.661 43.3978 241.966C43.2857 241.647 43.1964 241.393 43.1285 241.2C43.07 241.026 43.0428 240.936 43.0485 240.932Z" fill="#0D5370"/>
<path d="M52.9778 267.655L52.1621 268.043C50.6443 268.765 48.9085 267.924 48.2864 266.166L42.28 249.204C41.6571 247.446 42.3828 245.435 43.9007 244.714L44.7164 244.326C46.2343 243.604 47.9693 244.445 48.5921 246.204L54.5985 263.165C55.2214 264.924 54.4957 266.934 52.9778 267.655Z" fill="#FE7062"/>
<path d="M73.3121 221.407C73.3185 221.407 73.3342 221.512 73.3592 221.717C73.385 221.944 73.4185 222.246 73.4614 222.631C73.5457 223.46 73.6657 224.64 73.8192 226.148C74.0928 229.208 74.4264 233.642 74.725 239.131C75.3457 250.107 75.7828 265.293 76.0871 282.066C76.3721 298.846 76.4892 314.037 76.5864 325.031C76.6357 330.51 76.675 334.952 76.7028 338.05C76.715 339.568 76.725 340.756 76.7314 341.59C76.7307 341.978 76.73 342.282 76.7292 342.511C76.7264 342.719 76.7221 342.825 76.7157 342.825C76.7092 342.825 76.7014 342.719 76.6907 342.512C76.6821 342.284 76.6707 341.979 76.6557 341.592C76.6321 340.758 76.5992 339.57 76.5571 338.053C76.5014 334.954 76.4214 330.513 76.3221 325.035C76.1664 314.021 75.9514 298.844 75.7142 282.075C75.41 265.305 75.0142 250.124 74.4614 239.149C74.1971 233.661 73.9035 229.227 73.6742 226.165C73.5507 224.654 73.4535 223.471 73.3857 222.641C73.3578 222.255 73.3364 221.951 73.32 221.724C73.3092 221.515 73.3057 221.409 73.3121 221.407Z" fill="#0D5370"/>
<path d="M76.0721 250.325L75.1943 250.421C73.5607 250.597 72.1128 249.206 71.9607 247.313L70.4914 229.059C70.3393 227.167 71.54 225.49 73.1735 225.313L74.0514 225.218C75.685 225.042 77.1328 226.433 77.285 228.325L78.7542 246.579C78.9064 248.472 77.7057 250.149 76.0721 250.325Z" fill="#FE7062"/>
<path d="M79.4128 338.591C82.015 325.999 82.6928 312.877 81.4057 300.017C75.885 310.989 73.2607 323.887 73.97 336.56C69.4843 328.788 63.5578 321.071 55.5928 319.565C62.7393 326.838 68.4678 336.358 73.3121 345.841H83.715C85.815 339.682 87.915 333.523 90.015 327.365C85.5907 329.711 81.8271 333.697 79.4128 338.591Z" fill="#2A8E9E"/>
<path d="M385.309 235.076C385.141 235.747 388.338 259.136 392.207 267.711C396.076 276.287 403.984 286.227 405.834 286.227C407.685 286.227 411.148 289.193 411.148 289.193L429.75 280.213L427.369 274.923C427.369 274.923 429.051 270.245 425.518 264.593C421.985 258.941 416.265 256.602 416.096 252.899C415.928 249.196 416.769 242.007 417.442 235.076C418.115 228.147 417.611 210.215 417.947 208.851C418.284 207.486 387.496 211.579 387.496 211.579L385.309 235.076Z" fill="#0D5370"/>
<path opacity="0.3" d="M387.462 249.621L390.684 242.006L404.859 227.246L385.708 239.013L387.462 249.621Z" fill="#1D1F20"/>
<path d="M374.384 186.42C373.523 187.916 339.095 236.775 338.234 243.754C337.374 250.734 330.919 256.218 335.222 274.166C335.222 274.166 333.347 279.016 333.756 282.719C334.165 286.422 335.007 287.202 334.838 288.761C334.67 290.32 335.511 294.803 335.511 294.803C335.511 294.803 358.223 296.168 358.223 294.803C358.223 293.439 358.896 288.956 358.896 288.956C358.896 288.956 363.943 283.694 362.429 280.38C360.914 277.067 357.213 272.974 358.896 270.636C360.578 268.297 363.607 268.881 364.447 267.127C365.289 265.373 363.774 263.424 365.289 261.865C366.803 260.306 372.187 260.306 373.028 258.356C373.869 256.408 378.579 247.831 380.599 245.298C382.617 242.764 385.982 240.914 385.982 240.914C385.982 240.914 402.582 230.509 406.675 223.078C409.842 217.328 422.826 209.24 426.359 200.664C429.891 192.089 432.415 176.692 432.415 176.692L376.224 174.743L374.384 186.42Z" fill="#0D5370"/>
<path d="M332.219 290.956C334.407 306.122 337.236 320.115 336.217 334.28C336.217 334.28 336.588 336.514 331.233 338.615C325.484 340.87 319.471 343.191 320.371 349.04L355.919 349.004L359.573 292.174L332.219 290.956Z" fill="#0D5370"/>
<path d="M320.371 349.039V346.852H356.056L355.918 349.003L320.371 349.039Z" fill="#2A8E9E"/>
<path d="M405.987 288.36C412.681 301.638 419.614 313.555 423.002 327.216C423.002 327.216 423.376 329.02 419.014 333.187C414.33 337.66 409.42 342.304 412.055 347.401L445.931 332.877L431.931 278.246L405.987 288.36Z" fill="#0D5370"/>
<path d="M412.056 347.401L411.385 345.356L445.402 330.81L445.932 332.877L412.056 347.401Z" fill="#2A8E9E"/>
<path d="M410.644 220.269C410.662 220.29 410.376 220.649 409.841 221.279C409.309 221.913 408.516 222.801 407.514 223.873C405.511 226.017 402.635 228.852 399.271 231.697C395.904 234.538 392.696 236.845 390.321 238.399C389.134 239.176 388.161 239.781 387.478 240.174C386.796 240.57 386.414 240.777 386.402 240.75C386.39 240.724 386.749 240.467 387.409 240.025C388.069 239.588 389.021 238.944 390.188 238.135C392.523 236.518 395.696 234.179 399.052 231.348C402.404 228.513 405.295 225.728 407.338 223.646C408.36 222.606 409.18 221.753 409.741 221.158C410.305 220.565 410.626 220.247 410.644 220.269Z" fill="#2A8E9E"/>
<path d="M356.547 267.733C356.549 267.763 356.271 267.822 355.766 267.904C355.26 267.986 354.527 268.091 353.621 268.211C352.684 268.329 351.611 268.464 350.436 268.611C349.833 268.682 349.204 268.756 348.554 268.833C347.919 268.935 347.154 268.873 346.764 269.372C346.573 269.625 346.521 269.97 346.686 270.185C346.849 270.415 347.168 270.528 347.477 270.652C348.094 270.901 348.691 271.143 349.264 271.374C350.378 271.834 351.395 272.254 352.282 272.619C353.139 272.98 353.831 273.279 354.306 273.494C354.782 273.71 355.041 273.842 355.032 273.871C355.024 273.899 354.749 273.82 354.259 273.653C353.769 273.486 353.065 273.231 352.197 272.907C351.302 272.567 350.276 272.177 349.152 271.749C348.577 271.525 347.978 271.292 347.359 271.051C347.061 270.924 346.689 270.835 346.399 270.455C346.261 270.267 346.189 269.988 346.221 269.739C346.25 269.489 346.349 269.268 346.483 269.088C346.766 268.714 347.166 268.593 347.511 268.531C347.864 268.474 348.189 268.45 348.517 268.412C349.169 268.344 349.798 268.279 350.402 268.216C351.58 268.103 352.656 267.999 353.594 267.908C354.504 267.827 355.241 267.768 355.75 267.738C356.261 267.706 356.545 267.703 356.547 267.733Z" fill="#2A8E9E"/>
<path d="M357.256 255.482C357.256 255.52 357.121 255.516 356.936 255.635C356.759 255.757 356.549 256.053 356.491 256.486C356.417 256.917 356.591 257.416 356.978 257.814C357.354 258.215 357.892 258.511 358.455 258.837C360.715 260.102 362.623 260.986 362.576 261.117C362.558 261.172 362.064 261.005 361.283 260.683C360.503 260.357 359.431 259.875 358.291 259.224C357.729 258.896 357.165 258.581 356.742 258.102C356.532 257.866 356.367 257.586 356.274 257.295C356.176 256.989 356.182 256.682 356.234 256.427C356.339 255.91 356.636 255.582 356.876 255.483C357.123 255.391 357.261 255.463 357.256 255.482Z" fill="#2A8E9E"/>
<path d="M425.426 274.765C425.49 274.844 423.945 276.509 421.703 278.008C419.466 279.519 417.451 280.246 417.424 280.143C417.384 280.022 419.312 279.125 421.516 277.636C423.725 276.159 425.356 274.665 425.426 274.765Z" fill="#2A8E9E"/>
<path d="M359.061 292.346C359.059 292.376 358.686 292.364 358.014 292.318C357.273 292.262 356.317 292.189 355.169 292.102C352.767 291.915 349.45 291.674 345.782 291.486C342.114 291.299 338.79 291.201 336.384 291.143C335.234 291.112 334.276 291.088 333.534 291.068C332.861 291.045 332.489 291.019 332.489 290.989C332.489 290.959 332.861 290.93 333.534 290.9C334.207 290.869 335.181 290.848 336.386 290.838C338.795 290.818 342.124 290.867 345.799 291.054C349.472 291.243 352.792 291.532 355.189 291.798C356.389 291.93 357.358 292.051 358.026 292.15C358.695 292.249 359.064 292.316 359.061 292.346Z" fill="#2A8E9E"/>
<path d="M431.427 278.409C431.437 278.436 431.1 278.626 430.484 278.947C429.868 279.269 428.969 279.714 427.851 280.244C425.616 281.306 422.499 282.693 419.012 284.078C415.522 285.461 412.326 286.581 409.998 287.329C408.834 287.704 407.889 287.992 407.232 288.175C406.576 288.359 406.209 288.448 406.203 288.419C406.196 288.39 406.549 288.247 407.194 288.013C407.904 287.759 408.822 287.431 409.924 287.037C412.23 286.214 415.408 285.051 418.891 283.67C422.372 282.287 425.498 280.949 427.754 279.96C428.834 279.488 429.732 279.096 430.429 278.792C431.062 278.519 431.417 278.38 431.427 278.409Z" fill="#2A8E9E"/>
<g opacity="0.3">
<path d="M332.219 290.956C334.407 306.122 337.236 320.115 336.217 334.28C336.217 334.28 336.588 336.514 331.233 338.615C325.484 340.87 319.471 343.191 320.371 349.04L355.919 349.004L359.573 292.174L358.489 292.129L358.614 290.958H332.219V290.956Z" fill="#F9FEFF"/>
</g>
<g opacity="0.3">
<path d="M407.124 290.956C413.818 304.234 419.614 313.555 423.003 327.216C423.003 327.216 423.377 329.02 419.014 333.187C414.331 337.66 409.421 342.304 412.056 347.401L445.932 332.877L435.195 290.981L407.124 290.956Z" fill="#F9FEFF"/>
</g>
<path opacity="0.3" d="M362.576 203.7C362.576 203.7 398.114 223.814 417.806 224.5L417.424 220.269L363.195 200.999L362.576 203.7Z" fill="#1D1F20"/>
<path d="M354.266 129.325C354.266 129.325 350.586 120.544 348.988 119.162C347.389 117.78 341.295 115.431 339.351 114.308C337.406 113.184 336.599 115.003 337.679 117.104C337.954 117.64 338.477 118.237 339.101 118.827C336.431 118.49 333.113 118.214 332.512 118.662C332.512 118.662 329.76 121.074 331.744 123.453C332.839 124.766 334.214 124.533 334.901 124.507C334.969 124.553 335.041 124.591 335.11 124.633C334.704 124.89 334.411 125.189 334.341 125.548C334.341 125.548 334.249 128.192 337.175 129.361C337.175 129.361 336.228 131.1 339.243 132.278C339.243 132.278 338.484 135.474 341.593 135.421C342.79 135.401 343.685 134.899 344.332 134.246C344.349 134.253 344.364 134.262 344.379 134.269C348.499 135.833 350.156 135.73 350.156 135.73L353.579 130.188L354.266 129.325Z" fill="#FEB5B4"/>
<path d="M349.021 138.124L352.596 125.553L374.601 135.732L389.485 125.387L402.6 136.601C402.6 136.601 380.118 161.743 376.526 161.924C372.936 162.105 363.411 158.487 362.944 158.668C362.475 158.849 349.021 138.124 349.021 138.124Z" fill="#FE7062"/>
<path opacity="0.3" d="M349.021 138.124L352.596 125.553L374.601 135.732L389.485 125.387L402.6 136.601C402.6 136.601 380.118 161.743 376.526 161.924C372.936 162.105 363.411 158.487 362.944 158.668C362.475 158.849 349.021 138.124 349.021 138.124Z" fill="#1D1F20"/>
<path d="M167.306 20.0157C167.306 20.0157 167.466 19.9586 167.784 19.8684C168.113 19.7774 168.584 19.6466 169.197 19.4762C170.454 19.1369 172.29 18.6429 174.658 18.0041C179.425 16.738 186.324 14.9059 194.909 12.6261L194.924 12.6219H194.941C203.182 12.8065 213.151 13.0291 224.247 13.2773L224.279 13.2782L224.308 13.2922C232.652 17.256 241.855 21.6269 251.532 26.2237L251.551 26.2328L251.569 26.2468C255.017 29.0645 258.65 32.0328 262.339 35.0474C269.621 41.0021 276.681 46.7739 283.371 52.2446L283.388 52.2587L283.401 52.276C293.586 65.4781 302.774 77.3867 310.323 87.1728L310.344 87.2009L310.353 87.2365C313.224 98.9424 315.554 108.444 317.171 115.031C317.966 118.312 318.586 120.866 319.009 122.614C319.213 123.474 319.369 124.132 319.478 124.592C319.581 125.039 319.624 125.27 319.624 125.27C319.624 125.27 319.555 125.047 319.439 124.605C319.321 124.149 319.152 123.494 318.931 122.641C318.491 120.898 317.848 118.352 317.021 115.081C315.376 108.503 313.006 99.0161 310.084 87.3259L310.114 87.3888C302.549 77.6209 293.341 65.7329 283.133 52.5549L283.163 52.5863C276.47 47.119 269.409 41.3505 262.124 35.4007C258.436 32.3853 254.804 29.4162 251.356 26.5969L251.392 26.62C241.719 22.0108 232.521 17.6275 224.18 13.6538L224.24 13.6687C213.144 13.3866 203.176 13.1325 194.936 12.9232L194.966 12.9199C186.37 15.1442 179.462 16.9308 174.689 18.1662C172.315 18.7711 170.474 19.2403 169.214 19.5614C168.596 19.7137 168.124 19.8304 167.792 19.9123C167.471 19.9868 167.306 20.0157 167.306 20.0157Z" fill="#0D5370"/>
<path d="M309.909 113.409C309.909 113.409 309.16 110.146 312.75 107.908C316.34 105.671 319.016 108.898 319.016 108.898L309.909 113.409Z" fill="#0D5370"/>
<path d="M310.885 112.007C310.976 111.962 312.769 116.442 312.769 116.442L318.701 112.856L317.256 108.852L310.885 112.007Z" fill="#0D5370"/>
<path d="M320.136 111.606L311.069 116.677L316.295 128.158L324.911 122.614L320.136 111.606Z" fill="#0D5370"/>
<path d="M320.568 127.351C320.568 127.351 317.956 127.284 317.943 129.216C317.93 131.147 320.651 130.975 323.769 131.689C326.888 132.403 331.265 133.227 335.801 137.819L337.28 134.957C337.28 134.957 327.307 125.986 320.568 127.351Z" fill="#0D5370"/>
<path d="M320.127 129.947C320.127 129.947 319.453 132.619 322.202 133.91C324.95 135.202 326.265 133.112 327.026 131.524C327.787 129.937 328.26 126.512 329.168 124.754C330.076 122.995 329.961 120.255 331.821 117.793C333.682 115.33 336.541 114.584 336.541 114.584L335.455 112.125C335.455 112.125 331.454 114.058 329.593 116.862C327.732 119.666 327.656 120.841 326.478 121.866C325.301 122.892 323.072 121.278 323.072 121.278C323.072 121.278 317.796 126.49 317.815 126.503C317.835 126.517 320.127 129.947 320.127 129.947Z" fill="#0D5370"/>
<path d="M372.179 171.435C372.179 171.435 329.511 99.0466 318.399 82.1829C303.2 59.1195 287.629 38.2473 257.614 18.7984C257.614 18.7984 234.898 6.41151 219.536 5.85874C219.536 5.85874 190.369 2.53216 167.162 16.2357L167.671 17.7624C189.981 4.26248 218.828 7.92833 218.828 7.92833C233.652 9.35909 254.345 21.391 254.345 21.391C282.456 37.5266 299.626 62.5636 315.131 85.3514C323.794 98.0851 368.512 178.609 368.512 178.609" fill="#2A8E9E"/>
<path d="M168.319 19.6632C168.219 19.6946 167.988 19.0773 167.801 18.2846C167.615 17.4918 167.544 16.8232 167.643 16.7917C167.742 16.7603 167.974 17.3776 168.16 18.1712C168.347 18.9631 168.418 19.6317 168.319 19.6632Z" fill="#2A8E9E"/>
<path d="M194.938 13.7184C194.835 13.7167 194.776 12.161 194.804 10.2437C194.834 8.32637 194.94 6.77479 195.043 6.77644C195.146 6.77893 195.205 8.33381 195.176 10.2511C195.147 12.1685 195.04 13.7209 194.938 13.7184Z" fill="#2A8E9E"/>
<path d="M224.043 14.1959C223.945 14.1594 224.229 12.8164 224.677 11.1961C225.125 9.57589 225.568 8.2916 225.666 8.32801C225.764 8.36442 225.48 9.70746 225.031 11.3277C224.584 12.948 224.141 14.2323 224.043 14.1959Z" fill="#2A8E9E"/>
<path d="M251.461 26.822C251.381 26.7607 252.183 25.2513 253.501 23.7039C254.815 22.1499 256.104 21.1949 256.158 21.2876C256.223 21.3885 255.055 22.4809 253.766 24.006C252.473 25.5244 251.55 26.8956 251.461 26.822Z" fill="#2A8E9E"/>
<path d="M288.219 47.4806C288.284 47.5725 287.129 48.7955 285.639 50.2114C284.149 51.6281 282.889 52.7005 282.824 52.6087C282.759 52.5168 283.914 51.2946 285.404 49.8779C286.893 48.4621 288.154 47.3888 288.219 47.4806Z" fill="#2A8E9E"/>
<path d="M315.211 82.6521C315.294 82.7506 314.151 84.0539 312.627 85.4789C311.106 86.9129 309.807 87.9771 309.744 87.8844C309.679 87.7909 310.874 86.5761 312.392 85.1454C313.916 83.7196 315.15 82.5801 315.211 82.6521Z" fill="#2A8E9E"/>
<path d="M165.249 19.3314C165.249 19.3314 165.031 19.4613 164.599 19.6955C164.157 19.9313 163.514 20.2755 162.674 20.7241C161.819 21.1535 160.799 21.7758 159.583 22.4858C158.356 23.171 156.995 24.0829 155.448 25.0751C152.391 27.1331 148.716 29.7977 144.719 33.3237C140.722 36.8455 136.405 41.2272 132.104 46.5935C129.931 49.254 127.827 52.2214 125.722 55.385C123.66 58.5874 121.627 62.0191 119.731 65.7205C117.832 69.4079 116.021 73.3799 114.96 77.7872C114.442 79.9867 114.119 82.2913 114.131 84.6323C114.163 86.9692 114.53 89.3392 115.292 91.5701C116.058 93.7879 117.205 95.8997 118.806 97.5009C119.604 98.2969 120.486 98.9978 121.466 99.4935C121.935 99.7939 122.463 99.9371 122.96 100.168C123.481 100.309 123.998 100.5 124.534 100.578C126.669 100.966 128.895 100.768 131.045 100.149C133.201 99.5432 135.309 98.6114 137.349 97.4678C139.399 96.3457 141.369 94.9795 143.369 93.6339C145.357 92.2628 147.351 90.8593 149.352 89.4319C153.359 86.5828 157.421 83.6716 161.674 81.0029C165.924 78.3367 170.277 75.9791 174.773 74.3026C179.264 72.6169 183.911 71.7456 188.491 71.7555C190.782 71.7894 193.048 72.1701 195.219 72.8577C197.386 73.552 199.476 74.5574 201.304 76.0114C203.128 77.4521 204.724 79.2933 205.794 81.4903C206.868 83.6799 207.427 86.1591 207.466 88.611C207.516 91.0662 207.08 93.4833 206.314 95.6936C205.553 97.9088 204.486 99.9404 203.213 101.722C200.672 105.332 197.209 107.699 193.719 109.194C190.204 110.696 186.607 111.369 183.161 111.688C179.706 112 176.38 111.923 173.217 111.823C166.897 111.577 161.155 111.363 156.182 112.227C151.21 113.041 147.119 114.959 144.147 117.154C141.152 119.342 139.317 121.797 138.249 123.544C137.74 124.445 137.363 125.141 137.156 125.64C136.931 126.128 136.806 126.373 136.806 126.373C136.806 126.373 136.907 126.114 137.121 125.62C137.318 125.113 137.686 124.407 138.187 123.494C139.239 121.724 141.068 119.234 144.069 117.012C147.046 114.783 151.154 112.83 156.151 111.988C161.146 111.097 166.908 111.291 173.224 111.518C176.385 111.608 179.701 111.675 183.137 111.355C186.566 111.029 190.135 110.351 193.611 108.858C197.065 107.369 200.468 105.032 202.959 101.48C204.21 99.7244 205.256 97.7251 206.001 95.5496C206.75 93.3791 207.173 91.0124 207.122 88.6176C207.081 86.2261 206.536 83.8205 205.489 81.6905C204.446 79.5548 202.89 77.7607 201.103 76.3523C199.313 74.9307 197.256 73.9426 195.121 73.2599C192.981 72.5847 190.744 72.209 188.482 72.1775C183.953 72.1718 179.342 73.0357 174.884 74.7114C170.419 76.378 166.087 78.7239 161.849 81.3819C157.61 84.0423 153.552 86.9485 149.544 89.7968C147.541 91.2242 145.546 92.6277 143.554 94.0005C141.551 95.3469 139.574 96.7172 137.504 97.8484C135.447 98.9995 133.316 99.9412 131.126 100.555C128.944 101.182 126.67 101.387 124.474 100.984C123.924 100.903 123.391 100.707 122.855 100.56C122.342 100.323 121.799 100.173 121.316 99.8642C120.308 99.352 119.394 98.6271 118.574 97.8054C116.924 96.1512 115.751 93.9831 114.971 91.7158C114.195 89.4343 113.824 87.0189 113.794 84.6365C113.784 82.2483 114.115 79.9139 114.643 77.6863C115.724 73.2268 117.554 69.2333 119.464 65.5385C121.372 61.8288 123.416 58.3913 125.491 55.1847C127.609 52.017 129.725 49.0471 131.909 46.3867C136.235 41.0195 140.575 36.6428 144.591 33.1325C148.609 29.6173 152.303 26.9684 155.374 24.9303C156.929 23.9472 158.297 23.046 159.531 22.3724C160.753 21.6732 161.78 21.0633 162.641 20.6463C163.488 20.2135 164.136 19.8833 164.581 19.6557C165.021 19.434 165.249 19.3314 165.249 19.3314Z" fill="#0D5370"/>
<path d="M398.221 40C398.221 40 398.521 47.2042 409.024 50.9901L411.472 44.4238L398.221 40Z" fill="#0D5370"/>
<path d="M426.666 36.2456L425.831 36.1843C417.439 35.5703 410.045 42.5247 408.842 52.1676C407.723 61.1361 406.586 71.0612 406.374 75.9013C405.935 85.9224 414.495 88.1128 414.495 88.1128L413.109 100.089L434.127 100.871L438.361 57.3759C439.702 47.0354 435.625 37.5125 426.666 36.2456Z" fill="#FEB5B4"/>
<path d="M414.484 88.1095C414.484 88.1095 419.924 88.8816 425.959 85.0817C425.959 85.0817 422.768 92.2528 414.193 90.7203L414.484 88.1095Z" fill="#FE8A84"/>
<path d="M410.714 61.8734C410.65 62.6265 411.148 63.3108 411.826 63.4035C412.502 63.4953 413.104 62.9608 413.168 62.2077C413.232 61.4547 412.734 60.7695 412.058 60.6769C411.381 60.5842 410.778 61.1204 410.714 61.8734Z" fill="#0D5370"/>
<path d="M410.434 57.203C410.576 57.4008 411.555 56.6676 412.883 56.7686C414.211 56.8472 415.142 57.7103 415.296 57.5332C415.372 57.4546 415.234 57.1062 414.829 56.7173C414.431 56.33 413.737 55.9311 412.909 55.8749C412.081 55.8194 411.366 56.1214 410.946 56.4533C410.519 56.7868 410.363 57.1136 410.434 57.203Z" fill="#0D5370"/>
<path d="M422.602 63.1685C422.538 63.9215 423.036 64.6059 423.714 64.6977C424.39 64.7896 424.992 64.255 425.056 63.502C425.121 62.7489 424.623 62.0638 423.946 61.9711C423.269 61.8792 422.666 62.4146 422.602 63.1685Z" fill="#0D5370"/>
<path d="M423.474 58.4451C423.616 58.6428 424.596 57.9097 425.924 58.0115C427.251 58.0901 428.183 58.9532 428.337 58.7752C428.412 58.6966 428.276 58.3491 427.87 57.9602C427.471 57.5729 426.778 57.1749 425.951 57.1178C425.123 57.0623 424.408 57.3644 423.988 57.6962C423.561 58.0288 423.404 58.3565 423.474 58.4451Z" fill="#0D5370"/>
<path d="M418.031 69.5047C418.043 69.4178 417.226 69.1919 415.899 68.8957C415.561 68.8303 415.245 68.7285 415.202 68.4562C415.138 68.1666 415.303 67.7537 415.492 67.3077C415.863 66.3809 416.251 65.4077 416.658 64.3891C418.284 60.2308 419.482 56.8017 419.337 56.728C419.192 56.6535 417.757 59.9636 416.132 64.1218C415.739 65.1479 415.364 66.126 415.007 67.0611C414.854 67.4988 414.606 67.9887 414.747 68.5903C414.822 68.8907 415.06 69.1224 415.274 69.206C415.487 69.2987 415.677 69.3169 415.844 69.3409C417.186 69.5229 418.021 69.5908 418.031 69.5047Z" fill="#0D5370"/>
<path d="M422.644 52.4399C422.798 52.8429 423.959 52.5028 425.364 52.5532C426.769 52.5665 427.933 52.9587 428.084 52.5623C428.15 52.3728 427.92 52.0046 427.432 51.6554C426.948 51.3062 426.199 51.0091 425.357 50.9892C424.515 50.971 423.768 51.2342 423.288 51.5619C422.803 51.8896 422.576 52.2487 422.644 52.4399Z" fill="#0D5370"/>
<path d="M410.715 50.8527C410.976 51.2226 412.091 50.9396 413.411 51.019C414.731 51.0538 415.833 51.432 416.109 51.0852C416.231 50.9164 416.075 50.5523 415.606 50.1866C415.143 49.8216 414.354 49.4931 413.446 49.4534C412.539 49.4153 411.737 49.6743 411.259 49.9987C410.774 50.3248 410.601 50.674 410.715 50.8527Z" fill="#0D5370"/>
<path d="M409.924 47.6362C409.924 47.6362 412.546 41.5325 415.236 40.2598C418.492 38.7198 419.633 42.8367 422.698 42.082C425.762 41.3273 428.871 39.8477 431.801 42.7696C435.008 45.9679 433.318 47.9233 433.283 52.3811C433.146 70.4555 435.707 75.7573 436.977 67.3317C437.116 66.4082 439.383 65.8322 439.927 61.9289C440.632 56.867 441.138 50.6963 440.355 47.0106C439.693 43.9041 438.31 41.6897 435.748 39.1725C431.703 35.1996 425.879 34.694 421.895 34.8661C417.911 35.0391 409.991 39.7583 409.924 47.6362Z" fill="#0D5370"/>
<path d="M436.441 67.0205C436.58 65.4789 437.796 64.3427 439.117 64.5868C440.719 64.8822 442.456 66.0739 442.139 69.9251C441.576 76.757 435.772 74.694 435.778 74.497C435.782 74.363 436.184 69.8762 436.441 67.0205Z" fill="#FEB5B4"/>
<path d="M437.273 72.0675C437.301 72.0484 437.368 72.1626 437.535 72.2735C437.696 72.3819 437.983 72.4763 438.301 72.377C438.946 72.1809 439.565 71.0935 439.695 69.8647C439.761 69.2449 439.697 68.64 439.547 68.1294C439.409 67.6097 439.158 67.2299 438.85 67.1306C438.545 67.0122 438.305 67.2051 438.217 67.3896C438.122 67.5716 438.148 67.7123 438.116 67.7206C438.098 67.7363 437.999 67.5915 438.07 67.3151C438.106 67.1827 438.188 67.0288 438.337 66.9129C438.489 66.7954 438.703 66.7499 438.919 66.8021C439.371 66.8881 439.74 67.4186 439.905 67.9796C440.095 68.5456 440.178 69.2267 440.104 69.9226C439.953 71.2954 439.239 72.5168 438.363 72.708C437.938 72.7874 437.603 72.6045 437.438 72.4233C437.269 72.2338 437.251 72.0782 437.273 72.0675Z" fill="#FE8A84"/>
<path d="M417.503 74.3861C417.551 74.1329 418.985 74.5914 420.344 73.4974C421.705 72.4067 421.969 70.5846 422.172 70.6359C422.268 70.6417 422.356 71.12 422.194 71.873C422.04 72.6128 421.58 73.6182 420.749 74.2877C419.917 74.9538 418.995 75.0589 418.393 74.9257C417.778 74.7974 417.468 74.4979 417.503 74.3861Z" fill="#0D5370"/>
<path d="M363.605 202.967C363.605 202.967 416.428 224.698 423.553 220.98C430.678 217.262 430.021 202.046 433.841 189.299C437.662 176.551 446.679 148.93 446.526 136.005C446.374 123.08 443.47 108.561 443.317 107.322C443.164 106.082 419.371 88.5497 413.869 89.4352C408.366 90.3206 397.162 110.509 397.162 110.509C397.162 110.509 386.617 146.805 382.796 154.065C378.975 161.325 372.092 169.16 367.971 180.801C363.373 193.788 362.535 201.374 363.605 202.967Z" fill="#FE7062"/>
<path d="M447.451 80.4567C446.716 80.1729 442.647 78.4815 438.153 79.0202C433.659 79.5589 415.425 86.3196 413.567 89.6611C412.056 92.3786 439.556 114.835 444.201 112.547C448.846 110.258 452.371 107.206 452.371 102.18C452.371 97.1525 455.819 83.6881 447.451 80.4567Z" fill="#FE7062"/>
<g opacity="0.3">
<path d="M443.927 112.367C444.684 114.405 445.056 116.634 445.008 118.853C444.994 119.493 444.926 120.189 444.541 120.65C444.135 121.139 443.466 121.225 442.904 121.034C442.341 120.844 441.861 120.424 441.401 120.006C437.761 116.699 434.451 112.939 431.148 109.188C428.281 105.932 425.96 102.011 423.892 98.1951C423.892 98.1951 429.561 105.086 437.214 109.661C439.513 111.021 441.756 111.966 443.927 112.367Z" fill="#1D1F20"/>
</g>
<path d="M444.201 112.547C444.201 112.561 444.111 112.568 443.937 112.566C443.764 112.56 443.499 112.577 443.178 112.486C442.851 112.42 442.453 112.328 442.008 112.159C441.554 112.019 441.054 111.805 440.501 111.566C438.294 110.605 435.382 108.895 432.352 106.661C429.336 104.401 426.808 101.991 425.181 100.015C424.379 99.0152 423.745 98.1869 423.381 97.548C422.998 96.9266 422.798 96.5757 422.819 96.5592C422.884 96.5045 423.704 97.8997 425.368 99.8005C427.028 101.704 429.558 104.053 432.554 106.299C435.563 108.517 438.437 110.259 440.599 111.283C441.14 111.537 441.629 111.77 442.071 111.929C442.506 112.118 442.891 112.23 443.207 112.321C443.521 112.437 443.771 112.444 443.941 112.48C444.109 112.509 444.2 112.532 444.201 112.547Z" fill="#0D5370"/>
<path d="M441.121 94.9811C441.124 94.9563 441.502 94.9753 442.178 95.0846C442.854 95.1938 443.828 95.3957 445.008 95.7672C446.186 96.1396 447.571 96.6816 449.041 97.4694C449.408 97.6672 449.779 97.8774 450.158 98.1049C450.526 98.3358 450.974 98.6445 451.143 99.2411C451.219 99.5208 451.23 99.8576 451.086 100.153C450.945 100.452 450.663 100.617 450.413 100.666C449.895 100.762 449.451 100.622 448.988 100.573C445.27 100.005 442.083 98.5005 439.952 97.1326C438.881 96.4491 438.058 95.8128 437.507 95.3469C436.958 94.8777 436.671 94.5938 436.685 94.5723C436.701 94.5458 437.018 94.7842 437.589 95.2087C438.161 95.629 439 96.2215 440.076 96.8637C442.218 98.1505 445.374 99.5862 449.037 100.146C449.491 100.199 449.962 100.324 450.344 100.245C450.74 100.186 450.917 99.7848 450.795 99.3686C450.693 98.968 450.344 98.6883 449.989 98.4682C449.623 98.2431 449.255 98.0297 448.895 97.8302C447.453 97.0325 446.094 96.4681 444.936 96.0618C443.776 95.6564 442.818 95.4114 442.154 95.2517C441.489 95.0903 441.118 95.015 441.121 94.9811Z" fill="#0D5370"/>
<path d="M396.444 166.767C396.446 166.761 396.501 166.783 396.606 166.833C396.729 166.896 396.88 166.972 397.065 167.065C397.493 167.294 398.076 167.607 398.813 168.003C400.324 168.832 402.499 170.063 405.151 171.665C407.804 173.266 410.933 175.24 414.346 177.554C416.054 178.71 417.833 179.949 419.66 181.267C420.116 181.599 420.576 181.934 421.041 182.272C421.507 182.631 421.961 183.044 422.31 183.604C422.481 183.883 422.624 184.21 422.669 184.578C422.717 184.946 422.649 185.337 422.481 185.655C422.316 185.983 422.037 186.23 421.739 186.352C421.44 186.478 421.131 186.508 420.83 186.498C420.228 186.472 419.655 186.3 419.116 186.05C418.596 185.793 418.08 185.539 417.568 185.286C416.549 184.77 415.545 184.26 414.569 183.734C412.612 182.691 410.744 181.639 408.986 180.587C405.464 178.494 402.374 176.433 399.82 174.628C397.27 172.815 395.252 171.263 393.879 170.157C393.188 169.612 392.665 169.165 392.308 168.867C392.146 168.728 392.014 168.614 391.906 168.521C391.816 168.44 391.772 168.397 391.776 168.391C391.78 168.385 391.831 168.416 391.928 168.484C392.042 168.568 392.181 168.671 392.351 168.795C392.745 169.094 393.282 169.502 393.96 170.018C395.356 171.08 397.393 172.591 399.956 174.367C402.522 176.135 405.619 178.164 409.141 180.232C410.899 181.273 412.767 182.314 414.721 183.349C415.696 183.871 416.697 184.378 417.714 184.891C418.744 185.368 419.747 186.039 420.84 186.066C421.372 186.094 421.923 185.925 422.161 185.433C422.429 184.942 422.315 184.329 422.008 183.85C421.391 182.866 420.355 182.314 419.467 181.624C417.646 180.304 415.873 179.059 414.173 177.896C410.774 175.567 407.662 173.568 405.029 171.934C402.395 170.3 400.24 169.028 398.749 168.153C398.026 167.728 397.453 167.391 397.033 167.144C396.854 167.035 396.709 166.946 396.59 166.873C396.491 166.809 396.441 166.774 396.444 166.767Z" fill="#0D5370"/>
<path d="M345.734 137.387C345.734 137.387 341.015 134.923 338.548 134.308C336.081 133.692 334.601 131.29 333.306 131.906C332.011 132.522 332.072 133.631 332.381 134C332.689 134.369 327.385 133.692 326.953 136.278C326.522 138.865 328.989 139.049 328.989 139.049C328.989 139.049 327.631 141.266 328.31 142.621C328.988 143.975 329.111 144.345 329.111 144.345C329.111 144.345 327.878 145.946 329.235 147.609C330.592 149.271 330.592 149.271 330.592 149.271C330.592 149.271 329.975 150.441 331.641 151.611C333.306 152.782 346.381 152.043 346.381 152.043L345.734 137.387Z" fill="#FEB5B4"/>
<path d="M345.531 136.274C345.206 137.086 344.977 153.08 344.977 153.08C344.977 153.08 357.143 155.621 364.754 155.184C373.166 154.701 379.241 155.505 379.241 155.505C379.241 155.505 386.899 154.777 391.458 150.512C396.018 146.246 420.004 126.855 422.284 120.964C424.563 115.073 423.637 95.7366 420.574 92.0443C417.512 88.352 414.255 89.3574 410.998 90.3785C407.742 91.3988 392.924 111.51 390.644 112.729C388.364 113.948 385.922 114.963 384.619 120.245C384.619 120.245 381.363 121.26 379.734 124.308C378.106 127.355 377.78 129.184 377.78 129.184C377.78 129.184 373.872 127.356 372.081 128.371C370.289 129.386 368.661 131.215 368.661 131.215L345.531 136.274Z" fill="#FE7062"/>
<path d="M384.884 129.931C384.933 129.914 385.219 130.879 385.641 132.451C385.857 133.28 386.099 134.21 386.363 135.219C386.481 135.748 386.67 136.265 386.732 136.912C386.756 137.227 386.728 137.612 386.518 137.919C386.325 138.229 385.953 138.375 385.643 138.332C385.019 138.241 384.551 137.824 384.169 137.416C383.788 137.013 383.436 136.604 383.114 136.2C382.473 135.39 381.954 134.601 381.557 133.912C381.158 133.223 380.877 132.636 380.698 132.222C380.519 131.808 380.442 131.568 380.463 131.554C380.517 131.521 380.935 132.419 381.773 133.737C382.192 134.394 382.723 135.149 383.365 135.929C383.687 136.318 384.037 136.712 384.414 137.103C384.772 137.488 385.211 137.839 385.677 137.903C386.146 137.972 386.437 137.487 386.369 136.946C386.326 136.412 386.144 135.852 386.033 135.329C385.798 134.31 385.581 133.372 385.388 132.535C385.031 130.941 384.835 129.947 384.884 129.931Z" fill="#0D5370"/>
<path d="M394.902 129.207C394.887 129.255 394.366 129.101 393.585 128.669C392.804 128.24 391.777 127.498 390.808 126.45C389.841 125.399 389.134 124.26 388.712 123.387C388.289 122.512 388.121 121.921 388.161 121.9C388.266 121.83 389.159 124.098 391.061 126.136C392.943 128.2 394.955 129.081 394.902 129.207Z" fill="#0D5370"/>
<path d="M372.623 144.593C372.632 144.583 372.72 144.818 372.554 145.182C372.396 145.536 371.936 145.917 371.31 145.907C370.651 145.922 370.019 145.255 369.686 144.447C369.336 143.624 369.146 142.684 368.936 141.698C368.546 139.714 368.433 137.867 368.447 136.538C368.46 135.208 368.574 134.394 368.619 134.399C368.676 134.403 368.656 135.221 368.71 136.533C368.763 137.843 368.915 139.652 369.299 141.603C369.504 142.569 369.689 143.516 369.993 144.272C370.29 145.025 370.799 145.581 371.323 145.602C371.849 145.648 372.266 145.364 372.431 145.092C372.609 144.814 372.584 144.588 372.623 144.593Z" fill="#0D5370"/>
<path d="M404.859 138.884C404.859 138.884 404.723 139.022 404.446 139.272C404.158 139.529 403.748 139.895 403.214 140.371C402.114 141.337 400.514 142.744 398.463 144.548C396.394 146.355 393.871 148.558 390.951 151.108C389.461 152.378 387.646 153.32 385.678 154.087C383.696 154.822 381.551 155.387 379.253 155.668L379.241 155.67L379.225 155.668C374.409 155.123 369.049 155.107 363.281 155.424C360.386 155.436 357.397 155.195 354.337 154.811C351.276 154.432 348.141 153.923 344.945 153.286L344.791 153.256L344.796 153.073C344.973 147.675 345.156 142.041 345.345 136.266L345.351 136.095L345.496 136.063C347.579 135.608 349.802 135.121 352.046 134.63C357.729 133.388 363.28 132.176 368.627 131.007L368.534 131.063C369.176 130.366 369.849 129.74 370.56 129.173C370.916 128.891 371.282 128.626 371.66 128.387C372.022 128.139 372.482 127.951 372.913 127.898C373.79 127.788 374.64 127.94 375.459 128.149C376.28 128.362 377.069 128.649 377.845 128.994L377.606 129.142C377.849 128.046 378.238 127.068 378.656 126.107C379.09 125.158 379.516 124.227 380.1 123.384C380.682 122.554 381.395 121.878 382.157 121.333C382.921 120.784 383.724 120.358 384.575 120.06L384.458 120.193C384.954 118.215 385.745 116.292 387.054 114.938C387.694 114.254 388.441 113.748 389.189 113.315C389.564 113.1 389.942 112.902 390.314 112.705C390.509 112.609 390.679 112.509 390.833 112.389C390.992 112.254 391.151 112.12 391.304 111.968C392.525 110.762 393.626 109.439 394.705 108.176C395.773 106.895 396.811 105.649 397.818 104.442C401.839 99.6036 405.324 95.3154 408.522 92.1519C409.336 91.3914 410.102 90.616 411.034 90.2627C411.936 89.9838 412.789 89.7306 413.597 89.5684C414.404 89.4037 415.168 89.3334 415.866 89.3715C416.565 89.4145 417.189 89.5808 417.728 89.7885C418.801 90.2437 419.501 90.8808 419.943 91.3202C420.371 91.7828 420.571 92.0468 420.571 92.0468C420.568 92.0501 420.51 91.9938 420.4 91.878C420.287 91.7663 420.132 91.5825 419.908 91.3674C419.458 90.9462 418.754 90.333 417.694 89.9035C417.161 89.7082 416.547 89.5552 415.86 89.5221C415.173 89.4948 414.422 89.5725 413.624 89.7447C412.826 89.9143 411.98 90.1741 411.079 90.4613C410.223 90.7914 409.448 91.5677 408.65 92.329C405.488 95.5 402.021 99.8088 398.018 104.665C397.014 105.878 395.979 107.128 394.915 108.415C393.835 109.687 392.743 111.01 391.5 112.245C391.346 112.4 391.177 112.544 391.007 112.687C390.823 112.83 390.626 112.945 390.443 113.035C390.07 113.233 389.696 113.43 389.329 113.643C388.596 114.07 387.879 114.56 387.269 115.215C386.024 116.509 385.261 118.36 384.778 120.3L384.753 120.4L384.661 120.434C383.069 121.023 381.479 122.061 380.366 123.638C379.821 124.422 379.387 125.363 378.966 126.291C378.559 127.227 378.174 128.219 377.951 129.226L377.901 129.457L377.713 129.374C376.964 129.041 376.179 128.757 375.381 128.552C374.585 128.349 373.758 128.208 372.957 128.311C372.172 128.4 371.466 128.997 370.764 129.52C370.073 130.072 369.404 130.695 368.787 131.367L368.746 131.412L368.694 131.424C363.348 132.595 357.797 133.81 352.113 135.055C349.87 135.545 347.647 136.031 345.564 136.487L345.714 136.284C345.522 142.059 345.335 147.692 345.155 153.091L345.007 152.878C348.19 153.515 351.321 154.03 354.373 154.413C357.424 154.802 360.401 155.048 363.276 155.044C369.031 154.743 374.421 154.776 379.256 155.345L379.228 155.344C383.741 154.756 387.844 153.328 390.818 150.898C393.751 148.374 396.286 146.195 398.365 144.406C400.436 142.631 402.053 141.248 403.163 140.297C403.707 139.837 404.126 139.484 404.42 139.235C404.706 138.995 404.859 138.884 404.859 138.884Z" fill="#0D5370"/>
<g opacity="0.3">
<path d="M392.799 149.208C396.233 148.696 398.828 145.502 401.801 143.445C405.401 140.954 409.803 140.012 412.933 136.779C416.19 133.415 417.449 130.443 418.557 125.553C411.241 135.18 402.786 141.43 393.503 148.418" fill="#1D1F20"/>
</g>
<g opacity="0.3">
<path d="M386.553 136.366C385.697 133.479 384.838 130.586 383.701 127.833C383.421 127.155 383.116 126.474 382.656 125.945C382.195 125.416 381.548 125.053 380.906 125.154C380.263 125.255 378.744 125.553 378.977 128.357C380.035 131.872 381.9 135.056 384.328 137.493C384.666 137.832 385.03 138.165 385.465 138.282C385.899 138.398 386.421 138.232 386.628 137.774C386.821 137.344 386.688 136.823 386.553 136.366Z" fill="#1D1F20"/>
</g>
<g opacity="0.3">
<path d="M381.321 142.1C380.764 138.232 379.383 134.525 377.335 131.401C377.039 135.237 377.888 139.436 379.663 142.692C379.966 143.248 380.528 143.854 381.017 143.521C381.404 143.258 381.394 142.614 381.321 142.1Z" fill="#1D1F20"/>
</g>
<path d="M409.737 46.3643C409.737 46.3643 411.255 44.5844 414.806 43.8429C421.403 42.4651 430.479 42.8342 439.075 55.2286L440.43 58.3193C440.43 58.3193 440.996 52.4175 440.739 49.5544C440.567 47.642 440.735 36.1546 428.799 32.6079C429.499 32.8164 412.867 28.9511 409.737 46.3643Z" fill="#2A8E9E"/>
<path d="M411.024 40.6529C420.671 40.6611 429.749 43.2463 436.104 51.2309C431.404 48.2403 424.444 46.3114 419.086 46.5464C413.729 46.7806 408.233 47.306 403.115 45.4549C400.808 44.6199 398.324 42.7978 398.221 40L411.024 40.6529Z" fill="#2A8E9E"/>
<path d="M437.094 50.103C437.079 50.127 436.739 49.8878 436.138 49.436C435.842 49.2035 435.471 48.9329 435.031 48.6375C434.595 48.3338 434.104 47.9804 433.537 47.6362C432.429 46.8981 431.051 46.1417 429.508 45.349C427.95 44.5918 426.208 43.8421 424.341 43.1867C420.601 41.8941 417.098 41.2479 414.552 40.9715C413.916 40.8846 413.339 40.8523 412.831 40.8084C412.324 40.7596 411.887 40.7356 411.529 40.7232C410.814 40.6876 410.417 40.6537 410.417 40.6239C410.417 40.5941 410.813 40.5718 411.531 40.5561C411.891 40.5428 412.331 40.5428 412.841 40.5685C413.351 40.5892 413.934 40.6007 414.574 40.6686C417.139 40.8697 420.677 41.4721 424.447 42.7754C426.328 43.4358 428.081 44.2029 429.644 44.9865C431.192 45.8058 432.567 46.5969 433.666 47.3739C434.228 47.738 434.713 48.112 435.141 48.4364C435.572 48.7533 435.933 49.0454 436.218 49.3003C436.797 49.7935 437.109 50.079 437.094 50.103Z" fill="#0D5370"/>
<path d="M136.861 153.103C136.361 150.003 135.341 146.972 135.404 143.819L131.209 152.24C133.416 154.874 134.861 158.35 135.264 161.991C137.211 159.787 137.361 156.204 136.861 153.103Z" fill="#0D5370"/>
<path d="M119.511 131.08C117.92 131.949 116.407 133.011 115.005 134.243C114.7 134.511 114.39 134.802 114.226 135.201C114.061 135.602 114.089 136.143 114.389 136.418C114.627 136.638 114.962 136.635 115.266 136.603C116.149 136.509 117.019 136.248 117.831 135.834" fill="#0D5370"/>
<path d="M114.691 141.412C109.944 142.963 106.627 148.087 105.96 153.444C105.293 158.8 105.722 166.674 108.636 170.061C109.527 163.424 110.712 161.758 112.681 158.942" fill="#0D5370"/>
<path d="M139.839 117.432C139.839 117.432 139.699 115.773 136.979 116.437C134.258 117.1 120.081 124.566 114.21 141.487C108.339 158.409 112.597 169.118 120.249 175.888C129.632 184.191 144.106 181.398 144.106 181.398L142.739 177.018C142.739 177.018 127.554 172.07 130.115 157.829C130.115 157.829 130.314 153.963 134.181 146.452C138.047 138.941 141.418 133.191 142.85 128.048C144.058 123.71 144.157 114.513 139.959 122.89C139.767 123.275 140.287 117.043 139.839 117.432Z" fill="#FE7062"/>
<g opacity="0.3">
<path d="M134.754 136.62C132.186 142.394 127.624 146.127 126.449 152.479C125.273 158.831 126.01 166.003 129.72 170.874C132.348 174.324 136.167 176.27 140.022 177.376C140.977 177.65 142.001 177.87 142.959 177.725L142.739 177.019C142.739 177.019 127.555 172.071 130.116 157.83C130.116 157.83 130.315 153.964 134.181 146.453C138.048 138.942 141.419 133.192 142.851 128.049C144.059 123.711 144.158 114.514 139.96 122.89C139.894 123.021 139.911 122.388 139.945 121.512L136.859 127.524C136.238 128.068 136.812 131.993 134.754 136.62Z" fill="#1D1F20"/>
</g>
<path d="M126.181 150.076C123.332 153.842 120.251 157.373 116.969 160.631C119.318 161.09 121.833 160.222 123.582 158.348C125.33 156.475 126.392 152.825 126.181 150.076Z" fill="#0D5370"/>
<path d="M132.991 121.229L132.435 121.28C130.751 121.653 129.847 124.341 130.87 125.935C131.893 127.529 134.375 127.302 135.169 125.541C135.962 123.78 134.705 121.29 132.991 121.229Z" fill="#F9FEFF"/>
<path d="M133.076 122.044L132.676 122.08C131.467 122.348 130.819 124.277 131.554 125.422C132.288 126.566 134.069 126.403 134.639 125.139C135.209 123.875 134.307 122.088 133.076 122.044Z" fill="#0D5370"/>
<path d="M134.801 135.33C134.816 135.348 134.678 135.527 134.384 135.791C134.091 136.057 133.62 136.38 132.988 136.64C131.755 137.168 129.701 137.304 127.923 135.984C126.159 134.636 125.433 132.407 125.349 130.887C125.296 130.112 125.361 129.482 125.451 129.064C125.54 128.646 125.625 128.428 125.646 128.435C125.721 128.45 125.443 129.37 125.61 130.853C125.756 132.301 126.487 134.372 128.125 135.622C129.776 136.849 131.706 136.783 132.907 136.349C134.146 135.924 134.759 135.257 134.801 135.33Z" fill="#0D5370"/>
<path d="M133.583 138.023C133.597 138.041 133.459 138.22 133.165 138.484C132.872 138.75 132.401 139.073 131.769 139.333C130.536 139.861 128.483 139.997 126.704 138.677C124.941 137.329 124.214 135.099 124.13 133.579C124.078 132.805 124.143 132.175 124.233 131.757C124.321 131.338 124.406 131.121 124.427 131.127C124.502 131.143 124.224 132.062 124.391 133.546C124.537 134.994 125.269 137.065 126.906 138.315C128.557 139.541 130.488 139.475 131.689 139.042C132.927 138.617 133.54 137.949 133.583 138.023Z" fill="#0D5370"/>
<path d="M129.761 142.285C129.775 142.304 129.674 142.446 129.451 142.654C129.229 142.862 128.869 143.116 128.383 143.321C127.436 143.736 125.851 143.848 124.474 142.828C123.11 141.785 122.555 140.06 122.498 138.889C122.461 138.292 122.516 137.808 122.591 137.488C122.664 137.167 122.735 137.003 122.756 137.01C122.824 137.027 122.624 137.732 122.759 138.856C122.878 139.955 123.439 141.522 124.676 142.467C125.924 143.394 127.387 143.352 128.302 143.031C129.245 142.717 129.72 142.218 129.761 142.285Z" fill="#0D5370"/>
<path d="M136.541 128.068C136.541 128.068 136.006 121.95 136.358 119.472C136.71 116.994 138.521 116.366 139.134 116.488C139.969 116.653 140.209 118.351 140.209 118.351C140.209 118.351 140.231 121.041 139.96 122.892L136.541 128.068Z" fill="#0D5370"/>
<path d="M133.964 181.662C138.17 180.473 141.522 176.621 143.571 172.203C145.619 167.785 146.543 162.802 147.393 157.884C149.278 159.352 150.405 161.864 150.887 164.435C151.369 167.006 151.68 170.528 151.587 173.157C155.81 171.658 159.878 170.235 164.281 170.647C163.811 172.539 162.704 174.14 161.449 175.467C158.465 178.622 154.574 180.453 150.603 181.319C146.633 182.185 142.559 182.141 138.522 181.932" fill="#0D5370"/>
<g opacity="0.3">
<path d="M115.339 164.651C113.664 159.577 113.739 153.912 114.693 148.594C117.286 134.132 126.596 121.549 138.509 116.307C138.121 116.255 137.624 116.279 136.979 116.438C134.258 117.101 120.081 124.567 114.21 141.488C108.339 158.409 112.597 169.119 120.249 175.889C122.051 177.484 124.042 178.668 126.082 179.543C121.645 175.37 117.36 170.772 115.339 164.651Z" fill="#F9FEFF"/>
</g>
<g opacity="0.3">
<path d="M128.741 148.927C128.462 147.654 127.997 146.161 126.891 145.873C126.004 145.643 125.152 146.328 124.436 146.975C123.411 147.9 122.386 148.825 121.361 149.75C120.803 150.254 120.173 150.786 119.466 150.728C118.553 150.653 117.926 149.633 117.573 148.654C116.814 146.555 116.686 144.16 117.214 141.969C116.121 145.05 115.911 148.374 116.142 150.045C116.374 151.716 117.406 153.513 118.866 153.435C119.973 153.377 120.794 152.286 121.562 151.36C122.674 150.019 123.952 148.862 125.344 147.935C125.659 147.725 126.037 147.521 126.373 147.684C126.78 147.882 126.879 148.479 127.089 148.93C127.608 150.037 128.966 150.281 129.969 149.793C130.971 149.306 131.699 148.293 132.386 147.316C131.363 148.287 130.064 148.86 128.741 148.927Z" fill="#F9FEFF"/>
</g>
<g opacity="0.3">
<path d="M117.254 155.865C117.222 155.74 117.186 155.649 117.105 155.56C117.023 155.47 117.002 155.675 116.901 155.732C116.562 156.238 116.321 156.831 116.2 157.455C116.165 157.633 116.151 157.852 116.272 157.97C116.436 158.13 116.685 157.966 116.824 157.777C117.214 157.246 117.426 156.535 117.254 155.865Z" fill="#F9FEFF"/>
</g>
<g opacity="0.3">
<path d="M129.366 165.234C129.317 165.812 128.846 166.255 128.351 166.352C127.856 166.448 127.351 166.263 126.9 166.009C126.304 165.673 125.571 165.216 125.04 165.676C124.625 166.035 124.621 166.733 124.524 167.323C124.294 168.731 123.258 169.913 122.039 170.158C120.82 170.402 119.5 169.693 118.874 168.457C119.246 170.315 121.049 172.104 122.49 172.23C123.498 172.317 124.431 171.486 124.917 170.459C125.403 169.432 125.533 168.237 125.654 167.074C126.455 167.347 127.305 167.623 128.113 167.378C128.921 167.134 129.625 166.153 129.366 165.234Z" fill="#F9FEFF"/>
</g>
<path d="M116.616 179.681C115.919 186.843 116.494 187.679 117.821 189.596C118.647 190.791 119.464 190.695 119.915 190.777C120.515 190.887 121.066 190.263 121.209 189.578C121.351 188.894 121.193 188.18 121.036 187.5C122.546 188.425 124.141 189.374 125.849 189.333C127.556 189.292 129.369 187.877 129.421 185.899C127.569 186.811 125.436 186.934 123.515 186.238C121.594 185.543 119.9 184.037 118.825 182.066C118.649 183.247 118.474 184.428 118.298 185.609C117.406 183.788 116.83 181.76 116.616 179.681Z" fill="#919191" fill-opacity="0.5"/>
</g>
<defs>
<clipPath id="clip0_582_17762">
<rect width="500" height="355" fill="white"/>
</clipPath>
</defs>
</svg>
