<svg width="146" height="69" viewBox="0 0 146 69" fill="none" xmlns="http://www.w3.org/2000/svg">
<path d="M63.061 24.28H73.2462L73.2259 27.1013H66.2603V30.8056H72.659V33.6484H66.2603V39.3556H63.061V24.28Z" fill="#0D5370"/>
<path d="M75.1036 24.28H78.3029V39.3556H75.1036V24.28Z" fill="#0D5370"/>
<path d="M90.7858 28.4796C90.0569 28.0058 89.2807 27.6325 88.4572 27.3597C87.6473 27.0725 86.952 26.929 86.3716 26.929C85.8181 26.929 85.3794 27.0367 85.0554 27.252C84.7314 27.4674 84.5694 27.7833 84.5694 28.1996C84.5694 28.7309 84.7989 29.1401 85.2579 29.4272C85.7304 29.7 86.4526 29.9872 87.4245 30.2887C88.3965 30.5902 89.1929 30.8917 89.8139 31.1932C90.4484 31.4947 90.9883 31.947 91.4338 32.55C91.8793 33.153 92.102 33.9499 92.102 34.9406C92.102 35.9025 91.859 36.7353 91.3731 37.4388C90.9006 38.128 90.2459 38.652 89.4089 39.011C88.572 39.3699 87.6203 39.5494 86.5538 39.5494C85.4064 39.5494 84.2792 39.334 83.1723 38.9033C82.0653 38.4726 81.1069 37.8839 80.2969 37.1373L81.5726 34.3591C82.2881 35.0483 83.1115 35.601 84.043 36.0174C84.9744 36.4338 85.8249 36.642 86.5943 36.642C87.2558 36.642 87.7688 36.5127 88.1332 36.2543C88.5112 35.9959 88.7002 35.6226 88.7002 35.1344C88.7002 34.7467 88.572 34.4309 88.3155 34.1868C88.0725 33.9283 87.7553 33.7202 87.3638 33.5622C86.9858 33.4043 86.4593 33.2248 85.7844 33.0238C84.8124 32.7367 84.016 32.4495 83.395 32.1624C82.7875 31.8752 82.2611 31.4373 81.8156 30.8486C81.3701 30.26 81.1474 29.4775 81.1474 28.5011C81.1474 27.5966 81.3769 26.8069 81.8358 26.1321C82.2948 25.4429 82.936 24.9189 83.7595 24.56C84.5829 24.1867 85.5414 24 86.6348 24C87.6068 24 88.5652 24.1508 89.5102 24.4523C90.4551 24.7538 91.2921 25.1558 92.021 25.6583L90.7858 28.4796Z" fill="#0D5370"/>
<path d="M94.3439 24.28H97.5433V30.5686H103.962V24.28H107.161V39.3556H103.962V33.4115H97.5433V39.3556H94.3439V24.28Z" fill="#0D5370"/>
<path d="M110.282 24.28H113.481V39.3556H110.282V24.28Z" fill="#0D5370"/>
<path d="M126.43 24.28H129.467V39.3556H126.552L119.687 29.6641V39.3556H116.63V24.28H119.545L126.43 34.0145V24.28Z" fill="#0D5370"/>
<path d="M139.31 30.6979H145V37.6111C144.244 38.1998 143.319 38.6807 142.226 39.054C141.132 39.413 140.1 39.5925 139.128 39.5925C137.71 39.5925 136.428 39.2551 135.281 38.5802C134.133 37.8911 133.229 36.9578 132.567 35.7805C131.906 34.5888 131.575 33.2607 131.575 31.7962C131.575 30.3461 131.912 29.0324 132.587 27.855C133.262 26.6634 134.187 25.7301 135.362 25.0553C136.549 24.3805 137.866 24.0431 139.31 24.0431C140.363 24.0431 141.369 24.2441 142.327 24.6461C143.299 25.0481 144.15 25.5937 144.879 26.2829L143.076 28.7165C142.55 28.1853 141.963 27.7689 141.315 27.4674C140.667 27.1659 139.999 27.0151 139.31 27.0151C138.487 27.0151 137.731 27.2305 137.042 27.6612C136.367 28.0776 135.834 28.6519 135.443 29.3841C135.051 30.102 134.855 30.9061 134.855 31.7962C134.855 32.6864 135.051 33.5048 135.443 34.2514C135.848 34.9836 136.387 35.5651 137.062 35.9959C137.751 36.4122 138.507 36.6204 139.33 36.6204C139.749 36.6204 140.201 36.5486 140.687 36.4051C141.173 36.2471 141.645 36.0389 142.104 35.7805V33.7991H139.31V30.6979Z" fill="#0D5370"/>
<path d="M74.9023 50.3302C74.0056 49.7474 73.0508 49.2882 72.0379 48.9526C71.0416 48.5994 70.1864 48.4228 69.4724 48.4228C68.7916 48.4228 68.2519 48.5552 67.8534 48.8202C67.4548 49.0851 67.2556 49.4736 67.2556 49.9858C67.2556 50.6393 67.5379 51.1426 68.1024 51.4958C68.6836 51.8314 69.572 52.1846 70.7676 52.5555C71.9632 52.9264 72.9429 53.2973 73.7067 53.6682C74.4872 54.0391 75.1514 54.5954 75.6994 55.3372C76.2473 56.0789 76.5213 57.0591 76.5213 58.2778C76.5213 59.4611 76.2224 60.4854 75.6246 61.3508C75.0434 62.1986 74.2381 62.8432 73.2086 63.2847C72.179 63.7263 71.0084 63.947 69.6965 63.947C68.2851 63.947 66.8986 63.6821 65.5369 63.1523C64.1753 62.6224 62.9963 61.8983 62 60.9799L63.5692 57.5625C64.4493 58.4102 65.4622 59.0902 66.608 59.6023C67.7537 60.1145 68.7999 60.3706 69.7464 60.3706C70.56 60.3706 71.191 60.2117 71.6394 59.8938C72.1043 59.5759 72.3368 59.1167 72.3368 58.5162C72.3368 58.0393 72.179 57.6508 71.8635 57.3505C71.5646 57.0326 71.1744 56.7766 70.6929 56.5823C70.2279 56.388 69.5803 56.1672 68.75 55.92C67.5545 55.5668 66.5748 55.2135 65.8109 54.8603C65.0637 54.5071 64.4161 53.9684 63.8681 53.2443C63.3201 52.5202 63.0461 51.5577 63.0461 50.3567C63.0461 49.244 63.3284 48.2727 63.893 47.4426C64.4576 46.5948 65.2463 45.9502 66.2593 45.5087C67.2722 45.0495 68.4511 44.8199 69.7962 44.8199C70.9918 44.8199 72.1707 45.0053 73.3331 45.3762C74.4955 45.7471 75.525 46.2416 76.4217 46.8598L74.9023 50.3302Z" fill="#0D5370"/>
<path d="M77.5604 45.1643H92.1316V48.7142H86.8013V63.7086H82.8658V48.7142H77.5604V45.1643Z" fill="#0D5370"/>
<path d="M101.41 44.8729C103.153 44.8729 104.739 45.2879 106.167 46.118C107.595 46.9481 108.716 48.0961 109.53 49.5619C110.36 51.0102 110.775 52.6262 110.775 54.4099C110.775 56.1937 110.36 57.8186 109.53 59.2845C108.716 60.7503 107.595 61.9071 106.167 62.7549C104.739 63.585 103.153 64 101.41 64C99.6662 64 98.0804 63.585 96.6524 62.7549C95.2243 61.9071 94.0951 60.7592 93.2649 59.3109C92.4512 57.8451 92.0444 56.2114 92.0444 54.4099C92.0444 52.6262 92.4512 51.0102 93.2649 49.5619C94.0951 48.0961 95.216 46.9481 96.6274 46.118C98.0555 45.2879 99.6496 44.8729 101.41 44.8729ZM101.46 48.5288C100.496 48.5288 99.5998 48.7937 98.7695 49.3235C97.9393 49.8357 97.2834 50.5421 96.8018 51.4429C96.3203 52.3436 96.0795 53.3326 96.0795 54.4099C96.0795 55.5049 96.3203 56.5028 96.8018 57.4035C97.3 58.3042 97.9559 59.0195 98.7695 59.5494C99.5998 60.0792 100.496 60.3441 101.46 60.3441C102.423 60.3441 103.303 60.088 104.1 59.5759C104.913 59.046 105.553 58.3307 106.018 57.43C106.499 56.5116 106.74 55.5049 106.74 54.4099C106.74 53.3326 106.499 52.3436 106.018 51.4429C105.553 50.5421 104.913 49.8357 104.1 49.3235C103.303 48.7937 102.423 48.5288 101.46 48.5288Z" fill="#0D5370"/>
<path d="M124.068 63.7086L121.303 58.4102H117.293V63.7086H113.357V45.1643H120.929C123.204 45.1643 124.964 45.7294 126.21 46.8598C127.455 47.9724 128.078 49.5531 128.078 51.6018C128.078 53.0324 127.795 54.2598 127.231 55.2842C126.683 56.2909 125.878 57.0591 124.815 57.589L128.526 63.7086H124.068ZM117.293 54.9133H120.929C122.025 54.9133 122.864 54.6484 123.445 54.1185C124.043 53.571 124.342 52.7763 124.342 51.7343C124.342 50.7099 124.043 49.9417 123.445 49.4295C122.864 48.8996 122.025 48.6347 120.929 48.6347H117.293V54.9133Z" fill="#0D5370"/>
<path d="M131.381 45.1643H144.657V48.6347H135.317V52.6615H143.711V56.1319H135.317V60.2382H144.931V63.7086H131.381V45.1643Z" fill="#0D5370"/>
<path d="M62.067 20.3316C79.8868 8.69743 53.2672 -7.842 49.6739 11.9676C49.3072 -12.4957 87.9533 5.8046 62.067 20.3316Z" fill="#0D5370"/>
<path d="M22.3183 18.2374C15.2784 19.2939 8.14071 26.308 5.45186 29.6829C5.45186 29.6829 11.5384 23.0797 17.6984 21.3818C9.55847 29.2427 9.92513 36.4119 9.92513 36.4119C10.5851 32.0726 17.405 23.0797 22.3183 18.2374Z" fill="#0D5370"/>
<path fill-rule="evenodd" clip-rule="evenodd" d="M7.69679 41.9384C7.84877 38.2437 8.04132 33.5628 12.1985 25.9726C9.6319 25.3437 -8.70129 42.9522 5.08521 59.4287C9.11848 63.8518 21.805 71.0629 34.1981 59.0514C41.458 51.7564 57.0045 23.5828 57.0045 23.5828C57.7623 22.367 60.2511 19.9965 62.5044 18.3003C75.7043 8.36405 53.1912 -6.16298 50.9913 13.8353C50.9179 15.8267 50.4779 20.1869 49.3046 21.6962C48.9214 22.1892 48.5081 23.2147 47.8698 24.7984C46.0654 29.2754 42.4629 38.2138 32.6582 52.1967C19.385 71.1258 -3.93468 59.4287 5.08521 38.9274C5.61321 38.374 7.01636 41.38 7.65193 42.9522C7.66867 42.6219 7.68255 42.2844 7.69679 41.9384ZM55.4704 18.7595C54.8593 13.8333 55.1184 4.63496 61.0437 7.25108C66.969 9.8672 62.1437 16.7471 55.4704 18.7595Z" fill="#0D5370"/>
<path d="M56.8589 16.1282C56.4593 12.9064 56.6287 6.89051 60.5039 8.6015C64.3791 10.3125 61.2233 14.812 56.8589 16.1282Z" fill="#0D5370"/>
<path d="M0.538571 55.5297C17.9917 77.9177 37.0581 62.5731 46.298 44.4615C41.7514 58.1081 21.0716 85.4642 0.538571 55.5297Z" fill="#0D5370"/>
<path d="M91.2116 17.3636H88L92.1715 5H96.1499L100.321 17.3636H97.1097L94.206 8.11506H94.1094L91.2116 17.3636ZM90.783 12.4979H97.4961V14.7678H90.783V12.4979Z" fill="#FF1D4E"/>
<path d="M106.222 17.3636H101.653V5H106.216C107.476 5 108.561 5.24751 109.47 5.74254C110.384 6.23355 111.088 6.94188 111.583 7.86754C112.078 8.78918 112.326 9.89193 112.326 11.1758C112.326 12.4637 112.078 13.5704 111.583 14.4961C111.092 15.4218 110.39 16.1321 109.476 16.6271C108.563 17.1181 107.478 17.3636 106.222 17.3636ZM104.641 14.8161H106.108C106.8 14.8161 107.386 14.6993 107.865 14.4659C108.347 14.2285 108.712 13.8441 108.957 13.3129C109.207 12.7776 109.331 12.0652 109.331 11.1758C109.331 10.2863 109.207 9.57801 108.957 9.05078C108.708 8.51953 108.339 8.13719 107.852 7.90376C107.369 7.66631 106.774 7.54759 106.066 7.54759H104.641V14.8161Z" fill="#FF1D4E"/>
<path d="M114.07 5H117.771L120.91 12.6548H121.055L124.194 5H127.895V17.3636H124.985V9.76918H124.883L121.912 17.2852H120.053L117.083 9.72692H116.98V17.3636H114.07V5Z" fill="#FF1D4E"/>
<path d="M132.747 5V17.3636H129.759V5H132.747Z" fill="#FF1D4E"/>
<path d="M145.146 5V17.3636H142.61L137.69 10.228H137.612V17.3636H134.623V5H137.195L142.061 12.1236H142.163V5H145.146Z" fill="#FF1D4E"/>
</svg>
