<svg width="421" height="422" viewBox="0 0 421 422" fill="none" xmlns="http://www.w3.org/2000/svg">
<path d="M370.677 359.294C362.068 368.216 353.922 373.969 347.485 378.514C271.829 431.945 182.308 416.37 163.282 412.567C135.187 406.95 80.8793 396.093 41.6161 350.647C-17.7859 281.89 -8.53617 173.565 37.54 102.058C45.968 88.9779 90.4875 16.3818 180.973 4.7397C235.734 -2.30599 299.568 11.9044 345.794 50.024C442.828 130.041 435.92 291.689 370.677 359.294Z" fill="#F9FEFF"/>
<path d="M80.2193 119.421C80.2583 117.399 81.9572 115.772 84.0394 115.772H210.336C212.446 115.772 214.688 117.449 214.688 119.498V405.755C214.688 407.285 213.796 408.752 212.68 409.832C211.565 410.912 209.92 411.517 208.345 411.513L80.6649 411.174C79.076 411.17 77.5225 410.547 76.4111 409.444C75.2997 408.341 74.674 406.847 74.7039 405.305L80.2193 119.421Z" fill="#919191"/>
<g opacity="0.52">
<path d="M152.75 136.058L194.064 135.92L194.049 130.899L152.781 131.026L152.75 136.058Z" fill="#F2F9FA"/>
<path d="M152.636 154.55L194.121 154.366L194.105 149.304L152.668 149.476L152.636 154.55Z" fill="#F2F9FA"/>
<path d="M152.522 173.194L194.178 172.964L194.162 167.861L152.554 168.078L152.522 173.194Z" fill="#F2F9FA"/>
<path d="M152.407 191.993L194.236 191.717L194.22 186.571L152.439 186.835L152.407 191.993Z" fill="#F2F9FA"/>
<path d="M152.291 210.948L194.294 210.625L194.278 205.437L152.323 205.747L152.291 210.948Z" fill="#F2F9FA"/>
<path d="M152.056 249.337L194.411 248.917L194.395 243.641L152.088 244.048L152.056 249.337Z" fill="#F2F9FA"/>
<path d="M151.696 308.146L194.591 307.574L194.574 302.163L151.729 302.721L151.696 308.146Z" fill="#F2F9FA"/>
<path d="M152.174 230.062L194.352 229.691L194.336 224.459L152.206 224.817L152.174 230.062Z" fill="#F2F9FA"/>
<path d="M151.937 268.775L194.471 268.305L194.454 262.985L151.969 263.441L151.937 268.775Z" fill="#F2F9FA"/>
<path d="M151.817 288.377L194.531 287.857L194.514 282.491L151.85 282.998L151.817 288.377Z" fill="#F2F9FA"/>
<path d="M151.573 328.084L194.652 327.46L194.635 322.003L151.607 322.612L151.573 328.084Z" fill="#F2F9FA"/>
<path d="M151.45 348.193L194.714 347.516L194.697 342.012L151.484 342.674L151.45 348.193Z" fill="#F2F9FA"/>
<path d="M151.326 368.475L194.776 367.745L194.759 362.193L151.36 362.909L151.326 368.475Z" fill="#F2F9FA"/>
<path d="M151.201 388.933L194.838 388.148L194.821 382.549L151.235 383.319L151.201 388.933Z" fill="#F2F9FA"/>
<path d="M98.5833 136.241L140.157 136.101L140.202 131.065L98.6749 131.192L98.5833 136.241Z" fill="#F2F9FA"/>
<path d="M98.2458 154.791L139.992 154.606L140.037 149.528L98.3384 149.701L98.2458 154.791Z" fill="#F2F9FA"/>
<path d="M97.906 173.495L139.825 173.264L139.871 168.144L97.9992 168.362L97.906 173.495Z" fill="#F2F9FA"/>
<path d="M97.5632 192.355L139.657 192.077L139.704 186.915L97.6573 187.18L97.5632 192.355Z" fill="#F2F9FA"/>
<path d="M97.2175 211.372L139.488 211.047L139.534 205.842L97.3124 206.154L97.2175 211.372Z" fill="#F2F9FA"/>
<path d="M96.5171 249.888L139.145 249.465L139.192 244.172L96.6136 244.581L96.5171 249.888Z" fill="#F2F9FA"/>
<path d="M95.4446 308.895L138.62 308.32L138.668 302.891L95.5435 303.452L95.4446 308.895Z" fill="#F2F9FA"/>
<path d="M96.8687 230.549L139.317 230.176L139.364 224.927L96.9643 225.287L96.8687 230.549Z" fill="#F2F9FA"/>
<path d="M96.1626 269.391L138.971 268.918L139.019 263.58L96.2599 264.039L96.1626 269.391Z" fill="#F2F9FA"/>
<path d="M95.8052 289.059L138.796 288.535L138.844 283.152L95.9034 283.662L95.8052 289.059Z" fill="#F2F9FA"/>
<path d="M95.0808 328.901L138.441 328.274L138.49 322.798L95.1807 323.411L95.0808 328.901Z" fill="#F2F9FA"/>
<path d="M94.7141 349.08L138.262 348.399L138.311 342.876L94.8147 343.542L94.7141 349.08Z" fill="#F2F9FA"/>
<path d="M94.3438 369.433L138.08 368.698L138.13 363.127L94.4453 363.848L94.3438 369.433Z" fill="#F2F9FA"/>
<path d="M93.9707 389.963L137.898 389.173L137.948 383.554L94.0731 384.329L93.9707 389.963Z" fill="#F2F9FA"/>
</g>
<path d="M7.74435 198.379C7.79974 196.041 10.2006 194.117 13.1435 194.117H124.38C127.362 194.117 130.291 196.141 130.291 198.511V410.343C130.291 411.483 129.465 412.576 128.449 413.381C127.433 414.186 125.928 414.637 124.493 414.634L8.18929 414.382C6.74203 414.379 5.32512 413.914 4.31293 413.092C3.30075 412.27 2.73001 411.134 2.75702 409.984L7.74435 198.379Z" fill="#919191"/>
<path d="M89.6641 219.078L121.353 219.045L121.604 206.137H89.8847L89.6641 219.078Z" fill="url(#paint0_linear_251_6430)"/>
<path d="M54.1445 219.072L85.8015 219.038L86.0185 206.137H54.3307L54.1445 219.072Z" fill="url(#paint1_linear_251_6430)"/>
<path d="M18.6606 219.065L50.2859 219.032L50.4683 206.137H18.8125L18.6606 219.065Z" fill="url(#paint2_linear_251_6430)"/>
<path d="M89.2681 242.247L120.902 242.263L121.152 229.44L89.488 229.429L89.2681 242.247Z" fill="url(#paint3_linear_251_6430)"/>
<path d="M53.8103 242.229L85.4122 242.245L85.6285 229.428L53.9959 229.418L53.8103 242.229Z" fill="url(#paint4_linear_251_6430)"/>
<path d="M18.3882 242.211L49.9584 242.227L50.1402 229.416L18.5395 229.406L18.3882 242.211Z" fill="url(#paint5_linear_251_6430)"/>
<path d="M88.8735 265.256L120.452 265.283L120.702 252.504L89.0927 252.483L88.8735 265.256Z" fill="url(#paint6_linear_251_6430)"/>
<path d="M53.4775 265.227L85.0245 265.253L85.2398 252.481L53.6624 252.46L53.4775 265.227Z" fill="url(#paint7_linear_251_6430)"/>
<path d="M18.1169 265.197L49.6322 265.224L49.8132 252.458L18.2676 252.437L18.1169 265.197Z" fill="url(#paint8_linear_251_6430)"/>
<path d="M88.4802 288.186L120.004 288.223L120.253 275.488L88.6984 275.457L88.4802 288.186Z" fill="url(#paint9_linear_251_6430)"/>
<path d="M53.1455 288.145L84.6378 288.182L84.8524 275.453L53.3297 275.423L53.1455 288.145Z" fill="url(#paint10_linear_251_6430)"/>
<path d="M17.8464 288.104L49.3071 288.141L49.4876 275.419L17.9965 275.388L17.8464 288.104Z" fill="url(#paint11_linear_251_6430)"/>
<path d="M88.0881 311.036L119.557 311.083L119.805 298.393L88.3058 298.351L88.0881 311.036Z" fill="url(#paint12_linear_251_6430)"/>
<path d="M52.8149 310.984L84.2527 311.031L84.4665 298.347L52.9986 298.306L52.8149 310.984Z" fill="url(#paint13_linear_251_6430)"/>
<path d="M17.5767 310.932L48.983 310.978L49.1628 298.3L17.7263 298.26L17.5767 310.932Z" fill="url(#paint14_linear_251_6430)"/>
<path d="M87.6978 333.808L119.112 333.865L119.359 321.218L87.9145 321.167L87.6978 333.808Z" fill="url(#paint15_linear_251_6430)"/>
<path d="M52.4854 333.745L83.8687 333.801L84.0818 321.161L52.6684 321.11L52.4854 333.745Z" fill="url(#paint16_linear_251_6430)"/>
<path d="M17.3081 333.681L48.6601 333.738L48.8393 321.103L17.4573 321.052L17.3081 333.681Z" fill="url(#paint17_linear_251_6430)"/>
<path d="M87.3083 356.501L118.669 356.568L118.915 343.965L87.5244 343.904L87.3083 356.501Z" fill="url(#paint18_linear_251_6430)"/>
<path d="M52.157 356.427L83.4862 356.493L83.6985 343.896L52.3392 343.835L52.157 356.427Z" fill="url(#paint19_linear_251_6430)"/>
<path d="M17.0403 356.352L48.3382 356.418L48.517 343.828L17.189 343.767L17.0403 356.352Z" fill="url(#paint20_linear_251_6430)"/>
<path d="M86.9207 379.116L118.227 379.193L118.472 366.633L87.136 366.562L86.9207 379.116Z" fill="url(#paint21_linear_251_6430)"/>
<path d="M51.8296 379.031L83.1046 379.107L83.3163 366.553L52.0112 366.483L51.8296 379.031Z" fill="url(#paint22_linear_251_6430)"/>
<path d="M16.7734 378.945L48.0175 379.021L48.1954 366.474L16.9215 366.403L16.7734 378.945Z" fill="#F9FEFF"/>
<path d="M86.5339 401.654L117.786 401.741L118.031 389.224L86.7485 389.143L86.5339 401.654Z" fill="#F9FEFF"/>
<path d="M51.5034 401.557L82.7247 401.644L82.9358 389.133L51.6845 389.052L51.5034 401.557Z" fill="url(#paint23_linear_251_6430)"/>
<path d="M16.5076 401.46L47.6978 401.547L47.8753 389.042L16.6551 388.961L16.5076 401.46Z" fill="url(#paint24_linear_251_6430)"/>
<path d="M298.104 203.437C298.16 201.099 300.56 199.175 303.503 199.175H414.74C417.722 199.175 420.651 201.2 420.651 203.57V415.401C420.651 416.541 419.824 417.635 418.809 418.44C417.793 419.245 416.288 419.696 414.853 419.693L298.549 419.44C297.102 419.437 295.685 418.973 294.673 418.151C293.661 417.329 293.09 416.193 293.117 415.043L298.104 203.437Z" fill="#919191"/>
<g opacity="0.5">
<path d="M380.024 224.137L411.713 224.103L411.964 211.196H380.245L380.024 224.137Z" fill="#F2F9FA"/>
<path d="M344.504 224.13L376.162 224.097L376.378 211.196H344.691L344.504 224.13Z" fill="#F2F9FA"/>
<path d="M309.021 224.124L340.646 224.09L340.828 211.196H309.172L309.021 224.124Z" fill="#F2F9FA"/>
<path d="M379.628 247.306L411.262 247.322L411.512 234.498L379.848 234.488L379.628 247.306Z" fill="#F2F9FA"/>
<path d="M344.17 247.287L375.772 247.303L375.988 234.487L344.355 234.476L344.17 247.287Z" fill="#F2F9FA"/>
<path d="M308.748 247.269L340.318 247.285L340.5 234.475L308.899 234.465L308.748 247.269Z" fill="#F2F9FA"/>
<path d="M379.233 270.315L410.812 270.341L411.062 257.562L379.452 257.542L379.233 270.315Z" fill="#F2F9FA"/>
<path d="M343.837 270.285L375.384 270.311L375.6 257.539L344.022 257.519L343.837 270.285Z" fill="#F2F9FA"/>
<path d="M308.477 270.256L339.992 270.282L340.173 257.516L308.627 257.495L308.477 270.256Z" fill="#F2F9FA"/>
<path d="M378.84 293.245L410.364 293.281L410.612 280.546L379.058 280.516L378.84 293.245Z" fill="#F2F9FA"/>
<path d="M343.505 293.204L374.998 293.24L375.212 280.512L343.69 280.481L343.505 293.204Z" fill="#F2F9FA"/>
<path d="M308.206 293.163L339.667 293.199L339.847 280.477L308.356 280.446L308.206 293.163Z" fill="#F2F9FA"/>
<path d="M378.448 316.095L409.917 316.142L410.165 303.451L378.665 303.41L378.448 316.095Z" fill="#F2F9FA"/>
<path d="M343.174 316.043L374.612 316.089L374.826 303.405L343.358 303.364L343.174 316.043Z" fill="#F2F9FA"/>
<path d="M307.936 315.991L339.342 316.037L339.522 303.359L308.086 303.318L307.936 315.991Z" fill="#F2F9FA"/>
<path d="M378.057 338.867L409.472 338.923L409.719 326.277L378.274 326.225L378.057 338.867Z" fill="#F2F9FA"/>
<path d="M342.845 338.803L374.228 338.86L374.441 326.219L343.028 326.168L342.845 338.803Z" fill="#F2F9FA"/>
<path d="M307.667 338.74L339.019 338.796L339.199 326.162L307.817 326.111L307.667 338.74Z" fill="#F2F9FA"/>
<path d="M377.668 361.56L409.028 361.627L409.274 349.023L377.884 348.962L377.668 361.56Z" fill="#F2F9FA"/>
<path d="M342.517 361.485L373.846 361.552L374.058 348.955L342.699 348.894L342.517 361.485Z" fill="#F2F9FA"/>
<path d="M307.4 361.411L338.698 361.477L338.876 348.886L307.549 348.825L307.4 361.411Z" fill="#F2F9FA"/>
<path d="M377.28 384.175L408.587 384.252L408.832 371.692L377.496 371.621L377.28 384.175Z" fill="#F2F9FA"/>
<path d="M342.189 384.089L373.464 384.166L373.676 371.612L342.371 371.541L342.189 384.089Z" fill="#F2F9FA"/>
<path d="M307.133 384.003L338.377 384.08L338.555 371.532L307.281 371.462L307.133 384.003Z" fill="#F2F9FA"/>
<path d="M376.894 406.713L408.146 406.799L408.39 394.282L377.108 394.201L376.894 406.713Z" fill="#F2F9FA"/>
<path d="M341.863 406.616L373.085 406.702L373.296 394.191L342.044 394.11L341.863 406.616Z" fill="#F2F9FA"/>
<path d="M306.867 406.519L338.058 406.605L338.235 394.101L307.015 394.02L306.867 406.519Z" fill="#F2F9FA"/>
</g>
<path d="M187.522 261.063C178.444 232.559 160.879 209.844 140.073 196.49C121.473 184.552 108.073 165.961 103.112 144.486C102.591 142.229 101.971 139.965 101.25 137.702C90.3317 103.422 60.3854 82.3514 34.363 90.6397C8.34024 98.9278 -3.90433 133.436 7.01408 167.716C9.24635 174.725 12.275 181.181 15.9031 186.946C27.4821 205.343 32.0131 227.408 27.7528 248.749C23.9449 267.821 24.9782 289.296 31.7844 310.665C41.9354 342.537 62.6969 367.173 86.7364 379.576C95.8292 384.267 104.029 390.576 110.818 398.199C122.101 410.867 138.003 416.821 152.613 412.168C168.373 407.148 178.219 391.189 178.928 372.568C179.329 362.031 181.807 351.702 185.845 341.938C195.378 318.888 196.701 289.881 187.522 261.063Z" fill="#2A8E9E" fill-opacity="0.3"/>
<path opacity="0.57" d="M55.0899 124.204C65.7052 145.777 75.6157 167.674 85.296 189.675C87.7184 195.174 90.052 200.711 92.4033 206.241L95.9289 214.536L99.3849 222.861C101.667 228.42 104.027 233.947 106.246 239.532L112.905 256.286C117.2 267.512 121.592 278.701 125.678 290.007C127.728 295.656 129.89 301.265 131.825 306.957L137.71 324.001C145.326 346.805 152.369 369.812 158.229 393.132L157.222 393.396L152.171 376.117L150.917 371.796L149.556 367.506L146.817 358.932L144.095 350.355C143.193 347.495 142.184 344.667 141.233 341.822C139.294 336.144 137.401 330.451 135.425 324.786C127.375 302.176 119.022 279.673 110.205 257.345C105.71 246.215 101.312 235.048 96.7399 223.949L93.3337 215.615L89.8572 207.31C87.5429 201.772 85.2284 196.234 82.8579 190.719C78.2116 179.65 73.4851 168.613 68.6685 157.615C63.9096 146.591 59.0453 135.61 54.1492 124.649L55.0899 124.204Z" fill="#F2F9FA"/>
<path d="M263.467 204.406C259.225 173.278 245.201 146.598 226.16 129.014C209.138 113.295 198.665 91.6352 197.404 68.5224C197.272 66.093 197.039 63.6389 196.702 61.1675C191.6 23.7301 164.525 -3.49255 136.229 0.364072C107.932 4.22055 89.1304 37.696 94.2329 75.1334C95.2762 82.7886 97.2391 90.0149 99.9434 96.6353C108.574 117.763 109.287 141.408 101.07 162.712C93.7281 181.749 90.9423 204.149 94.123 227.487C98.8671 262.294 115.84 291.541 138.383 308.727C146.91 315.228 154.226 323.239 159.855 332.355C169.208 347.504 184.523 356.545 200.409 354.38C217.547 352.044 230.553 337.32 234.621 318.188C236.924 307.361 241.328 297.127 247.239 287.759C261.194 265.644 267.757 235.879 263.467 204.406Z" fill="#0D5370" fill-opacity="0.3"/>
<path opacity="0.57" d="M151.565 38.8399C158.634 63.0783 164.918 87.5244 170.947 112.036C172.457 118.163 173.868 124.314 175.299 130.46L177.444 139.68L179.512 148.917C180.867 155.081 182.307 161.226 183.592 167.405L187.448 185.942C189.861 198.332 192.379 210.702 194.562 223.137C195.662 229.352 196.883 235.546 197.856 241.784L200.863 260.481C204.621 285.449 207.752 310.524 209.609 335.708L208.524 335.799L206.418 317.009L205.901 312.312L205.268 307.628L203.983 298.264L202.716 288.898C202.299 285.776 201.767 282.669 201.298 279.553C200.318 273.328 199.388 267.097 198.369 260.879C194.128 236.032 189.558 211.241 184.477 186.548C181.842 174.221 179.313 161.872 176.592 149.563L174.577 140.325L172.484 131.105C171.093 124.957 169.701 118.809 168.247 112.675C165.445 100.383 162.555 88.1092 159.564 75.8601C156.638 63.5953 153.595 51.355 150.516 39.1299L151.565 38.8399Z" fill="#F2F9FA"/>
<path d="M393.522 418.357H146.522C144.591 418.357 143.026 416.792 143.026 414.862V81.0843C143.026 79.1539 144.591 77.5889 146.522 77.5889H393.522C395.452 77.5889 397.017 79.1539 397.017 81.0843V414.862C397.017 416.792 395.452 418.357 393.522 418.357Z" fill="#2A8E9E"/>
<path d="M353.778 373.469H185.723C179.353 373.469 174.189 368.305 174.189 361.934V140.319C174.189 133.948 179.353 128.784 185.723 128.784H353.778C360.148 128.784 365.313 133.948 365.313 140.319V361.934C365.313 368.305 360.148 373.469 353.778 373.469Z" fill="#0D5370" fill-opacity="0.3"/>
<path d="M347.419 356.447H192.234C190.323 356.447 188.774 354.897 188.774 352.986V152.372C188.774 150.461 190.323 148.912 192.234 148.912H347.419C349.33 148.912 350.879 150.461 350.879 152.372V352.986C350.879 354.897 349.33 356.447 347.419 356.447Z" fill="#2A8E9E"/>
<path d="M269.558 111.317C273.755 111.317 277.157 107.915 277.157 103.719C277.157 99.5221 273.755 96.1202 269.558 96.1202C265.362 96.1202 261.96 99.5221 261.96 103.719C261.96 107.915 265.362 111.317 269.558 111.317Z" fill="#0D5370"/>
<path d="M318.647 226.381L220.893 228.007C213.453 228.13 207.4 233.916 207.4 240.928V302.491C207.4 309.503 213.453 314.945 220.893 314.646L318.647 310.721C325.669 310.439 331.342 304.717 331.342 297.939V238.442C331.341 231.664 325.669 226.265 318.647 226.381Z" fill="url(#paint25_linear_251_6430)"/>
<path d="M323.595 215.247C320.634 215.291 318.23 213.006 318.23 210.144V196.67C318.23 183.153 306.797 172.189 292.643 172.23L260.797 172.322C246.279 172.364 234.382 183.652 234.382 197.484V211.273C234.382 214.202 231.861 216.615 228.747 216.661C225.627 216.708 223.095 214.363 223.095 211.424V197.594C223.095 177.851 240.104 161.788 260.798 161.788H292.643C312.75 161.788 328.944 177.389 328.944 196.566V209.999C328.943 212.853 326.551 215.203 323.595 215.247Z" fill="url(#paint26_linear_251_6430)"/>
<path d="M285.585 260.499C285.585 253.658 279.613 248.287 272.352 248.78C265.932 249.216 260.623 254.358 260.276 260.497C260.007 265.261 262.625 269.379 266.604 271.461C268.297 272.347 269.138 274.214 268.809 276.061L266.018 291.724C265.662 293.718 267.266 295.471 269.375 295.395L276.548 295.138C278.647 295.063 280.239 293.204 279.886 291.241L277.097 275.724C276.764 273.873 277.726 272.034 279.424 271.02C283.115 268.813 285.585 264.899 285.585 260.499Z" fill="url(#paint27_linear_251_6430)"/>
<path d="M89.2526 418.953C89.2547 418.819 89.2458 418.683 89.2113 418.546C87.1842 410.509 77.123 405.504 77.123 405.504L73.1362 405.816C70.844 412.9 71.1386 417.244 71.5067 419.179C71.5169 419.233 71.5334 419.285 71.5478 419.337C74.8366 419.631 81.6056 419.823 89.2526 418.953Z" fill="#0D5370"/>
<path d="M71.5479 419.337C71.7254 419.983 72.2025 420.487 72.813 420.615C77.4914 421.599 84.9271 420.807 88.0491 420.399C88.7379 420.309 89.2414 419.672 89.2528 418.953C81.6057 419.823 74.8366 419.631 71.5479 419.337Z" fill="#2A8E9E" fill-opacity="0.3"/>
<path d="M71.5332 399.878L73.2218 408.007C73.3454 408.602 73.8031 409.048 74.3575 409.1C75.0359 409.164 76.002 409.201 76.9735 409.059C77.8446 408.931 78.4513 408.046 78.2968 407.096L77.1231 399.878H71.5332Z" fill="url(#paint28_linear_251_6430)"/>
<path d="M106.519 419.234C102.116 419.111 99.8386 418.592 98.6611 418.111C98.6584 418.549 98.6608 418.995 98.6751 419.456C98.6903 419.949 99.0554 420.343 99.5047 420.34L123.681 420.184C124.452 420.179 124.903 419.284 124.569 418.577C121.399 418.839 113.326 419.425 106.519 419.234Z" fill="#2A8E9E" fill-opacity="0.3"/>
<path d="M124.569 418.577C124.54 418.515 124.515 418.453 124.473 418.395C122.338 415.411 116.9 409.471 106.155 406.894L101 406.731C101 406.731 98.7043 410.721 98.6609 418.111C99.8383 418.592 102.116 419.111 106.519 419.234C113.326 419.425 121.399 418.839 124.569 418.577Z" fill="#0D5370"/>
<path d="M99.8145 399.159C99.8958 399.539 100.968 405.323 101.384 407.565C101.483 408.098 101.898 408.489 102.392 408.517C103.274 408.566 104.698 408.572 105.922 408.24C106.583 408.06 107.026 407.387 106.979 406.64L106.403 397.491L99.8145 399.159Z" fill="url(#paint29_linear_251_6430)"/>
<path d="M95.9082 292.364C95.9082 292.364 102.999 341.091 108.117 399.075C108.212 400.155 107.352 401.095 106.291 401.319C104.727 401.648 102.429 402.039 100.527 401.985C99.5115 401.957 98.6626 401.204 98.4918 400.202C96.7484 389.979 84.3086 335.11 81.0436 323.034C81.0436 323.034 77.2932 374.33 78.4921 400.943C78.522 401.605 78.0374 402.179 77.3794 402.255C76.3812 402.37 74.7845 402.458 72.7522 402.242C71.9808 402.16 71.3585 401.577 71.2482 400.809C70.0064 392.156 62.859 340.654 63.163 303.553C63.1801 301.461 65.6177 284.271 65.6177 284.271L95.9082 292.364Z" fill="#0D5370"/>
<path d="M98.6562 210.421L99.6056 235.919C102.302 236.847 104.87 237.569 107.314 238.108C108.843 233.185 112.21 227.143 114.968 222.65C104.837 219.069 98.6562 210.421 98.6562 210.421Z" fill="#2A8E9E"/>
<path d="M64.552 295.172C63.8229 294.913 63.3146 294.252 63.2353 293.483C62.2923 284.334 57.7265 227.609 86.5515 204.274C86.5515 204.274 88.2046 199.949 101.792 210.581C115.379 221.212 108.105 232.355 104.852 247.725C100.915 266.324 94.0086 281.527 97.0644 292.973C97.2754 293.763 96.86 294.592 96.0929 294.875C85.5383 298.765 75.0241 298.894 64.552 295.172Z" fill="#2A8E9E"/>
<path d="M97.7953 187.278C97.7862 188.085 86.2761 204.434 86.2761 204.434C86.2761 204.434 88.3421 208.503 98.205 211.806L106.719 194.302L97.7953 187.278Z" fill="url(#paint30_linear_251_6430)"/>
<path d="M92.0935 243.22C92.0215 243.22 91.9485 243.199 91.8846 243.156C82.6897 236.943 78.3641 226.916 78.3213 226.815C78.2411 226.624 78.3297 226.405 78.5195 226.325C78.7101 226.244 78.9288 226.332 79.0098 226.523C79.0516 226.622 83.2967 236.451 92.303 242.536C92.4742 242.652 92.5191 242.884 92.4033 243.056C92.3315 243.162 92.2135 243.22 92.0935 243.22Z" fill="#2A8E9E"/>
<path d="M105.79 229.321C105.667 229.321 105.547 229.261 105.475 229.15C105.447 229.107 102.638 224.734 97.2879 215.154C95.6426 212.208 93.4803 210.342 90.8612 209.609C86.5237 208.397 82.3434 210.723 82.3021 210.746C82.1221 210.845 81.8946 210.785 81.7925 210.606C81.6907 210.426 81.7531 210.198 81.9326 210.096C82.1129 209.994 86.4126 207.588 91.0556 208.888C93.8768 209.675 96.1935 211.66 97.9406 214.789C103.277 224.345 106.076 228.702 106.104 228.745C106.215 228.918 106.165 229.15 105.992 229.262C105.929 229.302 105.859 229.321 105.79 229.321Z" fill="#2A8E9E"/>
<path d="M106.858 177.91C106.858 177.91 110.953 187.318 111.228 192.256C111.503 197.194 112.567 200.398 106.858 201.393C101.148 202.387 96.3382 199.543 93.7324 194.624C93.7324 194.624 89.6497 187.045 90.5655 183.941C91.4813 180.837 106.858 177.91 106.858 177.91Z" fill="url(#paint31_linear_251_6430)"/>
<path d="M95.6835 191.087L96.0085 190.944C96.4222 190.762 96.5995 190.269 96.3916 189.868C95.5865 188.312 94.0168 184.747 96.0445 183.915C98.6577 182.844 109.009 180.733 111.242 177.06C113.388 173.53 111.487 168.973 108.629 167.678C108.437 167.591 108.212 167.66 108.114 167.845L107.876 168.296C107.712 168.605 107.257 168.558 107.16 168.223C107.067 167.901 106.639 167.839 106.461 168.122C105.775 169.221 103.921 171.003 98.965 171.917C91.9211 173.218 87.2641 176.068 87.1482 180.935C87.1409 181.245 86.8119 181.417 86.5477 181.256C86.0276 180.939 85.1954 180.79 84.0831 181.725C82.1486 183.352 82.9403 187.571 87.181 191.042C87.3825 191.207 87.3808 191.521 87.1626 191.663C86.3938 192.164 85.2478 193.355 88.2173 194.942C91.2887 196.584 93.5823 196.449 94.4657 196.304C94.6854 196.267 94.827 196.055 94.779 195.837L93.8365 191.559C93.7831 191.317 93.9675 191.088 94.2153 191.088H95.6835V191.087Z" fill="#0D5370"/>
<path d="M95.8608 191.99C95.8608 191.99 94.2984 185.98 91.604 187.665C88.9097 189.35 93.0023 194.399 95.1685 194.624L95.8608 191.99Z" fill="url(#paint32_linear_251_6430)"/>
<path d="M148.893 208.503C148.893 208.503 146.84 204.864 146.971 203.096C147.102 201.327 146 198.731 147.172 198.923C148.345 199.115 148.587 198.958 148.905 201.08C149.223 203.202 152.924 212.47 148.893 208.503Z" fill="url(#paint33_linear_251_6430)"/>
<path d="M149.279 202.717L149.232 209.987C135.336 224.991 124.088 225.874 114.968 222.65C112.21 227.143 108.843 233.185 107.314 238.108C144.423 246.289 153.162 212.174 153.162 212.174C158.188 210.092 159.201 208.875 158.985 207.51L149.279 202.717Z" fill="url(#paint34_linear_251_6430)"/>
<path d="M159.966 195.504C158.78 195.022 156.459 190.597 156.015 192.053C155.57 193.509 156.202 195.504 156.015 196.122C155.827 196.742 152.933 203.863 153.511 205.445C153.928 206.587 156.225 206.418 156.576 208.285C156.692 208.905 157.188 209.35 157.763 209.35C158.337 209.351 158.833 208.907 158.95 208.287C158.997 208.038 161.152 195.985 159.966 195.504Z" fill="url(#paint35_linear_251_6430)"/>
<path d="M122.089 180.361C112.719 198.894 120.147 221.514 138.68 230.885C153.744 238.501 171.507 235.019 182.662 223.497L247.055 256.054C248.124 256.595 249.396 256.551 250.426 255.938L256.723 252.186C256.832 252.122 256.934 252.051 257.033 251.976C257.061 251.955 257.087 251.933 257.115 251.911C257.188 251.853 257.258 251.792 257.326 251.729C257.349 251.707 257.372 251.685 257.394 251.663C257.478 251.581 257.558 251.495 257.632 251.405C257.633 251.403 257.634 251.402 257.635 251.401C258.426 250.438 258.667 249.095 258.183 247.881L253.066 235.053C252.749 234.261 252.155 233.611 251.394 233.226L244.944 229.965L243.237 233.341L237.696 230.539L239.403 227.163L234.22 224.543L232.649 227.648L225.915 224.243L227.486 221.138L224.977 219.869L224.168 221.468L218.523 218.614L219.332 217.015L214.941 214.795L213.234 218.171L210.098 216.585L211.805 213.209L209.087 211.835L207.38 215.211L201.944 212.463L203.651 209.087L196.01 205.224L192.737 203.569C195.404 187.755 187.677 171.386 172.613 163.77C154.08 154.399 131.459 161.827 122.089 180.361ZM144.028 182.921C147.781 184.818 149.285 189.399 147.388 193.152C145.49 196.905 140.91 198.408 137.157 196.511C133.404 194.614 131.9 190.033 133.797 186.28C135.695 182.527 140.276 181.023 144.028 182.921Z" fill="url(#paint36_linear_251_6430)"/>
<path d="M174.284 191.718L204.81 207.152L203.103 210.527L208.539 213.276L210.246 209.9L212.964 211.274L211.257 214.65L214.393 216.236L216.1 212.86L220.49 215.08L219.682 216.679L225.327 219.533L226.136 217.934L228.645 219.203L227.074 222.308L233.808 225.713L235.379 222.607L240.562 225.228L238.855 228.604L244.396 231.405L246.103 228.03L252.553 231.291C253.314 231.676 253.909 232.325 254.225 233.118L259.342 245.946C259.98 247.545 259.361 249.37 257.882 250.251L251.585 254.002C250.555 254.616 249.283 254.66 248.213 254.119L170.48 214.817L174.284 191.718Z" fill="url(#paint37_linear_251_6430)"/>
<path d="M139.839 228.949C158.372 238.32 180.993 230.892 190.363 212.359C199.733 193.825 192.306 171.205 173.772 161.835C155.239 152.464 132.619 159.892 123.248 178.425C113.878 196.958 121.306 219.579 139.839 228.949ZM138.316 194.576C134.564 192.678 133.059 188.098 134.957 184.345C136.854 180.592 141.435 179.088 145.188 180.985C148.94 182.883 150.444 187.463 148.547 191.216C146.65 194.969 142.069 196.473 138.316 194.576Z" fill="url(#paint38_linear_251_6430)"/>
<path d="M183.821 221.562L248.214 254.119C249.283 254.66 250.555 254.616 251.585 254.002L257.883 250.251C258.832 249.685 259.421 248.729 259.557 247.695C253.688 241.336 197.901 216.975 195.815 211.962C195.072 210.178 194.945 207.477 197.169 203.289L193.897 201.634C196.563 185.82 188.836 169.451 173.773 161.835C155.239 152.464 132.619 159.892 123.249 178.425C113.878 196.958 121.306 219.579 139.839 228.949C154.903 236.565 172.666 233.084 183.821 221.562ZM145.188 180.986C148.94 182.883 150.445 187.464 148.547 191.216C146.65 194.969 142.069 196.473 138.316 194.576C134.564 192.678 133.059 188.098 134.957 184.345C136.854 180.592 141.435 179.088 145.188 180.986Z" fill="url(#paint39_linear_251_6430)"/>
<path d="M143.169 222.363C158.065 229.895 176.246 223.925 183.777 209.029C191.309 194.133 185.339 175.952 170.442 168.421C155.546 160.889 137.366 166.859 129.834 181.755C122.303 196.651 128.273 214.832 143.169 222.363ZM138.316 194.576C134.564 192.678 133.059 188.098 134.957 184.345C136.854 180.592 141.435 179.088 145.188 180.985C148.94 182.883 150.445 187.463 148.547 191.216C146.65 194.969 142.069 196.473 138.316 194.576Z" fill="url(#paint40_linear_251_6430)"/>
<path d="M92.0933 243.22C92.0933 243.22 127.504 255.074 147.312 239.994C148.54 239.058 150.09 238.65 151.614 238.899L159.181 240.131C162.357 240.649 165.383 238.59 166.068 235.446C166.458 233.653 166.646 231.691 166.248 230.006L151.963 229.144L152.372 227.291C152.372 227.291 146.058 228.835 145.931 233.775C145.931 233.775 131.12 243.477 104.107 228.418C104.107 228.418 93.5883 236.65 92.0933 243.22Z" fill="url(#paint41_linear_251_6430)"/>
<g opacity="0.3">
<path d="M365.602 65.6854C364.778 65.6517 364.137 64.9557 364.171 64.1313C364.236 62.5294 364.234 60.9011 364.162 59.2911C364.126 58.4765 364.749 57.7854 365.559 57.7339C365.569 57.7333 365.578 57.7327 365.588 57.7321C366.413 57.6955 367.111 58.3343 367.147 59.1589C367.222 60.8535 367.225 62.568 367.156 64.2541C367.125 65.0252 366.513 65.6358 365.76 65.6836C365.708 65.6868 365.655 65.6879 365.602 65.6854ZM363.277 51.4783C362.987 49.8937 362.626 48.3068 362.204 46.7598C361.987 45.9643 362.457 45.1426 363.253 44.9255C364.053 44.7104 364.87 45.1783 365.087 45.9745C365.531 47.6019 365.911 49.2725 366.216 50.9395C366.365 51.7511 365.827 52.5298 365.015 52.6783C364.956 52.6891 364.897 52.6962 364.839 52.7C364.094 52.7474 363.414 52.2309 363.277 51.4783ZM359.615 39.3401C358.982 37.864 358.276 36.3976 357.517 34.9808C357.128 34.2535 357.402 33.3478 358.129 32.9584C358.856 32.5701 359.762 32.8431 360.152 33.5705C360.95 35.0623 361.694 36.607 362.361 38.1611C362.686 38.9193 362.335 39.7978 361.577 40.1237C361.416 40.1931 361.249 40.2318 361.083 40.2422C360.47 40.2811 359.871 39.9366 359.615 39.3401ZM353.331 28.3256C352.382 27.0268 351.366 25.7545 350.311 24.543C349.769 23.9207 349.834 22.9768 350.456 22.435C351.078 21.8937 352.022 21.959 352.564 22.5801C353.675 23.8557 354.744 25.1956 355.744 26.5619C356.23 27.2281 356.085 28.1631 355.419 28.6497C355.18 28.824 354.908 28.9173 354.633 28.9347C354.141 28.966 353.644 28.7531 353.331 28.3256ZM344.75 18.9856C343.539 17.9326 342.266 16.9163 340.966 15.9662C340.3 15.4787 340.155 14.5439 340.642 13.8781C341.129 13.2116 342.064 13.0668 342.73 13.5544C344.098 14.5541 345.437 15.6235 346.711 16.7314C347.333 17.2726 347.399 18.2165 346.858 18.8391C346.585 19.153 346.21 19.3253 345.825 19.3498C345.446 19.3736 345.059 19.2543 344.75 18.9856ZM334.316 11.7772C332.9 11.0168 331.434 10.3081 329.959 9.67012C329.202 9.34279 328.853 8.46308 329.18 7.70614C329.507 6.9486 330.387 6.59972 331.144 6.92705C332.697 7.5981 334.24 8.34457 335.73 9.14476C336.457 9.53552 336.729 10.441 336.339 11.1681C336.085 11.6403 335.614 11.9205 335.116 11.9522C334.847 11.9693 334.571 11.9144 334.316 11.7772ZM278.839 11.0817C278.45 10.3538 278.726 9.44857 279.454 9.06023C280.945 8.26505 282.492 7.52404 284.051 6.85846C284.81 6.53431 285.688 6.88669 286.011 7.64575C286.336 8.40405 285.983 9.28209 285.224 9.60623C283.745 10.2381 282.276 10.9419 280.86 11.6972C280.665 11.8009 280.459 11.8572 280.252 11.8702C279.686 11.9062 279.123 11.6156 278.839 11.0817ZM322.551 7.06393C321.002 6.63766 319.417 6.2733 317.837 5.98179C317.026 5.83155 316.489 5.05215 316.639 4.24089C316.789 3.42901 317.568 2.89712 318.38 3.04326C320.043 3.35056 321.713 3.73403 323.344 4.18322C324.139 4.40235 324.606 5.2247 324.387 6.02049C324.214 6.65147 323.66 7.07607 323.042 7.11522C322.881 7.12539 322.715 7.109 322.551 7.06393ZM290.819 5.9786C290.603 5.18236 291.075 4.36184 291.871 4.14635C293.503 3.70536 295.175 3.32901 296.841 3.02687C297.653 2.87588 298.43 3.419 298.578 4.23057C298.725 5.04229 298.186 5.81972 297.374 5.96722C295.79 6.25433 294.201 6.61186 292.651 7.0313C292.552 7.05801 292.453 7.07364 292.354 7.08002C291.66 7.12403 291.007 6.67605 290.819 5.9786ZM310.029 5.09844C308.426 5.02939 306.798 5.02863 305.191 5.09677C304.366 5.13213 303.67 4.49219 303.635 3.66742C303.6 2.85387 304.223 2.16462 305.032 2.11317C305.043 2.11257 305.053 2.11181 305.064 2.11181C306.756 2.03957 308.469 2.04003 310.157 2.11241C310.982 2.14838 311.622 2.84522 311.586 3.66969C311.553 4.43953 310.942 5.04851 310.19 5.09631C310.137 5.0998 310.084 5.10026 310.029 5.09844Z" fill="#2A8E9E" fill-opacity="0.3"/>
<path d="M271.48 17.624C271.773 17.6054 272.065 17.5004 272.313 17.3034C272.916 16.8242 273.539 16.3501 274.165 15.8929C274.832 15.4066 274.978 14.4717 274.492 13.8055C274.005 13.1387 273.07 12.9917 272.404 13.4796C271.745 13.96 271.09 14.4588 270.455 14.9629C269.809 15.4758 269.701 16.4161 270.213 17.0618C270.53 17.4605 271.008 17.6541 271.48 17.624Z" fill="#2A8E9E" fill-opacity="0.3"/>
</g>
<g opacity="0.3">
<path d="M249.698 57.6295C250.418 57.5838 251.018 57.0217 251.09 56.281C251.163 55.5144 251.254 54.7362 251.359 53.9686C251.472 53.151 250.9 52.3973 250.083 52.2848C249.262 52.1721 248.511 52.7442 248.399 53.5613C248.288 54.3694 248.192 55.189 248.115 55.9962C248.036 56.8176 248.638 57.5471 249.46 57.626C249.54 57.6336 249.62 57.6345 249.698 57.6295Z" fill="#2A8E9E" fill-opacity="0.3"/>
<path d="M308.307 121.413C307.482 121.425 306.803 120.765 306.791 119.94C306.78 119.115 307.438 118.438 308.264 118.425C309.835 118.402 311.429 118.312 313.02 118.157C313.838 118.075 314.572 118.679 314.652 119.5C314.732 120.321 314.131 121.052 313.31 121.132C312.62 121.199 311.932 121.254 311.246 121.298C310.268 121.36 309.279 121.399 308.307 121.413ZM319.544 118.686C319.353 117.883 319.85 117.078 320.653 116.888C322.194 116.522 323.737 116.088 325.238 115.597C326.02 115.337 326.866 115.767 327.123 116.551C327.38 117.335 326.952 118.179 326.168 118.436C324.588 118.954 322.964 119.411 321.342 119.795C321.258 119.815 321.174 119.828 321.09 119.833C320.377 119.878 319.714 119.405 319.544 118.686ZM300.177 120.972C298.528 120.768 296.864 120.492 295.232 120.148C294.425 119.979 293.908 119.186 294.078 118.378C294.247 117.571 295.04 117.055 295.847 117.224C297.397 117.55 298.976 117.813 300.543 118.006C301.362 118.107 301.944 118.853 301.843 119.672C301.754 120.396 301.16 120.935 300.456 120.98C300.365 120.986 300.272 120.983 300.177 120.972ZM331.718 114.688C331.356 113.946 331.663 113.051 332.405 112.69C333.826 111.996 335.235 111.233 336.592 110.422C337.3 109.998 338.217 110.229 338.64 110.938C339.064 111.646 338.833 112.563 338.125 112.987C336.696 113.841 335.212 114.644 333.716 115.375C333.535 115.463 333.345 115.512 333.156 115.524C332.569 115.561 331.991 115.248 331.718 114.688ZM287.405 117.931C285.841 117.37 284.28 116.734 282.764 116.04C282.013 115.697 281.683 114.811 282.026 114.061C282.369 113.31 283.256 112.98 284.006 113.323C285.446 113.981 286.929 114.585 288.414 115.118C289.191 115.397 289.595 116.252 289.316 117.029C289.108 117.608 288.581 117.979 288.004 118.016C287.806 118.028 287.603 118.002 287.405 117.931ZM275.609 112.162C274.203 111.271 272.817 110.309 271.492 109.305C270.834 108.807 270.705 107.87 271.203 107.212C271.702 106.553 272.639 106.424 273.296 106.923C274.556 107.877 275.872 108.791 277.209 109.638C277.906 110.08 278.112 111.003 277.671 111.7C277.404 112.12 276.963 112.362 276.502 112.391C276.198 112.41 275.886 112.337 275.609 112.162ZM265.35 103.959C264.17 102.782 263.027 101.542 261.953 100.274C261.419 99.6439 261.498 98.7017 262.127 98.1681C262.757 97.6339 263.699 97.7128 264.233 98.342C265.254 99.5474 266.34 100.725 267.461 101.844C268.045 102.427 268.046 103.373 267.463 103.957C267.195 104.225 266.851 104.37 266.501 104.392C266.088 104.419 265.666 104.274 265.35 103.959ZM257.125 93.7143C256.232 92.3079 255.388 90.8468 254.617 89.3718C254.235 88.6405 254.518 87.7377 255.25 87.3556C255.98 86.9741 256.883 87.2571 257.266 87.9884C257.997 89.3888 258.798 90.7759 259.647 92.1121C260.09 92.8085 259.884 93.7316 259.188 94.174C258.968 94.3137 258.725 94.3887 258.482 94.4042C257.956 94.4376 257.428 94.191 257.125 93.7143ZM251.349 81.9062C250.789 80.3412 250.288 78.7314 249.861 77.1213C249.649 76.3237 250.124 75.5051 250.922 75.2938C251.717 75.083 252.537 75.5567 252.749 76.3543C253.155 77.8842 253.631 79.4129 254.163 80.8996C254.441 81.6761 254.036 82.5316 253.26 82.8096C253.124 82.858 252.987 82.8861 252.85 82.8947C252.203 82.9357 251.579 82.5478 251.349 81.9062ZM248.311 69.1314C248.158 67.9159 248.042 66.6806 247.965 65.4604C247.937 65.0183 247.914 64.5778 247.895 64.1372C247.861 63.3132 248.491 62.6012 249.326 62.5827C250.15 62.5479 250.846 63.1885 250.881 64.0133C250.899 64.4315 250.92 64.8511 250.947 65.271C251.021 66.4313 251.131 67.6049 251.275 68.7607C251.378 69.5792 250.797 70.326 249.978 70.4283C249.948 70.4319 249.917 70.4351 249.886 70.4371C249.104 70.4868 248.409 69.9193 248.311 69.1314Z" fill="#2A8E9E" fill-opacity="0.3"/>
<path d="M344.003 108.64C344.3 108.622 344.593 108.515 344.842 108.315C345.473 107.809 346.105 107.28 346.721 106.743C347.343 106.2 347.407 105.257 346.865 104.635C346.322 104.013 345.379 103.948 344.757 104.491C344.172 105.001 343.571 105.503 342.972 105.984C342.329 106.5 342.225 107.44 342.742 108.084C343.058 108.479 343.534 108.67 344.003 108.64Z" fill="#2A8E9E" fill-opacity="0.3"/>
</g>
<path d="M346.825 83.1829C346.999 82.9404 346.999 82.615 346.827 82.3721L341.905 75.4435C343.417 71.774 344.355 67.837 344.624 63.7612L352.092 59.7161C352.354 59.5742 352.497 59.2816 352.448 58.9879L350.781 48.9309C350.732 48.637 350.502 48.4063 350.208 48.3567L341.834 46.9389C340.264 43.168 338.105 39.7443 335.489 36.7597L337.911 28.6133C337.996 28.3277 337.89 28.0198 337.648 27.8465L329.358 21.9144C329.115 21.7411 328.79 21.7405 328.547 21.913L321.618 26.8351C317.949 25.3224 314.012 24.384 309.936 24.1157L305.891 16.6474C305.749 16.3853 305.457 16.2422 305.163 16.2911L295.105 17.9588C294.811 18.0077 294.581 18.2374 294.531 18.5311L293.113 26.9055C289.342 28.4751 285.919 30.634 282.934 33.2502L274.788 30.828C274.502 30.7432 274.194 30.8486 274.021 31.091L268.089 39.3816C267.915 39.6238 267.915 39.9495 268.087 40.1923L273.009 47.121C271.497 50.7904 270.558 54.7274 270.29 58.8033L262.822 62.8484C262.56 62.9902 262.417 63.2827 262.466 63.5765L264.133 73.6337C264.182 73.9277 264.412 74.1582 264.706 74.208L273.08 75.6259C274.65 79.3968 276.809 82.8203 279.425 85.8052L277.003 93.9515C276.918 94.237 277.023 94.545 277.266 94.7185L285.556 100.651C285.798 100.824 286.124 100.825 286.367 100.652L293.295 95.7297C296.965 97.2424 300.902 98.1807 304.978 98.4491L309.023 105.917C309.165 106.179 309.457 106.322 309.751 106.274L319.808 104.606C320.102 104.557 320.333 104.327 320.382 104.034L321.8 95.6593C325.571 94.0896 328.995 91.9306 331.979 89.3146L340.126 91.7367C340.412 91.8217 340.72 91.7159 340.893 91.4737L346.825 83.1829Z" fill="#2A8E9E" fill-opacity="0.3"/>
<path d="M306.608 71.4942C300.977 71.0259 296.777 66.0645 297.245 60.4331C297.472 57.7054 298.747 55.2291 300.836 53.4609C302.925 51.6927 305.578 50.843 308.306 51.0705C313.937 51.5388 318.137 56.5002 317.669 62.1315C317.243 67.2544 313.098 71.193 308.113 71.5094C307.619 71.5406 307.116 71.5362 306.608 71.4942ZM302.381 55.2856C300.779 56.6416 299.801 58.5399 299.627 60.6316C299.269 64.9485 302.489 68.7534 306.806 69.1121C311.124 69.4726 314.928 66.2504 315.287 61.933C315.645 57.6162 312.425 53.8113 308.108 53.4525C307.716 53.4201 307.328 53.4167 306.943 53.4412C305.271 53.5471 303.683 54.1837 302.381 55.2856Z" fill="#919191"/>
<path d="M308.841 86.2932C309.697 86.2389 310.556 86.1411 311.414 85.999C311.684 85.9543 311.953 85.905 312.222 85.8518C313.546 85.5882 314.846 85.2197 316.104 84.7522C316.121 84.7458 316.139 84.7394 316.156 84.7332C316.204 84.715 316.253 84.6966 316.301 84.6778C316.396 84.642 316.49 84.605 316.584 84.5681C316.831 84.4705 316.976 84.2268 316.961 83.9752C316.957 83.914 316.943 83.8523 316.92 83.7925C316.798 83.4855 316.451 83.3363 316.144 83.457C314.565 84.0817 312.908 84.5402 311.218 84.8198C302.828 86.2126 294.717 83.0503 289.416 77.1483C286.467 73.8659 284.387 69.7354 283.614 65.0689C283.478 64.2506 283.384 63.4315 283.333 62.6147C282.985 57.1189 284.524 51.7153 287.772 47.1765C291.503 41.9626 297.04 38.5135 303.365 37.4647C316.426 35.3 328.804 44.1603 330.969 57.2157C331.103 58.0207 331.195 58.8294 331.246 59.6384C331.468 63.1442 330.92 66.6597 329.63 69.9304C329.597 70.0149 329.584 70.1023 329.589 70.1873C329.604 70.411 329.744 70.6178 329.966 70.7054C330.274 70.8256 330.621 70.6767 330.742 70.3685C332.096 66.9347 332.672 63.2437 332.439 59.5633C332.385 58.7141 332.288 57.8653 332.148 57.0204C329.875 43.3134 316.871 34.0131 303.169 36.2851C296.53 37.3861 290.716 41.0071 286.8 46.4808C283.39 51.2456 281.774 56.9184 282.14 62.688C282.194 63.5454 282.292 64.4052 282.434 65.264C283.536 71.9039 287.156 77.7174 292.63 81.6337C297.396 85.0437 303.07 86.6594 308.841 86.2932Z" fill="#919191"/>
<g opacity="0.3">
<path d="M419.137 101.748C419.535 101.722 419.886 101.439 419.978 101.03C420.151 100.266 420.303 99.4858 420.429 98.712C420.512 98.2092 420.171 97.7351 419.668 97.6523C419.164 97.5678 418.691 97.9112 418.608 98.4139C418.487 99.1513 418.343 99.8944 418.178 100.624C418.066 101.12 418.378 101.614 418.875 101.727C418.963 101.747 419.051 101.753 419.137 101.748Z" fill="#2A8E9E" fill-opacity="0.3"/>
<path d="M419.964 94.7108C419.455 94.6907 419.058 94.2626 419.077 93.7529C419.126 92.4675 419.11 91.1648 419.028 89.8814C419.011 89.6107 418.991 89.3392 418.968 89.0671C418.925 88.5596 419.302 88.1132 419.81 88.0701C420.291 88.0485 420.764 88.4042 420.807 88.9125C420.831 89.1971 420.852 89.4812 420.87 89.7645C420.956 91.11 420.973 92.4759 420.921 93.8238C420.903 94.3007 420.525 94.6796 420.058 94.7092C420.028 94.7112 419.996 94.7114 419.964 94.7108ZM418.289 84.4302C417.97 82.9037 417.553 81.3833 417.05 79.9117C416.886 79.4292 417.142 78.9055 417.625 78.7402C418.105 78.5769 418.632 78.8325 418.796 79.3151C419.324 80.8573 419.761 82.4513 420.096 84.0518C420.2 84.5508 419.88 85.0397 419.381 85.1446C419.338 85.1537 419.293 85.1592 419.249 85.1619C418.799 85.1906 418.384 84.8847 418.289 84.4302ZM415.261 75.58C414.578 74.1804 413.801 72.8093 412.949 71.5035C412.671 71.0769 412.791 70.5049 413.218 70.2268C413.646 69.9477 414.216 70.0677 414.495 70.4952C415.388 71.8642 416.204 73.3032 416.92 74.7704C417.143 75.2284 416.953 75.7814 416.495 76.0046C416.384 76.0586 416.266 76.0886 416.149 76.0961C415.787 76.1191 415.43 75.926 415.261 75.58ZM410.151 67.7443C409.144 66.553 408.054 65.4132 406.912 64.3587C406.538 64.0122 406.515 63.4286 406.861 63.0545C407.206 62.6814 407.79 62.6569 408.164 63.0025C409.363 64.1093 410.505 65.3036 411.561 66.5532C411.89 66.9422 411.84 67.525 411.451 67.8541C411.294 67.986 411.106 68.0575 410.915 68.0696C410.633 68.0874 410.347 67.9764 410.151 67.7443ZM403.282 61.3934C402.017 60.4832 400.684 59.6431 399.319 58.8954C398.872 58.6511 398.708 58.0899 398.953 57.6429C399.198 57.1957 399.758 57.031 400.206 57.2772C401.636 58.0604 403.034 58.9414 404.36 59.8949C404.774 60.1928 404.868 60.7693 404.571 61.1827C404.403 61.4164 404.146 61.5482 403.879 61.5652C403.674 61.5781 403.463 61.5229 403.282 61.3934ZM395.081 56.9025C393.633 56.328 392.137 55.8387 390.631 55.4486C390.138 55.3209 389.842 54.817 389.97 54.3239C390.098 53.8309 390.6 53.5354 391.095 53.662C392.673 54.0711 394.244 54.5846 395.762 55.1871C396.235 55.3756 396.467 55.9117 396.279 56.385C396.143 56.7277 395.824 56.9439 395.479 56.9659C395.347 56.9741 395.212 56.9547 395.081 56.9025ZM386.033 54.5547C384.494 54.3537 382.922 54.2465 381.359 54.2374C380.85 54.2336 380.439 53.8181 380.443 53.3087C380.445 52.7993 380.86 52.3964 381.371 52.3911C383.009 52.4018 384.658 52.5138 386.272 52.7248C386.777 52.7911 387.134 53.2542 387.068 53.7596C387.01 54.2039 386.644 54.5332 386.212 54.5607C386.153 54.5643 386.094 54.5628 386.033 54.5547ZM370.952 54.6488C370.832 54.1537 371.135 53.6548 371.63 53.5339C373.001 53.1994 374.413 52.9346 375.825 52.7466C376.039 52.7169 376.253 52.6906 376.467 52.6653C376.969 52.5918 377.431 52.9688 377.489 53.4762C377.548 53.9826 377.185 54.44 376.679 54.4992C376.478 54.5219 376.277 54.5473 376.073 54.5757C374.722 54.7552 373.374 55.0079 372.067 55.3265C372.013 55.3399 371.959 55.3478 371.906 55.3511C371.468 55.379 371.06 55.0898 370.952 54.6488Z" fill="#2A8E9E" fill-opacity="0.3"/>
</g>
<g opacity="0.3">
<path d="M383.062 132.059C381.456 132.141 379.831 132.124 378.232 132.011C377.724 131.975 377.34 131.534 377.376 131.025C377.412 130.516 377.857 130.139 378.362 130.17C379.887 130.278 381.437 130.293 382.97 130.216C383.479 130.19 383.912 130.582 383.938 131.091C383.963 131.596 383.577 132.027 383.075 132.059C383.071 132.059 383.066 132.059 383.062 132.059ZM386.8 130.773C386.714 130.271 387.051 129.793 387.553 129.707C389.064 129.447 390.574 129.093 392.042 128.654C392.528 128.51 393.045 128.785 393.19 129.275C393.336 129.763 393.059 130.276 392.571 130.423C391.032 130.883 389.45 131.254 387.866 131.526C387.833 131.532 387.8 131.536 387.767 131.538C387.303 131.567 386.881 131.243 386.8 130.773ZM373.439 131.375C371.86 131.066 370.287 130.657 368.762 130.16C368.278 130.003 368.013 129.481 368.171 128.997C368.328 128.512 368.847 128.249 369.334 128.405C370.788 128.879 372.288 129.269 373.795 129.565C374.295 129.663 374.621 130.148 374.523 130.647C374.44 131.068 374.084 131.365 373.676 131.391C373.599 131.396 373.519 131.391 373.439 131.375ZM395.894 128.281C395.689 127.815 395.902 127.27 396.369 127.066C397.772 126.45 399.152 125.742 400.469 124.961C400.908 124.701 401.474 124.846 401.734 125.283C401.994 125.722 401.849 126.288 401.411 126.548C400.029 127.368 398.582 128.111 397.11 128.756C397.008 128.8 396.902 128.825 396.798 128.832C396.422 128.855 396.054 128.646 395.894 128.281ZM364.271 128.387C362.816 127.708 361.387 126.933 360.024 126.083C359.592 125.813 359.46 125.244 359.729 124.811C359.999 124.379 360.568 124.246 361.001 124.517C362.301 125.328 363.663 126.067 365.051 126.714C365.513 126.929 365.713 127.478 365.497 127.941C365.35 128.257 365.045 128.451 364.719 128.471C364.57 128.481 364.416 128.454 364.271 128.387ZM356.085 123.286C354.833 122.276 353.63 121.181 352.512 120.032C352.156 119.667 352.164 119.084 352.529 118.728C352.894 118.373 353.478 118.38 353.834 118.746C354.901 119.841 356.048 120.885 357.244 121.849C357.64 122.168 357.703 122.749 357.383 123.146C357.214 123.356 356.972 123.472 356.722 123.488C356.5 123.502 356.272 123.436 356.085 123.286ZM349.356 116.37C348.381 115.09 347.476 113.738 346.667 112.353C346.41 111.913 346.558 111.348 346.998 111.091C347.438 110.833 348.003 110.983 348.26 111.421C349.032 112.742 349.894 114.031 350.825 115.251C351.133 115.657 351.055 116.236 350.649 116.545C350.499 116.66 350.325 116.721 350.15 116.732C349.852 116.751 349.551 116.625 349.356 116.37Z" fill="#2A8E9E" fill-opacity="0.3"/>
<path d="M404.941 123.998C405.118 123.986 405.294 123.924 405.446 123.807C406.071 123.324 406.684 122.82 407.269 122.309C407.653 121.974 407.693 121.391 407.358 121.007C407.023 120.625 406.441 120.584 406.056 120.918C405.498 121.405 404.913 121.886 404.317 122.347C403.913 122.659 403.84 123.239 404.151 123.641C404.346 123.893 404.645 124.016 404.941 123.998Z" fill="#2A8E9E" fill-opacity="0.3"/>
</g>
<path d="M407.39 106.601C407.506 106.439 407.506 106.221 407.391 106.059L404.097 101.423C405.109 98.9671 405.737 96.3327 405.917 93.6054L410.914 90.8986C411.089 90.8036 411.185 90.608 411.152 90.4112L410.036 83.6816C410.004 83.4849 409.85 83.3304 409.654 83.2973L404.05 82.3486C403 79.8252 401.555 77.5342 399.804 75.537L401.425 70.0858C401.482 69.8947 401.411 69.6887 401.249 69.5726L395.701 65.603C395.539 65.4871 395.321 65.4866 395.159 65.6021L390.522 68.8957C388.067 67.8836 385.432 67.2556 382.705 67.0761L379.998 62.0786C379.903 61.9033 379.708 61.8076 379.511 61.8402L372.781 62.9562C372.585 62.9888 372.43 63.1427 372.397 63.3392L371.448 68.9429C368.925 69.9932 366.634 71.4379 364.637 73.1887L359.186 71.5678C358.995 71.511 358.789 71.5816 358.673 71.7438L354.703 77.2917C354.587 77.4538 354.587 77.6716 354.702 77.8341L357.996 82.4706C356.984 84.9259 356.356 87.5605 356.176 90.2878L351.179 92.9946C351.004 93.0894 350.908 93.285 350.94 93.4819L352.056 100.212C352.089 100.408 352.243 100.562 352.439 100.596L358.043 101.545C359.093 104.068 360.538 106.359 362.289 108.356L360.668 113.807C360.611 113.998 360.682 114.205 360.844 114.321L366.392 118.29C366.554 118.406 366.772 118.406 366.934 118.291L371.571 114.997C374.026 116.009 376.661 116.637 379.388 116.817L382.095 121.814C382.19 121.99 382.386 122.085 382.582 122.053L389.312 120.937C389.509 120.904 389.663 120.75 389.696 120.554L390.645 114.95C393.168 113.9 395.459 112.455 397.456 110.704L402.908 112.325C403.099 112.382 403.305 112.311 403.421 112.149L407.39 106.601Z" fill="#2A8E9E" fill-opacity="0.3"/>
<path d="M380.469 98.9026C378.61 98.7487 376.923 97.8798 375.719 96.4563C374.514 95.0338 373.936 93.2268 374.091 91.3684C374.409 87.5332 377.784 84.6778 381.625 84.9903C385.461 85.3102 388.322 88.69 388.002 92.5243C387.848 94.3825 386.98 96.0692 385.557 97.2738C384.4 98.2529 382.989 98.8184 381.503 98.9126C381.162 98.9344 380.816 98.9311 380.469 98.9026ZM375.93 91.5208C375.816 92.8879 376.241 94.2171 377.128 95.2643C378.013 96.3107 379.254 96.9497 380.621 97.0635C381.988 97.1754 383.317 96.7515 384.364 95.8651C385.411 94.9798 386.049 93.7382 386.163 92.3719C386.398 89.5506 384.293 87.0646 381.472 86.8293C381.218 86.8086 380.966 86.8064 380.718 86.8221C378.22 86.9806 376.143 88.9546 375.93 91.5208Z" fill="#919191"/>
<path d="M382.024 109.202C382.606 109.165 383.192 109.099 383.78 109.002C384.947 108.808 386.096 108.496 387.198 108.072C387.247 108.053 387.296 108.033 387.346 108.014C387.727 107.863 387.952 107.487 387.928 107.098C387.922 107.004 387.901 106.909 387.864 106.816C387.677 106.342 387.141 106.113 386.667 106.298C385.643 106.704 384.57 107 383.479 107.18H383.478C383.419 107.19 383.358 107.2 383.299 107.209C380.713 107.612 378.124 107.356 375.723 106.497C374.42 106.031 373.171 105.386 372.009 104.57C372 104.563 371.991 104.557 371.981 104.55C371.952 104.529 371.923 104.51 371.895 104.489C368.52 102.073 366.287 98.4888 365.608 94.3943C365.52 93.8644 365.459 93.3347 365.426 92.8058C365.201 89.248 366.198 85.7498 368.3 82.8108C370.715 79.4357 374.3 77.2036 378.394 76.5246C382.486 75.8477 386.602 76.8019 389.978 79.2163C393.353 81.6314 395.586 85.2162 396.265 89.3106C396.351 89.8315 396.411 90.3552 396.444 90.8785C396.587 93.1486 396.233 95.424 395.398 97.5412C395.346 97.6717 395.327 97.8066 395.335 97.9381C395.357 98.2834 395.574 98.6029 395.917 98.7382C396.392 98.924 396.927 98.6932 397.115 98.218C398.049 95.8489 398.446 93.3026 398.286 90.7638C398.249 90.1775 398.182 89.592 398.086 89.0094C397.326 84.4282 394.828 80.4177 391.051 77.7156C387.275 75.0142 382.675 73.9409 378.092 74.7041C373.512 75.4634 369.501 77.961 366.799 81.7381C364.447 85.0253 363.332 88.939 363.584 92.9196C363.621 93.5105 363.689 94.104 363.787 94.6963C365.258 103.565 373.238 109.76 382.024 109.202Z" fill="#919191"/>
<defs>
<linearGradient id="paint0_linear_251_6430" x1="89.6641" y1="212.608" x2="121.604" y2="212.608" gradientUnits="userSpaceOnUse">
<stop stop-color="#DAE3FE"/>
<stop offset="1" stop-color="#E9EFFD"/>
</linearGradient>
<linearGradient id="paint1_linear_251_6430" x1="54.1445" y1="212.604" x2="86.0185" y2="212.604" gradientUnits="userSpaceOnUse">
<stop stop-color="#DAE3FE"/>
<stop offset="1" stop-color="#E9EFFD"/>
</linearGradient>
<linearGradient id="paint2_linear_251_6430" x1="18.6606" y1="212.601" x2="50.4683" y2="212.601" gradientUnits="userSpaceOnUse">
<stop stop-color="#DAE3FE"/>
<stop offset="1" stop-color="#E9EFFD"/>
</linearGradient>
<linearGradient id="paint3_linear_251_6430" x1="89.268" y1="235.846" x2="121.152" y2="235.846" gradientUnits="userSpaceOnUse">
<stop stop-color="#DAE3FE"/>
<stop offset="1" stop-color="#E9EFFD"/>
</linearGradient>
<linearGradient id="paint4_linear_251_6430" x1="53.8103" y1="235.831" x2="85.6284" y2="235.831" gradientUnits="userSpaceOnUse">
<stop stop-color="#DAE3FE"/>
<stop offset="1" stop-color="#E9EFFD"/>
</linearGradient>
<linearGradient id="paint5_linear_251_6430" x1="18.3882" y1="235.817" x2="50.1401" y2="235.817" gradientUnits="userSpaceOnUse">
<stop stop-color="#DAE3FE"/>
<stop offset="1" stop-color="#E9EFFD"/>
</linearGradient>
<linearGradient id="paint6_linear_251_6430" x1="88.8736" y1="258.883" x2="120.702" y2="258.883" gradientUnits="userSpaceOnUse">
<stop stop-color="#DAE3FE"/>
<stop offset="1" stop-color="#E9EFFD"/>
</linearGradient>
<linearGradient id="paint7_linear_251_6430" x1="53.4775" y1="258.857" x2="85.2398" y2="258.857" gradientUnits="userSpaceOnUse">
<stop stop-color="#DAE3FE"/>
<stop offset="1" stop-color="#E9EFFD"/>
</linearGradient>
<linearGradient id="paint8_linear_251_6430" x1="18.1169" y1="258.83" x2="49.8133" y2="258.83" gradientUnits="userSpaceOnUse">
<stop stop-color="#DAE3FE"/>
<stop offset="1" stop-color="#E9EFFD"/>
</linearGradient>
<linearGradient id="paint9_linear_251_6430" x1="88.4802" y1="281.84" x2="120.253" y2="281.84" gradientUnits="userSpaceOnUse">
<stop stop-color="#DAE3FE"/>
<stop offset="1" stop-color="#E9EFFD"/>
</linearGradient>
<linearGradient id="paint10_linear_251_6430" x1="53.1455" y1="281.802" x2="84.8524" y2="281.802" gradientUnits="userSpaceOnUse">
<stop stop-color="#DAE3FE"/>
<stop offset="1" stop-color="#E9EFFD"/>
</linearGradient>
<linearGradient id="paint11_linear_251_6430" x1="17.8464" y1="281.764" x2="49.4876" y2="281.764" gradientUnits="userSpaceOnUse">
<stop stop-color="#DAE3FE"/>
<stop offset="1" stop-color="#E9EFFD"/>
</linearGradient>
<linearGradient id="paint12_linear_251_6430" x1="88.0882" y1="304.717" x2="119.805" y2="304.717" gradientUnits="userSpaceOnUse">
<stop stop-color="#DAE3FE"/>
<stop offset="1" stop-color="#E9EFFD"/>
</linearGradient>
<linearGradient id="paint13_linear_251_6430" x1="52.815" y1="304.668" x2="84.4664" y2="304.668" gradientUnits="userSpaceOnUse">
<stop stop-color="#DAE3FE"/>
<stop offset="1" stop-color="#E9EFFD"/>
</linearGradient>
<linearGradient id="paint14_linear_251_6430" x1="17.5766" y1="304.619" x2="49.1628" y2="304.619" gradientUnits="userSpaceOnUse">
<stop stop-color="#DAE3FE"/>
<stop offset="1" stop-color="#E9EFFD"/>
</linearGradient>
<linearGradient id="paint15_linear_251_6430" x1="87.6977" y1="327.516" x2="119.359" y2="327.516" gradientUnits="userSpaceOnUse">
<stop stop-color="#DAE3FE"/>
<stop offset="1" stop-color="#E9EFFD"/>
</linearGradient>
<linearGradient id="paint16_linear_251_6430" x1="52.4854" y1="327.455" x2="84.0818" y2="327.455" gradientUnits="userSpaceOnUse">
<stop stop-color="#DAE3FE"/>
<stop offset="1" stop-color="#E9EFFD"/>
</linearGradient>
<linearGradient id="paint17_linear_251_6430" x1="17.3081" y1="327.395" x2="48.8393" y2="327.395" gradientUnits="userSpaceOnUse">
<stop stop-color="#DAE3FE"/>
<stop offset="1" stop-color="#E9EFFD"/>
</linearGradient>
<linearGradient id="paint18_linear_251_6430" x1="87.3084" y1="350.236" x2="118.915" y2="350.236" gradientUnits="userSpaceOnUse">
<stop stop-color="#DAE3FE"/>
<stop offset="1" stop-color="#E9EFFD"/>
</linearGradient>
<linearGradient id="paint19_linear_251_6430" x1="52.157" y1="350.164" x2="83.6985" y2="350.164" gradientUnits="userSpaceOnUse">
<stop stop-color="#DAE3FE"/>
<stop offset="1" stop-color="#E9EFFD"/>
</linearGradient>
<linearGradient id="paint20_linear_251_6430" x1="17.0403" y1="350.093" x2="48.5169" y2="350.093" gradientUnits="userSpaceOnUse">
<stop stop-color="#DAE3FE"/>
<stop offset="1" stop-color="#E9EFFD"/>
</linearGradient>
<linearGradient id="paint21_linear_251_6430" x1="86.9206" y1="372.878" x2="118.472" y2="372.878" gradientUnits="userSpaceOnUse">
<stop stop-color="#DAE3FE"/>
<stop offset="1" stop-color="#E9EFFD"/>
</linearGradient>
<linearGradient id="paint22_linear_251_6430" x1="51.8295" y1="372.795" x2="83.3163" y2="372.795" gradientUnits="userSpaceOnUse">
<stop stop-color="#DAE3FE"/>
<stop offset="1" stop-color="#E9EFFD"/>
</linearGradient>
<linearGradient id="paint23_linear_251_6430" x1="51.5034" y1="395.348" x2="82.9357" y2="395.348" gradientUnits="userSpaceOnUse">
<stop stop-color="#DAE3FE"/>
<stop offset="1" stop-color="#E9EFFD"/>
</linearGradient>
<linearGradient id="paint24_linear_251_6430" x1="16.5075" y1="395.254" x2="47.8753" y2="395.254" gradientUnits="userSpaceOnUse">
<stop stop-color="#DAE3FE"/>
<stop offset="1" stop-color="#E9EFFD"/>
</linearGradient>
<linearGradient id="paint25_linear_251_6430" x1="286.935" y1="147.697" x2="175.944" y2="916.974" gradientUnits="userSpaceOnUse">
<stop stop-color="#FEBBBA"/>
<stop offset="1" stop-color="#FF928E"/>
</linearGradient>
<linearGradient id="paint26_linear_251_6430" x1="284.023" y1="147.277" x2="173.033" y2="916.554" gradientUnits="userSpaceOnUse">
<stop stop-color="#FEBBBA"/>
<stop offset="1" stop-color="#FF928E"/>
</linearGradient>
<linearGradient id="paint27_linear_251_6430" x1="290.36" y1="235.186" x2="453.067" y2="-88.314" gradientUnits="userSpaceOnUse">
<stop stop-color="#FE7062"/>
<stop offset="1" stop-color="#FF928E"/>
</linearGradient>
<linearGradient id="paint28_linear_251_6430" x1="76.2599" y1="392.054" x2="72.822" y2="422.058" gradientUnits="userSpaceOnUse">
<stop stop-color="#FEBBBA"/>
<stop offset="1" stop-color="#FF928E"/>
</linearGradient>
<linearGradient id="paint29_linear_251_6430" x1="103.795" y1="395.223" x2="102.252" y2="425.384" gradientUnits="userSpaceOnUse">
<stop stop-color="#FEBBBA"/>
<stop offset="1" stop-color="#FF928E"/>
</linearGradient>
<linearGradient id="paint30_linear_251_6430" x1="89.9751" y1="217.179" x2="97.9597" y2="195.375" gradientUnits="userSpaceOnUse">
<stop stop-color="#FEBBBA"/>
<stop offset="1" stop-color="#FF928E"/>
</linearGradient>
<linearGradient id="paint31_linear_251_6430" x1="109.601" y1="184.472" x2="62.0266" y2="222.363" gradientUnits="userSpaceOnUse">
<stop stop-color="#FEBBBA"/>
<stop offset="1" stop-color="#FF928E"/>
</linearGradient>
<linearGradient id="paint32_linear_251_6430" x1="104.812" y1="182.396" x2="81.3994" y2="200.31" gradientUnits="userSpaceOnUse">
<stop stop-color="#FEBBBA"/>
<stop offset="1" stop-color="#FF928E"/>
</linearGradient>
<linearGradient id="paint33_linear_251_6430" x1="160.225" y1="194.231" x2="110.654" y2="237.052" gradientUnits="userSpaceOnUse">
<stop stop-color="#FEBBBA"/>
<stop offset="1" stop-color="#FF928E"/>
</linearGradient>
<linearGradient id="paint34_linear_251_6430" x1="161.259" y1="198.223" x2="113.005" y2="239.905" gradientUnits="userSpaceOnUse">
<stop stop-color="#FEBBBA"/>
<stop offset="1" stop-color="#FF928E"/>
</linearGradient>
<linearGradient id="paint35_linear_251_6430" x1="162.06" y1="196.356" x2="112.489" y2="239.176" gradientUnits="userSpaceOnUse">
<stop stop-color="#FEBBBA"/>
<stop offset="1" stop-color="#FF928E"/>
</linearGradient>
<linearGradient id="paint36_linear_251_6430" x1="99.4877" y1="108.802" x2="224.85" y2="274.28" gradientUnits="userSpaceOnUse">
<stop stop-color="#E1473D"/>
<stop offset="1" stop-color="#E9605A"/>
</linearGradient>
<linearGradient id="paint37_linear_251_6430" x1="233.57" y1="138.087" x2="210.28" y2="252.311" gradientUnits="userSpaceOnUse">
<stop stop-color="#FE7062"/>
<stop offset="1" stop-color="#FF928E"/>
</linearGradient>
<linearGradient id="paint38_linear_251_6430" x1="113.138" y1="192.127" x2="309.72" y2="206.825" gradientUnits="userSpaceOnUse">
<stop stop-color="#FF9085"/>
<stop offset="1" stop-color="#FB6FBB"/>
</linearGradient>
<linearGradient id="paint39_linear_251_6430" x1="202.538" y1="184.664" x2="250.088" y2="63.7656" gradientUnits="userSpaceOnUse">
<stop stop-color="#FE7062"/>
<stop offset="1" stop-color="#FF928E"/>
</linearGradient>
<linearGradient id="paint40_linear_251_6430" x1="228.73" y1="56.0383" x2="220.637" y2="71.7197" gradientUnits="userSpaceOnUse">
<stop stop-color="#FE7062"/>
<stop offset="1" stop-color="#FF928E"/>
</linearGradient>
<linearGradient id="paint41_linear_251_6430" x1="130.655" y1="231.488" x2="107.08" y2="349.089" gradientUnits="userSpaceOnUse">
<stop stop-color="#FEBBBA"/>
<stop offset="1" stop-color="#FF928E"/>
</linearGradient>
</defs>
</svg>
