<svg width="982" height="654" viewBox="0 0 982 654" fill="none" xmlns="http://www.w3.org/2000/svg">
<mask id="mask0_1057_10770" style="mask-type:luminance" maskUnits="userSpaceOnUse" x="76" y="26" width="830" height="602">
<path d="M904.981 451.931C887.596 645.576 717.156 656.83 540.183 591.283C476.622 567.747 386.532 566.212 290.229 605.218C202.153 640.907 63.9197 601.734 77.4307 521.607C97.9676 399.817 179.098 433.647 124.616 313.078C84.8919 225.167 106.168 100.203 227.005 127.628C317.63 148.198 356.385 107.778 370.095 86.2829C379.59 71.3955 392.163 58.3855 407.355 48.5301C522.056 -25.8683 584.053 116.065 647.375 81.2546C766.614 15.7088 886.513 82.4622 825.503 189.434C774.653 278.6 914.931 341.088 904.981 451.931Z" fill="white"/>
</mask>
<g mask="url(#mask0_1057_10770)">
<path d="M904.981 451.931C887.596 645.576 717.156 656.83 540.183 591.283C476.622 567.747 386.532 566.212 290.229 605.218C202.153 640.907 63.9197 601.734 77.4307 521.607C97.9676 399.817 179.098 433.647 124.616 313.078C84.8919 225.167 106.168 100.203 227.005 127.628C317.63 148.198 356.385 107.778 370.095 86.2829C379.59 71.3955 392.163 58.3855 407.355 48.5301C522.056 -25.8683 584.053 116.065 647.375 81.2546C766.614 15.7088 886.513 82.4622 825.503 189.434C774.653 278.6 914.931 341.088 904.981 451.931Z" fill="#2A8E9E" fill-opacity="0.3"/>
</g>
<mask id="mask1_1057_10770" style="mask-type:luminance" maskUnits="userSpaceOnUse" x="76" y="26" width="830" height="602">
<path d="M904.981 451.931C887.596 645.576 717.156 656.83 540.183 591.283C476.622 567.747 386.532 566.212 290.229 605.218C202.153 640.907 63.9197 601.734 77.4307 521.607C97.9676 399.817 179.098 433.647 124.616 313.078C84.8919 225.167 106.168 100.203 227.005 127.628C317.63 148.198 356.385 107.778 370.095 86.2829C379.59 71.3955 392.163 58.3855 407.355 48.5301C522.056 -25.8683 584.053 116.065 647.375 81.2546C766.614 15.7088 886.513 82.4622 825.503 189.434C774.653 278.6 914.931 341.088 904.981 451.931Z" fill="white"/>
</mask>
<g mask="url(#mask1_1057_10770)">
<path d="M424.75 403.993V404.001C419.443 426.062 407.687 444.317 391.232 459.034C361.649 485.46 380.39 594.337 375.146 623.591C328.646 631.963 277.949 644.529 210.844 633.357C214.498 572.905 240.111 407.905 231.919 376.145C239.065 373.084 400.452 303.933 408.489 300.49C412.544 307.678 418.703 322.308 422.571 337.021C428.319 358.666 430.065 381.967 424.75 403.993Z" fill="#FDBAA0"/>
<path d="M244.396 447.26C263.644 468.908 279.684 353.905 274.696 326.64C271.32 308.19 271.967 289.755 272.768 277.927C274.277 255.634 271.856 235.415 255.316 231.951C248.551 230.534 245.831 232.102 244.404 237.22C243.211 241.488 242.918 248.225 241.932 257.756C241.204 264.735 240.107 273.213 238.007 283.317C229.603 323.769 215.169 414.388 244.396 447.26Z" fill="#FDBAA0"/>
<path d="M376.123 609.802C376.534 571.863 366.609 493.237 386.681 464.251C386.057 464.52 346.203 481.841 348.722 508.553C351.259 535.471 362.151 558.026 356.439 577.863C351.215 595.995 361.993 611.888 376.123 609.802Z" fill="#FFD1C3"/>
<path d="M390.537 554.626C389.925 535.013 385.226 530.479 374.039 532.875C368.92 533.971 362.441 536.52 354.372 539.736C348.664 542.015 342.165 544.625 334.785 547.292C300.884 559.551 249.395 522.002 223.114 517.946C217.933 517.145 213.727 517.651 210.835 520.095C193.264 534.936 213.311 561.891 201.088 594.846C196.491 607.238 192.489 618.911 190.135 629.252C197.213 630.88 204.112 632.237 210.843 633.357C277.948 644.529 328.646 631.963 375.145 623.591C383.753 622.039 392.218 620.633 400.614 619.55C397.2 605.945 391.304 579.261 390.537 554.626Z" fill="#FF8F65"/>
<path d="M256.118 521.281C259.549 522.657 262.979 524.034 266.41 525.41C268.572 526.278 269.512 522.78 267.372 521.921C263.942 520.545 260.511 519.169 257.081 517.792C254.919 516.924 253.979 520.422 256.118 521.281Z" fill="#FF8F65"/>
<path d="M387.254 460.518C374.767 468.867 359.544 472.303 344.678 470.04C343.538 469.866 343.047 471.609 344.197 471.784C359.545 474.121 375.251 470.716 388.168 462.08C389.132 461.435 388.226 459.867 387.254 460.518Z" fill="#E79780"/>
<path d="M235.247 428.747C248.735 443.406 265.439 454.707 284.024 461.884C285.111 462.304 285.582 460.555 284.505 460.14C266.215 453.077 249.796 441.889 236.528 427.468C235.737 426.609 234.459 427.891 235.247 428.747Z" fill="#E79780"/>
<path d="M287.163 444.345L422.554 439.22C428.31 439.002 432.798 434.162 432.576 428.412L423.531 194.016C423.31 188.271 418.47 183.793 412.72 184.011L277.329 189.136C271.573 189.353 267.085 194.193 267.307 199.943L276.352 434.34C276.574 440.084 281.413 444.563 287.163 444.345Z" fill="#0D5370"/>
<path d="M286.933 425.729L421.358 420.64C423.58 420.556 425.314 418.687 425.228 416.467L416.645 194.042C416.559 191.824 414.69 190.095 412.47 190.179L278.045 195.267C275.822 195.351 274.089 197.22 274.175 199.441L282.758 421.865C282.843 424.083 284.712 425.813 286.933 425.729Z" fill="#2A8E9E"/>
<path d="M264.564 444.577C264.465 444.577 264.364 444.555 264.269 444.51C241.993 433.302 232.712 409.521 232.622 409.283C232.492 408.946 232.662 408.564 233.002 408.434C233.332 408.313 233.719 408.479 233.849 408.816C233.939 409.05 243.049 432.363 264.858 443.333C265.184 443.499 265.314 443.894 265.15 444.218C265.036 444.447 264.804 444.577 264.564 444.577Z" fill="#FDBAA0"/>
<g opacity="0.7">
<path d="M173.55 247.168C174.716 247.168 174.717 245.359 173.55 245.359C172.385 245.359 172.383 247.168 173.55 247.168Z" fill="#F9FEFF"/>
</g>
<path d="M350.372 430.267C352.339 430.284 354.307 430.302 356.275 430.319C357.174 430.327 358.098 430.267 358.991 430.353C360.376 430.487 363.88 431.077 359.348 433.528C357.921 434.299 355.138 433.942 353.562 433.906C352.629 433.884 351.691 433.858 350.761 433.789C350.26 433.74 349.759 433.691 349.258 433.642C348.859 431.149 349.536 430.043 351.288 430.325C352.45 430.288 352.456 428.479 351.288 428.516C348.788 428.596 343.95 430.087 346.064 433.63C346.881 434.999 348.43 435.349 349.884 435.541C352.681 435.911 355.799 435.9 358.587 435.491C361.049 435.13 365.011 432.857 362.677 429.903C361.881 428.896 360.548 428.673 359.347 428.557C356.402 428.274 353.33 428.484 350.372 428.458C349.206 428.447 349.205 430.256 350.372 430.267Z" fill="#2A8E9E"/>
<path d="M437.07 260.643C435.698 260.444 434.427 260.955 433.645 262.119C432.995 263.089 434.562 263.995 435.209 263.032C435.494 262.607 436.068 262.312 436.589 262.388C437.072 262.458 437.561 262.268 437.703 261.756C437.819 261.33 437.557 260.714 437.07 260.643Z" fill="#F2F9FA"/>
<path d="M380.235 387.376L327.608 390.209C317.751 390.74 309.329 383.188 308.798 373.34L308.655 370.695C308.124 360.847 315.684 352.434 325.541 351.904L378.168 349.07C388.025 348.539 396.447 356.091 396.978 365.939L397.121 368.584C397.652 378.431 390.092 386.845 380.235 387.376Z" fill="#0D5370"/>
<path d="M329.885 363.695C329.827 362.913 330.414 362.231 331.197 362.173L336.28 361.794C340.076 361.511 342.54 363.588 342.785 366.881C343.06 370.559 340.338 372.68 336.769 372.946L335.528 373.038C334.745 373.097 334.157 373.778 334.216 374.561L334.36 376.496C334.418 377.278 333.831 377.96 333.048 378.018L332.384 378.068C331.6 378.126 330.918 377.539 330.86 376.756L329.885 363.695ZM336.651 369.827C338.401 369.697 339.346 368.576 339.241 367.168C339.124 365.601 337.971 364.842 336.22 364.972L334.934 365.068C334.15 365.126 333.563 365.808 333.621 366.591L333.772 368.616C333.831 369.399 334.513 369.986 335.296 369.928L336.651 369.827Z" fill="#F9FEFF"/>
<path d="M349.757 360.676L351.109 360.576C351.678 360.533 352.217 360.834 352.479 361.341L359.074 374.097C359.542 375.002 358.933 376.09 357.916 376.166L357.355 376.208C356.778 376.251 356.233 375.941 355.976 375.424L355.106 373.678C354.849 373.16 354.304 372.85 353.727 372.893L348.906 373.253C348.329 373.295 347.836 373.683 347.658 374.233L347.058 376.088C346.88 376.638 346.387 377.025 345.81 377.068L345.34 377.103C344.323 377.179 343.559 376.193 343.888 375.229L348.517 361.636C348.7 361.097 349.189 360.719 349.757 360.676ZM352.298 368.023L351.332 366.091C351.1 365.629 350.425 365.679 350.265 366.171L349.584 368.263C349.292 369.16 350.003 370.065 350.944 369.995L351.187 369.977C352.147 369.906 352.728 368.884 352.298 368.023Z" fill="#F9FEFF"/>
<path d="M363.778 369.078L358.736 362.31C358.067 361.411 358.653 360.128 359.772 360.045L360.476 359.992C360.977 359.955 361.46 360.184 361.747 360.595L364.196 364.089C364.811 364.968 366.143 364.874 366.629 363.917L368.581 360.076C368.806 359.633 369.247 359.339 369.744 359.302L370.332 359.259C371.453 359.175 372.223 360.361 371.69 361.349L367.718 368.715C367.589 368.954 367.531 369.224 367.551 369.495L367.888 373.999C367.946 374.782 367.358 375.463 366.575 375.522L365.911 375.571C365.128 375.629 364.445 375.042 364.387 374.26L364.056 369.821C364.036 369.552 363.939 369.294 363.778 369.078Z" fill="#F9FEFF"/>
<path d="M317.413 360.71C318.224 359.412 319.4 358.414 320.87 357.939C321.963 357.585 321.644 355.803 320.537 356.161C318.605 356.786 317.002 357.955 315.92 359.687C315.304 360.674 316.794 361.699 317.413 360.71Z" fill="#2A8E9E"/>
<path d="M324.713 356.869C325.425 356.736 326.137 356.603 326.848 356.47C327.993 356.256 327.662 354.478 326.516 354.693C325.804 354.826 325.092 354.959 324.381 355.092C323.236 355.305 323.567 357.083 324.713 356.869Z" fill="#2A8E9E"/>
<path d="M362.315 385.573C363.97 385.406 365.625 385.239 367.28 385.072C368.439 384.955 368.1 383.178 366.948 383.294C365.293 383.461 363.637 383.629 361.982 383.796C360.823 383.913 361.162 385.69 362.315 385.573Z" fill="#2A8E9E"/>
<path d="M370.381 384.707C371.066 384.779 371.765 384.733 372.433 384.563C372.907 384.443 373.25 384.011 373.156 383.508C373.071 383.051 372.577 382.665 372.1 382.786C371.574 382.92 371.073 382.961 370.533 382.905C369.372 382.784 369.223 384.586 370.381 384.707Z" fill="#2A8E9E"/>
<path d="M374.222 311.134C389.102 296.27 389.102 272.169 374.222 257.304C359.342 242.439 335.217 242.439 320.337 257.304C305.457 272.169 305.457 296.27 320.337 311.134C335.217 325.999 359.342 325.999 374.222 311.134Z" fill="#0D5370"/>
<path d="M323.679 286.49C328.242 294.033 334.115 300.815 341.027 306.299C342.219 307.244 343.335 307.77 344.887 307.561C346.285 307.374 347.531 306.622 348.245 305.37C354.035 295.204 360.378 285.356 366.418 275.338C367.945 272.805 369.46 270.263 370.924 267.693C372.113 265.605 371.487 262.58 369.275 261.412C367.094 260.261 364.258 260.83 362.988 263.059C357.197 273.225 350.854 283.073 344.814 293.091C343.287 295.624 341.773 298.165 340.309 300.736C342.715 300.426 345.12 300.116 347.526 299.807C344.265 297.219 341.228 294.358 338.469 291.241C337.807 290.493 337.161 289.731 336.532 288.956C336.252 288.611 335.951 288.06 335.6 287.783C336.287 288.326 335.841 288.092 335.611 287.786C335.445 287.565 335.28 287.342 335.116 287.118C333.87 285.417 332.706 283.659 331.614 281.856C330.371 279.801 327.434 278.851 325.327 280.209C323.261 281.54 322.348 284.29 323.679 286.49Z" fill="#F2F9FA"/>
</g>
<mask id="mask2_1057_10770" style="mask-type:luminance" maskUnits="userSpaceOnUse" x="76" y="26" width="830" height="602">
<path d="M904.981 451.931C887.596 645.576 717.156 656.83 540.183 591.283C476.622 567.747 386.532 566.212 290.229 605.218C202.153 640.907 63.9197 601.734 77.4307 521.607C97.9676 399.817 179.098 433.647 124.616 313.078C84.8919 225.167 106.168 100.203 227.005 127.628C317.63 148.198 356.385 107.778 370.095 86.2829C379.59 71.3955 392.163 58.3855 407.355 48.5301C522.056 -25.8683 584.053 116.065 647.375 81.2546C766.614 15.7088 886.513 82.4622 825.503 189.434C774.653 278.6 914.931 341.088 904.981 451.931Z" fill="white"/>
</mask>
<g mask="url(#mask2_1057_10770)">
<path d="M656.353 40.6025L751.005 117.983C735.514 193.7 730.352 219.309 730.306 219.363C728.136 223.158 716.838 241.417 714.825 250.204C698.357 248.172 689.523 247.08 682.522 246.223C682.438 246.254 570.667 288.576 570.609 288.529C573.852 283.032 639.703 182.823 645.474 144.372C645.474 144.372 645.47 144.369 645.473 144.366C645.689 142.985 645.533 143.455 645.741 143.201C647.969 140.48 650.776 97.0035 653.537 44.0403L656.353 40.6025Z" fill="#FDBAA0"/>
<path d="M590 264.675C591.163 265.738 607.25 293.718 610.014 289.215C620.799 271.642 642.892 260.105 652.955 262.312C672.233 266.541 672.415 287.659 672.308 289.985L701.073 224.776C698.463 210.695 675.569 136.169 671.116 137.826C652.852 144.623 587.033 261.962 590 264.675Z" fill="#FDBAA0"/>
<path d="M668.945 207.8C668.945 207.8 578.375 276.021 570.612 288.528C562.849 301.036 579.549 339.175 586.097 350.575C592.644 361.975 630.116 375.733 638.473 372.782C648.726 369.162 634.238 350.645 619.939 340.743C606.802 331.647 605.452 312.27 603.296 306.224C601.849 302.166 611.255 284.132 621.097 276C639.954 260.421 670.062 277.274 670.062 277.274L668.945 207.8Z" fill="#FDBAA0"/>
<path d="M604.824 226.597C604.824 226.597 552.886 282.185 551.226 302.216C549.567 322.247 551.106 344.193 561.742 353.569C572.377 362.945 599.633 377.517 603.286 375.629C606.94 373.74 600.775 354.946 591.423 344.196C582.07 333.445 584.992 294.649 584.992 294.649L612.872 243.385L604.824 226.597Z" fill="#FDBAA0"/>
<path d="M651.179 124.077C651.179 124.077 642.469 165.695 621.701 190.6C592.832 225.218 555.25 260.91 551.967 267.65C546.324 279.238 539.067 313.149 540.948 321.029C542.829 328.91 547.353 355.03 551.059 359.341C554.766 363.653 566.839 342.648 570.232 320.501C573.625 298.353 583.811 272.257 583.811 272.257L666.413 209.714L651.179 124.077Z" fill="#FDBAA0"/>
<path d="M622.198 -5.30456C620.039 36.9729 621.76 164.576 633.506 164.935C634.333 164.951 635.22 164.76 636.106 164.414C653.554 157.362 676.974 153.248 692.793 157.779C693.478 157.932 694.894 158.388 694.907 158.399C705.107 161.261 719.226 167.451 719.449 167.63C724.441 170.013 739.028 175.925 739.174 175.908C743.919 177.486 750.905 179.595 755.595 177.847C761.167 175.102 822.251 18.3892 827.314 -4.49032L755.533 -102.63L622.198 -5.30456Z" fill="#FF8F65"/>
<path d="M605.02 363.323C605.196 364.442 604.036 365.294 603.018 364.796C596.276 361.499 587.901 356.572 584.863 351.282C578.627 340.425 563.74 306.839 567.932 291.294C568.238 290.157 569.724 289.878 570.419 290.828L570.436 290.853C570.688 291.197 570.768 291.636 570.655 292.048C566.904 305.678 580.577 338.112 587.329 349.869C589.455 353.57 595.675 358.069 604.242 362.252C604.655 362.454 604.944 362.841 605.016 363.294C605.017 363.304 605.019 363.314 605.02 363.323Z" fill="#E5967E"/>
<path d="M633.732 270.326C633.732 270.326 640.508 267.858 650.594 270.36C664.816 273.889 667.547 276.004 667.547 276.004L647.969 258.697L633.732 270.326Z" fill="#FDBAA0"/>
<path d="M719.291 328.685L705.934 360.746L702.023 370.135L648.132 499.515C645.331 506.239 637.609 509.42 630.879 506.622L541.496 469.466C534.769 466.671 531.581 458.955 534.381 452.231L558.165 395.129L565.799 376.796L605.54 281.401C608.34 274.677 616.066 271.498 622.793 274.294L712.176 311.45C718.907 314.247 722.089 321.965 719.291 328.685Z" fill="#FF8F65"/>
<g opacity="0.45">
<path d="M719.29 328.685L705.934 360.746C664.897 368.941 594.736 374.518 565.799 376.796L605.539 281.4C608.34 274.676 616.066 271.497 622.793 274.293L712.175 311.449C718.906 314.247 722.088 321.965 719.29 328.685Z" fill="#FFB39B"/>
</g>
<path d="M591.883 436.42L580.197 464.474C579.33 466.555 576.939 467.539 574.857 466.674L550.126 456.393C548.043 455.527 547.057 453.139 547.924 451.058L559.609 423.004C560.476 420.924 562.867 419.939 564.95 420.805L589.681 431.086C591.763 431.951 592.749 434.34 591.883 436.42Z" fill="#FFB39B"/>
<path d="M662.921 291.307L581.619 486.491L604.497 496.002L685.799 300.818L662.921 291.307Z" fill="#1D1F20"/>
<path d="M623.316 488.075C627.119 478.326 631.216 468.697 635.603 459.196C636.407 457.454 633.739 456.106 632.932 457.855C628.545 467.356 624.448 476.986 620.645 486.734C619.952 488.509 622.617 489.868 623.316 488.075Z" fill="#1D1F20"/>
<path d="M641.65 445.401C646.022 434.832 650.293 424.223 654.465 413.574C655.16 411.799 652.496 410.441 651.794 412.233C647.622 422.882 643.35 433.492 638.979 444.061C638.249 445.826 640.914 447.181 641.65 445.401Z" fill="#1D1F20"/>
<path d="M631.674 491.551C638.108 476.012 645.046 460.688 652.48 445.601C653.329 443.878 650.66 442.533 649.809 444.26C642.375 459.347 635.437 474.671 629.003 490.21C628.272 491.976 630.937 493.331 631.674 491.551Z" fill="#1D1F20"/>
<path d="M561.025 461.377C561.868 458.822 562.712 456.268 563.556 453.713C564.126 451.984 565.175 450.017 564.175 448.259C563.272 446.673 561.204 445.993 559.635 445.32C557.169 444.263 554.651 443.343 552.101 442.509C550.675 442.043 550.226 444.339 551.644 444.802C553.608 445.444 555.548 446.149 557.459 446.935C558.87 447.516 561.704 448.178 562.072 449.803C562.427 451.369 561.123 453.671 560.628 455.172C559.995 457.088 559.362 459.004 558.729 460.92C558.26 462.344 560.558 462.792 561.025 461.377Z" fill="#FF8F65"/>
<path d="M552.828 438.266C555.82 439.62 558.813 440.974 561.805 442.328C563.301 443.006 564.797 443.682 566.293 444.36C567.797 445.04 570.423 445.68 571.121 447.152C571.839 448.667 570.721 450.624 570.133 452.087C569.528 453.595 568.92 455.103 568.313 456.61C567.049 459.751 565.785 462.892 564.521 466.034C563.963 467.419 566.049 468.481 566.611 467.083C568.128 463.314 569.645 459.544 571.162 455.775C572.212 453.166 574.454 449.354 573.77 446.398C573.449 445.006 572.261 444.509 571.085 443.964C569.098 443.043 567.095 442.158 565.1 441.255C561.359 439.563 557.619 437.87 553.879 436.177C552.511 435.558 551.453 437.644 552.828 438.266Z" fill="#FF8F65"/>
<path d="M557.79 426.989C559.805 427.969 561.836 428.917 563.889 429.816C565.214 430.397 566.775 431.344 568.248 430.747C569.582 430.206 570.503 428.673 571.288 427.551C572.453 425.884 573.401 424.118 574.179 422.241C574.752 420.859 572.666 419.799 572.088 421.192C571.236 423.247 569.515 427.76 567.195 428.249C565.843 428.534 564.258 427.434 563.021 426.872C561.618 426.235 560.226 425.575 558.84 424.901C557.487 424.243 556.433 426.329 557.79 426.989Z" fill="#FF8F65"/>
<path d="M555.821 432.074C559.125 433.711 562.428 435.347 565.732 436.983C567.511 437.864 569.29 438.745 571.069 439.626C572.297 440.235 573.596 441.067 574.989 441.192C577.362 441.405 578.693 439.494 579.822 437.714C581.785 434.62 583.722 431.509 585.672 428.406C586.472 427.133 584.377 426.092 583.581 427.357C582.137 429.655 580.692 431.954 579.248 434.252C578.535 435.387 577.893 436.642 577.056 437.692C575.724 439.361 574.111 438.525 572.5 437.727C567.29 435.147 562.081 432.567 556.872 429.986C555.523 429.318 554.47 431.405 555.821 432.074Z" fill="#FF8F65"/>
<path d="M595.015 440.473C592.583 439.18 588.163 436.804 585.36 438.074C584.342 438.535 583.817 439.444 583.307 440.38C582.253 442.316 581.358 444.363 580.461 446.375C579.561 448.395 578.709 450.438 577.908 452.499C577.368 453.889 576.451 455.506 576.406 457.01C576.319 459.909 580.202 461.558 582.502 462.17C583.956 462.556 584.412 460.264 582.96 459.877C581.756 459.557 580.46 459.046 579.544 458.165C578.287 456.956 579.181 455.685 579.701 454.322C580.638 451.868 581.646 449.441 582.722 447.045C583.579 445.137 584.573 441.465 586.469 440.531C588.569 439.497 592.052 441.543 593.965 442.561C595.295 443.269 596.345 441.18 595.015 440.473Z" fill="#FF8F65"/>
<path d="M589.922 342.267C596.51 345.293 603.18 348.13 609.93 350.777C611.799 351.51 613.23 348.708 611.343 347.968C604.593 345.321 597.923 342.484 591.335 339.458C589.499 338.615 588.078 341.42 589.922 342.267Z" fill="#FFB39B"/>
<path d="M592.615 340.703C593.222 338.021 594.45 333.982 598.032 335.561C601.149 336.935 599.749 340.462 598.727 342.802C597.919 344.648 600.726 346.071 601.538 344.213C603.412 339.925 604.231 334.525 598.861 332.528C593.347 330.476 590.567 335.503 589.528 340.089C589.082 342.061 592.167 342.679 592.615 340.703Z" fill="#FFB39B"/>
<path d="M601.279 345.558C602.284 343.723 602.786 341.642 603.86 339.85C605.137 337.718 607.124 337.276 609.446 337.732C610.482 337.935 611.688 338.184 612.009 339.304C612.269 340.209 611.64 341.393 611.318 342.219C610.459 344.422 609.591 346.622 608.727 348.823C609.547 348.669 610.367 348.516 611.187 348.362C611.004 348.205 610.82 348.048 610.637 347.891C609.376 346.328 606.728 348.029 607.998 349.604C608.368 350.063 608.603 350.344 609.078 350.695C609.82 351.243 611.132 351.271 611.538 350.234C613.305 345.729 618.646 337.115 611.266 334.942C608.768 334.206 605.928 334.068 603.659 335.524C600.655 337.452 600.064 341.23 598.467 344.146C597.495 345.922 600.307 347.331 601.279 345.558Z" fill="#FFB39B"/>
<path d="M610.153 322.204C608.589 323.651 607.836 326.411 608.361 328.491C608.867 330.495 610.803 331.905 612.737 332.4C614.872 332.946 617.084 332.51 618.357 330.624C619.548 328.861 620.47 326.528 618.933 324.672C617.655 323.128 615.006 324.828 616.295 326.385C616.908 327.126 616.285 328.408 615.647 329.024C614.935 329.711 613.727 329.521 612.871 329.13C612.135 328.794 611.486 328.267 611.379 327.441C611.237 326.347 611.705 325.037 612.489 324.312C613.976 322.935 611.628 320.84 610.153 322.204Z" fill="#FFB39B"/>
<path d="M609.022 323.053C611.245 323.681 620.424 328.338 621.421 324.129C621.888 322.161 618.802 321.544 618.335 323.515C618.318 323.584 618.302 323.654 618.285 323.724C618.635 323.329 618.985 322.934 619.334 322.539C618.024 323.06 615.589 322.048 614.34 321.598C612.776 321.034 611.24 320.422 609.637 319.969C607.691 319.419 607.08 322.504 609.022 323.053Z" fill="#FFB39B"/>
<path d="M612.32 314.764C615.527 315.959 618.635 317.357 621.656 318.965C623.445 319.916 624.856 317.107 623.069 316.156C620.048 314.549 616.94 313.151 613.733 311.956C611.856 311.257 610.422 314.057 612.32 314.764Z" fill="#FFB39B"/>
<path d="M617.607 312.402C616.695 311.035 617.33 309.181 619.118 309.12C620.806 309.062 622.88 310.074 624.415 310.68C626.283 311.417 627.714 308.616 625.828 307.871C623.018 306.762 619.302 304.964 616.425 306.743C613.854 308.333 613.335 311.667 614.969 314.115C616.094 315.8 618.732 314.087 617.607 312.402Z" fill="#FFB39B"/>
<path d="M617.877 300.94C621.091 301.889 624.21 303.147 627.297 304.442C629.154 305.221 630.581 302.418 628.71 301.633C625.364 300.229 621.975 298.885 618.492 297.857C616.553 297.285 615.945 300.37 617.877 300.94Z" fill="#FFB39B"/>
<path d="M625.519 300.013C625.42 297.16 623.876 294.096 622.059 291.945C621.507 291.292 620.662 290.989 619.882 291.484C619.234 291.894 618.873 293.01 619.42 293.658C620.907 295.417 622.297 297.862 622.378 300.212C622.448 302.234 625.589 302.038 625.519 300.013Z" fill="#FFB39B"/>
<path d="M624.632 297.972C626.493 297.591 628.354 297.209 630.215 296.828C631.048 296.657 631.459 295.581 631.214 294.842C630.921 293.958 630.061 293.673 629.226 293.844C627.365 294.225 625.504 294.607 623.643 294.988C622.81 295.159 622.4 296.235 622.644 296.974C622.938 297.858 623.797 298.143 624.632 297.972Z" fill="#FFB39B"/>
<path d="M734.507 205.468C740.414 242.281 714.108 296.183 704.156 310.071C685.544 336.045 682.586 365.771 677.741 367.34C672.896 368.908 658.773 361.786 660.98 335.345C663.078 310.224 675.414 288.056 668.646 275.182C665.968 270.09 675.178 256.394 675.178 256.394C675.178 256.394 732.25 191.403 734.507 205.468Z" fill="#FDBAA0"/>
<path d="M679.205 360.041C677.333 360.786 677.652 357.795 677.858 356.959C678.011 356.339 678.243 355.729 678.452 355.125C678.931 353.736 679.459 352.364 679.982 350.99C680.907 348.564 681.882 343.304 685.557 344.876C686.566 345.307 687.042 343.67 686.045 343.243C680.646 340.935 679.051 348.616 677.744 352.094C676.912 354.307 675.3 357.288 676.102 359.709C676.676 361.439 678.412 362.174 680.035 361.529C681.049 361.126 680.214 359.641 679.205 360.041Z" fill="#E79780"/>
<path d="M551.63 287.17C552.862 299.161 549.061 310.682 549.276 322.615C549.45 332.217 550.989 344.148 558.186 351.236C559.181 352.215 560.827 350.786 559.828 349.802C552.529 342.614 551.274 330.02 551.454 320.325C551.554 314.976 552.511 309.716 553.244 304.431C554.062 298.533 554.375 292.668 553.765 286.733C553.622 285.338 551.487 285.787 551.63 287.17Z" fill="#E5967E"/>
<path d="M736.142 210.976C733.947 203.411 730.207 196.505 725.086 190.519C724.079 189.342 722.353 191.014 723.355 192.186C728.204 197.853 731.736 204.412 733.814 211.572C734.243 213.051 736.575 212.466 736.142 210.976Z" fill="#EF9F8A"/>
</g>
<mask id="mask3_1057_10770" style="mask-type:luminance" maskUnits="userSpaceOnUse" x="76" y="26" width="830" height="602">
<path d="M904.981 451.931C887.596 645.576 717.156 656.83 540.183 591.283C476.622 567.747 386.532 566.212 290.229 605.218C202.153 640.907 63.9197 601.734 77.4307 521.607C97.9676 399.817 179.098 433.647 124.616 313.078C84.8919 225.167 106.168 100.203 227.005 127.628C317.63 148.198 356.385 107.778 370.095 86.2829C379.59 71.3955 392.163 58.3855 407.355 48.5301C522.056 -25.8683 584.053 116.065 647.375 81.2546C766.614 15.7088 886.513 82.4622 825.503 189.434C774.653 278.6 914.931 341.088 904.981 451.931Z" fill="white"/>
</mask>
<g mask="url(#mask3_1057_10770)">
<path d="M435.962 242.435C419.792 245.03 403.755 249.244 407.485 268.133C411.198 286.932 445.216 281.438 448.526 266.318C450.247 258.456 448.966 240.348 435.962 242.435Z" fill="#FDBAA0"/>
<path d="M438.692 252.9C438.692 252.9 441.321 262.437 439.04 265.706C436.759 268.975 428.24 273.187 427.241 272.509C426.241 271.83 427.283 266.889 426.006 261.221C425.007 256.792 421.116 252.873 423.264 251.412C425.411 249.953 437.587 249.595 438.692 252.9Z" fill="#FF8F65"/>
<path d="M445.628 273.775C427.943 275.758 410.317 279.49 413.363 300.007C416.394 320.427 453.601 316.217 457.995 300.109C460.28 291.734 459.85 272.18 445.628 273.775Z" fill="#FDBAA0"/>
<path d="M449.084 286.22C449.084 286.22 452.132 294.885 449.482 298.289C446.833 301.693 435.617 306.487 434.569 305.707C433.52 304.926 434.912 299.66 433.828 293.496C432.98 288.678 428.964 284.265 431.372 282.801C433.781 281.337 448.06 282.607 449.084 286.22Z" fill="#FF8F65"/>
<path d="M434.969 307.375C418.541 311.31 402.38 316.9 407.725 336.039C413.044 355.087 447.601 346.772 449.799 330.959C450.942 322.737 448.179 304.21 434.969 307.375Z" fill="#FDBAA0"/>
<path d="M439.069 319.11C439.069 319.11 443.016 327.959 440.93 331.501C438.843 335.042 429.478 339.614 428.396 338.994C427.314 338.374 427.991 333.209 426.225 327.479C424.845 323 420.529 319.274 422.621 317.603C424.714 315.933 437.668 315.797 439.069 319.11Z" fill="#FF8F65"/>
<path d="M429.817 340.451C417.128 343.776 404.673 348.382 409.143 363.155C413.592 377.858 440.285 370.835 441.727 358.52C442.477 352.118 440.022 337.777 429.817 340.451Z" fill="#FDBAA0"/>
<path d="M433.323 349.157C433.323 349.157 435.748 355.54 434.187 358.324C432.627 361.108 426.093 365.574 425.242 365.111C424.392 364.647 424.831 360.626 423.364 356.206C422.217 352.75 418.803 349.928 420.4 348.596C421.998 347.265 432.18 346.608 433.323 349.157Z" fill="#FF8F65"/>
<path d="M422.309 280.119C422.191 280.119 422.079 280.058 422.023 279.946C421.946 279.788 422.01 279.593 422.168 279.517C428.809 276.244 443.242 273.741 443.388 273.716C443.543 273.71 443.725 273.807 443.756 273.976C443.786 274.149 443.668 274.318 443.495 274.349C443.352 274.369 429.008 276.856 422.449 280.088C422.404 280.109 422.358 280.119 422.309 280.119Z" fill="#FDBAA0"/>
<path d="M430.837 312.818C426.985 312.818 423.424 312.516 421.617 311.592C421.461 311.51 421.397 311.316 421.479 311.158C421.558 311.005 421.755 310.954 421.909 311.02C426.762 313.528 445.694 311.199 445.881 311.174C446.057 311.148 446.213 311.281 446.236 311.449C446.257 311.628 446.134 311.786 445.957 311.807C445.454 311.868 437.684 312.818 430.837 312.818Z" fill="#FDBAA0"/>
<path d="M421.206 346.716C418.954 346.716 417.045 346.44 415.915 345.71C415.767 345.618 415.726 345.419 415.82 345.271C415.918 345.128 416.117 345.082 416.263 345.179C420.664 348.023 438.724 343.335 438.903 343.284C439.082 343.212 439.248 343.34 439.294 343.509C439.338 343.682 439.235 343.856 439.067 343.897C438.497 344.05 428.196 346.716 421.206 346.716Z" fill="#FDBAA0"/>
</g>
</svg>
