<svg width="270" height="226" viewBox="0 0 270 226" fill="none" xmlns="http://www.w3.org/2000/svg">
<path d="M211.073 185.341C206.969 189.672 203.086 192.466 200.018 194.673C163.956 220.616 121.285 213.054 112.216 211.207C98.8245 208.48 72.9384 203.209 54.2233 181.142C25.9089 147.757 30.3179 95.159 52.2805 60.4386C56.2978 54.0876 77.5183 18.8384 120.649 13.1855C146.751 9.76448 177.178 16.6643 199.212 35.1735C245.464 74.0258 242.171 152.515 211.073 185.341Z" fill="#2A8E9E" fill-opacity="0.3"/>
<path d="M122.599 52.5264C122.591 52.0076 122.376 51.5138 122 51.157C121.624 50.8002 121.121 50.6106 120.604 50.6314L81.318 52.2107C80.6437 52.2377 80.1157 52.802 80.1317 53.4786L82.1259 137.685L121.85 137.199C122.359 137.193 122.845 136.984 123.2 136.618C123.555 136.252 123.751 135.76 123.744 135.249L122.599 52.5264Z" fill="#2A8E9E"/>
<g opacity="0.5">
<path d="M90.9624 67.9912L84.6406 67.9648L84.5659 57.1035H90.9016L90.9624 67.9912Z" fill="#F2F9FA"/>
<path d="M100.037 67.9711L93.7388 67.9446L93.6841 57.1035H99.9962L100.037 67.9711Z" fill="#F2F9FA"/>
<path d="M109.579 67.95L103.306 67.9234L103.272 57.1035H109.559L109.579 67.95Z" fill="#F2F9FA"/>
<path d="M118.679 68.0104L112.507 67.9433L112.572 57.1035H118.679V68.0104Z" fill="#F2F9FA"/>
<path d="M91.0487 83.4293L84.7466 83.4631L84.6724 72.7094L90.9883 72.6895L91.0487 83.4293Z" fill="#F2F9FA"/>
<path d="M100.095 83.381L93.8166 83.4147L93.7622 72.6811L100.055 72.6611L100.095 83.381Z" fill="#F2F9FA"/>
<path d="M109.608 83.3298L103.354 83.3634L103.32 72.6506L109.588 72.6309L109.608 83.3298Z" fill="#F2F9FA"/>
<path d="M118.679 83.2803L112.527 83.3138L112.474 72.6213L118.679 72.6016V83.2803Z" fill="#F2F9FA"/>
<path d="M91.1374 99.1986L84.8555 99.2526L84.7817 88.5678L91.0773 88.5273L91.1374 99.1986Z" fill="#F2F9FA"/>
<path d="M100.155 99.1204L93.8963 99.1743L93.8423 88.509L100.115 88.4688L100.155 99.1204Z" fill="#F2F9FA"/>
<path d="M109.637 99.0393L103.403 99.0929L103.37 88.4483L109.617 88.4082L109.637 99.0393Z" fill="#F2F9FA"/>
<path d="M118.679 98.9596L112.546 99.0131L112.494 88.3886L118.679 88.3486V98.9596Z" fill="#F2F9FA"/>
<path d="M91.2242 114.616L84.9621 114.69L84.8906 104.325L91.166 104.265L91.2242 114.616Z" fill="#F2F9FA"/>
<path d="M100.214 114.509L93.9747 114.583L93.9224 104.237L100.174 104.177L100.214 114.509Z" fill="#F2F9FA"/>
<path d="M109.666 114.399L103.451 114.472L103.419 104.146L109.647 104.086L109.666 114.399Z" fill="#F2F9FA"/>
<path d="M118.679 114.29L112.566 114.363L112.514 104.057L118.679 103.997V114.29Z" fill="#F2F9FA"/>
<path d="M91.3117 130.184L85.0696 130.278L84.9985 119.979L91.2538 119.898L91.3117 130.184Z" fill="#F2F9FA"/>
<path d="M100.272 130.05L94.0531 130.143L94.001 119.863L100.233 119.783L100.272 130.05Z" fill="#F2F9FA"/>
<path d="M109.695 129.909L103.5 130.001L103.468 119.741L109.676 119.661L109.695 129.909Z" fill="#F2F9FA"/>
<path d="M118.679 129.772L112.585 129.865L112.533 119.624L118.679 119.544V129.772Z" fill="#F2F9FA"/>
</g>
<path d="M91.4068 37.8467C91.3953 37.3394 91.175 36.8595 90.7982 36.5208C90.4214 36.182 89.9215 36.0148 89.4173 36.0586L38.4913 40.4816C37.5444 40.5638 36.7881 41.3585 36.7881 42.3114V144.956C36.7881 145.97 37.6671 146.716 38.6788 146.716H92.0067C92.4998 146.716 92.9721 146.555 93.3167 146.202C93.6614 145.848 93.8493 145.389 93.8381 144.895L91.4068 37.8467Z" fill="#0D5370"/>
<g opacity="0.3">
<path d="M46.8778 45.5446L42.8114 45.8085C42.3854 45.8365 41.9878 46.231 41.9878 46.6896V140.319C41.9878 140.787 42.4416 141.136 42.8721 141.136H46.9288C47.362 141.136 47.7178 140.77 47.7175 140.3L47.6593 46.3192C47.659 45.8588 47.3065 45.5164 46.8778 45.5446Z" fill="#F2F9FA"/>
<path d="M56.3073 44.9245L52.2413 45.1918C51.8098 45.2202 51.3936 45.6217 51.394 46.0834L51.4915 140.298C51.492 140.769 51.9135 141.136 52.3496 141.136H56.4595C56.8984 141.136 57.1903 140.768 57.1895 140.295L57.0323 45.7081C57.0316 45.2448 56.7415 44.8959 56.3073 44.9245Z" fill="#F2F9FA"/>
<path d="M65.8601 44.2966L61.7409 44.5674C61.3037 44.5962 61.0517 44.9894 61.0527 45.454L61.2528 140.293C61.2539 140.767 61.5102 141.136 61.9521 141.136H66.1163C66.561 141.136 67.0288 140.766 67.0275 140.289L66.7661 45.074C66.7648 44.6076 66.3 44.2677 65.8601 44.2966Z" fill="#F2F9FA"/>
<path d="M75.5385 43.6599L71.3651 43.9343C70.9222 43.9634 70.5986 44.3638 70.6001 44.8314L70.9029 140.286C70.9044 140.764 71.2341 141.136 71.6819 141.136H75.9015C76.3521 141.136 76.7557 140.763 76.7539 140.283L76.3881 44.4465C76.3863 43.9771 75.9842 43.6306 75.5385 43.6599Z" fill="#F2F9FA"/>
<path d="M85.3441 43.0154L81.1154 43.2934C80.6666 43.3229 80.2695 43.7306 80.2715 44.2013L80.6798 140.281C80.6818 140.762 81.0867 141.136 81.5404 141.136H85.8165C86.2733 141.136 86.6108 140.76 86.6085 140.277L86.1357 43.8114C86.1333 43.3389 85.7957 42.9857 85.3441 43.0154Z" fill="#F2F9FA"/>
</g>
<path d="M186.04 49.8373C186.033 49.338 185.825 48.8626 185.463 48.5191C185.102 48.1757 184.617 47.9932 184.12 48.0132L146.302 49.5335C145.653 49.5596 145.145 50.1027 145.16 50.7539L147.08 131.813L185.319 131.346C185.809 131.339 186.277 131.138 186.619 130.786C186.961 130.434 187.149 129.96 187.142 129.469L186.04 49.8373Z" fill="#2A8E9E"/>
<g opacity="0.5">
<path d="M155.586 64.7974L149.501 64.8094L149.429 54.3916H155.528L155.586 64.7974Z" fill="#F2F9FA"/>
<path d="M164.322 64.7781L158.259 64.79L158.206 54.3916H164.282L164.322 64.7781Z" fill="#F2F9FA"/>
<path d="M173.507 64.7577L167.468 64.7696L167.436 54.3916H173.488L173.507 64.7577Z" fill="#F2F9FA"/>
<path d="M182.417 64.7409L176.401 64.7513L176.388 54.3916H182.417V64.7409Z" fill="#F2F9FA"/>
<path d="M155.669 79.5835L149.603 79.6161L149.531 69.2643L155.611 69.2451L155.669 79.5835Z" fill="#F2F9FA"/>
<path d="M164.378 79.5371L158.334 79.5695L158.281 69.237L164.339 69.2178L164.378 79.5371Z" fill="#F2F9FA"/>
<path d="M173.535 79.4877L167.514 79.52L167.482 69.2076L173.515 69.1885L173.535 79.4877Z" fill="#F2F9FA"/>
<path d="M182.417 79.4398L176.419 79.472L176.406 69.1792L182.417 69.1602V79.4398Z" fill="#F2F9FA"/>
<path d="M155.755 94.7636L149.708 94.8157L149.637 84.5301L155.697 84.4912L155.755 94.7636Z" fill="#F2F9FA"/>
<path d="M164.435 94.6881L158.41 94.74L158.358 84.4733L164.396 84.4346L164.435 94.6881Z" fill="#F2F9FA"/>
<path d="M173.563 94.6107L167.562 94.6623L167.53 84.4156L173.544 84.377L173.563 94.6107Z" fill="#F2F9FA"/>
<path d="M182.417 94.5337L176.438 94.5852L176.425 84.3577L182.417 84.3193V94.5337Z" fill="#F2F9FA"/>
<path d="M155.838 109.603L149.81 109.674L149.741 99.6969L155.782 99.6387L155.838 109.603Z" fill="#F2F9FA"/>
<path d="M164.492 109.501L158.486 109.572L158.436 99.6127L164.454 99.5547L164.492 109.501Z" fill="#F2F9FA"/>
<path d="M173.591 109.394L167.608 109.464L167.577 99.5247L173.572 99.4668L173.591 109.394Z" fill="#F2F9FA"/>
<path d="M182.417 109.29L176.457 109.361L176.444 99.4394L182.417 99.3818V109.29Z" fill="#F2F9FA"/>
<path d="M155.922 124.593L149.914 124.683L149.845 114.769L155.867 114.691L155.922 124.593Z" fill="#F2F9FA"/>
<path d="M164.548 124.464L158.561 124.554L158.511 114.658L164.511 114.581L164.548 124.464Z" fill="#F2F9FA"/>
<path d="M173.618 124.328L167.655 124.418L167.624 114.541L173.6 114.464L173.618 124.328Z" fill="#F2F9FA"/>
<path d="M182.416 124.197L176.475 124.286L176.463 114.427L182.416 114.351V124.197Z" fill="#F2F9FA"/>
</g>
<path d="M154.851 64.2897C154.843 63.8346 154.653 63.4016 154.325 63.0878C153.996 62.774 153.555 62.6055 153.101 62.62L116.384 63.7963C115.45 63.8263 114.716 64.6091 114.743 65.5462L116.555 126.516C116.583 127.442 117.343 128.175 118.266 128.166L154.246 127.815C154.698 127.81 155.129 127.625 155.444 127.301C155.76 126.976 155.932 126.538 155.925 126.085L154.851 64.2897Z" fill="#0D5370"/>
<g opacity="0.4">
<path d="M151.02 67.2822H118.323C118.005 67.2822 117.75 67.4469 117.753 67.7492L117.785 70.6088C117.788 70.9124 118.05 71.2386 118.369 71.239L151.159 71.2647C151.484 71.2651 151.735 70.9112 151.724 70.6049L151.625 67.7567C151.615 67.4516 151.344 67.2822 151.02 67.2822Z" fill="#F2F9FA"/>
<path d="M151.233 73.4395L118.394 73.3848C118.074 73.3843 117.819 73.6899 117.822 73.9949L117.853 76.9199C117.857 77.2262 118.119 77.5166 118.44 77.5174L151.373 77.6086C151.699 77.6096 151.953 77.318 151.943 77.0088L151.842 74.0571C151.832 73.7494 151.558 73.44 151.233 73.4395Z" fill="#F2F9FA"/>
<path d="M151.454 80.0324L118.466 79.9199C118.145 79.9188 117.887 80.0675 117.89 80.3751L117.922 83.3256C117.925 83.6346 118.189 83.8681 118.51 83.8696L151.588 84.0172C151.915 84.0186 152.173 83.7853 152.162 83.4735L152.061 80.4957C152.05 80.1853 151.78 80.0335 151.454 80.0324Z" fill="#F2F9FA"/>
<path d="M151.67 86.4632L118.537 86.294C118.215 86.2924 117.956 86.5018 117.96 86.8121L117.992 89.7885C117.995 90.1002 118.259 90.2759 118.582 90.2779L151.805 90.4829C152.134 90.4849 152.395 90.3109 152.384 89.9963L152.282 86.9921C152.271 86.6789 151.998 86.4648 151.67 86.4632Z" fill="#F2F9FA"/>
<path d="M151.888 92.9507L118.609 92.7236C118.285 92.7215 118.026 92.9929 118.029 93.3059L118.062 96.3086C118.065 96.623 118.332 96.9637 118.656 96.9663L152.032 97.2317C152.362 97.2343 152.618 96.8946 152.607 96.5773L152.504 93.5465C152.494 93.2305 152.217 92.9529 151.888 92.9507Z" fill="#F2F9FA"/>
<path d="M152.108 99.4947L118.682 99.209C118.357 99.2062 118.097 99.5407 118.1 99.8565L118.133 102.886C118.136 103.203 118.403 103.486 118.729 103.489L152.253 103.814C152.585 103.817 152.844 103.537 152.834 103.216L152.73 100.158C152.719 99.8397 152.439 99.4976 152.108 99.4947Z" fill="#F2F9FA"/>
<path d="M152.337 106.326L118.757 105.979C118.431 105.975 118.168 106.147 118.171 106.466L118.204 109.522C118.208 109.842 118.476 110.066 118.803 110.07L152.476 110.455C152.81 110.459 153.072 110.239 153.061 109.916L152.956 106.83C152.946 106.509 152.67 106.33 152.337 106.326Z" fill="#F2F9FA"/>
<path d="M152.561 112.989L118.831 112.58C118.503 112.576 118.24 112.811 118.243 113.133L118.276 116.216C118.28 116.539 118.548 116.703 118.877 116.707L152.701 117.154C153.036 117.159 153.302 117 153.291 116.674L153.185 113.561C153.174 113.237 152.895 112.993 152.561 112.989Z" fill="#F2F9FA"/>
<path d="M152.787 119.712L118.905 119.241C118.576 119.237 118.312 119.536 118.315 119.861L118.349 122.972C118.353 123.298 118.624 123.632 118.954 123.637L152.936 124.149C153.273 124.154 153.534 123.824 153.523 123.495L153.416 120.354C153.405 120.026 153.123 119.716 152.787 119.712Z" fill="#F2F9FA"/>
</g>
<path d="M203.27 105.059C202.614 102.465 202.303 99.8248 202.658 97.0911C203.551 90.203 208.75 84.7465 212.821 79.4852C216.563 74.6496 220.153 67.0417 211.039 65.9364C203.777 65.0558 193.935 70.4946 191.475 77.7472C188.564 86.3311 190.603 98.3128 183.915 105.291C174.559 115.053 169.957 111.448 166.147 130.349C164.519 138.425 168.083 143.784 172.698 147.273C179.984 152.78 189.917 153.164 197.6 148.231C204.388 143.872 209.36 136.637 209.821 128.455C210.287 120.191 205.233 112.828 203.27 105.059Z" fill="#0D5370"/>
<path d="M185.074 164.725C184.881 164.725 184.72 164.572 184.711 164.376C183.851 145.673 184.683 129.043 187.183 114.95C189.186 103.661 192.259 93.961 196.316 86.1205C203.254 72.7117 210.573 69.4268 210.882 69.2936C211.066 69.2139 211.28 69.299 211.359 69.4837C211.439 69.6684 211.354 69.8831 211.17 69.9633C211.097 69.9954 203.733 73.3211 196.915 86.5458C190.61 98.7762 183.501 122.201 185.438 164.343C185.447 164.544 185.292 164.715 185.091 164.724C185.085 164.724 185.08 164.725 185.074 164.725Z" fill="#2A8E9E"/>
<path d="M214.408 86.5766C214.081 86.4126 213.707 86.3063 213.294 86.2711C211.006 86.0757 209.611 88.2538 208.582 89.969C207.7 91.4379 206.65 93.2249 206.636 95.007C206.622 96.9338 208.281 98.8442 210.085 97.2505C212.136 95.4391 215.229 92.6463 215.815 89.8139C216.106 88.4059 215.539 87.1447 214.408 86.5766Z" fill="#0D5370"/>
<path d="M229.887 142.883C232.019 137.028 231.227 129.649 231.422 123.039C231.525 119.545 231.933 116.139 233.16 112.846C234.38 109.572 236.703 106.234 235.921 102.567C234.344 95.1796 226.719 96.851 221.677 101.15C215.827 106.139 212.6 115.575 209.328 122.681C207.355 126.965 204.819 131.256 203.333 135.727C200.87 143.135 201.52 148.756 204.426 153.052C207.214 157.173 212.365 158.954 217.096 157.441C221.37 156.074 226.447 152.329 229.887 142.883Z" fill="#0D5370"/>
<path d="M208.265 167.724C208.261 167.724 208.257 167.724 208.253 167.724C208.052 167.724 207.894 167.585 207.901 167.384C207.904 167.289 208.239 157.777 210.764 145.046C213.095 133.291 217.824 116.328 227.115 102.224C227.226 102.056 227.452 102.014 227.619 102.126C227.787 102.237 227.833 102.465 227.722 102.633C218.496 116.638 213.796 133.515 211.477 145.206C208.964 157.878 208.631 167.313 208.628 167.407C208.622 167.604 208.46 167.724 208.265 167.724Z" fill="#2A8E9E"/>
<path d="M137.138 98.1541C143.956 98.1541 149.482 92.6128 149.482 85.7772C149.482 78.9417 143.956 73.4004 137.138 73.4004C130.321 73.4004 124.794 78.9417 124.794 85.7772C124.794 92.6128 130.321 98.1541 137.138 98.1541Z" fill="#2CCBE4"/>
<path d="M149.459 84.793H137.138H124.794C124.794 84.793 123.811 91.823 134.828 110.639C135.308 111.46 136.187 112.031 137.136 112.031C138.086 112.032 138.965 111.429 139.446 110.608C150.462 91.7904 149.459 84.793 149.459 84.793Z" fill="#2CCBE4"/>
<path opacity="0.8" d="M137.301 112.513V112.517H137.136C136.061 112.517 135.059 111.957 134.519 111.035C128.079 100.036 125.719 93.0979 124.874 89.2065C124.633 88.3113 124.494 87.4419 124.451 86.5422C124.376 85.6218 124.433 85.2382 124.44 85.1971L124.472 85.0012C124.97 78.3528 130.488 73.1797 137.138 73.1797C143.874 73.1797 149.443 78.4277 149.819 85.1289C149.829 85.2166 149.847 85.4393 149.84 85.8114L149.84 85.8572C149.84 87.0729 149.669 88.277 149.331 89.4362C148.457 93.3242 146.167 100.21 139.837 111.023C139.293 111.952 138.271 112.513 137.301 112.513ZM125.13 85.522C125.127 85.522 125.133 86.0465 125.165 86.4456L125.166 86.4812C125.207 87.3336 125.339 88.1727 125.568 89.0223L125.572 89.0458C126.405 92.8844 128.74 99.7564 135.137 110.681C135.549 111.385 136.396 111.823 137.218 111.824L137.301 112.184V111.825C137.786 111.825 138.831 111.385 139.246 110.675C145.535 99.9313 147.973 93.1034 148.701 89.2673V89.2452C149.186 88.1483 149.185 87.0085 149.185 85.8574L149.186 85.8068V85.8028C149.186 85.4445 149.143 85.2507 149.137 85.1999L149.12 85.1791C148.769 78.8537 143.505 73.8988 137.145 73.8988C130.798 73.8988 125.538 78.8496 125.176 85.2305L125.153 85.5221L125.13 85.522Z" fill="#F2F9FA"/>
<path opacity="0.8" d="M142.216 90.7907C144.999 87.9998 144.999 83.4748 142.216 80.6839C139.432 77.893 134.919 77.893 132.136 80.6839C129.352 83.4748 129.352 87.9998 132.136 90.7907C134.919 93.5816 139.432 93.5816 142.216 90.7907Z" fill="#F2F9FA"/>
<path d="M137.178 93.2832C133.028 93.2832 129.652 89.8981 129.652 85.7373C129.652 81.5764 133.028 78.1914 137.178 78.1914C141.328 78.1914 144.704 81.5764 144.704 85.7373C144.704 89.8981 141.328 93.2832 137.178 93.2832ZM137.178 78.9899C133.467 78.9899 130.448 82.0168 130.448 85.7373C130.448 89.4577 133.467 92.4846 137.178 92.4846C140.888 92.4846 143.907 89.4577 143.907 85.7373C143.907 82.0168 140.888 78.9899 137.178 78.9899Z" fill="#2A8E9E"/>
<path d="M130.416 78.2965C130.382 78.2965 130.349 78.2823 130.325 78.2547C130.282 78.2045 130.288 78.1289 130.338 78.0859C132.34 76.3616 134.899 75.4121 137.542 75.4121C137.608 75.4121 137.661 75.4658 137.661 75.5319C137.661 75.5981 137.608 75.6517 137.542 75.6517C134.956 75.6517 132.453 76.5806 130.494 78.2675C130.471 78.2869 130.443 78.2965 130.416 78.2965Z" fill="#2A8E9E"/>
<path d="M126.599 86.6241C126.533 86.6241 126.479 86.5705 126.479 86.5044C126.479 84.4348 127.052 82.4159 128.134 80.6661C128.169 80.6098 128.243 80.5925 128.299 80.6274C128.355 80.6623 128.372 80.7361 128.337 80.7923C127.278 82.5043 126.718 84.4795 126.718 86.5044C126.718 86.5705 126.665 86.6241 126.599 86.6241Z" fill="#2A8E9E"/>
<path d="M233.972 212.434H33.2183L45.5013 204.091H221.499L233.972 212.434Z" fill="#2A8E9E"/>
<path d="M212.239 198.256H54.4565L65.6481 190.964H200.979L212.239 198.256Z" fill="#2A8E9E"/>
<path d="M196.409 187.202H71.6167L81.3188 179.91H187.158L196.409 187.202Z" fill="#2A8E9E"/>
<path d="M77.8297 121.981C79.022 120.581 80.7662 119.719 82.6026 119.719H185.064C187.479 119.719 189.679 121.164 190.723 123.347L192.978 128.09L73.9297 126.576L77.8297 121.981Z" fill="url(#paint0_linear_225_6766)"/>
<path d="M50.6855 132.928C50.8387 128.056 54.94 124.021 59.9469 124.021H212.58C216.764 124.021 220.43 126.974 221.523 130.905L232.935 172.034L231.888 185.234C231.711 187.469 229.796 189.14 227.493 189.14H54.9433C53.3629 189.14 50.6855 132.928 50.6855 132.928Z" fill="url(#paint1_linear_225_6766)"/>
<path d="M53.1599 177.665H55.3591C56.4518 177.665 57.4419 179.033 57.4419 180.628V187.217C57.4419 188.383 56.6894 189.14 55.8899 189.14H53.9872C53.1876 189.14 52.5781 188.383 52.5781 187.217V178.646C52.5781 178.146 52.8172 177.665 53.1599 177.665Z" fill="url(#paint2_linear_225_6766)"/>
<path d="M80.9025 175.305H60.5889C60.3881 175.305 60.2251 175.142 60.2251 174.94C60.2251 174.738 60.3881 174.575 60.5889 174.575H80.9025C81.1034 174.575 81.2663 174.739 81.2663 174.94C81.2663 175.142 81.1034 175.305 80.9025 175.305Z" fill="#F2F9FA"/>
<path opacity="0.58" d="M178.179 175.305H104.077C103.876 175.305 103.713 175.142 103.713 174.94C103.713 174.738 103.876 174.575 104.077 174.575H178.179C178.38 174.575 178.543 174.739 178.543 174.94C178.543 175.142 178.38 175.305 178.179 175.305Z" fill="#F2F9FA"/>
<path opacity="0.58" d="M167.643 186.85H146.773C145.8 186.85 145.008 186.056 145.008 185.08V179.017C145.008 178.041 145.8 177.247 146.773 177.247H167.643C168.616 177.247 169.408 178.041 169.408 179.017V185.08C169.408 186.056 168.616 186.85 167.643 186.85ZM146.773 177.977C146.201 177.977 145.735 178.443 145.735 179.017V185.08C145.735 185.654 146.201 186.12 146.773 186.12H167.643C168.215 186.12 168.681 185.654 168.681 185.08V179.017C168.681 178.443 168.215 177.977 167.643 177.977H146.773Z" fill="#F2F9FA"/>
<path opacity="0.58" d="M127.998 185.519H120.027C119.02 185.519 118.201 184.841 118.201 184.008V180.089C118.201 179.378 118.893 178.8 119.744 178.8H128.564C129.493 178.8 130.249 179.428 130.249 180.2V183.675C130.249 184.692 129.239 185.519 127.998 185.519ZM119.744 179.529C119.302 179.529 118.929 179.786 118.929 180.089V184.008C118.929 184.431 119.432 184.789 120.027 184.789H127.998C128.838 184.789 129.521 184.289 129.521 183.675V180.2C129.521 179.837 129.083 179.529 128.564 179.529H119.744Z" fill="#F2F9FA"/>
<path d="M228.563 172.442C228.884 172.116 229.328 171.944 229.784 171.969L232.936 172.145L232.221 181.458L230.697 180.393C229.293 179.412 228.407 177.848 228.285 176.137L228.11 173.674C228.078 173.217 228.243 172.769 228.563 172.442Z" fill="url(#paint3_linear_225_6766)"/>
<path d="M224.57 182.255H231.367C232.963 182.255 234.828 183.044 234.828 184.644V187.127C234.828 188.727 232.963 189.713 231.367 189.713H224.57C223.901 189.713 223.384 189.481 223.384 188.81V182.961C223.384 182.29 223.901 182.255 224.57 182.255Z" fill="url(#paint4_linear_225_6766)"/>
<path d="M90.9868 200.038C98.1676 200.038 103.989 194.201 103.989 187.001C103.989 179.801 98.1676 173.965 90.9868 173.965C83.806 173.965 77.9849 179.801 77.9849 187.001C77.9849 194.201 83.806 200.038 90.9868 200.038Z" fill="#013A51"/>
<path d="M90.9867 197.588C96.8183 197.588 101.546 192.848 101.546 187.001C101.546 181.154 96.8183 176.414 90.9867 176.414C85.1551 176.414 80.4277 181.154 80.4277 187.001C80.4277 192.848 85.1551 197.588 90.9867 197.588Z" fill="url(#paint5_linear_225_6766)"/>
<path d="M82.118 190.893C82.0235 190.893 81.9337 190.837 81.8946 190.745C81.3943 189.559 81.1406 188.299 81.1406 187.001C81.1406 181.699 85.4432 177.385 90.7319 177.385C92.3725 177.385 93.9915 177.807 95.4141 178.607C95.5309 178.672 95.5726 178.821 95.507 178.938C95.4418 179.055 95.2942 179.097 95.1767 179.031C93.8266 178.272 92.2895 177.871 90.7318 177.871C85.7105 177.871 81.6256 181.967 81.6256 187.002C81.6256 188.234 81.8663 189.43 82.3412 190.555C82.3934 190.679 82.3358 190.822 82.2124 190.874C82.1818 190.887 82.1496 190.893 82.118 190.893Z" fill="#F2F9FA"/>
<path d="M86.2456 187.001C86.2456 189.682 88.4136 191.856 91.088 191.856C93.7624 191.856 95.9304 189.682 95.9304 187.001C95.9304 184.319 93.7624 182.146 91.088 182.146C88.4136 182.145 86.2456 184.319 86.2456 187.001Z" fill="#013A51"/>
<path d="M230.648 166.373C230.648 166.373 221.451 166.176 213.227 165.838C205.75 165.53 199.3 160.481 197.184 153.285L191.546 134.117C191.247 133.1 192.007 132.08 193.065 132.08L221.631 132.081L231.155 165.7C231.249 166.031 231 166.361 230.648 166.373Z" fill="#0D5370"/>
<path d="M189.174 160.479L184.967 134.142C184.677 132.325 183.076 130.981 181.187 130.97L60.0351 130.226C57.6559 130.211 55.8326 132.28 56.2091 134.567L60.6674 161.648C60.9667 163.465 62.5779 164.803 64.4692 164.803H185.37C187.732 164.803 189.537 162.751 189.174 160.479Z" fill="#0D5370"/>
<path d="M140.126 134.861C140.126 134.399 139.914 133.775 139.499 133.775H102.903C102.487 133.775 102.074 134.399 102.074 134.861V134.961C102.074 135.424 102.487 135.783 102.903 135.783H139.499C139.914 135.783 140.126 135.424 140.126 134.961V134.861Z" fill="#2A8E9E"/>
<path d="M211.367 135.747C211.367 135.285 211.214 134.922 211.031 134.922H194.942C194.759 134.922 194.773 135.285 194.773 135.747V135.848C194.773 136.31 194.759 136.643 194.942 136.643H211.031C211.214 136.643 211.367 136.31 211.367 135.848V135.747Z" fill="#2A8E9E"/>
<path d="M98.9272 134.861C98.9272 134.399 98.6218 133.775 98.2061 133.775H61.6106C61.1949 133.775 60.5889 134.399 60.5889 134.861V134.961C60.5889 135.424 61.1949 135.783 61.6106 135.783H98.206C98.6217 135.783 98.9272 135.424 98.9272 134.961L98.9272 134.861Z" fill="#4F52FF"/>
<path d="M181.612 134.861C181.612 134.399 181.207 133.775 180.791 133.775H144.196C143.78 133.775 143.274 134.399 143.274 134.861V134.961C143.274 135.424 143.78 135.783 144.196 135.783H180.791C181.207 135.783 181.612 135.424 181.612 134.961V134.861Z" fill="#2A8E9E"/>
<path opacity="0.58" d="M211.682 185.963H190.322C190.225 185.963 190.133 185.925 190.065 185.856C189.996 185.788 189.958 185.695 189.958 185.598L189.991 134.548C189.992 132.986 191.064 131.716 192.382 131.716H211.205C212.74 131.716 213.988 133.201 213.988 135.026V183.234C213.988 184.739 212.954 185.963 211.682 185.963ZM190.686 185.234H211.682C212.552 185.234 213.26 184.336 213.26 183.234V135.026C213.26 133.603 212.338 132.445 211.205 132.445H192.382C191.466 132.445 190.719 133.389 190.718 134.548L190.686 185.234Z" fill="#F2F9FA"/>
<path d="M188.266 200.038C195.447 200.038 201.268 194.201 201.268 187.001C201.268 179.801 195.447 173.965 188.266 173.965C181.085 173.965 175.264 179.801 175.264 187.001C175.264 194.201 181.085 200.038 188.266 200.038Z" fill="#013A51"/>
<path d="M188.266 197.588C194.098 197.588 198.825 192.848 198.825 187.001C198.825 181.154 194.098 176.414 188.266 176.414C182.434 176.414 177.707 181.154 177.707 187.001C177.707 192.848 182.434 197.588 188.266 197.588Z" fill="url(#paint6_linear_225_6766)"/>
<path opacity="0.58" d="M179.397 190.893C179.303 190.893 179.213 190.837 179.174 190.745C178.674 189.559 178.42 188.3 178.42 187.001C178.42 181.699 182.722 177.385 188.011 177.385C189.652 177.385 191.271 177.807 192.693 178.607C192.81 178.672 192.852 178.82 192.786 178.938C192.721 179.055 192.574 179.097 192.456 179.031C191.106 178.272 189.569 177.871 188.011 177.871C182.99 177.871 178.905 181.967 178.905 187.002C178.905 188.234 179.146 189.43 179.62 190.555C179.673 190.679 179.615 190.822 179.492 190.874C179.461 190.887 179.429 190.893 179.397 190.893Z" fill="#F2F9FA"/>
<path d="M183.524 187.001C183.524 189.682 185.692 191.856 188.367 191.856C191.041 191.856 193.209 189.682 193.209 187.001C193.209 184.319 191.041 182.146 188.367 182.146C185.692 182.146 183.524 184.319 183.524 187.001Z" fill="#013A51"/>
<path d="M213.123 131.416C213.306 130.628 214.006 130.047 214.813 130.047H225.509C226.419 130.047 227.264 130.547 227.737 131.327L233.47 140.789L230.387 142.23L226.625 134.878C226.231 134.106 225.444 133.617 224.58 133.603L214.678 133.439C214.187 133.431 213.726 133.189 213.424 132.8C213.122 132.412 213.011 131.896 213.123 131.416Z" fill="#013A51"/>
<path d="M234.542 140.237C234.542 138.729 233.322 137.506 231.818 137.506H231.258C229.753 137.506 228.534 138.729 228.534 140.237V146.536C228.534 148.044 229.753 149.267 231.258 149.267H231.818C233.322 149.267 234.542 148.044 234.542 146.536V140.237Z" fill="#013A51"/>
<path d="M231.475 137.506H231.172C230.934 137.506 230.728 137.462 230.509 137.521C231.499 137.826 232.253 138.81 232.253 140.075V146.387C232.253 147.605 231.553 148.636 230.618 148.983C230.616 149.004 230.603 148.96 230.601 148.981C230.789 149.022 230.972 148.98 231.172 148.98H231.475C232.98 148.98 234.256 147.886 234.256 146.377V140.084C234.256 138.576 232.98 137.506 231.475 137.506Z" fill="url(#paint7_linear_225_6766)"/>
<path d="M70.4101 83.3039C63.7792 87.389 64.4417 98.2933 61.3869 103.909C59.5479 107.29 55.4732 107.236 52.336 114.047C49.1989 120.858 53.915 124.054 51.0035 128.87C48.092 133.686 35.8964 136.514 34.1061 146.964C32.7267 155.017 35.325 165.508 44.2561 165.508C53.1871 165.508 90.6189 142.408 90.6189 142.408C90.8631 142.282 77.0818 152.811 91.0802 141.812C105.079 130.813 97.4042 126.067 97.4042 108.715C97.4042 91.364 94.9307 83.606 89.1351 83.5512C79.6166 83.4612 77.041 79.2188 70.4101 83.3039Z" fill="#013A51"/>
<path d="M43.5816 212.376C43.5816 212.376 41.001 190.751 41.4157 181.271C41.8304 171.79 43.103 138.265 69.5403 133.151C95.9775 128.037 98.7127 134.082 102.024 138.692C132.467 191.304 138.507 145.911 138.507 145.911L146.895 153.018C146.895 153.018 138.117 197.593 103.538 168.772C103.538 168.772 104.302 172.3 98.3734 180.942C92.4446 189.584 91.952 212.353 91.952 212.353L43.5816 212.376Z" fill="#2CCBE4"/>
<path d="M89.2346 119.63C89.1532 120.186 87.3843 131.991 86.8416 134.361C86.2988 136.732 78.1974 136.386 73.8247 134.251L78.4838 119.109L89.2346 119.63Z" fill="url(#paint8_linear_225_6766)"/>
<path d="M100.845 96.4233C100.845 96.4233 103.179 104.578 98.2969 116.606C93.4144 128.634 86.6445 129.274 82.5933 125.964C78.5421 122.654 73.3837 116.873 73.4073 105.696C73.4308 94.5195 96.6871 85.8914 100.845 96.4233Z" fill="url(#paint9_linear_225_6766)"/>
<path d="M81.7356 105.501C85.8306 107.351 94.2343 91.6709 100.746 100.015C101.907 101.874 101.112 104.992 101.074 105.792C101.074 105.792 112.004 102.403 109.139 92.5695C106.273 82.736 96.2568 77.3819 84.5464 82.8882C72.836 88.3946 66.3132 93.513 66.3651 102.301C66.4169 111.089 73.1476 108.514 73.1476 108.514C73.1476 108.514 74.4607 101.095 77.6059 100.149C80.7511 99.2021 77.6406 103.651 81.7356 105.501Z" fill="#013A51"/>
<path d="M77.2782 107.265C77.2782 107.265 82.032 98.9836 76.6488 98.33C71.2656 97.6763 72.9214 106.346 73.8003 109.527L77.2782 107.265Z" fill="url(#paint10_linear_225_6766)"/>
<path d="M138.117 141.003C138.117 141.003 138.303 137.475 139.772 135.462C141.24 133.449 141.858 129.529 143.111 130.631C144.364 131.734 144.768 131.727 143.571 134.496C142.374 137.266 139.968 148.738 138.117 141.003Z" fill="url(#paint11_linear_225_6766)"/>
<path d="M144.687 158.249C144.486 158.671 144.109 158.981 143.657 159.096C143.205 159.21 142.726 159.118 142.349 158.842L132.943 151.972C132.578 151.706 132.47 151.206 132.694 150.813L147.371 124.95C147.434 124.839 147.539 124.757 147.662 124.724C147.786 124.69 147.918 124.708 148.028 124.772L156.655 129.799C157.361 130.211 157.634 131.097 157.281 131.837L144.687 158.249Z" fill="#013A51"/>
<path d="M143.314 153.349C143.205 153.567 142.995 153.721 142.743 153.769C142.49 153.818 142.22 153.756 142.008 153.599L135.825 149.065C135.468 148.802 135.355 148.342 135.561 147.988L147.272 127.859C147.333 127.754 147.44 127.68 147.566 127.655C147.692 127.63 147.827 127.656 147.939 127.727L153.82 131.49C154.024 131.62 154.102 131.868 154.002 132.068L143.314 153.349Z" fill="#2A8E9E"/>
<path d="M138.329 153.9C138.154 153.9 137.964 153.839 137.79 153.717L135.7 152.251C135.49 152.105 135.347 151.898 135.309 151.684L135.272 151.471L135.584 150.964L135.868 150.884C136.08 150.846 136.323 150.908 136.534 151.057L138.623 152.522C138.832 152.668 138.975 152.875 139.013 153.088L139.051 153.3L138.863 153.632C138.74 153.809 138.545 153.9 138.329 153.9ZM138.02 153.041L138.488 153.263L138.07 152.97C138.059 152.98 138.049 152.991 138.039 153.003C138.032 153.015 138.026 153.028 138.02 153.041Z" fill="#F2F9FA"/>
<path d="M157.521 140.403C156.323 138.855 156.566 131.67 154.902 133.042C153.238 134.415 152.585 137.315 151.879 137.899C151.173 138.484 146.935 141.536 146.517 143.898C146.216 145.603 144.508 150.36 143.581 152.876C143.273 153.712 143.593 154.649 144.346 155.121C145.099 155.592 146.079 155.469 146.693 154.826C146.939 154.568 158.719 141.95 157.521 140.403Z" fill="url(#paint12_linear_225_6766)"/>
<path d="M60.5885 213.146C60.4625 213.146 60.3561 213.049 60.3468 212.921C59.0634 195.281 60.1632 181.413 63.8081 169.279C63.8468 169.151 63.9824 169.078 64.1103 169.117C64.2386 169.155 64.3112 169.291 64.2726 169.42C60.6453 181.495 59.5516 195.306 60.8307 212.885C60.8404 213.019 60.7399 213.136 60.6063 213.146C60.6004 213.146 60.5944 213.146 60.5885 213.146Z" fill="#013A51"/>
<path d="M103.272 167.509H103.272C103.138 167.509 103.03 167.4 103.03 167.266C103.035 161.625 100.584 155.832 95.7442 150.046C95.6582 149.943 95.6715 149.79 95.7742 149.703C95.877 149.617 96.0299 149.631 96.1159 149.733C101.031 155.609 103.52 161.508 103.515 167.266C103.515 167.4 103.406 167.509 103.272 167.509Z" fill="#013A51"/>
<defs>
<linearGradient id="paint0_linear_225_6766" x1="159.639" y1="216.725" x2="128.929" y2="112.441" gradientUnits="userSpaceOnUse">
<stop stop-color="#E1473D"/>
<stop offset="1" stop-color="#E9605A"/>
</linearGradient>
<linearGradient id="paint1_linear_225_6766" x1="243.057" y1="99.3165" x2="125.754" y2="166.17" gradientUnits="userSpaceOnUse">
<stop stop-color="#FF928E"/>
<stop offset="1" stop-color="#FE7062"/>
</linearGradient>
<linearGradient id="paint2_linear_225_6766" x1="61.0015" y1="175.393" x2="38.8561" y2="203.671" gradientUnits="userSpaceOnUse">
<stop stop-color="#FF928E"/>
<stop offset="1" stop-color="#FE7062"/>
</linearGradient>
<linearGradient id="paint3_linear_225_6766" x1="230.507" y1="174.694" x2="230.364" y2="192.841" gradientUnits="userSpaceOnUse">
<stop stop-color="#FF928E"/>
<stop offset="1" stop-color="#FE7062"/>
</linearGradient>
<linearGradient id="paint4_linear_225_6766" x1="228.235" y1="64.5143" x2="229.2" y2="199.284" gradientUnits="userSpaceOnUse">
<stop stop-color="#E1473D"/>
<stop offset="1" stop-color="#E9605A"/>
</linearGradient>
<linearGradient id="paint5_linear_225_6766" x1="161.459" y1="96.8507" x2="140.288" y2="123.79" gradientUnits="userSpaceOnUse">
<stop stop-color="#E1473D"/>
<stop offset="1" stop-color="#E9605A"/>
</linearGradient>
<linearGradient id="paint6_linear_225_6766" x1="231.146" y1="118.928" x2="217.999" y2="139.689" gradientUnits="userSpaceOnUse">
<stop stop-color="#E1473D"/>
<stop offset="1" stop-color="#E9605A"/>
</linearGradient>
<linearGradient id="paint7_linear_225_6766" x1="237.603" y1="134.788" x2="220.789" y2="158.995" gradientUnits="userSpaceOnUse">
<stop stop-color="#FF928E"/>
<stop offset="1" stop-color="#FE7062"/>
</linearGradient>
<linearGradient id="paint8_linear_225_6766" x1="76.9044" y1="144.544" x2="85.5635" y2="117.916" gradientUnits="userSpaceOnUse">
<stop stop-color="#FEBBBA"/>
<stop offset="1" stop-color="#FF928E"/>
</linearGradient>
<linearGradient id="paint9_linear_225_6766" x1="77.0105" y1="124.19" x2="57.8105" y2="153.966" gradientUnits="userSpaceOnUse">
<stop stop-color="#FEBBBA"/>
<stop offset="1" stop-color="#FF928E"/>
</linearGradient>
<linearGradient id="paint10_linear_225_6766" x1="65.27" y1="119.318" x2="46.1921" y2="148.905" gradientUnits="userSpaceOnUse">
<stop stop-color="#FEBBBA"/>
<stop offset="1" stop-color="#FF928E"/>
</linearGradient>
<linearGradient id="paint11_linear_225_6766" x1="146.41" y1="134.822" x2="127.031" y2="142.911" gradientUnits="userSpaceOnUse">
<stop stop-color="#FEBBBA"/>
<stop offset="1" stop-color="#FF928E"/>
</linearGradient>
<linearGradient id="paint12_linear_225_6766" x1="160.497" y1="139.927" x2="120.384" y2="156.669" gradientUnits="userSpaceOnUse">
<stop stop-color="#FEBBBA"/>
<stop offset="1" stop-color="#FF928E"/>
</linearGradient>
</defs>
</svg>
