<svg width="192" height="167" viewBox="0 0 192 167" fill="none" xmlns="http://www.w3.org/2000/svg">
<path d="M172.867 35.5927C132.865 -7.99726 38.1636 -10.4337 10.3176 24.1399C-5.02538 43.1897 1.38608 71.6659 4.54955 85.7161C10.3711 111.572 24.7263 128.218 27.8609 131.749C35.4669 140.316 53.9416 161.126 81.7385 165.883C129.234 174.012 188.497 132.628 191.781 85.9374C193.673 59.0193 176.325 39.3613 172.867 35.5927Z" fill="#F4F7FA"/>
<path d="M147.042 141.868C141.32 136.191 133.856 127.06 131.373 114.797C128.521 100.716 134.843 95.3762 134.942 79.173C135.082 56.0434 117.16 45.8865 124.288 36.2239C127.764 31.5119 135.471 28.6878 141.656 29.8772C159.301 33.2708 173.38 71.0329 158.81 93.1127C152.221 103.099 143.358 105.445 140.12 116.431C137.26 126.138 142.503 135.644 147.042 141.868Z" fill="#0D5370"/>
<mask id="mask0_919_10910" style="mask-type:luminance" maskUnits="userSpaceOnUse" x="122" y="29" width="43" height="113">
<path d="M147.042 141.868C141.32 136.191 133.856 127.06 131.373 114.797C128.521 100.716 134.843 95.3762 134.942 79.173C135.082 56.0434 117.16 45.8865 124.288 36.2239C127.764 31.5119 135.471 28.6878 141.656 29.8772C159.301 33.2708 173.38 71.0329 158.81 93.1127C152.221 103.099 143.358 105.445 140.12 116.431C137.26 126.138 142.503 135.644 147.042 141.868Z" fill="white"/>
</mask>
<g mask="url(#mask0_919_10910)">
<path d="M137.157 125.875C136.615 122.793 136.378 119.656 136.453 116.548C136.627 109.405 138.44 104.853 140.737 99.0905C142.228 95.3464 143.919 91.1027 145.454 85.3468C148.326 74.5802 149.052 70.9035 148.69 65.5506C147.974 54.9498 143.354 46.9021 140.663 43.0484C136.847 37.5817 131.881 32.8676 125.903 29.0372L126.046 28.8711C132.048 32.7177 137.035 37.4516 140.868 42.9415C143.57 46.8115 148.209 54.8934 148.929 65.5385C149.292 70.9173 148.565 74.6038 145.687 85.3933C144.149 91.1598 142.456 95.4089 140.962 99.1577C138.673 104.903 136.865 109.442 136.692 116.552C136.617 119.648 136.853 122.774 137.393 125.843L137.157 125.875Z" fill="#F9FEFF"/>
<path d="M147.606 58.2992L147.526 58.1437C144.071 51.4105 136.914 48.8527 131.518 47.8927C125.658 46.85 120.55 47.4124 120.499 47.4183L120.468 47.2135C120.519 47.2075 125.661 46.6408 131.559 47.6891C136.97 48.6507 144.134 51.2042 147.662 57.9011C148.245 57.2235 150.813 54.0705 152.279 49.5002C153.803 44.7499 154.414 37.4503 148.668 29.6522L148.869 29.541C154.665 37.4065 154.046 44.7707 152.507 49.5635C150.84 54.7545 147.759 58.1328 147.729 58.1663L147.606 58.2992Z" fill="#F9FEFF"/>
<path d="M146.526 82.4633C146.422 82.4633 146.366 82.4621 146.361 82.462L146.261 82.4594L146.247 82.3736C145.009 74.9729 140.858 70.706 137.594 68.4298C134.055 65.9619 130.765 65.2349 130.732 65.2279L130.789 65.0273C130.822 65.0345 134.155 65.7693 137.734 68.2625C141.023 70.5532 145.201 74.8381 146.468 82.2564C146.478 82.2564 146.489 82.2564 146.501 82.2564C147.994 82.2564 161.645 81.965 168.251 71.7272L168.46 71.8279C164.786 77.5225 158.972 80.1107 154.743 81.2792C150.706 82.3945 147.302 82.4633 146.526 82.4633Z" fill="#F9FEFF"/>
<path d="M145.465 98.2395C142.906 98.2395 141.375 97.7838 141.355 97.7778L141.275 97.7531L141.276 97.6791C141.381 89.6633 131.204 80.3316 131.101 80.2383L131.274 80.0957C131.377 80.1894 141.557 89.5223 141.515 97.6052C141.981 97.7287 144.433 98.3067 148.1 97.8756C151.855 97.4339 157.687 95.8128 164.149 90.5985L164.312 90.7496C157.797 96.0064 151.909 97.6386 148.116 98.0822C147.144 98.1959 146.255 98.2395 145.465 98.2395Z" fill="#F9FEFF"/>
</g>
<path d="M134.241 134.37C131.231 130.252 127.364 123.515 128.505 115.806C130.498 102.356 145.492 101.087 152.52 84.8871C158.187 71.8213 151.423 65.755 159.724 55.4117C161.114 53.6804 168.345 44.3052 177.477 45.0148C182.624 45.4146 186.089 48.8342 186.74 49.4762C196.572 59.1784 191.927 81.704 178.566 96.1194C170.89 104.402 166.94 104.059 152.084 115.879C143.355 122.825 137.636 129.747 134.241 134.37Z" fill="#2A8E9E"/>
<mask id="mask1_919_10910" style="mask-type:luminance" maskUnits="userSpaceOnUse" x="128" y="44" width="64" height="91">
<path d="M134.241 134.37C131.231 130.252 127.364 123.515 128.505 115.806C130.498 102.356 145.492 101.087 152.52 84.8871C158.187 71.8213 151.423 65.755 159.724 55.4117C161.114 53.6804 168.345 44.3052 177.477 45.0148C182.624 45.4146 186.089 48.8342 186.74 49.4762C196.572 59.1784 191.927 81.704 178.566 96.1194C170.89 104.402 166.94 104.059 152.084 115.879C143.355 122.825 137.636 129.747 134.241 134.37Z" fill="white"/>
</mask>
<g mask="url(#mask1_919_10910)">
<path d="M135.133 140.281C132.504 128.76 133.859 119.877 139.159 113.879C141.755 110.942 144.346 109.679 147.09 108.342C150.037 106.906 153.084 105.421 156.228 101.664C159.283 98.0135 159.743 95.4059 160.327 92.1048C160.852 89.1328 161.505 85.4339 164.281 79.8094C166.714 74.8796 168.922 72.1813 170.869 69.8006C172.977 67.2238 174.642 65.1884 175.806 61.2705C177.708 54.87 176.905 47.8491 173.42 40.4029L173.641 40.3252C177.146 47.8134 177.952 54.8777 176.038 61.3221C174.863 65.2767 173.186 67.3258 171.064 69.92C169.124 72.2922 166.924 74.981 164.501 79.8906C161.737 85.4909 161.086 89.1754 160.563 92.1359C159.975 95.4648 159.51 98.0941 156.421 101.785C153.247 105.578 150.176 107.075 147.207 108.522C144.485 109.848 141.914 111.101 139.349 114.004C134.092 119.954 132.752 128.781 135.367 140.241L135.133 140.281Z" fill="#F9FEFF"/>
<path d="M170.015 71.0457L170.002 70.9078C169.986 70.7397 168.296 54.048 159.082 50.2688L159.185 50.082C168.071 53.7272 170.042 69.1286 170.226 70.7533C179.619 67.5642 185.039 61.9922 187.936 57.8687C191.09 53.3779 192.013 49.5952 192.022 49.5576L192.256 49.5992C192.247 49.6373 191.316 53.455 188.14 57.9761C185.209 62.1485 179.711 67.7943 170.164 70.9958L170.015 71.0457Z" fill="#F9FEFF"/>
<path d="M162.011 85.9497C161.953 85.9497 161.921 85.9493 161.918 85.9491L161.815 85.9474L161.801 85.8593C161.123 81.3927 158.751 76.5305 156.88 73.2381C154.853 69.6686 152.963 67.1257 152.944 67.1004L153.144 66.9883C153.163 67.0137 155.061 69.5667 157.095 73.147C158.961 76.4313 161.324 81.2734 162.024 85.7431C162.785 85.7423 167.699 85.6682 173.918 83.9775C180.133 82.288 188.96 78.5921 195.72 70.579L195.913 70.7007C189.113 78.7621 180.233 82.4787 173.981 84.1771C167.704 85.8823 162.745 85.9497 162.011 85.9497Z" fill="#F9FEFF"/>
<path d="M156.643 107.709C152.349 107.709 149.805 107.207 149.748 107.196L149.626 107.17L149.661 107.066C152.908 97.5148 144.561 86.7474 144.476 86.6398L144.673 86.5234C144.758 86.6314 153.108 97.3985 149.926 107.018C151.296 107.263 163.911 109.251 180.275 102.898L180.373 103.086C170.612 106.876 162.175 107.709 156.643 107.709Z" fill="#F9FEFF"/>
</g>
<path d="M132.224 130.674C134.205 127.863 137.611 123.596 142.936 119.381C152.409 111.883 158.502 112.03 161.227 106.227C164.047 100.219 158.852 97.2207 162.395 90.3682C162.693 89.792 166.561 82.5651 173.137 82.3217C177.738 82.1514 181.194 85.4904 182.816 87.057C189.11 93.1373 192.769 104.573 186.614 113.127C180.779 121.237 169.074 122.675 165.348 123.11C158.811 123.875 156.455 122.407 149.884 123.338C141.894 124.47 135.931 127.981 132.224 130.674Z" fill="#0D5370"/>
<path d="M64.7261 151.49C67.7368 147.372 71.6037 140.635 70.4618 132.926C68.4697 119.477 53.4748 118.207 46.4477 102.007C40.78 88.9415 47.5447 82.8751 39.2432 72.5318C37.8536 70.8005 30.6226 61.4253 21.4901 62.1349C16.3438 62.5347 12.8783 65.9543 12.2277 66.5963C2.39532 76.2985 7.04061 98.824 20.4012 113.239C28.0774 121.522 32.0277 121.179 46.8829 132.999C55.6119 139.945 61.331 146.868 64.7261 151.49Z" fill="#2A8E9E"/>
<mask id="mask2_919_10910" style="mask-type:luminance" maskUnits="userSpaceOnUse" x="6" y="62" width="65" height="90">
<path d="M64.7261 151.49C67.7368 147.372 71.6037 140.635 70.4618 132.926C68.4697 119.477 53.4748 118.207 46.4477 102.007C40.78 88.9415 47.5447 82.8751 39.2432 72.5318C37.8536 70.8005 30.6226 61.4253 21.4901 62.1349C16.3438 62.5347 12.8783 65.9543 12.2277 66.5963C2.39532 76.2985 7.04061 98.824 20.4012 113.239C28.0774 121.522 32.0277 121.179 46.8829 132.999C55.6119 139.945 61.331 146.868 64.7261 151.49Z" fill="white"/>
</mask>
<g mask="url(#mask2_919_10910)">
<path d="M63.8345 157.401L63.6004 157.361C66.2152 145.901 64.8756 137.074 59.6185 131.124C57.053 128.221 54.4823 126.968 51.7606 125.642C48.7911 124.195 45.7203 122.698 42.546 118.905C39.4574 115.214 38.9928 112.585 38.4047 109.256C37.8815 106.295 37.2305 102.611 34.4664 97.0106C32.0435 92.101 29.8438 89.4123 27.9031 87.0401C25.7809 84.4459 24.1046 82.3969 22.9295 78.4421C21.0148 71.9977 21.821 64.9335 25.3262 57.4453L25.5474 57.523C22.0621 64.9693 21.2591 71.9901 23.1609 78.3906C24.3251 82.3086 25.9901 84.3439 28.098 86.9208C30.0458 89.3014 32.2531 91.9997 34.6862 96.9294C37.4621 102.554 38.1156 106.253 38.6406 109.225C39.2239 112.526 39.6847 115.134 42.7393 118.784C45.8832 122.541 48.9305 124.026 51.8778 125.462C54.6213 126.799 57.2127 128.062 59.8081 130.999C65.1086 136.997 66.4633 145.88 63.8345 157.401Z" fill="#F9FEFF"/>
<path d="M28.9519 88.1659L28.8028 88.116C19.2559 84.9145 13.7582 79.2687 10.8274 75.0962C7.65155 70.5752 6.72035 66.7575 6.7113 66.7193L6.94547 66.6777C6.95426 66.7156 7.87944 70.5044 11.0365 74.9961C13.933 79.1172 19.3521 84.686 28.7417 87.8736C28.9252 86.2489 30.8959 70.8474 39.7824 67.2022L39.8849 67.389C30.6704 71.1687 28.9809 87.8599 28.9649 88.028L28.9519 88.1659Z" fill="#F9FEFF"/>
<path d="M36.9565 103.07C36.2229 103.07 31.2639 103.003 24.9862 101.297C18.7345 99.5988 9.8547 95.8822 3.05447 87.8208L3.24737 87.699C10.0094 95.7149 18.8402 99.4109 25.0577 101.1C31.2742 102.789 36.1815 102.863 36.9429 102.863C37.6435 98.3935 40.0068 93.5514 41.8725 90.2671C43.9061 86.6869 45.8042 84.1338 45.823 84.1084L46.0238 84.2205C46.0048 84.2458 44.1132 86.7907 42.0855 90.3606C40.2157 93.6524 37.8445 98.5137 37.166 102.979L37.1525 103.068L37.0498 103.069C37.046 103.069 37.0143 103.07 36.9565 103.07Z" fill="#F9FEFF"/>
<path d="M42.3246 124.829C36.792 124.829 28.3558 123.996 18.5947 120.206L18.6925 120.018C35.0559 126.371 47.67 124.383 49.0414 124.138C45.8588 114.518 54.209 103.752 54.294 103.644L54.4915 103.76C54.4067 103.867 46.0589 114.635 49.3063 124.186L49.3418 124.291L49.2194 124.316C49.1624 124.327 46.6171 124.829 42.3246 124.829Z" fill="#F9FEFF"/>
</g>
<path d="M66.7432 147.794C64.7626 144.983 61.3568 140.716 56.031 136.501C46.5582 129.003 40.4652 129.15 37.7405 123.347C34.9201 117.339 40.1151 114.341 36.5722 107.488C36.2742 106.912 32.4064 99.6853 25.8299 99.4418C21.2292 99.2715 17.7731 102.611 16.1514 104.177C9.85774 110.257 6.19833 121.693 12.3531 130.247C18.1884 138.357 29.8933 139.795 33.6195 140.231C40.1566 140.995 42.5123 139.527 49.0828 140.458C57.0732 141.59 63.0364 145.101 66.7432 147.794Z" fill="#0D5370"/>
<path d="M113.64 55.6309C113.596 55.6346 113.551 55.6365 113.508 55.6365C112.807 55.6365 112.209 55.1416 112.141 54.4804C110.937 42.7428 106.82 31.5905 100.547 23.0776C94.9894 15.536 88.3734 11.0356 82.8456 11.0356C82.8393 11.0356 82.8335 11.0356 82.8271 11.0356C62.6931 11.0721 58.4814 54.0344 58.4413 54.4685C58.3762 55.1715 57.7135 55.6921 56.954 55.6318C56.1978 55.5713 55.6373 54.9525 55.7022 54.2498C55.8747 52.3825 60.1856 8.52167 82.8217 8.48047C82.8298 8.48047 82.8379 8.48047 82.8459 8.48047C89.3773 8.48047 96.6539 13.273 102.815 21.6338C109.347 30.4979 113.631 42.0768 114.878 54.2376C114.95 54.94 114.396 55.5638 113.64 55.6309Z" fill="#1D1F20"/>
<path d="M29.6291 144.057L56.1333 156.528L72.192 110.728L45.7316 49.3262L38.2285 51.036L26.844 139.22C26.5863 141.216 27.6992 143.149 29.6291 144.057Z" fill="url(#paint0_linear_919_10910)"/>
<path opacity="0.3" d="M72.192 110.728L45.7316 49.3262L41.306 50.3347C40.6923 58.5327 40.962 65.28 41.3788 70.1925C43.1526 91.0979 49.0436 96.9154 46.1898 111.499C43.8168 123.626 38.6348 125.272 39.0878 133.43C39.5812 142.316 46.2494 149.757 54.1774 155.608L56.1331 156.528L72.192 110.728Z" fill="url(#paint1_linear_919_10910)"/>
<path d="M45.7316 49.3262L145.542 54.0281L177.261 147.457L56.1333 156.528L45.7316 49.3262Z" fill="url(#paint2_linear_919_10910)"/>
<g opacity="0.3">
<path d="M145.542 54.0273L93.4902 51.5752C92.6119 52.7703 91.4484 54.717 91.2317 57.2006C89.9503 71.8894 124.978 76.6447 128.116 94.6749C130.505 108.402 115.804 124.241 102.686 131.297C88.8662 138.732 79.5019 134.967 70.1549 143.221C66.048 146.848 63.5472 151.383 62.0599 156.083L177.261 147.456L145.542 54.0273Z" fill="url(#paint3_linear_919_10910)"/>
</g>
<path d="M76.3456 57.7366C75.7217 57.7366 75.1571 57.3392 75.0085 56.7503C74.7275 55.6375 68.2348 29.343 77.3898 16.4386C80.0138 12.7402 83.6798 10.482 88.2857 9.72691C111.952 5.85126 126.523 53.0931 127.132 55.1061C127.337 55.7854 126.911 56.4906 126.18 56.6815C125.449 56.873 124.69 56.4762 124.485 55.7973C124.342 55.3269 109.999 8.75851 88.7633 12.2433C84.8769 12.8802 81.9074 14.7126 79.685 17.845C71.1749 29.8406 77.6191 55.9051 77.6852 56.1672C77.8585 56.8539 77.3997 57.5414 76.6609 57.7027C76.5551 57.7256 76.4495 57.7366 76.3456 57.7366Z" fill="#1D1F20"/>
<path d="M76.3552 61.4991C78.4769 61.4991 80.1968 59.9006 80.1968 57.9287C80.1968 55.9569 78.4769 54.3584 76.3552 54.3584C74.2336 54.3584 72.5137 55.9569 72.5137 57.9287C72.5137 59.9006 74.2336 61.4991 76.3552 61.4991Z" fill="#1D1F20"/>
<path d="M126.454 61.168C128.575 61.168 130.295 59.5695 130.295 57.5977C130.295 55.6258 128.575 54.0273 126.454 54.0273C124.332 54.0273 122.612 55.6258 122.612 57.5977C122.612 59.5695 124.332 61.168 126.454 61.168Z" fill="#1D1F20"/>
<path d="M153.18 98.9851L122.192 72.8387C121.539 72.2876 120.604 72.1334 119.787 72.4421L103.249 78.6895C101.856 79.2159 101.375 80.8257 102.278 81.9441L129.268 115.382C130.014 116.306 131.416 116.51 132.43 115.841L152.966 102.303C154.161 101.515 154.266 99.9008 153.18 98.9851ZM117.745 82.0303C116.701 82.6827 115.056 82.1069 114.07 80.7441C113.084 79.3813 113.131 77.7477 114.175 77.0952C115.219 76.4428 116.865 77.0186 117.851 78.3814C118.837 79.7443 118.789 81.3779 117.745 82.0303Z" fill="#919191"/>
<path d="M153.18 98.6277L122.192 72.4813C121.539 71.9302 120.604 71.776 119.787 72.0847L103.249 78.3321C101.856 78.8585 101.375 80.4682 102.278 81.5866L129.268 115.024C130.014 115.948 131.416 116.152 132.43 115.484L152.966 101.945C154.161 101.157 154.266 99.5434 153.18 98.6277ZM117.745 81.6729C116.701 82.3253 115.056 81.7495 114.07 80.3867C113.084 79.0239 113.131 77.3902 114.175 76.7378C115.219 76.0854 116.865 76.6612 117.851 78.024C118.837 79.3869 118.789 81.0205 117.745 81.6729Z" fill="#F4F7FA"/>
<path d="M111.305 75.2517C111.206 75.2517 111.112 75.2014 111.071 75.1176C109.998 72.9277 108.55 71.0363 106.767 69.4956C101.884 65.2741 95.5787 64.6103 89.4806 63.9684C83.4127 63.3296 77.6812 62.7262 74.2575 58.5478C73.3908 57.4901 72.0446 55.5784 72.7668 54.6585C73.0565 54.2896 73.635 54.1197 74.4846 54.1549C74.6249 54.1606 74.7331 54.2637 74.7266 54.385C74.72 54.5064 74.6025 54.6021 74.4606 54.5944C74.0056 54.576 73.4159 54.6147 73.1874 54.9058C72.8037 55.3945 73.3865 56.7242 74.6723 58.2933C77.9659 62.3129 83.5889 62.9049 89.5421 63.5316C95.7257 64.1825 102.12 64.8556 107.127 69.1843C108.955 70.7652 110.44 72.7036 111.539 74.9458C111.594 75.0576 111.534 75.1867 111.404 75.2342C111.372 75.2461 111.338 75.2517 111.305 75.2517Z" fill="#26264F"/>
<path d="M113.952 79.6762C113.887 79.6762 113.821 79.6546 113.772 79.6114C113.673 79.5253 113.673 79.3861 113.773 79.3003C113.794 79.2819 115.916 77.4239 115.905 74.9458C115.899 73.4236 115.099 71.9744 113.527 70.6386C110.193 67.8059 101.348 64.5252 93.5444 61.6307C88.7814 59.864 84.2824 58.1953 81.3281 56.7565C80.658 56.4301 79.9494 56.1202 79.2215 55.8355C79.0936 55.7855 79.0368 55.6552 79.0946 55.5445C79.1523 55.4338 79.3029 55.3845 79.431 55.4347C80.1723 55.7247 80.8945 56.0404 81.5775 56.3731C84.508 57.8003 88.9946 59.4644 93.7447 61.2263C101.59 64.1361 110.481 67.4341 113.883 70.3247C115.557 71.7472 116.408 73.3029 116.414 74.9486C116.422 77.6125 114.224 79.532 114.131 79.6124C114.081 79.655 114.017 79.6762 113.952 79.6762Z" fill="#26264F"/>
<path d="M153.18 98.6277L122.192 72.4812C121.539 71.9302 120.604 71.776 119.787 72.0847L118.314 72.641C118.699 73.8564 119.275 75.2238 120.155 76.6196C124.733 83.8825 132.242 83.5692 133.977 88.6096C135.515 93.0767 130.357 95.4732 129.677 101.742C129.337 104.873 130.113 109.04 134.267 114.273L152.966 101.945C154.161 101.157 154.266 99.5434 153.18 98.6277Z" fill="#F9FEFF"/>
<path d="M125.374 89.7279C127.071 92.1568 126.72 94.1717 125.368 94.988C123.944 95.8477 121.898 95.2035 120.375 93.0246C118.927 90.9529 118.851 88.7646 120.448 87.8006C122.059 86.828 123.989 87.7454 125.374 89.7279ZM121.951 91.9718C122.8 93.1863 123.742 93.8617 124.375 93.4796C124.994 93.1062 124.747 92.138 123.836 90.8342C123.012 89.6554 122.117 88.9009 121.44 89.3091C120.793 89.6999 121.14 90.811 121.951 91.9718ZM128.878 99.7766L125.857 84.5354L127.037 83.8232L130.043 99.0731L128.878 99.7766ZM135.477 90.4859C137.174 92.9149 136.823 94.9299 135.471 95.7462C134.061 96.5972 132.015 95.9529 130.478 93.7827C129.03 91.7108 128.954 89.5226 130.551 88.5586C132.162 87.586 134.092 88.5034 135.477 90.4859ZM132.068 92.7212C132.903 93.9444 133.845 94.6199 134.478 94.2378C135.097 93.8643 134.85 92.896 133.939 91.5923C133.115 90.4135 132.234 89.6503 131.558 90.0585C130.896 90.4579 131.257 91.5603 132.068 92.7212Z" fill="#919191"/>
<path d="M129.527 108.208C129.112 108.208 128.707 108.013 128.475 107.659C128.123 107.12 128.308 106.417 128.888 106.09L143.811 97.6706C144.391 97.3437 145.147 97.5154 145.499 98.0542C145.851 98.5932 145.666 99.2956 145.086 99.6229L130.163 108.042C129.964 108.155 129.744 108.208 129.527 108.208Z" fill="#919191"/>
<path d="M109.832 156.87C109.832 158.042 108.87 159.051 107.689 159.112L24.5248 163.507C22.9493 163.588 21.1708 162.435 21.1708 161.072V110.71C21.1708 109.347 22.9921 108.201 24.5676 108.258L107.689 111.337C108.87 111.379 109.832 112.373 109.832 113.545V156.87Z" fill="#FF1D4E"/>
<path d="M111.373 156.952C111.373 158.131 110.407 159.144 109.221 159.205L25.1681 163.516C23.585 163.598 22.2838 162.544 22.2838 161.174V110.569C22.2838 109.2 23.5849 108.126 25.1681 108.183L109.221 111.199C110.407 111.241 111.373 112.24 111.373 113.418V156.952Z" fill="#FF1D4E"/>
<path d="M111.373 145.089L22.2838 149.044V158.312L111.373 153.786V145.089Z" fill="#E67C3E"/>
<g opacity="0.15">
<path d="M48.577 124.917C48.4764 130.668 44.3195 133.657 39.6915 133.642C34.649 133.625 30.607 130.28 30.703 124.787C30.7944 119.564 34.5967 115.843 40.2464 116.208C45.7281 116.563 48.6591 120.224 48.577 124.917ZM36.6063 124.807C36.5538 127.807 37.6883 129.988 39.9047 130.023C42.0379 130.058 43.1013 128.177 43.1563 125.03C43.2061 122.184 42.3626 119.939 40.0332 119.818C37.7667 119.701 36.6565 121.939 36.6063 124.807ZM41.2856 143.297L57.3454 118.136C57.6525 117.655 58.2555 117.372 58.8891 117.413C60.0669 117.49 60.7605 118.593 60.1942 119.49L44.312 144.644C44.0393 145.076 43.5258 145.353 42.9576 145.375L42.78 145.381C41.5119 145.43 40.6718 144.258 41.2856 143.297ZM68.7647 136.206C68.6715 141.532 65.1034 144.447 61.1441 144.597C56.8855 144.759 53.4501 141.821 53.4933 136.759C53.5775 131.945 56.8187 128.366 61.6394 128.478C66.3308 128.587 68.8407 131.859 68.7647 136.206ZM58.5646 136.556C58.4724 139.326 59.4379 141.296 61.3307 141.248C63.1546 141.202 64.0668 139.425 64.1177 136.514C64.1638 133.883 63.4866 131.841 61.4955 131.82C59.5174 131.8 58.6109 133.908 58.5646 136.556Z" fill="#F2F9FA" fill-opacity="0.8"/>
</g>
<path d="M49.3526 124.65C49.252 130.401 45.0951 133.39 40.4671 133.374C35.4246 133.358 31.3826 130.012 31.4786 124.519C31.57 119.296 35.3723 115.576 41.022 115.941C46.5037 116.295 49.4347 119.956 49.3526 124.65ZM37.3819 124.539C37.3294 127.54 38.4639 129.72 40.6803 129.756C42.8135 129.79 43.8769 127.909 43.9319 124.762C43.9817 121.916 43.1382 119.671 40.8088 119.551C38.5423 119.433 37.4321 121.672 37.3819 124.539ZM42.0612 143.029L58.121 117.868C58.4281 117.387 59.0311 117.105 59.6647 117.146C60.8426 117.222 61.5361 118.326 60.9698 119.222L45.0876 144.376C44.8149 144.808 44.3014 145.085 43.7332 145.107L43.5556 145.114C42.2875 145.162 41.4474 143.99 42.0612 143.029ZM69.5403 135.938C69.4471 141.265 65.879 144.179 61.9197 144.33C57.6611 144.492 54.2257 141.554 54.2689 136.491C54.3531 131.677 57.5943 128.099 62.415 128.211C67.1064 128.32 69.6163 131.591 69.5403 135.938ZM59.3402 136.288C59.2481 139.058 60.2135 141.029 62.1063 140.981C63.9302 140.935 64.8424 139.158 64.8933 136.247C64.9394 133.615 64.2622 131.574 62.2711 131.553C60.293 131.532 59.3865 133.641 59.3402 136.288Z" fill="#F9FEFF"/>
<path opacity="0.3" d="M109.221 111.199L26.1362 108.218C29.8862 117.827 35.2567 122.132 39.869 124.239C48.6506 128.25 54.9488 124.419 62.4763 129.613C70.1989 134.941 67.2597 141.519 75.3948 145.951C81.5091 149.282 85.4502 146.809 91.7914 149.82C96.4882 152.051 99.4222 155.828 101.299 159.612L109.221 159.205C110.407 159.144 111.374 158.131 111.374 156.953V113.419C111.373 112.24 110.407 111.242 109.221 111.199Z" fill="#2A8E9E" fill-opacity="0.3"/>
<path opacity="0.3" d="M110.203 134.23L108.176 132.565L106.252 134.32L104.225 132.655L102.301 134.409L100.274 132.745L98.3505 134.499L96.3232 132.835L94.3996 134.589L92.3723 132.924L90.4487 134.678L88.4214 133.014L86.4978 134.768L84.4705 133.104L82.5469 134.858L80.5196 133.193L78.596 134.947L76.0057 132.821C76.0057 133.67 76.0057 159.097 76.0057 159.097C76.0057 159.097 75.8998 160.602 73.7973 160.998L109.652 158.724C110.061 158.697 110.444 158.598 110.789 158.444C111.15 158.041 111.373 157.516 111.373 156.952V133.163L110.203 134.23Z" fill="#FF1D4E"/>
<path d="M115.967 133.358V157.295C115.967 158.63 114.738 159.74 113.199 159.838L101.83 160.559L77.2634 162.113C79.3663 161.717 79.4115 160.212 79.4115 160.212C79.4115 160.212 79.4115 134.785 79.4115 133.935L82.0531 136.063L83.4369 134.824L84.0152 134.308L86.0489 135.973L87.9755 134.219L90.0044 135.883L91.9287 134.129L93.9564 135.793L95.88 134.039L97.9074 135.703L99.8309 133.949L101.858 135.613L103.783 133.859L105.81 135.524L107.734 133.769L109.761 135.435L111.684 133.68L113.75 135.345L115.967 133.358Z" fill="#F9FEFF"/>
<path d="M111.828 147.26L107.394 147.433C107.096 147.445 106.861 147.657 106.861 147.916V149.677C106.861 149.954 107.13 150.175 107.45 150.159L111.884 149.943C112.18 149.928 112.411 149.717 112.411 149.46V147.743C112.411 147.468 112.146 147.248 111.828 147.26Z" fill="#919191"/>
<path d="M111.822 150.663L107.388 150.879C107.092 150.894 106.861 151.105 106.861 151.361V153.2C106.861 153.479 107.133 153.7 107.455 153.682L111.889 153.437C112.183 153.421 112.411 153.21 112.411 152.955V151.145C112.411 150.868 112.142 150.647 111.822 150.663Z" fill="#919191"/>
<path d="M112.411 142.379V139.228C112.411 138.955 112.149 138.736 111.833 138.745L107.399 138.884C107.099 138.893 106.861 139.106 106.861 139.366V142.552C106.861 142.827 107.126 143.047 107.444 143.035L111.878 142.862C112.176 142.85 112.411 142.637 112.411 142.379Z" fill="#919191"/>
<path d="M102.615 147.62L84.5607 148.324C84.2625 148.336 84.0276 148.548 84.0276 148.807V150.79C84.0276 151.068 84.2971 151.288 84.6172 151.273L102.672 150.392C102.968 150.378 103.199 150.166 103.199 149.91V148.102C103.199 147.827 102.933 147.607 102.615 147.62Z" fill="#919191"/>
<path d="M102.609 151.113L84.5544 151.994C84.2588 152.008 84.0276 152.22 84.0276 152.476V154.462C84.0276 154.741 84.2998 154.962 84.6214 154.944L102.676 153.947C102.97 153.931 103.199 153.72 103.199 153.465V151.595C103.199 151.318 102.929 151.097 102.609 151.113Z" fill="#919191"/>
<path d="M103.199 142.739V139.515C103.199 139.242 102.936 139.023 102.62 139.033L84.5657 139.595C84.2654 139.604 84.0275 139.818 84.0275 140.078V143.443C84.0275 143.718 84.293 143.938 84.6109 143.926L102.666 143.221C102.964 143.21 103.199 142.997 103.199 142.739Z" fill="#919191"/>
<path opacity="0.4" d="M101.81 160.559L77.2533 162.114C79.3562 161.717 79.4111 160.213 79.4111 160.213C79.4111 160.213 79.4111 134.785 79.4111 133.936L82.0527 136.063L83.4365 134.824C84.5906 135.728 85.5182 137.179 85.7758 139.478C86.6343 147.133 90.7783 146.629 95.6706 146.917C100.563 147.204 102.814 152.103 100.835 155.888C99.9493 157.581 100.31 159.288 101.81 160.559Z" fill="#F4F7FA"/>
<path d="M20.0135 161.458V164.596C20.0135 165.61 27.3328 166.431 36.3616 166.431C45.3904 166.431 52.7098 165.61 52.7098 164.596V161.458H20.0135Z" fill="url(#paint4_linear_919_10910)"/>
<path d="M52.7098 161.458C52.7098 162.472 45.3905 163.294 36.3617 163.294C27.3329 163.294 20.0135 162.472 20.0135 161.458C20.0135 160.444 27.3329 159.622 36.3617 159.622C45.3905 159.622 52.7098 160.444 52.7098 161.458Z" fill="url(#paint5_linear_919_10910)"/>
<path d="M36.3612 163.421C28.365 163.421 20.0036 162.76 20.0036 161.485C20.0036 161.415 20.0325 161.292 20.1134 161.292C20.1943 161.292 20.1594 161.388 20.1594 161.458C20.1594 162.267 26.8133 163.167 36.3612 163.167C45.9091 163.167 52.563 162.267 52.563 161.458C52.563 161.388 52.5768 161.323 52.6577 161.323C52.7386 161.323 52.719 161.416 52.719 161.486C52.7191 162.761 44.3574 163.421 36.3612 163.421Z" fill="url(#paint6_linear_919_10910)"/>
<path d="M34.8164 161.561C34.9768 161.464 35.1475 161.37 35.3303 161.276C35.5112 161.183 35.747 161.098 36.0326 161.023C36.3198 160.947 36.679 160.886 37.1102 160.838C37.5415 160.791 38.0807 160.766 38.7245 160.763C39.3562 160.76 39.9489 160.778 40.5038 160.815C41.0571 160.852 41.5454 160.908 41.967 160.983C42.387 161.057 42.7299 161.149 42.9943 161.259C43.2569 161.368 43.4134 161.494 43.4639 161.635L45.3046 161.651C45.4382 161.652 45.5563 161.661 45.6575 161.68C45.7603 161.698 45.8101 161.721 45.8102 161.748L45.811 161.88L43.4445 161.86C43.3615 162.021 43.15 162.167 42.81 162.301C42.4718 162.434 42.0392 162.549 41.5124 162.647L40.6505 162.543C40.5734 162.533 40.5099 162.52 40.4602 162.504C40.4105 162.489 40.3864 162.472 40.3863 162.453C40.3862 162.428 40.4527 162.399 40.5861 162.367C40.7195 162.334 40.87 162.294 41.0374 162.247C41.205 162.199 41.3691 162.143 41.5313 162.078C41.6919 162.013 41.7994 161.935 41.8553 161.845L36.2697 161.797C36.1229 161.89 35.9574 161.982 35.7763 162.072C35.5936 162.162 35.3527 162.244 35.0517 162.316C34.7508 162.388 34.3762 162.446 33.9278 162.492C33.4776 162.537 32.9145 162.56 32.233 162.563C31.721 162.565 31.2227 162.549 30.7345 162.513C30.2463 162.477 29.8128 162.424 29.434 162.353C29.0552 162.281 28.7448 162.193 28.501 162.088C28.259 161.983 28.123 161.863 28.0949 161.726L26.5795 161.713C26.4459 161.712 26.3278 161.703 26.2214 161.686C26.1169 161.668 26.0637 161.645 26.0635 161.616L26.0628 161.485L28.1347 161.502C28.2264 161.364 28.4141 161.243 28.7011 161.141C28.9882 161.038 29.3387 160.947 29.7527 160.867L30.4466 160.949C30.6574 160.975 30.762 161.005 30.7622 161.039C30.7622 161.058 30.7196 161.081 30.6324 161.108C30.5435 161.136 30.441 161.169 30.3213 161.207C30.2034 161.245 30.0872 161.29 29.9762 161.342C29.8635 161.393 29.7799 161.452 29.7238 161.517L34.8164 161.561ZM29.7046 161.739C29.7462 161.825 29.839 161.899 29.9798 161.962C30.1206 162.024 30.2956 162.075 30.5063 162.115C30.7172 162.156 30.9537 162.185 31.2157 162.204C31.4795 162.223 31.7553 162.231 32.0429 162.23C32.3785 162.229 32.6713 162.216 32.9211 162.193C33.1692 162.169 33.3882 162.137 33.578 162.096C33.7662 162.056 33.932 162.009 34.0721 161.955C34.2122 161.902 34.3369 161.843 34.4495 161.781L29.7046 161.739ZM41.8645 161.622C41.8229 161.535 41.7214 161.458 41.5636 161.393C41.4056 161.327 41.2033 161.272 40.9582 161.228C40.7131 161.183 40.4269 161.15 40.0998 161.128C39.7743 161.106 39.4147 161.096 39.0209 161.098C38.6716 161.099 38.3686 161.113 38.1171 161.138C37.8654 161.164 37.6465 161.198 37.4601 161.241C37.2754 161.285 37.1164 161.335 36.9884 161.392C36.8586 161.45 36.7373 161.511 36.6264 161.577L41.8645 161.622Z" fill="#E67C3E"/>
<path d="M36.3635 159.821C29.0741 159.821 21.4843 160.376 20.2703 161.451C20.3177 161.489 20.3619 161.529 20.4029 161.572C21.4262 160.826 27.6933 160.075 36.3635 160.075C45.2563 160.075 51.6238 160.865 52.3951 161.629C52.433 161.587 52.4736 161.547 52.5174 161.509C51.5147 160.397 43.7824 159.821 36.3635 159.821Z" fill="url(#paint7_linear_919_10910)"/>
<path d="M15.4688 158.163V161.301C15.4688 162.315 22.7882 163.137 31.817 163.137C40.8458 163.137 48.1651 162.315 48.1651 161.301V158.163H15.4688Z" fill="url(#paint8_linear_919_10910)"/>
<path d="M48.1651 158.163C48.1651 159.177 40.8458 159.999 31.817 159.999C22.7881 159.999 15.4688 159.177 15.4688 158.163C15.4688 157.149 22.7882 156.327 31.817 156.327C40.8458 156.327 48.1651 157.149 48.1651 158.163Z" fill="url(#paint9_linear_919_10910)"/>
<path d="M31.8165 160.126C23.8204 160.126 15.459 159.465 15.459 158.19C15.459 158.12 15.4878 157.997 15.5687 157.997C15.6496 157.997 15.6148 158.093 15.6148 158.163C15.6148 158.972 22.2686 159.872 31.8165 159.872C41.3645 159.872 48.0183 158.972 48.0183 158.163C48.0183 158.093 48.0322 158.028 48.113 158.028C48.1939 158.028 48.1745 158.121 48.1745 158.191C48.1744 159.466 39.8127 160.126 31.8165 160.126Z" fill="url(#paint10_linear_919_10910)"/>
<path d="M30.2718 158.266C30.4322 158.17 30.6029 158.075 30.7856 157.981C30.9665 157.888 31.2023 157.803 31.4879 157.728C31.7751 157.652 32.1344 157.591 32.5655 157.543C32.9968 157.496 33.5359 157.471 34.1797 157.468C34.8116 157.465 35.4042 157.483 35.9591 157.52C36.5124 157.557 37.0007 157.613 37.4223 157.688C37.8423 157.762 38.1853 157.854 38.4495 157.964C38.7122 158.073 38.8687 158.199 38.9191 158.34L40.7599 158.356C40.8935 158.357 41.0117 158.366 41.1128 158.385C41.2157 158.403 41.2654 158.426 41.2655 158.453L41.2662 158.585L38.8998 158.565C38.8168 158.725 38.6053 158.872 38.2653 159.006C37.9271 159.139 37.4945 159.254 36.9677 159.352L36.1058 159.248C36.0287 159.238 35.9653 159.225 35.9156 159.209C35.8658 159.194 35.8417 159.177 35.8416 159.158C35.8415 159.133 35.9081 159.104 36.0414 159.072C36.1748 159.039 36.3252 158.999 36.4928 158.952C36.6603 158.904 36.8244 158.848 36.9867 158.783C37.1473 158.718 37.2547 158.64 37.3107 158.55L31.725 158.502C31.5783 158.595 31.4127 158.687 31.2317 158.777C31.049 158.867 30.8081 158.949 30.5071 159.021C30.2062 159.093 29.8315 159.151 29.3831 159.197C28.9331 159.241 28.3698 159.265 27.6884 159.268C27.1765 159.27 26.678 159.254 26.1899 159.218C25.7017 159.182 25.2682 159.129 24.8894 159.058C24.5106 158.986 24.2001 158.898 23.9564 158.793C23.7144 158.688 23.5784 158.568 23.5503 158.431L22.0348 158.418C21.9013 158.417 21.7831 158.408 21.6768 158.391C21.5722 158.373 21.519 158.35 21.5189 158.321L21.5182 158.19L23.5902 158.207C23.6818 158.069 23.8695 157.948 24.1566 157.846C24.4436 157.743 24.7942 157.652 25.2081 157.572L25.902 157.654C26.1127 157.68 26.2173 157.71 26.2176 157.744C26.2177 157.763 26.175 157.786 26.0878 157.813C25.9989 157.841 25.8965 157.874 25.7767 157.912C25.6588 157.95 25.5426 157.995 25.4316 158.047C25.3189 158.098 25.2354 158.157 25.1792 158.222L30.2718 158.266ZM25.1599 158.444C25.2015 158.53 25.2944 158.604 25.4352 158.667C25.576 158.729 25.7509 158.78 25.9618 158.82C26.1726 158.861 26.4091 158.89 26.6711 158.909C26.935 158.928 27.2107 158.936 27.4983 158.935C27.8339 158.934 28.1266 158.921 28.3764 158.898C28.6246 158.874 28.8436 158.842 29.0334 158.802C29.2216 158.761 29.3873 158.714 29.5275 158.66C29.6676 158.607 29.7922 158.549 29.9049 158.486L25.1599 158.444ZM37.3198 158.327C37.2782 158.24 37.1767 158.164 37.0188 158.098C36.8609 158.032 36.6586 157.977 36.4135 157.933C36.1684 157.888 35.8823 157.855 35.5551 157.833C35.2296 157.811 34.87 157.801 34.4762 157.803C34.1269 157.804 33.8239 157.818 33.5723 157.843C33.3208 157.869 33.1018 157.903 32.9154 157.946C32.7308 157.99 32.5717 158.04 32.4437 158.097C32.3139 158.155 32.1926 158.216 32.0817 158.282L37.3198 158.327Z" fill="#E67C3E"/>
<path d="M31.8188 156.526C24.5294 156.526 16.9396 157.081 15.7255 158.156C15.773 158.194 15.8172 158.234 15.8582 158.277C16.8815 157.531 23.1486 156.78 31.8187 156.78C40.7115 156.78 47.079 157.57 47.8503 158.334C47.8882 158.292 47.9287 158.252 47.9726 158.214C46.9699 157.102 39.2376 156.526 31.8188 156.526Z" fill="url(#paint11_linear_919_10910)"/>
<path d="M19.3902 154.877V158.015C19.3902 159.029 26.7096 159.85 35.7384 159.85C44.7672 159.85 52.0866 159.028 52.0866 158.015V154.877H19.3902Z" fill="url(#paint12_linear_919_10910)"/>
<path d="M52.0866 154.877C52.0866 155.891 44.7673 156.713 35.7384 156.713C26.7096 156.713 19.3902 155.891 19.3902 154.877C19.3902 153.863 26.7096 153.041 35.7384 153.041C44.7673 153.041 52.0866 153.863 52.0866 154.877Z" fill="#FFDB44"/>
<path d="M35.738 156.84C27.7418 156.84 19.3803 156.179 19.3803 154.904C19.3803 154.834 19.4092 154.711 19.4901 154.711C19.571 154.711 19.5362 154.807 19.5362 154.877C19.5362 155.686 26.19 156.586 35.738 156.586C45.286 156.586 51.9397 155.686 51.9397 154.877C51.9397 154.807 51.9535 154.742 52.0344 154.742C52.1153 154.742 52.0958 154.835 52.0958 154.905C52.0959 156.18 43.7342 156.84 35.738 156.84Z" fill="#FFDB44"/>
<path d="M34.1932 154.98C34.3536 154.883 34.5243 154.789 34.707 154.695C34.888 154.602 35.1238 154.517 35.4093 154.442C35.6966 154.366 36.0558 154.305 36.487 154.257C36.9182 154.21 37.4574 154.185 38.1012 154.182C38.7331 154.179 39.3256 154.197 39.8806 154.234C40.4339 154.271 40.9222 154.327 41.3438 154.402C41.7637 154.476 42.1067 154.568 42.371 154.677C42.6336 154.787 42.7901 154.913 42.8405 155.054L44.6813 155.07C44.8149 155.071 44.9331 155.08 45.0342 155.098C45.137 155.117 45.1868 155.139 45.1869 155.167L45.1876 155.298L42.8212 155.279C42.7382 155.439 42.5267 155.586 42.1867 155.72C41.8484 155.853 41.4159 155.968 40.8891 156.066L40.0272 155.962C39.9501 155.952 39.8867 155.939 39.8369 155.923C39.7871 155.908 39.7631 155.891 39.763 155.872C39.7628 155.847 39.8295 155.818 39.9628 155.786C40.0962 155.753 40.2466 155.713 40.4142 155.665C40.5817 155.618 40.7457 155.562 40.908 155.496C41.0686 155.432 41.1761 155.354 41.2321 155.264L35.6464 155.216C35.4997 155.309 35.3341 155.401 35.1531 155.491C34.9704 155.581 34.7295 155.663 34.4285 155.735C34.1276 155.807 33.7529 155.865 33.3046 155.91C32.8545 155.955 32.2913 155.979 31.6098 155.982C31.0979 155.984 30.5995 155.967 30.1113 155.932C29.6231 155.896 29.1896 155.843 28.8108 155.771C28.432 155.7 28.1215 155.612 27.8778 155.507C27.6358 155.402 27.4998 155.281 27.4716 155.145L25.9562 155.132C25.8226 155.131 25.7044 155.122 25.5981 155.104C25.4936 155.087 25.4403 155.064 25.4402 155.035L25.4395 154.903L27.5115 154.92C27.6031 154.782 27.7908 154.662 28.0779 154.559C28.3649 154.457 28.7155 154.366 29.1293 154.286L29.8233 154.368C30.034 154.394 30.1386 154.424 30.1389 154.458C30.1389 154.477 30.0963 154.5 30.0091 154.527C29.9202 154.555 29.8176 154.588 29.698 154.626C29.58 154.664 29.4639 154.709 29.3529 154.761C29.2401 154.812 29.1566 154.87 29.1005 154.936L34.1932 154.98ZM29.0814 155.158C29.123 155.244 29.2158 155.318 29.3566 155.381C29.4974 155.443 29.6723 155.494 29.8832 155.534C30.094 155.575 30.3305 155.604 30.5925 155.623C30.8564 155.642 31.1321 155.65 31.4197 155.649C31.7553 155.648 32.0481 155.635 32.2979 155.612C32.5461 155.588 32.765 155.556 32.9549 155.515C33.143 155.475 33.3089 155.428 33.4489 155.374C33.589 155.321 33.7137 155.262 33.8263 155.2L29.0814 155.158ZM41.2412 155.041C41.1997 154.954 41.0982 154.877 40.9403 154.812C40.7824 154.746 40.58 154.691 40.3349 154.647C40.0898 154.602 39.8037 154.569 39.4765 154.547C39.151 154.525 38.7914 154.515 38.3977 154.517C38.0483 154.518 37.7453 154.532 37.4938 154.557C37.2423 154.583 37.0233 154.617 36.8369 154.66C36.6522 154.704 36.4932 154.754 36.3651 154.811C36.2353 154.869 36.1141 154.93 36.0032 154.996L41.2412 155.041Z" fill="#E67C3E"/>
<path d="M35.7402 153.24C28.4509 153.24 20.861 153.795 19.647 154.87C19.6945 154.908 19.7387 154.948 19.7797 154.991C20.8029 154.245 27.07 153.494 35.7402 153.494C44.6329 153.494 51.0005 154.284 51.7718 155.048C51.8097 155.006 51.8502 154.966 51.894 154.928C50.8914 153.816 43.1591 153.24 35.7402 153.24Z" fill="url(#paint13_linear_919_10910)"/>
<path d="M21.7699 151.581V154.719C21.7699 155.733 29.0892 156.554 38.118 156.554C47.1468 156.554 54.4662 155.733 54.4662 154.719V151.581H21.7699Z" fill="url(#paint14_linear_919_10910)"/>
<path d="M38.118 153.417C47.1469 153.417 54.4662 152.595 54.4662 151.581C54.4662 150.567 47.1469 149.745 38.118 149.745C29.0892 149.745 21.7699 150.567 21.7699 151.581C21.7699 152.595 29.0892 153.417 38.118 153.417Z" fill="#FFDB44"/>
<path d="M38.1177 153.544C30.1215 153.544 21.76 152.883 21.76 151.608C21.76 151.538 21.7889 151.415 21.8698 151.415C21.9507 151.415 21.9159 151.511 21.9159 151.581C21.9159 152.39 28.5697 153.29 38.1176 153.29C47.6655 153.29 54.3194 152.39 54.3194 151.581C54.3194 151.511 54.3332 151.446 54.4141 151.446C54.495 151.446 54.4754 151.539 54.4754 151.609C54.4755 152.884 46.1138 153.544 38.1177 153.544Z" fill="#FFDB44"/>
<path d="M36.5728 151.684C36.7332 151.587 36.904 151.493 37.0866 151.399C37.2676 151.306 37.5034 151.221 37.7889 151.146C38.0762 151.07 38.4354 151.009 38.8666 150.961C39.2978 150.914 39.8371 150.889 40.4808 150.886C41.1126 150.883 41.7052 150.901 42.2602 150.938C42.8135 150.975 43.3017 151.031 43.7234 151.106C44.1433 151.18 44.4863 151.272 44.7506 151.382C45.0132 151.491 45.1698 151.617 45.2202 151.758L47.061 151.774C47.1946 151.775 47.3128 151.784 47.4139 151.803C47.5167 151.821 47.5665 151.844 47.5667 151.871L47.5674 152.003L45.2009 151.983C45.1179 152.144 44.9065 152.291 44.5664 152.424C44.2282 152.557 43.7956 152.672 43.2688 152.77L42.4069 152.666C42.3298 152.656 42.2663 152.643 42.2166 152.627C42.1669 152.612 42.1428 152.595 42.1427 152.576C42.1426 152.551 42.2092 152.522 42.3425 152.49C42.4759 152.458 42.6264 152.417 42.7939 152.37C42.9614 152.322 43.1254 152.266 43.2877 152.201C43.4484 152.136 43.5558 152.058 43.6117 151.968L38.0261 151.92C37.8793 152.013 37.7138 152.105 37.5328 152.195C37.35 152.285 37.1091 152.367 36.8081 152.439C36.5072 152.511 36.1326 152.569 35.6842 152.614C35.2341 152.659 34.6709 152.683 33.9894 152.686C33.4775 152.688 32.9791 152.671 32.4909 152.636C32.0026 152.6 31.5692 152.547 31.1903 152.476C30.8115 152.404 30.5011 152.316 30.2574 152.211C30.0154 152.106 29.8794 151.986 29.8513 151.849L28.3358 151.836C28.2023 151.835 28.0841 151.826 27.9778 151.809C27.8733 151.791 27.8201 151.768 27.8199 151.739L27.8192 151.607L29.8911 151.625C29.9827 151.486 30.1705 151.366 30.4576 151.263C30.7446 151.161 31.0952 151.07 31.5091 150.99L32.203 151.072C32.4138 151.098 32.5184 151.128 32.5186 151.162C32.5187 151.181 32.476 151.204 32.3888 151.231C32.2999 151.259 32.1974 151.292 32.0777 151.33C31.9598 151.368 31.8436 151.413 31.7326 151.465C31.6199 151.516 31.5363 151.574 31.4802 151.64L36.5728 151.684ZM31.461 151.862C31.5026 151.948 31.5955 152.022 31.7362 152.085C31.877 152.147 32.052 152.198 32.2628 152.238C32.4736 152.279 32.7101 152.308 32.9722 152.327C33.236 152.346 33.5117 152.354 33.7993 152.353C34.1349 152.352 34.4276 152.339 34.6775 152.316C34.9257 152.292 35.1446 152.26 35.3345 152.219C35.5226 152.179 35.6885 152.132 35.8285 152.078C35.9686 152.025 36.0933 151.966 36.2059 151.904L31.461 151.862ZM43.6209 151.745C43.5793 151.658 43.4779 151.581 43.32 151.516C43.1621 151.45 42.9597 151.395 42.7146 151.351C42.4695 151.306 42.1833 151.273 41.8562 151.251C41.5307 151.229 41.1711 151.219 40.7773 151.221C40.428 151.222 40.125 151.236 39.8734 151.261C39.6218 151.287 39.4028 151.321 39.2165 151.364C39.0318 151.408 38.8728 151.458 38.7448 151.515C38.6149 151.573 38.4937 151.634 38.3828 151.7L43.6209 151.745Z" fill="#E67C3E"/>
<path d="M38.1199 149.943C30.8305 149.943 23.2407 150.498 22.0267 151.573C22.0742 151.611 22.1183 151.651 22.1594 151.694C23.1827 150.948 29.4498 150.197 38.1199 150.197C47.0127 150.197 53.3801 150.987 54.1515 151.751C54.1894 151.709 54.23 151.669 54.2738 151.631C53.2711 150.519 45.5388 149.943 38.1199 149.943Z" fill="url(#paint15_linear_919_10910)"/>
<path d="M20.0135 148.025V151.163C20.0135 152.177 27.3328 152.999 36.3616 152.999C45.3904 152.999 52.7098 152.177 52.7098 151.163V148.025H20.0135Z" fill="url(#paint16_linear_919_10910)"/>
<path d="M52.7098 148.025C52.7098 149.039 45.3905 149.861 36.3617 149.861C27.3329 149.861 20.0135 149.039 20.0135 148.025C20.0135 147.011 27.3329 146.189 36.3617 146.189C45.3905 146.189 52.7098 147.011 52.7098 148.025Z" fill="url(#paint17_linear_919_10910)"/>
<path d="M36.3612 149.988C28.365 149.988 20.0036 149.327 20.0036 148.052C20.0036 147.982 20.0325 147.859 20.1134 147.859C20.1943 147.859 20.1594 147.956 20.1594 148.026C20.1594 148.834 26.8133 149.735 36.3612 149.735C45.9091 149.735 52.563 148.834 52.563 148.026C52.563 147.956 52.5768 147.89 52.6577 147.89C52.7386 147.89 52.719 147.984 52.719 148.054C52.7191 149.328 44.3574 149.988 36.3612 149.988Z" fill="url(#paint18_linear_919_10910)"/>
<path d="M34.8164 148.128C34.9768 148.032 35.1475 147.937 35.3303 147.844C35.5112 147.75 35.747 147.666 36.0326 147.59C36.3198 147.515 36.679 147.453 37.1102 147.406C37.5415 147.358 38.0807 147.333 38.7245 147.33C39.3562 147.328 39.9489 147.345 40.5038 147.382C41.0571 147.42 41.5454 147.476 41.967 147.55C42.387 147.625 42.7299 147.717 42.9943 147.826C43.2569 147.936 43.4134 148.061 43.4639 148.202L45.3046 148.219C45.4382 148.219 45.5563 148.229 45.6575 148.247C45.7603 148.265 45.8101 148.288 45.8102 148.316L45.811 148.447L43.4445 148.427C43.3615 148.588 43.15 148.735 42.81 148.868C42.4718 149.001 42.0392 149.117 41.5124 149.214L40.6505 149.111C40.5734 149.101 40.5099 149.088 40.4602 149.072C40.4105 149.056 40.3864 149.039 40.3863 149.02C40.3862 148.995 40.4527 148.966 40.5861 148.934C40.7195 148.902 40.87 148.862 41.0374 148.814C41.205 148.766 41.3691 148.71 41.5313 148.645C41.6919 148.58 41.7994 148.502 41.8553 148.412L36.2697 148.364C36.1229 148.458 35.9574 148.549 35.7763 148.64C35.5936 148.73 35.3527 148.811 35.0517 148.883C34.7508 148.955 34.3762 149.014 33.9278 149.059C33.4776 149.104 32.9145 149.128 32.233 149.131C31.721 149.133 31.2227 149.116 30.7345 149.08C30.2463 149.045 29.8128 148.991 29.434 148.92C29.0552 148.849 28.7448 148.76 28.501 148.656C28.259 148.551 28.123 148.43 28.0949 148.294L26.5795 148.28C26.4459 148.279 26.3278 148.27 26.2214 148.253C26.1169 148.235 26.0637 148.212 26.0635 148.183L26.0628 148.052L28.1347 148.069C28.2264 147.931 28.4141 147.81 28.7011 147.708C28.9882 147.605 29.3387 147.514 29.7527 147.434L30.4466 147.517C30.6574 147.542 30.762 147.572 30.7622 147.607C30.7622 147.625 30.7196 147.648 30.6324 147.676C30.5435 147.703 30.441 147.736 30.3213 147.774C30.2034 147.813 30.0872 147.858 29.9762 147.909C29.8635 147.961 29.7799 148.019 29.7238 148.084L34.8164 148.128ZM29.7046 148.307C29.7462 148.393 29.839 148.467 29.9798 148.529C30.1206 148.591 30.2956 148.643 30.5063 148.683C30.7172 148.723 30.9537 148.752 31.2157 148.771C31.4795 148.79 31.7553 148.799 32.0429 148.798C32.3785 148.796 32.6713 148.784 32.9211 148.76C33.1692 148.736 33.3882 148.704 33.578 148.664C33.7662 148.623 33.932 148.576 34.0721 148.523C34.2122 148.469 34.3369 148.411 34.4495 148.348L29.7046 148.307ZM41.8645 148.189C41.8229 148.102 41.7214 148.026 41.5636 147.96C41.4056 147.895 41.2033 147.839 40.9582 147.795C40.7131 147.75 40.4269 147.717 40.0998 147.695C39.7743 147.673 39.4147 147.663 39.0209 147.665C38.6716 147.666 38.3686 147.68 38.1171 147.706C37.8654 147.731 37.6465 147.765 37.4601 147.809C37.2754 147.852 37.1164 147.902 36.9884 147.96C36.8586 148.017 36.7373 148.079 36.6264 148.144L41.8645 148.189Z" fill="#E67C3E"/>
<path d="M36.3635 146.388C29.0741 146.388 21.4843 146.943 20.2703 148.017C20.3177 148.055 20.3619 148.096 20.4029 148.138C21.4262 147.392 27.6933 146.641 36.3635 146.641C45.2563 146.641 51.6238 147.431 52.3951 148.196C52.433 148.154 52.4736 148.114 52.5174 148.076C51.5147 146.963 43.7824 146.388 36.3635 146.388Z" fill="url(#paint19_linear_919_10910)"/>
<path d="M15.4688 144.729V147.867C15.4688 148.881 22.7882 149.703 31.817 149.703C40.8458 149.703 48.1651 148.881 48.1651 147.867V144.729H15.4688Z" fill="url(#paint20_linear_919_10910)"/>
<path d="M31.817 146.565C40.8458 146.565 48.1651 145.743 48.1651 144.729C48.1651 143.715 40.8458 142.894 31.817 142.894C22.7882 142.894 15.4688 143.715 15.4688 144.729C15.4688 145.743 22.7882 146.565 31.817 146.565Z" fill="url(#paint21_linear_919_10910)"/>
<path d="M31.8165 146.692C23.8204 146.692 15.459 146.031 15.459 144.757C15.459 144.687 15.4878 144.563 15.5687 144.563C15.6496 144.563 15.6148 144.66 15.6148 144.73C15.6148 145.538 22.2686 146.439 31.8165 146.439C41.3645 146.439 48.0183 145.538 48.0183 144.73C48.0183 144.66 48.0322 144.594 48.113 144.594C48.1939 144.594 48.1745 144.688 48.1745 144.758C48.1744 146.032 39.8127 146.692 31.8165 146.692Z" fill="url(#paint22_linear_919_10910)"/>
<path d="M30.2718 144.832C30.4322 144.736 30.6029 144.641 30.7856 144.548C30.9665 144.454 31.2023 144.37 31.4879 144.294C31.7751 144.219 32.1344 144.157 32.5655 144.11C32.9968 144.062 33.5359 144.037 34.1797 144.034C34.8116 144.032 35.4042 144.049 35.9591 144.087C36.5124 144.124 37.0007 144.18 37.4223 144.254C37.8423 144.329 38.1853 144.421 38.4495 144.53C38.7122 144.64 38.8687 144.765 38.9191 144.907L40.7599 144.923C40.8935 144.923 41.0117 144.933 41.1128 144.951C41.2157 144.969 41.2654 144.992 41.2655 145.02L41.2662 145.151L38.8998 145.131C38.8168 145.292 38.6053 145.439 38.2653 145.572C37.9271 145.705 37.4945 145.821 36.9677 145.919L36.1058 145.815C36.0287 145.805 35.9653 145.792 35.9156 145.776C35.8658 145.76 35.8417 145.743 35.8416 145.725C35.8415 145.699 35.9081 145.671 36.0414 145.638C36.1748 145.606 36.3252 145.566 36.4928 145.518C36.6603 145.47 36.8244 145.414 36.9867 145.349C37.1473 145.284 37.2547 145.207 37.3107 145.116L31.725 145.068C31.5783 145.162 31.4127 145.253 31.2317 145.344C31.049 145.434 30.8081 145.515 30.5071 145.587C30.2062 145.659 29.8315 145.718 29.3831 145.763C28.9331 145.808 28.3698 145.832 27.6884 145.835C27.1765 145.837 26.678 145.82 26.1899 145.784C25.7017 145.749 25.2682 145.695 24.8894 145.624C24.5106 145.553 24.2001 145.465 23.9564 145.36C23.7144 145.255 23.5784 145.134 23.5503 144.998L22.0348 144.984C21.9013 144.984 21.7831 144.974 21.6768 144.957C21.5722 144.939 21.519 144.916 21.5189 144.887L21.5182 144.756L23.5902 144.773C23.6818 144.635 23.8695 144.514 24.1566 144.412C24.4436 144.309 24.7942 144.218 25.2081 144.138L25.902 144.221C26.1127 144.246 26.2173 144.276 26.2176 144.311C26.2177 144.329 26.175 144.352 26.0878 144.38C25.9989 144.407 25.8965 144.44 25.7767 144.479C25.6588 144.517 25.5426 144.562 25.4316 144.613C25.3189 144.665 25.2354 144.723 25.1792 144.788L30.2718 144.832ZM25.1599 145.011C25.2015 145.097 25.2944 145.171 25.4352 145.233C25.576 145.296 25.7509 145.347 25.9618 145.387C26.1726 145.427 26.4091 145.457 26.6711 145.475C26.935 145.494 27.2107 145.503 27.4983 145.502C27.8339 145.5 28.1266 145.488 28.3764 145.464C28.6246 145.44 28.8436 145.409 29.0334 145.368C29.2216 145.327 29.3873 145.28 29.5275 145.227C29.6676 145.173 29.7922 145.115 29.9049 145.052L25.1599 145.011ZM37.3198 144.893C37.2782 144.806 37.1767 144.73 37.0188 144.664C36.8609 144.599 36.6586 144.544 36.4135 144.499C36.1684 144.454 35.8823 144.421 35.5551 144.399C35.2296 144.378 34.87 144.367 34.4762 144.369C34.1269 144.371 33.8239 144.384 33.5723 144.41C33.3208 144.435 33.1018 144.47 32.9154 144.513C32.7308 144.556 32.5717 144.606 32.4437 144.664C32.3139 144.721 32.1926 144.783 32.0817 144.848L37.3198 144.893Z" fill="#E67C3E"/>
<path d="M31.8188 143.092C24.5294 143.092 16.9396 143.647 15.7255 144.721C15.773 144.759 15.8172 144.8 15.8582 144.842C16.8815 144.096 23.1486 143.345 31.8187 143.345C40.7115 143.345 47.079 144.135 47.8503 144.9C47.8882 144.858 47.9287 144.818 47.9726 144.78C46.9699 143.667 39.2376 143.092 31.8188 143.092Z" fill="url(#paint23_linear_919_10910)"/>
<path d="M19.3902 141.443V144.581C19.3902 145.595 26.7096 146.417 35.7384 146.417C44.7672 146.417 52.0866 145.595 52.0866 144.581V141.443H19.3902Z" fill="url(#paint24_linear_919_10910)"/>
<path d="M35.7384 143.279C44.7673 143.279 52.0867 142.457 52.0867 141.443C52.0867 140.429 44.7673 139.607 35.7384 139.607C26.7096 139.607 19.3902 140.429 19.3902 141.443C19.3902 142.457 26.7096 143.279 35.7384 143.279Z" fill="url(#paint25_linear_919_10910)"/>
<path d="M35.738 143.406C27.7418 143.406 19.3803 142.745 19.3803 141.47C19.3803 141.4 19.4092 141.277 19.4901 141.277C19.571 141.277 19.5362 141.374 19.5362 141.444C19.5362 142.252 26.19 143.153 35.738 143.153C45.286 143.153 51.9397 142.252 51.9397 141.444C51.9397 141.374 51.9535 141.308 52.0344 141.308C52.1153 141.308 52.0958 141.401 52.0958 141.471C52.0959 142.746 43.7342 143.406 35.738 143.406Z" fill="url(#paint26_linear_919_10910)"/>
<path d="M34.1932 141.546C34.3536 141.45 34.5243 141.355 34.707 141.262C34.888 141.168 35.1238 141.084 35.4093 141.008C35.6966 140.933 36.0558 140.871 36.487 140.824C36.9182 140.776 37.4574 140.751 38.1012 140.748C38.7331 140.746 39.3256 140.763 39.8806 140.8C40.4339 140.838 40.9222 140.894 41.3438 140.968C41.7637 141.043 42.1067 141.135 42.371 141.244C42.6336 141.354 42.7901 141.479 42.8405 141.62L44.6813 141.637C44.8149 141.637 44.9331 141.647 45.0342 141.665C45.137 141.683 45.1868 141.706 45.1869 141.734L45.1876 141.865L42.8212 141.845C42.7382 142.006 42.5267 142.153 42.1867 142.286C41.8484 142.419 41.4159 142.535 40.8891 142.632L40.0272 142.529C39.9501 142.519 39.8867 142.506 39.8369 142.49C39.7871 142.474 39.7631 142.457 39.763 142.438C39.7628 142.413 39.8295 142.384 39.9628 142.352C40.0962 142.32 40.2466 142.28 40.4142 142.232C40.5817 142.184 40.7457 142.128 40.908 142.063C41.0686 141.998 41.1761 141.92 41.2321 141.83L35.6464 141.782C35.4997 141.876 35.3341 141.967 35.1531 142.058C34.9704 142.148 34.7295 142.229 34.4285 142.301C34.1276 142.373 33.7529 142.432 33.3046 142.477C32.8545 142.522 32.2913 142.546 31.6098 142.549C31.0979 142.551 30.5995 142.534 30.1113 142.498C29.6231 142.463 29.1896 142.409 28.8108 142.338C28.432 142.267 28.1215 142.179 27.8778 142.074C27.6358 141.969 27.4998 141.848 27.4716 141.712L25.9562 141.698C25.8226 141.698 25.7044 141.689 25.5981 141.671C25.4936 141.654 25.4403 141.63 25.4402 141.601L25.4395 141.47L27.5115 141.487C27.6031 141.349 27.7908 141.228 28.0779 141.126C28.3649 141.023 28.7155 140.932 29.1293 140.852L29.8233 140.935C30.034 140.96 30.1386 140.99 30.1389 141.025C30.1389 141.043 30.0963 141.066 30.0091 141.094C29.9202 141.121 29.8176 141.154 29.698 141.193C29.58 141.231 29.4639 141.276 29.3529 141.327C29.2401 141.379 29.1566 141.437 29.1005 141.502L34.1932 141.546ZM29.0814 141.725C29.123 141.811 29.2158 141.885 29.3566 141.947C29.4974 142.01 29.6723 142.061 29.8832 142.101C30.094 142.141 30.3305 142.17 30.5925 142.189C30.8564 142.208 31.1321 142.217 31.4197 142.216C31.7553 142.214 32.0481 142.202 32.2979 142.178C32.5461 142.154 32.765 142.122 32.9549 142.082C33.143 142.041 33.3089 141.994 33.4489 141.941C33.589 141.887 33.7137 141.829 33.8263 141.766L29.0814 141.725ZM41.2412 141.607C41.1997 141.52 41.0982 141.444 40.9403 141.378C40.7824 141.313 40.58 141.257 40.3349 141.213C40.0898 141.168 39.8037 141.135 39.4765 141.113C39.151 141.091 38.7914 141.081 38.3977 141.083C38.0483 141.084 37.7453 141.098 37.4938 141.124C37.2423 141.149 37.0233 141.183 36.8369 141.227C36.6522 141.27 36.4932 141.32 36.3651 141.378C36.2353 141.435 36.1141 141.497 36.0032 141.562L41.2412 141.607Z" fill="#E67C3E"/>
<path d="M35.7402 139.806C28.4509 139.806 20.861 140.361 19.647 141.435C19.6945 141.473 19.7387 141.514 19.7797 141.556C20.8029 140.81 27.07 140.059 35.7402 140.059C44.6329 140.059 51.0005 140.849 51.7718 141.614C51.8097 141.572 51.8502 141.532 51.894 141.494C50.8914 140.381 43.1591 139.806 35.7402 139.806Z" fill="url(#paint27_linear_919_10910)"/>
<path d="M17.3506 138.147V141.285C17.3506 142.299 24.6699 143.121 33.6987 143.121C42.7275 143.121 50.0468 142.299 50.0468 141.285V138.147H17.3506Z" fill="url(#paint28_linear_919_10910)"/>
<path d="M33.6987 139.983C42.7275 139.983 50.0468 139.161 50.0468 138.147C50.0468 137.133 42.7275 136.312 33.6987 136.312C24.6699 136.312 17.3506 137.133 17.3506 138.147C17.3506 139.161 24.6699 139.983 33.6987 139.983Z" fill="url(#paint29_linear_919_10910)"/>
<path d="M33.6983 140.11C25.7021 140.11 17.3407 139.449 17.3407 138.174C17.3407 138.104 17.3695 137.981 17.4504 137.981C17.5313 137.981 17.4965 138.078 17.4965 138.148C17.4965 138.956 24.1504 139.857 33.6983 139.857C43.2462 139.857 49.9 138.956 49.9 138.148C49.9 138.078 49.9138 138.012 49.9947 138.012C50.0756 138.012 50.0561 138.106 50.0561 138.176C50.0561 139.45 41.6944 140.11 33.6983 140.11Z" fill="#FFDB44"/>
<path d="M32.1535 138.25C32.3139 138.154 32.4846 138.059 32.6673 137.966C32.8483 137.872 33.0841 137.788 33.3696 137.712C33.6569 137.637 34.0161 137.576 34.4474 137.528C34.8786 137.48 35.4178 137.455 36.0616 137.452C36.6934 137.45 37.2859 137.467 37.8409 137.505C38.3942 137.542 38.8825 137.598 39.3041 137.672C39.724 137.747 40.067 137.839 40.3314 137.948C40.5939 138.058 40.7504 138.183 40.8009 138.325L42.6416 138.341C42.7752 138.341 42.8934 138.351 42.9945 138.369C43.0974 138.387 43.1471 138.41 43.1473 138.438L43.148 138.569L40.7816 138.549C40.6985 138.71 40.4871 138.857 40.1471 138.99C39.8088 139.123 39.3763 139.239 38.8494 139.336L37.9876 139.233C37.9104 139.223 37.847 139.21 37.7972 139.194C37.7475 139.178 37.7234 139.161 37.7233 139.143C37.7231 139.117 37.7898 139.089 37.9231 139.056C38.0565 139.024 38.2069 138.984 38.3745 138.936C38.542 138.888 38.7061 138.832 38.8684 138.767C39.029 138.702 39.1364 138.624 39.1924 138.534L33.6067 138.486C33.46 138.58 33.2944 138.671 33.1134 138.762C32.9307 138.852 32.6898 138.933 32.3888 139.005C32.0878 139.077 31.7131 139.136 31.2648 139.181C30.8148 139.226 30.2515 139.25 29.5701 139.253C29.0582 139.255 28.5597 139.238 28.0716 139.202C27.5833 139.167 27.1499 139.113 26.771 139.042C26.3922 138.971 26.0818 138.883 25.838 138.778C25.596 138.673 25.46 138.552 25.4319 138.416L23.9165 138.402C23.7829 138.402 23.6647 138.393 23.5584 138.375C23.4539 138.358 23.4006 138.334 23.4004 138.305L23.3997 138.174L25.4717 138.191C25.5634 138.053 25.7511 137.932 26.0381 137.83C26.3252 137.727 26.6757 137.636 27.0896 137.556L27.7836 137.639C27.9943 137.664 28.0989 137.694 28.0992 137.729C28.0993 137.747 28.0566 137.77 27.9694 137.798C27.8805 137.825 27.778 137.858 27.6584 137.896C27.5404 137.935 27.4242 137.98 27.3132 138.031C27.2005 138.083 27.117 138.141 27.0608 138.206L32.1535 138.25ZM27.0417 138.429C27.0833 138.515 27.1761 138.589 27.3169 138.651C27.4577 138.714 27.6326 138.765 27.8435 138.805C28.0543 138.845 28.2908 138.874 28.5528 138.893C28.8167 138.912 29.0924 138.921 29.38 138.92C29.7156 138.918 30.0083 138.906 30.2581 138.882C30.5063 138.858 30.7253 138.826 30.9151 138.786C31.1033 138.745 31.269 138.698 31.4092 138.645C31.5492 138.591 31.6739 138.533 31.7866 138.47L27.0417 138.429ZM39.2015 138.311C39.1599 138.224 39.0585 138.148 38.9006 138.082C38.7427 138.017 38.5404 137.962 38.2952 137.917C38.0502 137.872 37.764 137.839 37.4369 137.817C37.1114 137.796 36.7518 137.785 36.358 137.787C36.0087 137.789 35.7056 137.802 35.4541 137.828C35.2025 137.853 34.9835 137.888 34.7972 137.931C34.6124 137.974 34.4535 138.024 34.3254 138.082C34.1956 138.139 34.0744 138.201 33.9635 138.266L39.2015 138.311Z" fill="#E67C3E"/>
<path d="M33.7005 136.51C26.4112 136.51 18.8213 137.065 17.6073 138.139C17.6548 138.177 17.699 138.218 17.74 138.26C18.7632 137.514 25.0303 136.763 33.7005 136.763C42.5932 136.763 48.9608 137.553 49.7321 138.318C49.7699 138.276 49.8105 138.236 49.8543 138.198C48.8517 137.085 41.1194 136.51 33.7005 136.51Z" fill="url(#paint30_linear_919_10910)"/>
<path d="M54.6967 140.358L51.7419 142.177C50.787 142.765 54.2555 148.402 59.4889 154.769C64.7222 161.135 69.7388 165.82 70.6936 165.232L73.6484 163.413L54.6967 140.358Z" fill="url(#paint31_linear_919_10910)"/>
<path d="M73.6484 163.413C72.6936 164.001 67.6771 159.316 62.4437 152.95C57.2104 146.583 53.7419 140.946 54.6967 140.358C55.6515 139.771 60.668 144.455 65.9014 150.822C71.1347 157.188 74.6032 162.826 73.6484 163.413Z" fill="#FFDB44"/>
<path d="M62.3245 153.024C57.6898 147.385 53.4656 141.106 54.666 140.368C54.7319 140.327 54.8645 140.276 54.9114 140.333C54.9583 140.39 54.8475 140.421 54.7816 140.462C54.0203 140.93 57.0289 146.144 62.5631 152.877C68.0973 159.609 72.8023 163.779 73.5636 163.31C73.6295 163.27 73.6993 163.242 73.7462 163.299C73.7931 163.356 73.6938 163.396 73.6279 163.437C72.4274 164.176 66.9593 158.662 62.3245 153.024Z" fill="#FFDB44"/>
<path d="M63.1808 150.856C63.3642 150.913 63.5523 150.979 63.7463 151.053C63.9392 151.127 64.1554 151.244 64.392 151.402C64.6295 151.561 64.8955 151.778 65.1902 152.055C65.485 152.331 65.8212 152.697 66.1969 153.149C66.5657 153.593 66.8927 154.021 67.1792 154.434C67.4648 154.846 67.6951 155.223 67.8695 155.563C68.0429 155.902 68.155 156.198 68.2053 156.447C68.2542 156.696 68.2267 156.879 68.1228 156.997L69.1745 158.304C69.2513 158.399 69.311 158.487 69.3525 158.569C69.395 158.652 69.4022 158.701 69.3761 158.717L69.253 158.793L67.8999 157.113C67.7005 157.148 67.4396 157.084 67.117 156.921C66.7953 156.76 66.436 156.522 66.0386 156.207L65.6367 155.539C65.6016 155.479 65.5771 155.427 65.5631 155.383C65.549 155.339 65.5511 155.312 65.5686 155.301C65.5923 155.286 65.658 155.316 65.7656 155.392C65.8735 155.467 65.9984 155.55 66.1405 155.64C66.2825 155.731 66.4306 155.814 66.5859 155.891C66.7401 155.966 66.8754 155.997 66.993 155.984L63.8005 152.018C63.6275 151.969 63.4451 151.905 63.2553 151.83C63.0644 151.753 62.8482 151.63 62.6059 151.46C62.3636 151.289 62.0913 151.059 61.789 150.769C61.4857 150.478 61.1368 150.095 60.739 149.616C60.4403 149.256 60.1672 148.895 59.9178 148.53C59.6685 148.165 59.4676 147.828 59.3151 147.52C59.1626 147.212 59.0657 146.942 59.0232 146.709C58.9818 146.477 59.0166 146.312 59.1286 146.213L58.263 145.136C58.1862 145.042 58.1262 144.953 58.0811 144.868C58.0369 144.784 58.028 144.733 58.0553 144.716L58.1784 144.64L59.3633 146.111C59.5465 146.095 59.7688 146.158 60.0317 146.301C60.2947 146.444 60.5838 146.638 60.899 146.883L61.2236 147.421C61.3216 147.584 61.354 147.675 61.3217 147.695C61.3042 147.706 61.2578 147.689 61.1814 147.644C61.1039 147.597 61.0134 147.544 60.9082 147.482C60.8037 147.421 60.6942 147.365 60.5813 147.316C60.4675 147.267 60.3642 147.241 60.2702 147.24L63.1808 150.856ZM60.0495 147.355C59.9926 147.434 59.9768 147.543 59.9997 147.678C60.0225 147.813 60.0757 147.967 60.16 148.139C60.2444 148.31 60.3538 148.494 60.488 148.69C60.6233 148.887 60.7747 149.086 60.9426 149.288C61.1385 149.524 61.32 149.723 61.487 149.886C61.6531 150.047 61.8102 150.183 61.9584 150.293C62.1057 150.403 62.246 150.492 62.3778 150.56C62.5095 150.628 62.6364 150.682 62.7608 150.725L60.0495 147.355ZM67.2081 155.861C67.2661 155.781 67.2793 155.666 67.2496 155.516C67.2196 155.367 67.1544 155.192 67.0543 154.994C66.9543 154.795 66.8198 154.574 66.6507 154.33C66.4825 154.088 66.2835 153.829 66.0537 153.552C65.8499 153.307 65.6615 153.101 65.4916 152.938C65.3217 152.776 65.1625 152.641 65.0136 152.535C64.866 152.43 64.7265 152.347 64.5981 152.29C64.4687 152.232 64.3405 152.182 64.2145 152.142L67.2081 155.861Z" fill="#E67C3E"/>
<path d="M65.7155 150.938C61.4904 145.799 56.5684 140.768 54.8529 140.535C54.8448 140.591 54.8323 140.645 54.816 140.699C56.1117 140.988 60.4516 144.972 65.4771 151.085C70.6316 157.356 73.5782 162.304 73.3054 163.291C73.3668 163.293 73.4282 163.298 73.4891 163.307C73.9556 161.955 70.0157 156.17 65.7155 150.938Z" fill="url(#paint32_linear_919_10910)"/>
<path d="M150.292 157.128L148.813 157.229C148.429 157.255 148.044 157.242 147.665 157.187L141.797 156.36L141.701 156.347L134.883 155.384L134.841 155.382L129.498 154.634V128.62L134.873 128.617H134.883L141.701 128.911L141.802 128.955L150.049 129.229L150.292 157.128Z" fill="#0D5370"/>
<path d="M171.04 130.277V154.557C171.04 155.426 170.269 156.136 169.271 156.187L149.703 157.194C148.911 157.235 148.235 156.666 148.235 155.96V130.664C148.235 129.958 148.876 129.372 149.67 129.353L169.38 128.878C170.294 128.855 171.04 129.483 171.04 130.277Z" fill="#0D5370"/>
<path d="M129.539 128.621L148.235 129.387L169.38 128.877L147.702 128.266L129.539 128.621Z" fill="#2A8E9E"/>
<path opacity="0.3" d="M169.352 128.878L153.916 129.25C153.038 129.271 152.321 129.912 152.322 130.688C152.324 131.984 152.573 133.323 153.233 134.615C155.43 138.921 160.342 139.081 161.364 143.034C162.216 146.328 159.2 147.745 158.881 151.954C158.798 153.059 158.908 154.249 159.289 155.524C159.489 156.195 160.21 156.653 160.996 156.612L169.494 156.175C170.366 156.13 171.04 155.51 171.04 154.751V130.301C171.04 129.494 170.282 128.855 169.352 128.878Z" fill="#2A8E9E"/>
<path d="M155.095 156.916L162.35 156.543V129.047L155.095 129.222V156.916Z" fill="#FF1D4E"/>
<path d="M155.421 156.899L162.35 156.543V129.047L155.421 129.214V156.899Z" fill="#FF1D4E"/>
<path d="M141.604 128.995V156.361L134.957 155.385V128.84L137.074 128.805L141.604 128.995Z" fill="#FF1D4E"/>
<path d="M142.285 128.372L162.511 129.367H155.239L137.556 128.465L142.285 128.372Z" fill="#FF1D4E"/>
<path d="M152.127 127.532C152.598 125.036 152.942 123.211 154.826 121.526C155.621 120.816 156.488 120.04 157.911 119.834C159.548 119.597 161.636 120.155 162.208 121.312C162.751 122.409 161.471 123.125 162.015 124.386C162.562 125.654 164.154 125.626 164.329 126.65C164.477 127.517 163.499 128.501 162.511 128.962C160.806 129.758 159.837 128.638 156.507 128.819C154.211 128.944 152.886 129.573 152.265 128.938C151.969 128.636 151.998 128.217 152.127 127.532Z" fill="#FF1D4E"/>
<g opacity="0.3">
<path d="M161.244 126.555C159.188 125.874 158.134 124.393 157.223 124.743C156.413 125.055 156.907 126.355 155.956 127.413C155.087 128.379 153.493 128.609 152.078 128.61C152.113 128.733 152.171 128.842 152.265 128.938C152.887 129.572 154.211 128.944 156.507 128.819C159.838 128.638 160.806 129.758 162.511 128.962C163.417 128.539 164.313 127.676 164.341 126.867C163.38 126.956 162.311 126.908 161.244 126.555Z" fill="#FF1D4E"/>
</g>
<path d="M139.705 121.359C141.088 120.414 142.547 121.468 144.25 120.429C145.975 119.377 145.473 117.69 146.811 117.212C148.365 116.656 150.668 118.352 151.769 119.428C154.567 122.162 155.881 127.016 153.67 128.723C152.84 129.364 150.489 129.1 145.822 128.546C140.487 127.912 139.72 127.458 139.209 126.864C137.833 125.264 138.139 122.428 139.705 121.359Z" fill="#FF1D4E"/>
<g opacity="0.3">
<path d="M148.464 123.408C147.695 123.199 147.345 123.96 145.764 124.266C145.474 124.323 142.688 124.827 141.192 123.313C140.599 122.713 140.32 121.905 140.353 121.049C140.134 121.114 139.919 121.213 139.705 121.359C138.139 122.428 137.833 125.264 139.209 126.864C139.719 127.458 140.487 127.912 145.822 128.546C150.489 129.1 152.839 129.364 153.669 128.723C153.781 128.637 153.881 128.541 153.975 128.44C152.855 128.408 151.681 128.173 150.832 127.46C149.196 126.085 149.771 123.765 148.464 123.408Z" fill="#FF1D4E"/>
</g>
<path d="M148.795 128.887L141.701 129.119L134.873 128.839L137.081 128.804L146.747 128.655L148.795 128.887Z" fill="#FF1D4E"/>
<defs>
<linearGradient id="paint0_linear_919_10910" x1="26.8072" y1="102.927" x2="72.192" y2="102.927" gradientUnits="userSpaceOnUse">
<stop stop-color="#FFC444"/>
<stop offset="0.9964" stop-color="#F36F56"/>
</linearGradient>
<linearGradient id="paint1_linear_919_10910" x1="39.0599" y1="102.927" x2="72.192" y2="102.927" gradientUnits="userSpaceOnUse">
<stop stop-color="#FFC444"/>
<stop offset="0.9964" stop-color="#F36F56"/>
</linearGradient>
<linearGradient id="paint2_linear_919_10910" x1="94.6705" y1="96.287" x2="158.17" y2="219.927" gradientUnits="userSpaceOnUse">
<stop stop-color="#FFC444"/>
<stop offset="0.9964" stop-color="#F36F56"/>
</linearGradient>
<linearGradient id="paint3_linear_919_10910" x1="94.4396" y1="86.0315" x2="144.408" y2="221.648" gradientUnits="userSpaceOnUse">
<stop stop-color="#FFC444"/>
<stop offset="0.9964" stop-color="#F36F56"/>
</linearGradient>
<linearGradient id="paint4_linear_919_10910" x1="17.2184" y1="163.945" x2="54.8335" y2="163.945" gradientUnits="userSpaceOnUse">
<stop stop-color="#FCB148"/>
<stop offset="0.0521" stop-color="#FDBA46"/>
<stop offset="0.1424" stop-color="#FFC244"/>
<stop offset="0.3183" stop-color="#FFC444"/>
<stop offset="0.4849" stop-color="#FDB946"/>
<stop offset="0.7754" stop-color="#F99C4D"/>
<stop offset="0.8658" stop-color="#F8924F"/>
<stop offset="1" stop-color="#F8924F"/>
</linearGradient>
<linearGradient id="paint5_linear_919_10910" x1="36.1988" y1="160.278" x2="37.6889" y2="174.694" gradientUnits="userSpaceOnUse">
<stop stop-color="#FFDB44"/>
<stop offset="1" stop-color="#FEEF06"/>
</linearGradient>
<linearGradient id="paint6_linear_919_10910" x1="36.1122" y1="159.638" x2="36.5698" y2="164.065" gradientUnits="userSpaceOnUse">
<stop stop-color="#FFDB44"/>
<stop offset="1" stop-color="#FEEF06"/>
</linearGradient>
<linearGradient id="paint7_linear_919_10910" x1="36.6847" y1="163.587" x2="36.2287" y2="159.176" gradientUnits="userSpaceOnUse">
<stop offset="0.0036" stop-color="#F36F56"/>
<stop offset="0.3059" stop-color="#F99C4C"/>
<stop offset="0.545" stop-color="#FDB946"/>
<stop offset="0.6817" stop-color="#FFC444"/>
<stop offset="0.8038" stop-color="#FFC244"/>
<stop offset="0.8667" stop-color="#FEBA46"/>
<stop offset="0.916" stop-color="#FCAD49"/>
<stop offset="0.958" stop-color="#F99A4D"/>
<stop offset="0.9955" stop-color="#F58152"/>
<stop offset="1" stop-color="#F57E53"/>
</linearGradient>
<linearGradient id="paint8_linear_919_10910" x1="12.6737" y1="160.65" x2="50.2888" y2="160.65" gradientUnits="userSpaceOnUse">
<stop stop-color="#FCB148"/>
<stop offset="0.0521" stop-color="#FDBA46"/>
<stop offset="0.1424" stop-color="#FFC244"/>
<stop offset="0.3183" stop-color="#FFC444"/>
<stop offset="0.4849" stop-color="#FDB946"/>
<stop offset="0.7754" stop-color="#F99C4D"/>
<stop offset="0.8658" stop-color="#F8924F"/>
<stop offset="1" stop-color="#F8924F"/>
</linearGradient>
<linearGradient id="paint9_linear_919_10910" x1="31.6541" y1="156.983" x2="33.1442" y2="171.399" gradientUnits="userSpaceOnUse">
<stop stop-color="#FFDB44"/>
<stop offset="1" stop-color="#FEEF06"/>
</linearGradient>
<linearGradient id="paint10_linear_919_10910" x1="31.5675" y1="156.343" x2="32.0251" y2="160.77" gradientUnits="userSpaceOnUse">
<stop stop-color="#FFDB44"/>
<stop offset="1" stop-color="#FEEF06"/>
</linearGradient>
<linearGradient id="paint11_linear_919_10910" x1="32.14" y1="160.292" x2="31.684" y2="155.881" gradientUnits="userSpaceOnUse">
<stop offset="0.0036" stop-color="#F36F56"/>
<stop offset="0.3059" stop-color="#F99C4C"/>
<stop offset="0.545" stop-color="#FDB946"/>
<stop offset="0.6817" stop-color="#FFC444"/>
<stop offset="0.8038" stop-color="#FFC244"/>
<stop offset="0.8667" stop-color="#FEBA46"/>
<stop offset="0.916" stop-color="#FCAD49"/>
<stop offset="0.958" stop-color="#F99A4D"/>
<stop offset="0.9955" stop-color="#F58152"/>
<stop offset="1" stop-color="#F57E53"/>
</linearGradient>
<linearGradient id="paint12_linear_919_10910" x1="16.5951" y1="157.364" x2="54.2103" y2="157.364" gradientUnits="userSpaceOnUse">
<stop stop-color="#FCB148"/>
<stop offset="0.0521" stop-color="#FDBA46"/>
<stop offset="0.1424" stop-color="#FFC244"/>
<stop offset="0.3183" stop-color="#FFC444"/>
<stop offset="0.4849" stop-color="#FDB946"/>
<stop offset="0.7754" stop-color="#F99C4D"/>
<stop offset="0.8658" stop-color="#F8924F"/>
<stop offset="1" stop-color="#F8924F"/>
</linearGradient>
<linearGradient id="paint13_linear_919_10910" x1="36.0615" y1="157.006" x2="35.6055" y2="152.594" gradientUnits="userSpaceOnUse">
<stop offset="0.0036" stop-color="#F36F56"/>
<stop offset="0.3059" stop-color="#F99C4C"/>
<stop offset="0.545" stop-color="#FDB946"/>
<stop offset="0.6817" stop-color="#FFC444"/>
<stop offset="0.8038" stop-color="#FFC244"/>
<stop offset="0.8667" stop-color="#FEBA46"/>
<stop offset="0.916" stop-color="#FCAD49"/>
<stop offset="0.958" stop-color="#F99A4D"/>
<stop offset="0.9955" stop-color="#F58152"/>
<stop offset="1" stop-color="#F57E53"/>
</linearGradient>
<linearGradient id="paint14_linear_919_10910" x1="18.9747" y1="154.068" x2="56.5899" y2="154.068" gradientUnits="userSpaceOnUse">
<stop stop-color="#FCB148"/>
<stop offset="0.0521" stop-color="#FDBA46"/>
<stop offset="0.1424" stop-color="#FFC244"/>
<stop offset="0.3183" stop-color="#FFC444"/>
<stop offset="0.4849" stop-color="#FDB946"/>
<stop offset="0.7754" stop-color="#F99C4D"/>
<stop offset="0.8658" stop-color="#F8924F"/>
<stop offset="1" stop-color="#F8924F"/>
</linearGradient>
<linearGradient id="paint15_linear_919_10910" x1="38.4411" y1="153.709" x2="37.9851" y2="149.298" gradientUnits="userSpaceOnUse">
<stop offset="0.0036" stop-color="#F36F56"/>
<stop offset="0.3059" stop-color="#F99C4C"/>
<stop offset="0.545" stop-color="#FDB946"/>
<stop offset="0.6817" stop-color="#FFC444"/>
<stop offset="0.8038" stop-color="#FFC244"/>
<stop offset="0.8667" stop-color="#FEBA46"/>
<stop offset="0.916" stop-color="#FCAD49"/>
<stop offset="0.958" stop-color="#F99A4D"/>
<stop offset="0.9955" stop-color="#F58152"/>
<stop offset="1" stop-color="#F57E53"/>
</linearGradient>
<linearGradient id="paint16_linear_919_10910" x1="17.2184" y1="150.512" x2="54.8335" y2="150.512" gradientUnits="userSpaceOnUse">
<stop stop-color="#FCB148"/>
<stop offset="0.0521" stop-color="#FDBA46"/>
<stop offset="0.1424" stop-color="#FFC244"/>
<stop offset="0.3183" stop-color="#FFC444"/>
<stop offset="0.4849" stop-color="#FDB946"/>
<stop offset="0.7754" stop-color="#F99C4D"/>
<stop offset="0.8658" stop-color="#F8924F"/>
<stop offset="1" stop-color="#F8924F"/>
</linearGradient>
<linearGradient id="paint17_linear_919_10910" x1="36.1988" y1="146.845" x2="37.6889" y2="161.261" gradientUnits="userSpaceOnUse">
<stop stop-color="#FFDB44"/>
<stop offset="1" stop-color="#FEEF06"/>
</linearGradient>
<linearGradient id="paint18_linear_919_10910" x1="36.1122" y1="146.205" x2="36.5698" y2="150.633" gradientUnits="userSpaceOnUse">
<stop stop-color="#FFDB44"/>
<stop offset="1" stop-color="#FEEF06"/>
</linearGradient>
<linearGradient id="paint19_linear_919_10910" x1="36.6847" y1="150.154" x2="36.2287" y2="145.742" gradientUnits="userSpaceOnUse">
<stop offset="0.0036" stop-color="#F36F56"/>
<stop offset="0.3059" stop-color="#F99C4C"/>
<stop offset="0.545" stop-color="#FDB946"/>
<stop offset="0.6817" stop-color="#FFC444"/>
<stop offset="0.8038" stop-color="#FFC244"/>
<stop offset="0.8667" stop-color="#FEBA46"/>
<stop offset="0.916" stop-color="#FCAD49"/>
<stop offset="0.958" stop-color="#F99A4D"/>
<stop offset="0.9955" stop-color="#F58152"/>
<stop offset="1" stop-color="#F57E53"/>
</linearGradient>
<linearGradient id="paint20_linear_919_10910" x1="12.6737" y1="147.216" x2="50.2888" y2="147.216" gradientUnits="userSpaceOnUse">
<stop stop-color="#FCB148"/>
<stop offset="0.0521" stop-color="#FDBA46"/>
<stop offset="0.1424" stop-color="#FFC244"/>
<stop offset="0.3183" stop-color="#FFC444"/>
<stop offset="0.4849" stop-color="#FDB946"/>
<stop offset="0.7754" stop-color="#F99C4D"/>
<stop offset="0.8658" stop-color="#F8924F"/>
<stop offset="1" stop-color="#F8924F"/>
</linearGradient>
<linearGradient id="paint21_linear_919_10910" x1="31.6541" y1="143.55" x2="33.1442" y2="157.965" gradientUnits="userSpaceOnUse">
<stop stop-color="#FFDB44"/>
<stop offset="1" stop-color="#FEEF06"/>
</linearGradient>
<linearGradient id="paint22_linear_919_10910" x1="31.5675" y1="142.909" x2="32.0251" y2="147.337" gradientUnits="userSpaceOnUse">
<stop stop-color="#FFDB44"/>
<stop offset="1" stop-color="#FEEF06"/>
</linearGradient>
<linearGradient id="paint23_linear_919_10910" x1="32.14" y1="146.858" x2="31.684" y2="142.446" gradientUnits="userSpaceOnUse">
<stop offset="0.0036" stop-color="#F36F56"/>
<stop offset="0.3059" stop-color="#F99C4C"/>
<stop offset="0.545" stop-color="#FDB946"/>
<stop offset="0.6817" stop-color="#FFC444"/>
<stop offset="0.8038" stop-color="#FFC244"/>
<stop offset="0.8667" stop-color="#FEBA46"/>
<stop offset="0.916" stop-color="#FCAD49"/>
<stop offset="0.958" stop-color="#F99A4D"/>
<stop offset="0.9955" stop-color="#F58152"/>
<stop offset="1" stop-color="#F57E53"/>
</linearGradient>
<linearGradient id="paint24_linear_919_10910" x1="16.5951" y1="143.93" x2="54.2103" y2="143.93" gradientUnits="userSpaceOnUse">
<stop stop-color="#FCB148"/>
<stop offset="0.0521" stop-color="#FDBA46"/>
<stop offset="0.1424" stop-color="#FFC244"/>
<stop offset="0.3183" stop-color="#FFC444"/>
<stop offset="0.4849" stop-color="#FDB946"/>
<stop offset="0.7754" stop-color="#F99C4D"/>
<stop offset="0.8658" stop-color="#F8924F"/>
<stop offset="1" stop-color="#F8924F"/>
</linearGradient>
<linearGradient id="paint25_linear_919_10910" x1="35.5756" y1="140.263" x2="37.0656" y2="154.679" gradientUnits="userSpaceOnUse">
<stop stop-color="#FFDB44"/>
<stop offset="1" stop-color="#FEEF06"/>
</linearGradient>
<linearGradient id="paint26_linear_919_10910" x1="35.489" y1="139.623" x2="35.9466" y2="144.051" gradientUnits="userSpaceOnUse">
<stop stop-color="#FFDB44"/>
<stop offset="1" stop-color="#FEEF06"/>
</linearGradient>
<linearGradient id="paint27_linear_919_10910" x1="36.0615" y1="143.572" x2="35.6055" y2="139.16" gradientUnits="userSpaceOnUse">
<stop offset="0.0036" stop-color="#F36F56"/>
<stop offset="0.3059" stop-color="#F99C4C"/>
<stop offset="0.545" stop-color="#FDB946"/>
<stop offset="0.6817" stop-color="#FFC444"/>
<stop offset="0.8038" stop-color="#FFC244"/>
<stop offset="0.8667" stop-color="#FEBA46"/>
<stop offset="0.916" stop-color="#FCAD49"/>
<stop offset="0.958" stop-color="#F99A4D"/>
<stop offset="0.9955" stop-color="#F58152"/>
<stop offset="1" stop-color="#F57E53"/>
</linearGradient>
<linearGradient id="paint28_linear_919_10910" x1="14.5554" y1="140.634" x2="52.1705" y2="140.634" gradientUnits="userSpaceOnUse">
<stop stop-color="#FCB148"/>
<stop offset="0.0521" stop-color="#FDBA46"/>
<stop offset="0.1424" stop-color="#FFC244"/>
<stop offset="0.3183" stop-color="#FFC444"/>
<stop offset="0.4849" stop-color="#FDB946"/>
<stop offset="0.7754" stop-color="#F99C4D"/>
<stop offset="0.8658" stop-color="#F8924F"/>
<stop offset="1" stop-color="#F8924F"/>
</linearGradient>
<linearGradient id="paint29_linear_919_10910" x1="33.5358" y1="136.968" x2="35.0259" y2="151.383" gradientUnits="userSpaceOnUse">
<stop stop-color="#FFDB44"/>
<stop offset="1" stop-color="#FEEF06"/>
</linearGradient>
<linearGradient id="paint30_linear_919_10910" x1="34.0218" y1="140.276" x2="33.5658" y2="135.864" gradientUnits="userSpaceOnUse">
<stop offset="0.0036" stop-color="#F36F56"/>
<stop offset="0.3059" stop-color="#F99C4C"/>
<stop offset="0.545" stop-color="#FDB946"/>
<stop offset="0.6817" stop-color="#FFC444"/>
<stop offset="0.8038" stop-color="#FFC244"/>
<stop offset="0.8667" stop-color="#FEBA46"/>
<stop offset="0.916" stop-color="#FCAD49"/>
<stop offset="0.958" stop-color="#F99A4D"/>
<stop offset="0.9955" stop-color="#F58152"/>
<stop offset="1" stop-color="#F57E53"/>
</linearGradient>
<linearGradient id="paint31_linear_919_10910" x1="50.7354" y1="139.828" x2="68.5645" y2="168.797" gradientUnits="userSpaceOnUse">
<stop stop-color="#FCB148"/>
<stop offset="0.0521" stop-color="#FDBA46"/>
<stop offset="0.1424" stop-color="#FFC244"/>
<stop offset="0.3183" stop-color="#FFC444"/>
<stop offset="0.4849" stop-color="#FDB946"/>
<stop offset="0.7754" stop-color="#F99C4D"/>
<stop offset="0.8658" stop-color="#F8924F"/>
<stop offset="1" stop-color="#F8924F"/>
</linearGradient>
<linearGradient id="paint32_linear_919_10910" x1="62.3557" y1="153.347" x2="65.6446" y2="149.897" gradientUnits="userSpaceOnUse">
<stop offset="0.0036" stop-color="#F36F56"/>
<stop offset="0.3059" stop-color="#F99C4C"/>
<stop offset="0.545" stop-color="#FDB946"/>
<stop offset="0.6817" stop-color="#FFC444"/>
<stop offset="0.8038" stop-color="#FFC244"/>
<stop offset="0.8667" stop-color="#FEBA46"/>
<stop offset="0.916" stop-color="#FCAD49"/>
<stop offset="0.958" stop-color="#F99A4D"/>
<stop offset="0.9955" stop-color="#F58152"/>
<stop offset="1" stop-color="#F57E53"/>
</linearGradient>
</defs>
</svg>
