<svg width="16" height="16" viewBox="0 0 16 16" fill="currentColor" xmlns="http://www.w3.org/2000/svg">
<g id="state=target">
<path id="Vector" d="M8.09738 2.99933C7.30573 2.99898 6.52612 3.19309 5.82706 3.5646C5.128 3.93611 4.53089 4.47364 4.08821 5.12995C3.64554 5.78625 3.37085 6.54125 3.28829 7.32858C3.20572 8.11591 3.31781 8.91146 3.61471 9.64533C3.64166 9.70659 3.65604 9.77265 3.65699 9.83958C3.65794 9.9065 3.64544 9.97294 3.62024 10.0349C3.59504 10.097 3.55764 10.1533 3.51027 10.2006C3.4629 10.2478 3.40651 10.2851 3.34446 10.3102C3.28241 10.3353 3.21595 10.3477 3.14902 10.3466C3.0821 10.3455 3.01607 10.331 2.95486 10.304C2.89364 10.2769 2.83848 10.2378 2.79265 10.189C2.74682 10.1403 2.71124 10.0828 2.68804 10.02C2.18374 8.77276 2.12604 7.38954 2.52473 6.10464C2.92342 4.81973 3.75399 3.71213 4.87575 2.96944C5.9975 2.22675 7.34149 1.89462 8.68007 2.02932C10.0186 2.16402 11.2695 2.75726 12.2208 3.70855C13.1721 4.65985 13.7654 5.91072 13.9001 7.2493C14.0347 8.58788 13.7026 9.93187 12.9599 11.0536C12.2172 12.1754 11.1096 13.0059 9.82474 13.4046C8.53983 13.8033 7.15662 13.7456 5.90938 13.2413C5.78912 13.1898 5.69388 13.0931 5.64409 12.9721C5.5943 12.8511 5.59392 12.7154 5.64304 12.5941C5.69216 12.4728 5.78687 12.3756 5.90683 12.3234C6.02679 12.2712 6.16246 12.268 6.28471 12.3147C6.94558 12.5814 7.65727 12.6987 8.36879 12.6582C9.08031 12.6176 9.77406 12.4202 10.4003 12.0801C11.0266 11.74 11.57 11.2656 11.9914 10.6909C12.4129 10.1162 12.702 9.45542 12.8381 8.75586C12.9743 8.05631 12.954 7.3353 12.7788 6.6445C12.6036 5.95369 12.2778 5.31018 11.8248 4.76004C11.3717 4.20991 10.8026 3.76678 10.1582 3.46238C9.51379 3.15798 8.81005 2.99986 8.09738 2.99933Z" fill="black"/>
<path id="Vector_2" d="M4.26423 7.83269C4.26423 8.71069 4.55956 9.52003 5.05623 10.1667L4.74356 10.4794L4.72423 10.4994H3.94423C3.6791 10.4996 3.42492 10.6051 3.23756 10.7927L2.14623 11.884C2.07639 11.954 2.02884 12.043 2.00958 12.1399C1.99033 12.2369 2.00023 12.3373 2.03804 12.4286C2.07584 12.52 2.13986 12.598 2.22201 12.653C2.30415 12.7079 2.40073 12.7373 2.49956 12.7374H3.19289V13.4307C3.19298 13.5295 3.22235 13.6261 3.2773 13.7082C3.33225 13.7904 3.4103 13.8544 3.50161 13.8922C3.59292 13.93 3.69339 13.9399 3.79032 13.9207C3.88725 13.9014 3.9763 13.8539 4.04623 13.784L5.13756 12.692C5.32499 12.5048 5.43048 12.2509 5.43089 11.986V11.206L5.45089 11.1867L5.76356 10.8747C6.44999 11.4016 7.29448 11.6807 8.15968 11.6667C9.02488 11.6526 9.85989 11.3463 10.5289 10.7975C11.1979 10.2486 11.6615 9.48959 11.8443 8.64382C12.0272 7.79804 11.9185 6.91529 11.5359 6.13913C11.1534 5.36297 10.5195 4.73907 9.73734 4.36892C8.95519 3.99877 8.07081 3.90413 7.22805 4.10041C6.38529 4.29669 5.63373 4.77233 5.09562 5.44997C4.5575 6.12761 4.26448 6.96738 4.26423 7.83269ZM8.09756 4.99936C8.54219 4.99949 8.98055 5.10425 9.37719 5.30519C9.77383 5.50613 10.1176 5.79759 10.3807 6.15601C10.6439 6.51444 10.8189 6.92975 10.8918 7.36837C10.9647 7.80699 10.9333 8.25661 10.8002 8.68085C10.6671 9.10509 10.436 9.49206 10.1256 9.81044C9.81526 10.1288 9.43432 10.3697 9.01361 10.5136C8.5929 10.6575 8.14423 10.7003 7.70389 10.6387C7.26356 10.577 6.84391 10.4126 6.47889 10.1587L7.57623 9.06069C7.8611 9.18156 8.17914 9.19957 8.47584 9.11164C8.77254 9.02371 9.02942 8.83532 9.20244 8.57876C9.37546 8.3222 9.45385 8.01344 9.42418 7.70541C9.39451 7.39739 9.25861 7.10927 9.0398 6.89046C8.82098 6.67164 8.53287 6.53575 8.22484 6.50608C7.91681 6.4764 7.60806 6.5548 7.35149 6.72782C7.09493 6.90084 6.90654 7.15771 6.81861 7.45441C6.73068 7.75111 6.7487 8.06915 6.86956 8.35403L5.77089 9.45069C5.47528 9.02575 5.30174 8.52793 5.2691 8.0113C5.23647 7.49468 5.346 6.97898 5.58579 6.52022C5.82559 6.06145 6.18648 5.67714 6.62929 5.40902C7.0721 5.1409 7.5799 4.99922 8.09756 4.99936ZM4.72423 11.166L4.76423 11.2054V11.9854C4.76403 12.0737 4.72878 12.1583 4.66623 12.2207L3.85956 13.0274V12.404C3.85956 12.3156 3.82444 12.2308 3.76193 12.1683C3.69942 12.1058 3.61463 12.0707 3.52623 12.0707H2.90223L3.70889 11.264C3.73985 11.233 3.77663 11.2083 3.81713 11.1915C3.85763 11.1747 3.90104 11.166 3.94489 11.166H4.72423Z" fill="black"/>
</g>
</svg>
