<svg width="16" height="16" viewBox="0 0 16 16" fill="currentColor" xmlns="http://www.w3.org/2000/svg">
<g id="state=filled">
<path id="Vector" d="M10.0005 10.5283L11.0338 9.49459C11.173 9.35708 11.3491 9.26296 11.5407 9.22363C11.7323 9.18431 11.9312 9.20149 12.1133 9.27307L13.3726 9.77609C13.5566 9.8508 13.7143 9.97831 13.826 10.1426C13.9376 10.3068 13.9982 10.5005 14 10.6991V13.0065C13.9989 13.1416 13.9705 13.2751 13.9165 13.399C13.8625 13.5228 13.784 13.6345 13.6858 13.7272C13.5875 13.8199 13.4715 13.8917 13.3448 13.9384C13.218 13.985 13.0831 14.0056 12.9482 13.9987C4.12352 13.4495 2.34289 5.97343 2.00614 3.11221C1.99051 2.9717 2.00479 2.82947 2.04805 2.69489C2.09131 2.5603 2.16256 2.4364 2.25712 2.33134C2.35168 2.22628 2.46741 2.14244 2.59668 2.08533C2.72596 2.02823 2.86585 1.99915 3.00717 2.00002H5.23526C5.43408 2.00061 5.62819 2.06069 5.7926 2.17254C5.95702 2.28438 6.08422 2.44288 6.15786 2.62764L6.66068 3.88751C6.73461 4.0689 6.75347 4.26807 6.71491 4.46013C6.67635 4.65218 6.58208 4.82862 6.44387 4.96739L5.41055 6.00112C5.41055 6.00112 6.00563 10.0299 10.0005 10.5283Z" fill="#2a8e9e"/>
</g>
</svg>
