<svg width="16" height="16" viewBox="0 0 16 16" fill="currentColor" xmlns="http://www.w3.org/2000/svg">
<g id="state=outline">
<path id="Vector" fill-rule="evenodd" clip-rule="evenodd" d="M6.72935 1.21252C7.02202 1.07262 7.34229 1 7.66668 1C7.99107 1 8.31135 1.07262 8.60401 1.21252C8.86201 1.33585 9.09735 1.53719 9.42468 1.81585L9.47668 1.85985C9.63535 1.99519 9.68535 2.03652 9.73601 2.07052C9.86468 2.15719 10.0093 2.21652 10.1607 2.24652C10.2207 2.25852 10.2853 2.26452 10.4933 2.28052L10.5607 2.28585C10.9887 2.31985 11.298 2.34452 11.5673 2.43919C11.8733 2.5476 12.1512 2.72298 12.3807 2.9525C12.6102 3.18202 12.7856 3.4599 12.894 3.76585C12.9887 4.03519 13.0127 4.34452 13.0473 4.77252L13.0527 4.83985C13.0687 5.04785 13.0747 5.11319 13.0867 5.17252C13.1167 5.32452 13.1767 5.46919 13.2627 5.59785C13.2967 5.64785 13.338 5.69785 13.4733 5.85652L13.5173 5.90852C13.7967 6.23519 13.9973 6.47119 14.1207 6.72852C14.404 7.32185 14.404 8.01119 14.1207 8.60385C13.998 8.86185 13.7967 9.09719 13.5173 9.42452L13.4733 9.47652C13.3988 9.55939 13.3285 9.64594 13.2627 9.73585C13.176 9.86452 13.1167 10.0092 13.0867 10.1605C13.0747 10.2205 13.0693 10.2852 13.0527 10.4932L13.0467 10.5605C13.0133 10.9885 12.9887 11.2979 12.8933 11.5672C12.7854 11.8733 12.6103 12.1514 12.3808 12.3809C12.1514 12.6105 11.8734 12.7858 11.5673 12.8939C11.298 12.9885 10.9887 13.0125 10.5607 13.0472L10.4933 13.0525C10.382 13.0583 10.2709 13.0696 10.1607 13.0865C10.0091 13.1173 9.86491 13.177 9.73601 13.2625C9.64587 13.3283 9.5591 13.3987 9.47601 13.4732L9.42468 13.5172C9.09801 13.7965 8.86201 13.9972 8.60468 14.1205C8.31192 14.2605 7.99153 14.3332 7.66701 14.3332C7.3425 14.3332 7.0221 14.2605 6.72935 14.1205C6.47135 13.9979 6.23601 13.7965 5.90868 13.5172L5.85668 13.4732C5.77403 13.3987 5.6877 13.3284 5.59801 13.2625C5.46892 13.177 5.32449 13.1172 5.17268 13.0865C5.06243 13.0696 4.9514 13.0583 4.84001 13.0525L4.77268 13.0465C4.34468 13.0132 4.03535 12.9885 3.76601 12.8932C3.4599 12.7853 3.18184 12.6101 2.95227 12.3807C2.72269 12.1512 2.54743 11.8733 2.43935 11.5672C2.34468 11.2979 2.32001 10.9885 2.28601 10.5605L2.28068 10.4932C2.27492 10.3818 2.26357 10.2708 2.24668 10.1605C2.21593 10.0089 2.15617 9.86475 2.07068 9.73585C2.00486 9.64571 1.93454 9.55894 1.86001 9.47585L1.81601 9.42452C1.53735 9.09785 1.33601 8.86185 1.21268 8.60452C1.07267 8.31176 1 7.99137 1 7.66685C1 7.34234 1.07267 7.02194 1.21268 6.72919C1.33601 6.47119 1.53735 6.23585 1.81601 5.90852L1.86001 5.85652C1.93451 5.77387 2.00482 5.68754 2.07068 5.59785C2.15735 5.46919 2.21668 5.32452 2.24668 5.17252C2.25868 5.11252 2.26468 5.04785 2.28068 4.83985L2.28601 4.77252C2.32001 4.34452 2.34468 4.03519 2.43935 3.76585C2.54734 3.45967 2.72257 3.18157 2.95215 2.95199C3.18173 2.72241 3.45983 2.54718 3.76601 2.43919C4.03535 2.34452 4.34468 2.31985 4.77268 2.28585L4.84001 2.28052C4.9514 2.27476 5.06243 2.26341 5.17268 2.24652C5.32468 2.21652 5.46935 2.15652 5.59801 2.07052C5.64801 2.03652 5.69801 1.99519 5.85668 1.85985L5.90868 1.81585C6.23535 1.53719 6.47201 1.33585 6.72935 1.21252ZM8.17068 2.11785C8.01304 2.04275 7.84063 2.00378 7.66601 2.00378C7.4914 2.00378 7.31899 2.04275 7.16135 2.11785C7.03801 2.17652 6.90801 2.28252 6.50735 2.62319L6.48735 2.63985C6.35601 2.75185 6.26068 2.83385 6.15601 2.90385C5.91668 3.06385 5.64868 3.17519 5.36601 3.23052C5.24268 3.25519 5.11735 3.26519 4.94468 3.27919L4.91935 3.28119C4.39468 3.32319 4.22868 3.34052 4.09935 3.38585C3.76601 3.50385 3.50335 3.76585 3.38601 4.09985C3.33935 4.22919 3.32268 4.39519 3.28068 4.91985L3.27868 4.94519C3.26535 5.11785 3.25468 5.24319 3.23068 5.36652C3.17468 5.64919 3.06401 5.91719 2.90401 6.15652C2.83335 6.26119 2.75135 6.35652 2.63935 6.48852L2.62268 6.50785C2.28201 6.90785 2.17601 7.03852 2.11735 7.16119C2.04214 7.31891 2.00311 7.49145 2.00311 7.66619C2.00311 7.84093 2.04214 8.01346 2.11735 8.17119C2.17601 8.29452 2.28201 8.42452 2.62268 8.82519L2.63935 8.84519C2.75135 8.97652 2.83335 9.07185 2.90335 9.17652C3.06335 9.41585 3.17468 9.68385 3.23001 9.96652C3.25468 10.0899 3.26468 10.2152 3.27868 10.3879L3.28068 10.4132C3.32268 10.9379 3.34001 11.1039 3.38535 11.2332C3.50335 11.5665 3.76535 11.8292 4.09935 11.9465C4.22868 11.9932 4.39468 12.0099 4.91935 12.0519L4.94468 12.0539C5.11735 12.0672 5.24268 12.0779 5.36601 12.1019C5.64868 12.1579 5.91668 12.2685 6.15601 12.4285C6.26068 12.4992 6.35601 12.5812 6.48801 12.6932L6.50735 12.7099C6.90735 13.0505 7.03801 13.1565 7.16068 13.2152C7.31841 13.2904 7.49094 13.3294 7.66568 13.3294C7.84042 13.3294 8.01295 13.2904 8.17068 13.2152C8.29401 13.1565 8.42401 13.0505 8.82468 12.7099L8.84468 12.6932C8.97601 12.5812 9.07135 12.4992 9.17601 12.4292C9.41535 12.2692 9.68335 12.1579 9.96601 12.1025C10.1055 12.0789 10.2461 12.0626 10.3873 12.0539L10.4127 12.0519C10.9373 12.0099 11.1033 11.9925 11.2327 11.9472C11.566 11.8292 11.8287 11.5672 11.946 11.2332C11.9927 11.1039 12.0093 10.9372 12.0513 10.4132L12.0533 10.3879C12.0619 10.2464 12.0779 10.1056 12.1013 9.96585C12.1573 9.68385 12.268 9.41585 12.428 9.17652C12.4987 9.07185 12.5807 8.97652 12.6927 8.84452L12.7093 8.82519C13.05 8.42519 13.156 8.29452 13.2147 8.17185C13.2899 8.01413 13.3289 7.84159 13.3289 7.66685C13.3289 7.49211 13.2899 7.31958 13.2147 7.16185C13.156 7.03852 13.05 6.90852 12.7093 6.50785L12.6927 6.48785C12.5807 6.35652 12.4987 6.26119 12.4287 6.15652C12.2692 5.91708 12.1582 5.64868 12.102 5.36652C12.0784 5.22704 12.0621 5.08639 12.0533 4.94519L12.0513 4.91985C12.0093 4.39519 11.992 4.22919 11.9467 4.09985C11.8287 3.76652 11.5667 3.50385 11.2327 3.38652C11.1033 3.33985 10.9367 3.32319 10.4127 3.28119L10.3873 3.27919C10.2459 3.27067 10.1051 3.25465 9.96535 3.23119C9.68342 3.17492 9.41525 3.06394 9.17601 2.90452C9.07135 2.83385 8.97601 2.75185 8.84401 2.63985L8.82468 2.62319C8.42468 2.28252 8.29401 2.17652 8.17135 2.11785" fill="#2a8e9e"/>
<path id="Vector_2" fill-rule="evenodd" clip-rule="evenodd" d="M10.0287 5.30448C10.0753 5.3511 10.1123 5.40644 10.1376 5.46735C10.1628 5.52826 10.1758 5.59355 10.1758 5.65948C10.1758 5.72541 10.1628 5.7907 10.1376 5.85161C10.1123 5.91252 10.0753 5.96786 10.0287 6.01448L6.01472 10.0278C5.91981 10.1177 5.79355 10.1671 5.66281 10.1653C5.53208 10.1636 5.40718 10.1109 5.31468 10.0185C5.22218 9.92611 5.16939 9.80125 5.16753 9.67052C5.16567 9.53978 5.21489 9.41348 5.30472 9.31848L9.31872 5.30515C9.36534 5.25852 9.42068 5.22154 9.4816 5.1963C9.54251 5.17107 9.60779 5.15808 9.67372 5.15808C9.73966 5.15808 9.80494 5.17107 9.86585 5.1963C9.92676 5.22154 9.98211 5.25852 10.0287 5.30515" fill="#2a8e9e"/>
<path id="Vector_3" d="M10.0082 9.33913C10.011 9.42876 9.99582 9.51804 9.96347 9.60168C9.93112 9.68532 9.8823 9.76161 9.8199 9.82601C9.75749 9.89041 9.68279 9.94162 9.60021 9.97659C9.51763 10.0116 9.42887 10.0296 9.3392 10.0296C9.24952 10.0296 9.16076 10.0116 9.07818 9.97659C8.9956 9.94162 8.9209 9.89041 8.8585 9.82601C8.79609 9.76161 8.74727 9.68532 8.71492 9.60168C8.68258 9.51804 8.66737 9.42876 8.6702 9.33913C8.67568 9.16535 8.74857 9.00053 8.87343 8.87955C8.9983 8.75856 9.16533 8.69091 9.3392 8.69091C9.51306 8.69091 9.6801 8.75856 9.80496 8.87955C9.92982 9.00053 10.0027 9.16535 10.0082 9.33913ZM6.66353 5.99379C6.66636 6.08342 6.65115 6.17271 6.6188 6.25635C6.58645 6.33999 6.53763 6.41627 6.47523 6.48068C6.41283 6.54508 6.33812 6.59629 6.25554 6.63126C6.17297 6.66623 6.0842 6.68425 5.99453 6.68425C5.90485 6.68425 5.81609 6.66623 5.73351 6.63126C5.65094 6.59629 5.57623 6.54508 5.51383 6.48068C5.45143 6.41627 5.4026 6.33999 5.37026 6.25635C5.33791 6.17271 5.3227 6.08342 5.32553 5.99379C5.33101 5.82002 5.4039 5.6552 5.52877 5.53421C5.65363 5.41323 5.82067 5.34558 5.99453 5.34558C6.16839 5.34558 6.33543 5.41323 6.46029 5.53421C6.58515 5.6552 6.65804 5.82002 6.66353 5.99379Z" fill="#2a8e9e"/>
</g>
</svg>
