<svg width="10" height="10" viewBox="0 0 16 16" fill="currentColor" xmlns="http://www.w3.org/2000/svg">
<g id="state=percent">
<path id="Vector" d="M5.33333 7.66933C6.62 7.66933 7.66667 6.62267 7.66667 5.336C7.66667 4.04933 6.62 3.00267 5.33333 3.00267C4.04667 3.00267 3 4.04933 3 5.336C3 6.62267 4.04667 7.66933 5.33333 7.66933ZM5.33333 4.336C5.88667 4.336 6.33333 4.78267 6.33333 5.336C6.33333 5.88933 5.88667 6.336 5.33333 6.336C4.78 6.336 4.33333 5.88933 4.33333 5.336C4.33333 4.78267 4.78 4.336 5.33333 4.336ZM3.00133 12.7247L12.7267 3L13.6693 3.94267L3.94467 13.6673L3.00133 12.7247ZM11.3333 9.00267C10.0467 9.00267 9 10.0493 9 11.336C9 12.6227 10.0467 13.6693 11.3333 13.6693C12.62 13.6693 13.6667 12.6227 13.6667 11.336C13.6667 10.0493 12.62 9.00267 11.3333 9.00267ZM11.3333 12.336C10.78 12.336 10.3333 11.8893 10.3333 11.336C10.3333 10.7827 10.78 10.336 11.3333 10.336C11.8867 10.336 12.3333 10.7827 12.3333 11.336C12.3333 11.8893 11.8867 12.336 11.3333 12.336Z" fill="#2a8e9e"/>
</g>
</svg>
