<svg width="40" height="40" viewBox="0 0 40 40" fill="none" xmlns="http://www.w3.org/2000/svg">
<path d="M20.2437 7.49832C18.2646 7.49746 16.3155 7.98273 14.5679 8.9115C12.8202 9.84027 11.3275 11.1841 10.2208 12.8249C9.11409 14.4656 8.42737 16.3531 8.22096 18.3214C8.01455 20.2898 8.29478 22.2787 9.03702 24.1133C9.1044 24.2665 9.14035 24.4316 9.14272 24.5989C9.1451 24.7663 9.11386 24.9323 9.05085 25.0874C8.98784 25.2424 8.89435 25.3832 8.77592 25.5014C8.65749 25.6196 8.51653 25.7128 8.3614 25.7755C8.20626 25.8383 8.04012 25.8692 7.8728 25.8665C7.70549 25.8638 7.54042 25.8276 7.38738 25.7599C7.23434 25.6923 7.09644 25.5946 6.98186 25.4726C6.86728 25.3507 6.77836 25.2069 6.72035 25.05C5.45959 21.9319 5.31535 18.4738 6.31208 15.2616C7.3088 12.0493 9.38521 9.28033 12.1896 7.4236C14.994 5.56687 18.354 4.73656 21.7004 5.0733C25.0469 5.41004 28.174 6.89314 30.5523 9.27138C32.9305 11.6496 34.4136 14.7768 34.7504 18.1233C35.0871 21.4697 34.2568 24.8297 32.4001 27.6341C30.5433 30.4385 27.7743 32.5149 24.5621 33.5116C21.3498 34.5083 17.8918 34.3641 14.7737 33.1033C14.4731 32.9744 14.2349 32.7327 14.1105 32.4302C13.986 32.1277 13.985 31.7885 14.1078 31.4853C14.2306 31.1821 14.4674 30.9391 14.7673 30.8085C15.0672 30.6779 15.4064 30.67 15.712 30.7867C17.3642 31.4535 19.1434 31.7468 20.9222 31.6454C22.701 31.544 24.4354 31.0506 26.0011 30.2003C27.5668 29.35 28.9252 28.1641 29.9788 26.7273C31.0324 25.2905 31.7553 23.6385 32.0956 21.8897C32.4359 20.1408 32.3852 18.3383 31.9473 16.6112C31.5093 14.8842 30.6948 13.2754 29.5621 11.9001C28.4295 10.5248 27.0067 9.41694 25.3957 8.65595C23.7847 7.89496 22.0254 7.49965 20.2437 7.49832Z" fill="#2A8E9E"/>
<path d="M10.6606 19.5815C10.6606 21.7765 11.3989 23.7998 12.6406 25.4165L11.8589 26.1982L11.8106 26.2482H9.86057C9.19775 26.2487 8.56229 26.5125 8.0939 26.9815L5.36557 29.7098C5.19097 29.8846 5.0721 30.1073 5.02396 30.3496C4.97582 30.5919 5.00057 30.8431 5.09509 31.0714C5.18961 31.2996 5.34965 31.4948 5.55501 31.6321C5.76037 31.7695 6.00183 31.8429 6.2489 31.8432H7.98223V33.5765C7.98245 33.8236 8.05588 34.065 8.19325 34.2704C8.33061 34.4757 8.52576 34.6358 8.75403 34.7303C8.9823 34.8248 9.23346 34.8496 9.4758 34.8014C9.71813 34.7533 9.94076 34.6344 10.1156 34.4598L12.8439 31.7298C13.3125 31.2618 13.5762 30.6271 13.5772 29.9648V28.0148L13.6272 27.9665L14.4089 27.1865C16.125 28.5037 18.2362 29.2015 20.3992 29.1664C22.5622 29.1313 24.6497 28.3655 26.3222 26.9934C27.9947 25.6213 29.1537 23.7237 29.6108 21.6093C30.068 19.4949 29.7962 17.288 28.8398 15.3476C27.8835 13.4072 26.2987 11.8474 24.3433 10.9221C22.388 9.99667 20.177 9.76008 18.0701 10.2508C15.9632 10.7415 14.0843 11.9306 12.739 13.6247C11.3937 15.3188 10.6612 17.4182 10.6606 19.5815ZM20.2439 12.4982C21.3555 12.4985 22.4514 12.7604 23.443 13.2627C24.4346 13.7651 25.294 14.4937 25.9518 15.3898C26.6096 16.2858 27.0473 17.3241 27.2295 18.4207C27.4116 19.5172 27.3332 20.6413 27.0004 21.7019C26.6677 22.7625 26.09 23.7299 25.3141 24.5259C24.5381 25.3218 23.5858 25.924 22.534 26.2837C21.4822 26.6434 20.3606 26.7505 19.2597 26.5964C18.1589 26.4423 17.1098 26.0312 16.1972 25.3965L18.9406 22.6515C19.6528 22.9537 20.4479 22.9987 21.1896 22.7789C21.9314 22.559 22.5735 22.0881 23.0061 21.4467C23.4386 20.8052 23.6346 20.0334 23.5604 19.2633C23.4863 18.4932 23.1465 17.7729 22.5995 17.2259C22.0525 16.6789 21.3322 16.3391 20.5621 16.2649C19.792 16.1908 19.0201 16.3867 18.3787 16.8193C17.7373 17.2519 17.2664 17.894 17.0465 18.6358C16.8267 19.3775 16.8717 20.1726 17.1739 20.8848L14.4272 23.6265C13.6882 22.5641 13.2543 21.3196 13.1728 20.028C13.0912 18.7364 13.365 17.4472 13.9645 16.3003C14.564 15.1534 15.4662 14.1926 16.5732 13.5223C17.6803 12.852 18.9498 12.4978 20.2439 12.4982ZM11.8106 27.9148L11.9106 28.0132V29.9632C11.9101 30.184 11.822 30.3956 11.6656 30.5515L9.6489 32.5682V31.0098C9.6489 30.7888 9.5611 30.5769 9.40482 30.4206C9.24854 30.2643 9.03658 30.1765 8.81557 30.1765H7.25557L9.27223 28.1598C9.34963 28.0822 9.44158 28.0206 9.54283 27.9785C9.64407 27.9365 9.75261 27.9148 9.86223 27.9148H11.8106Z" fill="#2A8E9E"/>
</svg>
