<svg width="16" height="16" viewBox="0 0 16 16" fill="none" stroke="currentColor" xmlns="http://www.w3.org/2000/svg">
<g id="state=message">
<path id="Vector" d="M14.3334 8.16667C14.3345 8.97631 14.1757 9.7782 13.8663 10.5264C13.5568 11.2746 13.1027 11.9543 12.5301 12.5267C11.9572 13.0997 11.2769 13.5542 10.5282 13.8642C9.77954 14.1742 8.97709 14.3336 8.16676 14.3333C7.29463 14.3353 6.43211 14.1512 5.63676 13.7933L3.05876 14.1747C2.93076 14.1956 2.7996 14.1849 2.67665 14.1436C2.55371 14.1023 2.44272 14.0316 2.3533 13.9376C2.26389 13.8437 2.19876 13.7293 2.16358 13.6045C2.1284 13.4797 2.12423 13.3481 2.15143 13.2213L2.50943 10.606C2.16889 9.83811 1.99529 9.00667 2.0001 8.16667C1.99906 7.35702 2.15782 6.55513 2.46727 5.80696C2.77672 5.05878 3.23078 4.37903 3.80343 3.80667C4.37636 3.23361 5.05661 2.77909 5.8053 2.46909C6.55399 2.15909 7.35643 1.99969 8.16676 2C9.80318 2.00011 11.3726 2.64994 12.5301 3.80667C13.1024 4.37925 13.5563 5.05904 13.8657 5.80717C14.1752 6.55529 14.3341 7.35708 14.3334 8.16667Z" stroke-linecap="round" stroke-linejoin="round"/>
</g>
</svg>
