<svg width="20" height="20" viewBox="0 0 16 16" fill="currentColor" xmlns="http://www.w3.org/2000/svg">
<g id="state=outline">
<path id="Vector" d="M2.95 13.0053L2.95 13.0054C2.95037 13.371 3.09585 13.7214 3.35449 13.9798C3.61312 14.2382 3.96375 14.3833 4.32933 14.3833H12.3373C13.0975 14.3833 13.7167 13.7664 13.7167 13.0053V5.00467C13.7167 4.60531 13.3959 4.28333 13 4.28333H11.05V3.66667C11.05 2.94616 10.7638 2.25517 10.2543 1.74569C9.74483 1.23622 9.05384 0.95 8.33333 0.95C7.61283 0.95 6.92183 1.23622 6.41236 1.74569C5.90289 2.25517 5.61667 2.94616 5.61667 3.66667V4.28333H3.66667C3.26863 4.28333 2.95 4.60614 2.95 5.00533L2.95 13.0053ZM11 7.05H11.05V7V5.18333H12.8167V13.0052C12.8163 13.1321 12.7657 13.2537 12.6758 13.3434C12.586 13.433 12.4643 13.4833 12.3373 13.4833H4.32933C4.06487 13.4833 3.85 13.2683 3.85 13.0053V5.18333H5.61667V7V7.05H5.66667H6.46667H6.51667V7V5.18333H10.15V7V7.05H10.2H11ZM10.15 3.66667V4.28333H6.51667V3.66667C6.51667 3.18486 6.70806 2.72278 7.04876 2.38209C7.38945 2.0414 7.85152 1.85 8.33333 1.85C8.81514 1.85 9.27722 2.0414 9.61791 2.38209C9.9586 2.72278 10.15 3.18486 10.15 3.66667Z" fill="#f2f9fa" stroke="#f2f9fa" stroke-width="0.1"/>
</g>
</svg>
