<svg width="16" height="16" viewBox="0 0 16 16" fill="currentColor" xmlns="http://www.w3.org/2000/svg">
<g id="state=filled">
<path id="Vector" fill-rule="evenodd" clip-rule="evenodd" d="M5.33333 4.33333V4C5.33333 3.20435 5.6494 2.44129 6.21201 1.87868C6.77462 1.31607 7.53768 1 8.33333 1C9.12898 1 9.89204 1.31607 10.4547 1.87868C11.0173 2.44129 11.3333 3.20435 11.3333 4V4.33333H13C13.368 4.33333 13.6667 4.63267 13.6667 5.00467V13.0053C13.6667 13.7387 13.07 14.3333 12.3373 14.3333H4.32933C3.977 14.3333 3.63908 14.1935 3.38982 13.9445C3.14056 13.6954 3.00035 13.3577 3 13.0053V5.00533C3 4.63333 3.29667 4.33333 3.66667 4.33333H5.33333ZM6.33333 4.33333H10.3333V4C10.3333 3.46957 10.1226 2.96086 9.74755 2.58579C9.37247 2.21071 8.86377 2 8.33333 2C7.8029 2 7.29419 2.21071 6.91912 2.58579C6.54405 2.96086 6.33333 3.46957 6.33333 4V4.33333ZM5.33333 4.33333V7H6.33333V4.33333H5.33333ZM10.3333 4.33333V7H11.3333V4.33333H10.3333Z" fill="#006bdd"/>
</g>
</svg>
