<svg width="24" height="24" viewBox="0 0 24 24" fill="currentColor" xmlns="http://www.w3.org/2000/svg">
<g id="icon/delivery">
<g id="Group">
<path id="Vector" d="M16.5002 19.4C17.4943 19.4 18.3002 18.5941 18.3002 17.6C18.3002 16.6059 17.4943 15.8 16.5002 15.8C15.5061 15.8 14.7002 16.6059 14.7002 17.6C14.7002 18.5941 15.5061 19.4 16.5002 19.4Z" stroke="black" stroke-linecap="round" stroke-linejoin="round"/>
<path id="Vector_2" d="M7.5002 19.4C8.49431 19.4 9.3002 18.5941 9.3002 17.6C9.3002 16.6059 8.49431 15.8 7.5002 15.8C6.50608 15.8 5.7002 16.6059 5.7002 17.6C5.7002 18.5941 6.50608 19.4 7.5002 19.4Z" stroke="black" stroke-linecap="round" stroke-linejoin="round"/>
<path id="Vector_3" d="M5.7 17.5748C4.7127 17.5262 4.098 17.3795 3.6588 16.9412C3.2196 16.5029 3.0738 15.8873 3.0252 14.9M9.3 17.6H14.7M18.3 17.5748C19.2873 17.5262 19.902 17.3795 20.3412 16.9412C21 16.2815 21 15.2213 21 13.1V11.3H16.77C16.0995 11.3 15.7647 11.3 15.4938 11.2118C15.2237 11.124 14.9781 10.9736 14.7773 10.7727C14.5764 10.5719 14.426 10.3263 14.3382 10.0562C14.25 9.7853 14.25 9.4505 14.25 8.78C14.25 7.7747 14.25 7.2725 14.1177 6.8657C13.986 6.4605 13.7603 6.09221 13.4591 5.79094C13.1578 5.48967 12.7895 5.26397 12.3843 5.1323C11.9775 5 11.4753 5 10.47 5H3M3 8.6H8.4M3 11.3H6.6" stroke="black" stroke-linecap="round" stroke-linejoin="round"/>
<path id="Vector_4" d="M14.25 6.79999H15.8889C17.1993 6.79999 17.8536 6.79999 18.3864 7.11859C18.9201 7.43629 19.2306 8.01319 19.8516 9.16699L21 11.3" stroke="black" stroke-linecap="round" stroke-linejoin="round"/>
</g>
</g>
</svg>
