<svg width="16" height="16" viewBox="0 0 16 16" fill="currentColor" xmlns="http://www.w3.org/2000/svg">
<g id="state=outline">
<path id="Vector" fill-rule="evenodd" clip-rule="evenodd" d="M8 14C4.6862 14 2 11.3138 2 8C2 4.6862 4.6862 2 8 2C11.3138 2 14 4.6862 14 8C14 11.3138 11.3138 14 8 14ZM8 13.28C9.40034 13.28 10.7433 12.7237 11.7335 11.7335C12.7237 10.7433 13.28 9.40034 13.28 8C13.28 6.59966 12.7237 5.25667 11.7335 4.26648C10.7433 3.27628 9.40034 2.72 8 2.72C6.59966 2.72 5.25667 3.27628 4.26648 4.26648C3.27628 5.25667 2.72 6.59966 2.72 8C2.72 9.40034 3.27628 10.7433 4.26648 11.7335C5.25667 12.7237 6.59966 13.28 8 13.28ZM7.2968 9.5348L10.7822 6.05L11.291 6.5594L7.721 10.1294C7.60848 10.2419 7.4559 10.3051 7.2968 10.3051C7.1377 10.3051 6.98512 10.2419 6.8726 10.1294L5 8.2556L5.5094 7.7462L7.2974 9.5342L7.2968 9.5348Z" fill="#0bbf0b"/>
</g>
</svg>
