<svg width="16" height="16" viewBox="0 0 16 16" fill="currentColor" xmlns="http://www.w3.org/2000/svg">
<g id="state=filled">
<path id="Vector" d="M12.5 4H3.5C3.10231 4.00036 2.72102 4.13457 2.43981 4.37317C2.1586 4.61178 2.00043 4.93529 2 5.27273V10.7273C2.00043 11.0647 2.1586 11.3882 2.43981 11.6268C2.72102 11.8654 3.10231 11.9996 3.5 12H12.5C12.8977 11.9996 13.279 11.8654 13.5602 11.6268C13.8414 11.3882 13.9996 11.0647 14 10.7273V5.27273C13.9996 4.93529 13.8414 4.61178 13.5602 4.37317C13.279 4.13457 12.8977 4.00036 12.5 4ZM12.1202 6.10523L8.26304 8.65068C8.18782 8.70029 8.09527 8.72723 8 8.72723C7.90473 8.72723 7.81218 8.70029 7.73696 8.65068L3.87982 6.10523C3.8345 6.07619 3.79644 6.0398 3.76784 5.99817C3.73924 5.95654 3.72068 5.91051 3.71323 5.86274C3.70578 5.81497 3.70959 5.76643 3.72445 5.71992C3.7393 5.67341 3.7649 5.62988 3.79976 5.59184C3.83462 5.5538 3.87804 5.52202 3.92749 5.49834C3.97695 5.47466 4.03146 5.45956 4.08786 5.45391C4.14426 5.44826 4.20142 5.45218 4.25601 5.46544C4.31061 5.4787 4.36156 5.50103 4.40589 5.53114L8 7.90295L11.5941 5.53114C11.684 5.47355 11.797 5.44829 11.9086 5.46083C12.0202 5.47336 12.1216 5.52268 12.1907 5.59812C12.2598 5.67356 12.2912 5.76905 12.278 5.86395C12.2648 5.95884 12.2081 6.04552 12.1202 6.10523Z" fill="black"/>
</g>
</svg>
