<svg width="24" height="24" viewBox="0 0 24 24" fill="currentColor" xmlns="http://www.w3.org/2000/svg">
<g id="icon/fish">
<path id="Vector" d="M17.6154 3.00048C16.9798 2.9871 16.3077 3.25595 15.8786 3.42262L13.5751 4.67442L15.7652 5.17482L15.5709 4.36259C16.8907 3.59496 17.8785 3.64889 18.3562 3.91409C18.5991 4.04913 18.7125 4.2239 18.7408 4.39624C18.7651 4.56899 18.7125 4.76891 18.4898 4.99234L14.3969 9.09204L4.56212 15.0044C3.4059 16.1722 2.65857 17.8064 2.28814 19.2176C2.1011 19.9272 2.00961 20.5842 2.0007 21.0748C1.99625 21.3222 2.01325 21.529 2.04281 21.675C2.07034 21.8088 2.1177 21.8818 2.11649 21.8818C2.11244 21.8777 2.18491 21.9264 2.32538 21.9548C2.46991 21.9872 2.67638 22.0034 2.92252 21.9994C3.41521 21.9913 4.06781 21.898 4.77709 21.7115C6.15031 21.3506 7.73323 20.6288 8.88702 19.5258L8.88297 19.5136C10.4699 18.9743 11.6156 17.7294 12.9111 16.6061C11.2958 16.6061 9.65622 16.6345 7.96804 16.3142C9.47809 16.2655 10.6197 16.0952 11.1217 15.864L14.8098 9.71247L19.008 5.50977C19.2307 5.28634 19.429 5.23565 19.6031 5.2616C19.7732 5.28796 19.9472 5.40109 20.0849 5.64481C20.348 6.12371 20.4007 7.1091 19.6355 8.43511L18.8258 8.23641L19.3238 10.4343L20.7245 7.84712C21.0403 7.13748 21.1415 6.05072 20.7205 5.29039C20.4978 4.8861 20.1294 4.60386 19.7124 4.53979C19.6598 4.53168 19.6031 4.52763 19.5505 4.52682H19.4695C19.4736 4.44653 19.4695 4.36624 19.4574 4.28716C19.3967 3.86584 19.1133 3.50047 18.7084 3.27582C18.4088 3.10754 18.0364 3.0094 17.6154 3.00048ZM6.64421 9.60298C5.51066 11.0223 4.96939 12.4415 4.74794 14.0352L7.82634 12.1861C7.10978 11.4805 7.13002 10.7749 6.64421 9.60298ZM4.86697 17.0319C5.09489 17.036 5.3127 17.1252 5.47423 17.2874C5.81429 17.628 5.81429 18.1835 5.47423 18.5242C5.13254 18.8689 4.57791 18.8689 4.23623 18.5242C3.89576 18.1835 3.89576 17.628 4.23623 17.2874C4.40343 17.1211 4.63095 17.0278 4.86697 17.0319Z" fill="#0d5370"/>
</g>
</svg>
