<svg width="28" height="28" viewBox="0 0 16 16" fill="currentColor" xmlns="http://www.w3.org/2000/svg">
<g id="icon/history">
<path id="Vector" d="M2.84401 10.7068C3.40792 11.8473 4.32273 12.7769 5.45402 13.359C6.57704 13.9359 7.85763 14.1307 9.10138 13.9137C10.3489 13.6941 11.4919 13.0766 12.3594 12.1536C13.2347 11.2216 13.7921 10.0361 13.9514 8.76741C14.1129 7.49584 13.8694 6.20572 13.2554 5.08056C12.6471 3.96396 11.6961 3.07234 10.5427 2.5371C9.39718 2.00652 8.10981 1.8642 6.87604 2.13175C5.64269 2.39909 4.63202 3.00712 3.79601 3.9685C3.69535 4.07518 3.30601 4.50587 2.98267 5.1559M5.00002 5.33324L2.594 5.81326L2 3.33314M8.00004 5.99994V8.66674L10.0001 10.0001" fill="none" stroke="#2a8e9e"  stroke-width="1.2" stroke-linecap="round" stroke-linejoin="round"/>
</g>
</svg>
