<svg width="16" height="16" viewBox="0 0 16 16" fill="currentColor" xmlns="http://www.w3.org/2000/svg">
<g id="state=outline">
<path id="Vector" d="M2.84903 13.2133H5.98367V8.90274C5.98367 8.7086 6.04961 8.54587 6.18149 8.41455C6.31281 8.28267 6.47554 8.21672 6.66968 8.21672H9.21678C9.41093 8.21672 9.57394 8.28267 9.70583 8.41455C9.83715 8.54587 9.9028 8.7086 9.9028 8.90274V13.2133H13.0374V5.83349C13.0374 5.74632 13.0185 5.66708 12.9806 5.59576C12.9426 5.52444 12.8908 5.46218 12.8252 5.40897L8.25398 1.96359C8.16681 1.88775 8.06323 1.84982 7.94323 1.84982C7.82324 1.84982 7.71994 1.88775 7.63334 1.96359L3.06129 5.40897C2.9962 5.46331 2.94441 5.52557 2.90592 5.59576C2.86743 5.66594 2.84847 5.74519 2.84903 5.83349V13.2133ZM2 13.2133V5.83349C2 5.61613 2.04868 5.41039 2.14603 5.21624C2.24339 5.02209 2.37754 4.86219 2.54848 4.73654L7.12052 1.27418C7.35995 1.09135 7.63334 0.999939 7.94069 0.999939C8.24804 0.999939 8.52312 1.09135 8.76595 1.27418L13.338 4.73569C13.5095 4.86134 13.6436 5.02153 13.7404 5.21624C13.8378 5.41039 13.8865 5.61613 13.8865 5.83349V13.2133C13.8865 13.4408 13.8018 13.6392 13.6326 13.8085C13.4634 13.9777 13.265 14.0623 13.0374 14.0623H9.73979C9.54508 14.0623 9.38206 13.9967 9.25075 13.8653C9.11943 13.7335 9.05377 13.5704 9.05377 13.3763V9.06661H6.8327V13.3763C6.8327 13.571 6.76704 13.734 6.63572 13.8653C6.50441 13.9967 6.34167 14.0623 6.14753 14.0623H2.84903C2.62149 14.0623 2.4231 13.9777 2.25386 13.8085C2.08462 13.6392 2 13.4408 2 13.2133Z" fill="black"/>
</g>
</svg>
