<svg width="18" height="18" viewBox="0 0 16 16" fill="currentColor" xmlns="http://www.w3.org/2000/svg">
<g id="state=filled">
<path id="Vector" d="M2 13.2133V5.83349C2 5.61613 2.04868 5.41039 2.14603 5.21624C2.24339 5.02209 2.37754 4.86219 2.54848 4.73654L7.12052 1.27418C7.35995 1.09135 7.63334 0.999939 7.94069 0.999939C8.24804 0.999939 8.52312 1.09135 8.76595 1.27418L13.338 4.73569C13.5095 4.86134 13.6436 5.02153 13.7404 5.21624C13.8378 5.41039 13.8865 5.61613 13.8865 5.83349V13.2133C13.8865 13.4408 13.8018 13.6392 13.6326 13.8085C13.4634 13.9777 13.265 14.0623 13.0374 14.0623H10.1643C9.96959 14.0623 9.80658 13.9967 9.67526 13.8653C9.54395 13.7335 9.47829 13.5704 9.47829 13.3763V9.32726C9.47829 9.13311 9.41263 8.97038 9.28131 8.83907C9.14943 8.70718 8.98641 8.64124 8.79227 8.64124H7.0942C6.90006 8.64124 6.73732 8.70718 6.60601 8.83907C6.47412 8.97038 6.40818 9.13311 6.40818 9.32726V13.3772C6.40818 13.5713 6.34252 13.734 6.21121 13.8653C6.07989 13.9967 5.91716 14.0623 5.72301 14.0623H2.84903C2.62149 14.0623 2.4231 13.9777 2.25386 13.8085C2.08462 13.6392 2 13.4408 2 13.2133Z" fill="#0d5370"/>
</g>
</svg>
