<svg width="16" height="16" viewBox="0 0 16 16" fill="currentColor" xmlns="http://www.w3.org/2000/svg">
<g id="state=filled">
<path id="Vector" fill-rule="evenodd" clip-rule="evenodd" d="M8 2C4.68636 2 2 4.68636 2 8C2 11.3136 4.68636 14 8 14C11.3136 14 14 11.3136 14 8C14 4.68636 11.3136 2 8 2ZM7.72727 4.72727C7.58261 4.72727 7.44387 4.78474 7.34158 4.88703C7.23929 4.98933 7.18182 5.12806 7.18182 5.27273C7.18182 5.41739 7.23929 5.55613 7.34158 5.65842C7.44387 5.76071 7.58261 5.81818 7.72727 5.81818H8C8.14466 5.81818 8.2834 5.76071 8.38569 5.65842C8.48799 5.55613 8.54545 5.41739 8.54545 5.27273C8.54545 5.12806 8.48799 4.98933 8.38569 4.88703C8.2834 4.78474 8.14466 4.72727 8 4.72727H7.72727ZM6.90909 6.90909C6.76443 6.90909 6.62569 6.96656 6.5234 7.06885C6.4211 7.17114 6.36364 7.30988 6.36364 7.45455C6.36364 7.59921 6.4211 7.73795 6.5234 7.84024C6.62569 7.94253 6.76443 8 6.90909 8H7.45455V9.63636H6.90909C6.76443 9.63636 6.62569 9.69383 6.5234 9.79612C6.4211 9.89842 6.36364 10.0372 6.36364 10.1818C6.36364 10.3265 6.4211 10.4652 6.5234 10.5675C6.62569 10.6698 6.76443 10.7273 6.90909 10.7273H9.09091C9.23557 10.7273 9.37431 10.6698 9.4766 10.5675C9.5789 10.4652 9.63636 10.3265 9.63636 10.1818C9.63636 10.0372 9.5789 9.89842 9.4766 9.79612C9.37431 9.69383 9.23557 9.63636 9.09091 9.63636H8.54545V7.45455C8.54545 7.30988 8.48799 7.17114 8.38569 7.06885C8.2834 6.96656 8.14466 6.90909 8 6.90909H6.90909Z" fill="black"/>
</g>
</svg>
