<svg width="16" height="16" viewBox="0 0 16 16" fill="currentColor" xmlns="http://www.w3.org/2000/svg">
<g id="state=filled">
<path id="Vector" fill-rule="evenodd" clip-rule="evenodd" d="M2.11096 3.10494C2.82135 2.39745 3.78471 2 4.7892 2C5.79369 2 6.75705 2.39745 7.46744 3.10494C7.60634 3.24282 7.78514 3.4144 8.00384 3.6197C8.22204 3.4144 8.40059 3.24282 8.53949 3.10494C9.2469 2.40351 10.2036 2.00854 11.2017 2.00588C12.1998 2.00322 13.1586 2.39307 13.8697 3.09072C14.5809 3.78837 14.987 4.73744 14.9997 5.73168C15.0124 6.72593 14.6307 7.68499 13.9376 8.40046L8.53873 13.779C8.39666 13.9205 8.20398 14 8.00308 14C7.80219 14 7.60951 13.9205 7.46744 13.779L2.06853 8.40122C1.37608 7.68977 0.99232 6.73553 1.00012 5.74458C1.00791 4.75363 1.4074 3.8055 2.11096 3.10494Z" fill="black"/>
</g>
</svg>
