<svg width="16" height="16" viewBox="0 0 16 16" fill="currentColor" xmlns="http://www.w3.org/2000/svg">
<g id="state=outline">
<path id="Vector" fill-rule="evenodd" clip-rule="evenodd" d="M13.2618 7.78068C13.7965 7.23957 14.0935 6.509 14.0876 5.74969C14.0816 4.99038 13.7732 4.26453 13.2301 3.73181C12.9612 3.46803 12.6427 3.25961 12.293 3.11845C11.9432 2.97729 11.569 2.90614 11.1916 2.90908C10.4295 2.91501 9.701 3.22234 9.16633 3.76345C9.02114 3.90811 8.83663 4.08566 8.6128 4.29612L7.99046 4.88002L7.36811 4.29612C7.14378 4.08516 6.95902 3.90761 6.81383 3.76345C6.27494 3.22654 5.54406 2.92491 4.78196 2.92491C4.01986 2.92491 3.28897 3.22654 2.75008 3.76345C1.64 4.87023 1.62715 6.6596 2.70925 7.77164L7.99046 13.0335L13.2618 7.78068ZM2.10808 3.12455C2.45919 2.77464 2.87604 2.49707 3.33483 2.30769C3.79361 2.11832 4.28535 2.02084 4.78196 2.02084C5.27856 2.02084 5.7703 2.11832 6.22909 2.30769C6.68788 2.49707 7.10473 2.77464 7.45583 3.12455C7.59346 3.26218 7.77167 3.43345 7.99046 3.63838C8.20824 3.43345 8.38644 3.26193 8.52508 3.1238C9.22872 2.41194 10.1874 2.00774 11.1901 2.00011C12.1929 1.99248 13.1576 2.38205 13.8721 3.08311C14.5865 3.78418 14.9922 4.73932 14.9999 5.7384C15.0075 6.73749 14.6165 7.69869 13.9129 8.41054L8.52508 13.7794C8.38327 13.9207 8.19097 14 7.99046 14C7.78994 14 7.59764 13.9207 7.45583 13.7794L2.06649 8.40979C1.37537 7.69962 0.992335 6.74709 1.00012 5.75793C1.0079 4.76876 1.40587 3.82234 2.10808 3.12305V3.12455Z" fill="black"/>
</g>
</svg>
