<svg width="24" height="24" viewBox="0 0 16 16" fill="currentColor" xmlns="http://www.w3.org/2000/svg">
<g id="state=outline">
<path id="Vector" d="M8 9C7.50555 9 7.0222 8.85338 6.61108 8.57867C6.19995 8.30397 5.87952 7.91352 5.6903 7.45671C5.50108 6.99989 5.45157 6.49723 5.54804 6.01227C5.6445 5.52732 5.8826 5.08187 6.23223 4.73223C6.58187 4.3826 7.02732 4.1445 7.51227 4.04804C7.99723 3.95157 8.49989 4.00108 8.95671 4.1903C9.41352 4.37952 9.80397 4.69995 10.0787 5.11108C10.3534 5.5222 10.5 6.00555 10.5 6.5C10.4992 7.1628 10.2356 7.79822 9.76689 8.26689C9.29822 8.73556 8.6628 8.99921 8 9ZM8 5C7.70333 5 7.41332 5.08797 7.16665 5.2528C6.91997 5.41762 6.72771 5.65189 6.61418 5.92598C6.50065 6.20006 6.47095 6.50166 6.52882 6.79264C6.5867 7.08361 6.72956 7.35088 6.93934 7.56066C7.14912 7.77044 7.41639 7.9133 7.70737 7.97118C7.99834 8.02906 8.29994 7.99935 8.57403 7.88582C8.84811 7.77229 9.08238 7.58003 9.24721 7.33336C9.41203 7.08668 9.5 6.79667 9.5 6.5C9.4996 6.1023 9.34144 5.721 9.06022 5.43978C8.779 5.15856 8.3977 5.0004 8 5Z" fill="#0d5370"/>
<path id="Vector_2" d="M8 15L3.39855 10.0255C3.33461 9.95081 3.27133 9.87564 3.20873 9.8C2.42312 8.8507 1.99854 7.69155 2 6.5C2 5.04131 2.63214 3.64236 3.75736 2.61091C4.88258 1.57946 6.4087 1 8 1C9.5913 1 11.1174 1.57946 12.2426 2.61091C13.3679 3.64236 14 5.04131 14 6.5C14.0013 7.69098 13.5769 8.84954 12.7918 9.7985L12.7913 9.8C12.7913 9.8 12.6276 9.997 12.6031 10.0235L8 15ZM4.07982 9.1975C4.07982 9.1975 4.20691 9.3515 4.23582 9.3845L8 13.454L11.7691 9.379C11.7931 9.3515 11.9207 9.1965 11.9213 9.196C12.5634 8.42057 12.9104 7.47352 12.9091 6.5C12.9091 5.30653 12.3919 4.16193 11.4713 3.31802C10.5506 2.47411 9.30197 2 8 2C6.69803 2 5.44938 2.47411 4.52875 3.31802C3.60812 4.16193 3.09091 5.30653 3.09091 6.5C3.08957 7.47415 3.43697 8.42179 4.07982 9.1975Z" fill="#0d5370"/>
</g>
</svg>
