<svg width="16" height="16" viewBox="0 0 16 16" fill="currentColor" xmlns="http://www.w3.org/2000/svg">
<g id="state=filled">
<path id="Vector" d="M8 1C6.40928 1.00172 4.88425 1.58174 3.75943 2.61281C2.63462 3.64389 2.00188 5.04184 2 6.5C1.99854 7.69155 2.42312 8.8507 3.20873 9.8C3.20873 9.8 3.37237 9.9975 3.39909 10.026L8 15L12.6031 10.0235C12.6271 9.997 12.7913 9.8 12.7913 9.8L12.7918 9.7985C13.5769 8.84954 14.0013 7.69098 14 6.5C13.9981 5.04184 13.3654 3.64389 12.2406 2.61281C11.1158 1.58174 9.59072 1.00172 8 1ZM8 8.5C7.56848 8.5 7.14665 8.3827 6.78785 8.16294C6.42905 7.94318 6.1494 7.63082 5.98426 7.26537C5.81913 6.89991 5.77592 6.49778 5.86011 6.10982C5.94429 5.72186 6.15209 5.36549 6.45722 5.08579C6.76236 4.80608 7.15112 4.6156 7.57435 4.53843C7.99758 4.46126 8.43627 4.50087 8.83495 4.65224C9.23362 4.80362 9.57437 5.05996 9.81412 5.38886C10.0539 5.71776 10.1818 6.10444 10.1818 6.5C10.1811 7.03023 9.95099 7.53855 9.54198 7.91348C9.13297 8.28841 8.57843 8.49934 8 8.5Z" fill="black"/>
</g>
</svg>
