<svg width="16" height="16" viewBox="0 0 16 16" fill="currentColor" xmlns="http://www.w3.org/2000/svg">
<g id="state=filled">
<path id="Vector" fill-rule="evenodd" clip-rule="evenodd" d="M2 8C2 8.22078 2.18537 8.39996 2.41378 8.39996H8.46761L7.38572 9.29587C7.34443 9.33005 7.3105 9.37175 7.28588 9.4186C7.26125 9.46545 7.24642 9.51653 7.24222 9.56892C7.23802 9.62132 7.24453 9.67399 7.26139 9.72395C7.27825 9.77391 7.30513 9.82017 7.34049 9.86009C7.37584 9.9 7.41898 9.9328 7.46745 9.9566C7.51592 9.9804 7.56876 9.99474 7.62297 9.9988C7.67717 10.0029 7.73167 9.99657 7.78335 9.98027C7.83503 9.96397 7.88289 9.93799 7.92419 9.90382L9.85515 8.30397C9.90057 8.26642 9.93704 8.21981 9.96205 8.16733C9.98705 8.11486 10 8.05777 10 8C10 7.94223 9.98705 7.88514 9.96205 7.83267C9.93704 7.78019 9.90057 7.73358 9.85515 7.69603L7.92419 6.09619C7.84078 6.02717 7.73243 5.993 7.62297 6.0012C7.5135 6.0094 7.41189 6.0593 7.34049 6.13991C7.26908 6.22053 7.23373 6.32527 7.24222 6.43108C7.2507 6.53689 7.30232 6.63511 7.38572 6.70413L8.46706 7.60004H2.41433C2.30459 7.60004 2.19934 7.64218 2.12174 7.71719C2.04415 7.79219 2.00055 7.89392 2.00055 8" fill="black"/>
<path id="Vector_2" d="M6 6.65H6.23262C6.13095 6.36965 6.12707 6.06442 6.22156 5.7817C6.31606 5.49897 6.50365 5.25458 6.75521 5.08646C7.00677 4.91834 7.30822 4.83591 7.61275 4.85195C7.91729 4.868 8.20787 4.98163 8.43938 5.1752L10.5932 6.9752C10.7448 7.10194 10.8665 7.25914 10.9499 7.43603C11.0333 7.61292 11.0765 7.80531 11.0765 8C11.0765 8.19469 11.0333 8.38708 10.9499 8.56397C10.8665 8.74086 10.7448 8.89806 10.5932 9.0248L8.43938 10.8248C8.20787 11.0184 7.91729 11.132 7.61275 11.148C7.30822 11.1641 7.00677 11.0817 6.75521 10.9135C6.50365 10.7454 6.31606 10.501 6.22156 10.2183C6.12707 9.93558 6.13095 9.63035 6.23262 9.35H6V10.4C6 12.0968 6 12.9458 6.54092 13.4726C7.08123 14 7.952 14 9.69231 14H10.3077C12.048 14 12.9188 14 13.4591 13.4726C14 12.9458 14 12.0968 14 10.4V5.6C14 3.9032 14 3.0542 13.4591 2.5274C12.9188 2 12.048 2 10.3077 2H9.69231C7.952 2 7.08123 2 6.54092 2.5274C6 3.0542 6 3.9032 6 5.6V6.65Z" fill="black"/>
</g>
</svg>
