<svg width="16" height="16" viewBox="0 0 16 16" fill="currentColor" xmlns="http://www.w3.org/2000/svg">
<g id="state=outline">
<g id="Group">
<path id="Vector" d="M2 7.99974H10.4004M10.4004 7.99974L8.30031 6.19965M10.4004 7.99974L8.30031 9.79983" stroke="black" stroke-width="1.5" stroke-linecap="round" stroke-linejoin="round"/>
<path id="Vector_2" d="M6.20068 5.00015C6.20788 3.69508 6.26609 2.98825 6.72691 2.52743C7.25434 2 8.10278 2 9.79966 2H10.3997C12.0972 2 12.9456 2 13.473 2.52743C13.9999 3.05425 13.9999 3.90329 13.9999 5.60018V10.4004C13.9999 12.0973 13.9999 12.9463 13.473 13.4732C12.945 14.0006 12.0972 14.0006 10.3997 14.0006H9.79966C8.10278 14.0006 7.25434 14.0006 6.72691 13.4732C6.26609 13.0123 6.20788 12.3055 6.20068 11.0004" stroke="black" stroke-width="1.5" stroke-linecap="round"/>
</g>
</g>
</svg>
