<svg width="16" height="16" viewBox="0 0 16 16" fill="currentColor" xmlns="http://www.w3.org/2000/svg">
<g id="state=filled">
<path id="Vector" d="M14.9428 11.3394L13.3405 8.44313L14.9265 5.665C14.9642 5.5988 14.9847 5.52308 14.986 5.44558C14.9874 5.36809 14.9695 5.29161 14.9341 5.22396C14.8988 5.15631 14.8473 5.09993 14.7849 5.06058C14.7225 5.02123 14.6515 5.00032 14.579 5H1.81752C1.6007 5 1.39276 5.09219 1.23945 5.25628C1.08613 5.42038 1 5.64294 1 5.875L1 11.125C1 11.3571 1.08613 11.5796 1.23945 11.7437C1.39276 11.9078 1.6007 12 1.81752 12H14.5913C14.6635 12 14.7343 11.9795 14.7967 11.9407C14.8591 11.9019 14.9107 11.8461 14.9464 11.779C14.9821 11.7119 15.0006 11.6359 15 11.5587C14.9994 11.4815 14.9796 11.4058 14.9428 11.3394ZM5.29608 9.89125H4.83827L3.50571 7.9925V9.89563H3.04381V7.1875H3.50571L4.84236 9.09063V7.1875H5.30017L5.29608 9.89125ZM7.88354 7.625H6.44061V8.27688H7.74865V8.71438H6.44061V9.41875H7.88354V9.85625H5.97871V7.1875H7.87945L7.88354 7.625ZM11.2722 9.8825H10.8103L10.1767 7.87437L9.54311 9.89125H9.0853L8.26777 7.1875H8.76646L9.30603 9.12563L9.92735 7.1875H10.426L11.0228 9.12563L11.5665 7.1875H12.0693L11.2722 9.8825Z" fill="black"/>
</g>
</svg>
