<svg width="60" height="60" viewBox="0 0 16 16" fill="currentColor" xmlns="http://www.w3.org/2000/svg">
<g id="state=new">
<path id="Vector" d="M14 7.99373C14 7.85495 13.9323 7.73295 13.8293 7.65643L13.8315 7.65267L12.3805 6.80856L13.2157 5.35086L13.2129 5.34914C13.2392 5.28905 13.2512 5.22356 13.2477 5.15796C13.2443 5.09237 13.2256 5.0285 13.1932 4.97154C13.1604 4.91467 13.1148 4.86638 13.06 4.83058C13.0053 4.79478 12.9429 4.77248 12.878 4.76549V4.76141H11.2024V3.07775H11.199C11.192 3.01244 11.1698 2.94971 11.1343 2.89463C11.0988 2.83955 11.0509 2.79366 10.9945 2.76068C10.9379 2.7278 10.8744 2.70889 10.8092 2.70548C10.7439 2.70207 10.6788 2.71427 10.6192 2.74108L10.6172 2.73747L9.1418 3.59585L8.32484 2.16982L8.32188 2.17155C8.28341 2.11852 8.23309 2.07537 8.17499 2.04556C8.1169 2.01576 8.05266 2.00015 7.98747 2C7.84976 2 7.72854 2.06821 7.65275 2.17202L7.64902 2.16982L6.81852 3.61937L5.38845 2.78734L5.38673 2.79032C5.3271 2.76379 5.26211 2.75176 5.19702 2.75522C5.13192 2.75868 5.06855 2.77753 5.01202 2.81023C4.95556 2.84324 4.9076 2.88919 4.87205 2.94436C4.8365 2.99953 4.81435 3.06237 4.80739 3.12777H4.80319V4.80156H3.15184V4.80485C3.08703 4.81191 3.02478 4.83425 2.97012 4.87004C2.91546 4.90583 2.86992 4.95409 2.83719 5.0109C2.80471 5.06791 2.78601 5.13184 2.7826 5.19749C2.77919 5.26315 2.79118 5.32869 2.81758 5.38881L2.81401 5.391L3.63034 6.81593L2.16853 7.66647L2.17024 7.66945C2.11762 7.70822 2.07479 7.75893 2.04522 7.81747C2.01564 7.87601 2.00015 7.94074 2 8.00643C2 8.14521 2.06769 8.26736 2.17071 8.34373L2.16853 8.34749L3.61945 9.1916L2.78428 10.6493L2.78708 10.6509C2.76075 10.711 2.74882 10.7764 2.75225 10.842C2.75569 10.9076 2.77439 10.9715 2.80685 11.0285C2.83962 11.0853 2.88523 11.1336 2.93998 11.1694C2.99472 11.2052 3.05707 11.2275 3.12196 11.2345V11.2387H4.79743V12.9222H4.80086C4.81517 13.0502 4.88629 13.17 5.00533 13.2393C5.06196 13.2721 5.12546 13.2909 5.19067 13.2943C5.25588 13.2977 5.32098 13.2856 5.38067 13.2589L5.38269 13.2625L6.85804 12.4042L7.675 13.8302L7.67796 13.8285C7.71644 13.8815 7.76676 13.9246 7.82485 13.9544C7.88295 13.9842 7.94718 13.9998 8.01237 14C8.15009 14 8.27131 13.9318 8.34709 13.8281L8.35067 13.8302L9.18117 12.3806L10.6114 13.2127L10.6131 13.2097C10.6727 13.2362 10.7377 13.2482 10.8028 13.2448C10.8679 13.2413 10.9313 13.2225 10.9878 13.1898C11.0443 13.1568 11.0922 13.1108 11.1278 13.0556C11.1633 13.0005 11.1855 12.9376 11.1925 12.8722H11.1967V11.1986H12.8482V11.1953C12.913 11.1882 12.9752 11.1659 13.0299 11.1301C13.0845 11.0943 13.1301 11.0461 13.1628 10.9893C13.1953 10.9322 13.214 10.8683 13.2174 10.8026C13.2208 10.7369 13.2088 10.6713 13.1824 10.6112L13.186 10.6092L12.3697 9.18422L13.8315 8.33369L13.8298 8.33071C13.8824 8.29194 13.9252 8.24123 13.9548 8.18269C13.9844 8.12415 13.9998 8.05942 14 7.99373ZM7.0219 9.78057L5.48975 9.09845L6.16588 10.2784L5.7837 10.5008L4.74701 8.69169L5.13993 8.4629L6.62291 9.11554L5.97168 7.97899L6.35402 7.75663L7.39039 9.56574L7.0219 9.78057ZM7.74581 9.35938L6.70928 7.55011L7.97985 6.81107L8.17405 7.15009L7.28566 7.66678L7.50321 8.04657L8.37261 7.54086L8.56682 7.87957L7.69741 8.38559L7.93363 8.79785L8.82202 8.28116L9.01622 8.62018L7.74581 9.35938ZM10.6878 7.64781L9.66108 6.58872L10.0605 8.01255L9.65423 8.24901L8.10356 6.7391L8.53149 6.49008L9.59557 7.61409L9.18833 6.10794L9.4871 5.93419L10.5753 7.04425L10.1411 5.55362L10.5691 5.3046L11.0943 7.41149L10.6878 7.64781Z" fill="#0bbf0b"/>
</g>
</svg>
