<svg width="16" height="16" viewBox="0 0 16 16" fill="currentColor" xmlns="http://www.w3.org/2000/svg">
<g id="state=outline">
<path id="Vector" d="M14.8395 10.6874L13.2071 8.49999L14.8075 6.35631C14.8951 6.23904 14.9502 6.09692 14.9665 5.94659C14.9828 5.79627 14.9596 5.64399 14.8996 5.50759C14.8387 5.3547 14.7379 5.22493 14.6097 5.13462C14.4816 5.0443 14.3318 4.9975 14.1794 5.0001H1.7762C1.67584 4.99837 1.57615 5.01827 1.48283 5.05866C1.3895 5.09906 1.30437 5.15916 1.23229 5.23553C1.16021 5.31191 1.1026 5.40307 1.06274 5.50379C1.02288 5.60452 1.00156 5.71284 1 5.82258V11.1818C1.00421 11.4026 1.08822 11.6127 1.23368 11.766C1.37914 11.9193 1.57419 12.0034 1.7762 11.9999H14.2234C14.3707 12.0026 14.5157 11.9591 14.6412 11.8746C14.7667 11.7901 14.8674 11.6681 14.9316 11.523C14.9891 11.3882 15.011 11.2385 14.9948 11.0908C14.9785 10.9432 14.9247 10.8034 14.8395 10.6874ZM1.8002 11.1249V5.87508H14.1154L12.1789 8.46937L14.1434 11.1249H1.8002Z" fill="black"/>
<path id="Vector_2" d="M4.59347 9.11165L3.41016 7H3V10H3.41016V7.8932L4.59347 10H5V7H4.59347V9.11165Z" fill="black"/>
<path id="Vector_3" d="M6 10H8V9.50485H6.48498V8.7233H7.85408V8.2233H6.48498V7.5H8V7H6V10Z" fill="black"/>
<path id="Vector_4" d="M10.8942 9.15049L10.2635 7H9.7365L9.10151 9.15049L8.53132 7H8L8.84665 10H9.32613L10 7.77184L10.6695 10H11.1577L12 7H11.4687L10.8942 9.15049Z" fill="black"/>
</g>
</svg>
