<svg width="24" height="24" viewBox="0 0 16 16" fill="none" xmlns="http://www.w3.org/2000/svg">
<path d="M9.53602 5.99996C9.38268 5.99996 9.2549 5.94885 9.15268 5.84663C9.05046 5.7444 8.99935 5.61396 8.99935 5.45529V3.21129C8.99935 3.05263 9.05135 2.92218 9.15535 2.81996C9.25935 2.71774 9.38824 2.66663 9.54202 2.66663H12.7953C12.9496 2.66663 13.0776 2.71774 13.1793 2.81996C13.2811 2.92218 13.3322 3.05263 13.3327 3.21129V5.45529C13.3327 5.6144 13.2807 5.74485 13.1767 5.84663C13.0727 5.94885 12.9438 5.99996 12.79 5.99996H9.53602ZM3.20268 7.99996C3.04935 7.99996 2.92157 7.94885 2.81935 7.84663C2.71713 7.7444 2.66602 7.61774 2.66602 7.46663V3.19996C2.66602 3.04885 2.71802 2.92218 2.82202 2.81996C2.92602 2.71774 3.0549 2.66663 3.20868 2.66663H6.46202C6.61624 2.66663 6.74424 2.71774 6.84602 2.81996C6.94779 2.92218 6.9989 3.04885 6.99935 3.19996V7.46663C6.99935 7.61774 6.94735 7.7444 6.84335 7.84663C6.73935 7.94885 6.61046 7.99996 6.45668 7.99996H3.20268ZM9.53602 13.3333C9.38268 13.3333 9.2549 13.2822 9.15268 13.18C9.05046 13.0777 8.99935 12.9511 8.99935 12.8V8.53329C8.99935 8.38218 9.05135 8.25551 9.15535 8.15329C9.25935 8.05107 9.38824 7.99996 9.54202 7.99996H12.7953C12.9496 7.99996 13.0776 8.05107 13.1793 8.15329C13.2811 8.25551 13.3322 8.38218 13.3327 8.53329V12.8C13.3327 12.9511 13.2807 13.0777 13.1767 13.18C13.0727 13.2822 12.9438 13.3333 12.79 13.3333H9.53602ZM3.20268 13.3333C3.04935 13.3333 2.92157 13.2822 2.81935 13.18C2.71713 13.0777 2.66602 12.9473 2.66602 12.7886V10.5446C2.66602 10.386 2.71802 10.2555 2.82202 10.1533C2.92602 10.0511 3.0549 9.99996 3.20868 9.99996H6.46202C6.61624 9.99996 6.74424 10.0511 6.84602 10.1533C6.94779 10.2555 6.9989 10.386 6.99935 10.5446V12.7886C6.99935 12.9477 6.94735 13.0782 6.84335 13.18C6.73935 13.2822 6.61046 13.3333 6.45668 13.3333H3.20268Z" fill="#0d5370"/>
</svg>
