<svg width="24" height="24" viewBox="0 0 24 24" fill="currentColor" xmlns="http://www.w3.org/2000/svg">
<g id="icon/pay">
<g id="Group">
<g id="Group_2">
<path id="Vector" d="M19.9801 19.3339L18.8292 6.36349C18.8085 6.10681 18.5933 5.91223 18.3324 5.91223H15.9064C15.9023 3.75533 14.147 2 11.9901 2C9.83316 2 8.07783 3.75533 8.07369 5.91223H5.64769C5.39102 5.91223 5.17574 6.10681 5.1509 6.36349L4 19.3339C4 19.3504 4 19.3629 4 19.3794C4 20.8243 5.32892 22 6.96005 22H17.0201C18.6512 22 19.9801 20.8243 19.9801 19.3794C19.9801 19.3629 19.9801 19.3504 19.9801 19.3339ZM11.9901 2.99358C13.6005 2.99358 14.9087 4.3018 14.9129 5.91223H9.06727C9.07141 4.3018 10.3796 2.99358 11.9901 2.99358ZM17.0201 21.0023H6.96005C5.88367 21.0023 5.006 20.2861 4.99358 19.396L6.10308 6.90582H8.07369V8.64873C8.07369 8.92196 8.29725 9.14552 8.57048 9.14552C8.84372 9.14552 9.06727 8.92196 9.06727 8.64873V6.90582H14.9129V8.64873C14.9129 8.92196 15.1364 9.14552 15.4096 9.14552C15.6829 9.14552 15.9064 8.92196 15.9064 8.64873V6.90582H17.877L18.9865 19.4001C18.9741 20.2861 18.0965 21.0023 17.0201 21.0023Z" fill="#f9feff"  stroke="#f9feff" stroke-width="0.7"/>
<path id="Vector_2" d="M14.0558 12.3416L11.1248 15.2726L9.92833 14.0762C9.73376 13.8816 9.41912 13.8816 9.22455 14.0762C9.02997 14.2708 9.02997 14.5854 9.22455 14.78L10.7729 16.3283C10.8681 16.4235 10.9964 16.4732 11.1248 16.4732C11.2531 16.4732 11.3773 16.4235 11.4767 16.3283L14.7596 13.0453C14.9542 12.8508 14.9542 12.5361 14.7596 12.3416C14.565 12.1511 14.2504 12.1511 14.0558 12.3416Z" fill="#f9feff" stroke="#f9feff" stroke-width="0.7"/>
</g>
</g>
</g>
</svg>
