<svg width="16" height="16" viewBox="0 0 16 16" fill="currentColor" xmlns="http://www.w3.org/2000/svg">
<g id="state=outline">
<path id="Vector" d="M12.6159 14H12.5374C3.47155 13.4785 2.18433 5.82615 2.00439 3.49077C1.9899 3.30919 2.01136 3.12653 2.06754 2.95327C2.12373 2.78 2.21355 2.61952 2.33184 2.48104C2.45013 2.34255 2.59457 2.22878 2.75689 2.14623C2.91921 2.06369 3.09622 2.01399 3.27777 2H5.81991C6.00472 1.99982 6.18532 2.05516 6.33832 2.15884C6.49132 2.26253 6.60968 2.40979 6.67806 2.58154L7.37934 4.30769C7.44686 4.47548 7.46362 4.65942 7.42753 4.83666C7.39144 5.01389 7.30409 5.17662 7.17634 5.30462L6.19362 6.29692C6.34713 7.16958 6.76488 7.974 7.39036 8.60137C8.01585 9.22873 8.81887 9.64875 9.69079 9.80462L10.692 8.81231C10.8218 8.68592 10.986 8.60058 11.1641 8.56693C11.3421 8.53327 11.5261 8.5528 11.6931 8.62308L13.4325 9.32C13.6016 9.39056 13.7459 9.50989 13.8469 9.66277C13.948 9.81566 14.0013 9.99518 14 10.1785V12.6154C14 12.9826 13.8542 13.3348 13.5946 13.5945C13.335 13.8541 12.983 14 12.6159 14ZM3.3885 2.92308C3.26614 2.92308 3.14879 2.9717 3.06226 3.05826C2.97574 3.14481 2.92713 3.26221 2.92713 3.38462V3.42154C3.13936 6.15385 4.5004 12.6154 12.5882 13.0769C12.6488 13.0807 12.7096 13.0724 12.767 13.0526C12.8244 13.0328 12.8773 13.0019 12.9228 12.9616C12.9682 12.9213 13.0052 12.8724 13.0317 12.8177C13.0583 12.7631 13.0737 12.7037 13.0772 12.6431V10.1785L11.3379 9.48154L10.0138 10.7969L9.7923 10.7692C5.77839 10.2662 5.23397 6.25077 5.23397 6.20923L5.20629 5.98769L6.51658 4.66308L5.82453 2.92308H3.3885Z" fill="black"/>
</g>
</svg>
