<svg width="16" height="16" viewBox="0 0 16 16" fill="currentColor" xmlns="http://www.w3.org/2000/svg">
<g id="state=outline">
<path id="Vector" d="M11.0771 3H8.19594C8.10637 2.99994 8.02043 3.03533 7.95688 3.09844L2.19688 8.85703C2.07079 8.98374 2 9.15523 2 9.33399C2 9.51274 2.07079 9.68423 2.19688 9.81094L4.93906 12.5531C5.06581 12.6792 5.23734 12.75 5.41613 12.75C5.59493 12.75 5.76645 12.6792 5.8932 12.5531L11.6516 6.79688C11.7147 6.73333 11.7501 6.64738 11.75 6.55781V3.675C11.7504 3.58642 11.7333 3.49862 11.6997 3.41667C11.6661 3.33471 11.6166 3.26022 11.554 3.19749C11.4915 3.13475 11.4171 3.085 11.3353 3.05111C11.2534 3.01721 11.1657 2.99985 11.0771 3Z" stroke="black" stroke-linecap="round" stroke-linejoin="round"/>
<path id="Vector_2" d="M9.875 5.625C9.72666 5.625 9.58166 5.58101 9.45832 5.4986C9.33499 5.41619 9.23886 5.29906 9.18209 5.16201C9.12532 5.02497 9.11047 4.87417 9.13941 4.72868C9.16835 4.5832 9.23978 4.44956 9.34467 4.34467C9.44956 4.23978 9.5832 4.16835 9.72868 4.13941C9.87417 4.11047 10.025 4.12532 10.162 4.18209C10.2991 4.23886 10.4162 4.33499 10.4986 4.45832C10.581 4.58166 10.625 4.72666 10.625 4.875C10.625 5.07391 10.546 5.26468 10.4053 5.40533C10.2647 5.54598 10.0739 5.625 9.875 5.625Z" fill="black"/>
<path id="Vector_3" d="M7.01562 13.5L13.1562 7.35938C13.1868 7.32859 13.2108 7.29197 13.2269 7.25171C13.243 7.21145 13.2509 7.16836 13.25 7.125V4.125" stroke="black" stroke-linecap="round" stroke-linejoin="round"/>
</g>
</svg>
