<svg width="16" height="16" viewBox="0 0 16 16" fill="currentColor" xmlns="http://www.w3.org/2000/svg">
<g id="state=filled">
<path id="Vector" d="M12.5 5.93281V3.05C12.5004 2.91217 12.4736 2.77561 12.4211 2.64816C12.3686 2.52071 12.2915 2.40488 12.1941 2.30732C12.0968 2.20976 11.9811 2.13239 11.8538 2.07965C11.7264 2.02691 11.5899 1.99985 11.4521 2H8.5709C8.38198 2.00039 8.20083 2.07526 8.06676 2.20836L2.30676 7.96672C2.11031 8.1638 2 8.43072 2 8.70899C2 8.98725 2.11031 9.25417 2.30676 9.45125L5.04895 12.1934C5.24596 12.3899 5.51285 12.5003 5.7911 12.5003C6.06934 12.5003 6.33624 12.3899 6.53324 12.1934L12.2916 6.43695C12.4247 6.30291 12.4996 6.12174 12.5 5.93281ZM10.25 5C10.1016 5 9.95662 4.95601 9.83329 4.8736C9.70995 4.79119 9.61382 4.67406 9.55705 4.53701C9.50029 4.39997 9.48544 4.24917 9.51437 4.10368C9.54331 3.9582 9.61474 3.82456 9.71963 3.71967C9.82452 3.61478 9.95816 3.54335 10.1036 3.51441C10.2491 3.48547 10.3999 3.50033 10.537 3.55709C10.674 3.61386 10.7912 3.70999 10.8736 3.83332C10.956 3.95666 11 4.10166 11 4.25C11 4.44891 10.9209 4.63968 10.7803 4.78033C10.6396 4.92098 10.4489 5 10.25 5Z" fill="#0d5370"/>
<path id="Vector_2" d="M13.625 3.125C13.5255 3.125 13.4301 3.16451 13.3598 3.23484C13.2895 3.30516 13.25 3.40054 13.25 3.5V6.48523L7.1255 12.6099C7.08921 12.6444 7.06019 12.6858 7.04015 12.7317C7.02011 12.7775 7.00946 12.8269 7.00882 12.877C7.00818 12.927 7.01756 12.9767 7.03642 13.0231C7.05528 13.0694 7.08323 13.1116 7.11862 13.147C7.15402 13.1823 7.19614 13.2103 7.2425 13.2292C7.28887 13.248 7.33854 13.2574 7.38859 13.2568C7.43864 13.2561 7.48805 13.2455 7.53392 13.2254C7.57979 13.2054 7.62118 13.1764 7.65566 13.1401L13.7963 6.99945C13.8616 6.93383 13.9132 6.85589 13.9482 6.77015C13.9832 6.68441 14.0008 6.59259 14 6.5V3.5C14 3.40054 13.9604 3.30516 13.8901 3.23484C13.8198 3.16451 13.7244 3.125 13.625 3.125Z" fill="#0d5370"/>
</g>
</svg>
