<svg width="16" height="16" viewBox="0 0 16 16" fill="currentColor" xmlns="http://www.w3.org/2000/svg">
<g id="state=no">
<path id="Vector" d="M8 12.8C6.72696 12.8 5.50606 12.2943 4.60589 11.3941C3.70571 10.4939 3.2 9.27304 3.2 8C3.2 6.72696 3.70571 5.50606 4.60589 4.60589C5.50606 3.70571 6.72696 3.2 8 3.2C9.27304 3.2 10.4939 3.70571 11.3941 4.60589C12.2943 5.50606 12.8 6.72696 12.8 8C12.8 9.27304 12.2943 10.4939 11.3941 11.3941C10.4939 12.2943 9.27304 12.8 8 12.8ZM8 2C7.21207 2 6.43185 2.15519 5.7039 2.45672C4.97595 2.75825 4.31451 3.20021 3.75736 3.75736C2.63214 4.88258 2 6.4087 2 8C2 9.5913 2.63214 11.1174 3.75736 12.2426C4.31451 12.7998 4.97595 13.2417 5.7039 13.5433C6.43185 13.8448 7.21207 14 8 14C9.5913 14 11.1174 13.3679 12.2426 12.2426C13.3679 11.1174 14 9.5913 14 8C14 7.21207 13.8448 6.43185 13.5433 5.7039C13.2417 4.97595 12.7998 4.31451 12.2426 3.75736C11.6855 3.20021 11.0241 2.75825 10.2961 2.45672C9.56815 2.15519 8.78793 2 8 2Z" fill="black"/>
</g>
</svg>
