<svg width="16" height="16" viewBox="0 0 16 16" fill="currentColor" xmlns="http://www.w3.org/2000/svg">
<g id="icon/relode">
<path id="Vector" fill-rule="evenodd" clip-rule="evenodd" d="M7.575 3.01811C8.43794 2.94446 9.30522 3.09624 10.0919 3.45859C10.8785 3.82093 11.5576 4.38141 12.0625 5.08511V4.0938C12.0625 3.96947 12.1119 3.85024 12.1998 3.76233C12.2877 3.67441 12.4069 3.62502 12.5312 3.62502C12.6556 3.62502 12.7748 3.67441 12.8627 3.76233C12.9506 3.85024 13 3.96947 13 4.0938V6.75022H10.3438C10.2194 6.75022 10.1002 6.70083 10.0123 6.61292C9.92439 6.525 9.875 6.40577 9.875 6.28144C9.875 6.15711 9.92439 6.03787 10.0123 5.94996C10.1002 5.86205 10.2194 5.81266 10.3438 5.81266H11.4231C10.9957 5.14381 10.3817 4.61483 9.65701 4.29106C8.93232 3.96729 8.12865 3.86292 7.3453 3.99084C6.56195 4.11875 5.83323 4.47336 5.24915 5.01085C4.66508 5.54833 4.25124 6.24515 4.05875 7.01523C4.04455 7.07573 4.01847 7.13279 3.98202 7.18311C3.94557 7.23344 3.89948 7.27601 3.84643 7.30836C3.79338 7.3407 3.73443 7.36218 3.67301 7.37154C3.61159 7.3809 3.54892 7.37796 3.48864 7.36288C3.42837 7.3478 3.37169 7.32088 3.32191 7.2837C3.27213 7.24652 3.23023 7.19981 3.19867 7.14629C3.1671 7.09277 3.14648 7.03351 3.13802 6.97196C3.12956 6.9104 3.13342 6.84777 3.14937 6.78772C3.40221 5.77667 3.96463 4.8699 4.758 4.19415C5.55136 3.5184 6.53604 3.10745 7.57437 3.01874L7.575 3.01811ZM5.45 12.3012C6.11999 12.6983 6.87349 12.9334 7.65043 12.9878C8.42736 13.0422 9.20626 12.9143 9.92502 12.6143C10.6438 12.3143 11.2825 11.8506 11.7904 11.26C12.2982 10.6695 12.661 9.96848 12.85 9.21287C12.8781 9.09299 12.858 8.96684 12.7939 8.8617C12.7298 8.75656 12.6269 8.68087 12.5074 8.65098C12.388 8.6211 12.2615 8.63942 12.1555 8.70199C12.0494 8.76455 11.9722 8.86634 11.9406 8.98536C11.748 9.75527 11.3342 10.4519 10.7502 10.9893C10.1661 11.5266 9.43752 11.8811 8.6543 12.009C7.87108 12.137 7.06756 12.0326 6.34294 11.709C5.61833 11.3854 5.00437 10.8566 4.57687 10.1879H5.65625C5.78057 10.1879 5.8998 10.1385 5.98771 10.0506C6.07561 9.96272 6.125 9.84348 6.125 9.71915C6.125 9.59482 6.07561 9.47559 5.98771 9.38767C5.8998 9.29976 5.78057 9.25037 5.65625 9.25037H3V11.9068C3 12.0311 3.04939 12.1504 3.13729 12.2383C3.2252 12.3262 3.34443 12.3756 3.46875 12.3756C3.59307 12.3756 3.7123 12.3262 3.80021 12.2383C3.88811 12.1504 3.9375 12.0311 3.9375 11.9068V10.9155C4.34049 11.477 4.85549 11.9488 5.45 12.3012Z" fill="black"/>
</g>
</svg>
