<svg width="16" height="16" viewBox="0 0 16 16" fill="currentColor" xmlns="http://www.w3.org/2000/svg">
<g id="icon/retry">
<path id="Vector" d="M7.93283 12.5C7.93283 12.6326 7.88185 12.7598 7.79111 12.8536C7.70036 12.9473 7.57729 13 7.44896 13C5.00255 13 3 10.9967 3 8.5C3 6.00333 5.00255 4 7.44896 4C9.45216 4 11.1579 5.34333 11.7102 7.20067L12.0992 6.52067C12.1645 6.40645 12.271 6.3237 12.3953 6.29063C12.5196 6.25756 12.6516 6.27688 12.7621 6.34433C12.8726 6.41179 12.9527 6.52185 12.9847 6.65031C13.0167 6.77878 12.998 6.91511 12.9327 7.02933L11.8812 8.866C11.8168 8.97867 11.7122 9.06077 11.5899 9.09467C11.4676 9.12857 11.3373 9.11158 11.227 9.04733L9.40635 7.98667C9.35099 7.95441 9.30231 7.91119 9.26311 7.85949C9.2239 7.80779 9.19494 7.74862 9.17786 7.68535C9.16079 7.62208 9.15594 7.55596 9.1636 7.49076C9.17125 7.42555 9.19126 7.36255 9.22248 7.30533C9.2537 7.24812 9.29552 7.19782 9.34556 7.15731C9.39559 7.1168 9.45285 7.08687 9.51408 7.06922C9.5753 7.05158 9.63929 7.04657 9.70239 7.05448C9.76549 7.0624 9.82646 7.08307 9.88183 7.11533L10.8315 7.66867C10.4612 6.14333 9.09539 5 7.44961 5C5.51545 5 3.96773 6.578 3.96773 8.5C3.96773 10.422 5.51544 12 7.44896 12C7.57729 12 7.70036 12.0527 7.79111 12.1464C7.88185 12.2402 7.93283 12.3674 7.93283 12.5Z" fill="black"/>
</g>
</svg>
