<svg width="16" height="16" viewBox="0 0 16 16" fill="currentColor" xmlns="http://www.w3.org/2000/svg">
<g id="state=filled">
<path id="Vector" fill-rule="evenodd" clip-rule="evenodd" d="M6.06117 1.80039C5.95595 1.89482 5.84579 1.98361 5.73117 2.06639C5.5325 2.19972 5.30917 2.29172 5.0745 2.33839C4.9725 2.35839 4.86583 2.36705 4.65317 2.38372C4.11917 2.42639 3.85183 2.44772 3.62917 2.52639C3.3745 2.61615 3.14318 2.76186 2.95225 2.9528C2.76131 3.14374 2.6156 3.37505 2.52583 3.62972C2.44717 3.85239 2.42583 4.11972 2.38317 4.65372C2.37551 4.79487 2.36038 4.93551 2.33783 5.07505C2.29117 5.30972 2.19917 5.53305 2.06583 5.73172C2.00783 5.81839 1.9385 5.89972 1.79983 6.06172C1.4525 6.46972 1.2785 6.67372 1.1765 6.88705C0.941167 7.38038 0.941167 7.95372 1.1765 8.44705C1.2785 8.66038 1.4525 8.86438 1.79983 9.27238C1.9385 9.43438 2.00783 9.51572 2.06583 9.60238C2.19917 9.80105 2.29117 10.0244 2.33783 10.2591C2.35783 10.3611 2.3665 10.4677 2.38317 10.6804C2.42583 11.2144 2.44717 11.4817 2.52583 11.7044C2.6156 11.9591 2.76131 12.1904 2.95225 12.3813C3.14318 12.5722 3.3745 12.718 3.62917 12.8077C3.85183 12.8864 4.11917 12.9077 4.65317 12.9504C4.86583 12.9671 4.9725 12.9757 5.0745 12.9957C5.30917 13.0424 5.5325 13.1351 5.73117 13.2677C5.81783 13.3257 5.89917 13.3951 6.06117 13.5337C6.46917 13.8811 6.67317 14.0551 6.8865 14.1571C7.37983 14.3924 7.95317 14.3924 8.4465 14.1571C8.65983 14.0551 8.86383 13.8811 9.27183 13.5337C9.43383 13.3951 9.51517 13.3257 9.60183 13.2677C9.8005 13.1344 10.0238 13.0424 10.2585 12.9957C10.3605 12.9757 10.4672 12.9671 10.6798 12.9504C11.2138 12.9077 11.4812 12.8864 11.7038 12.8077C11.9585 12.718 12.1898 12.5722 12.3808 12.3813C12.5717 12.1904 12.7174 11.9591 12.8072 11.7044C12.8858 11.4817 12.9072 11.2144 12.9498 10.6804C12.9665 10.4677 12.9752 10.3611 12.9952 10.2591C13.0418 10.0244 13.1345 9.80105 13.2672 9.60238C13.3252 9.51572 13.3945 9.43438 13.5332 9.27238C13.8805 8.86438 14.0545 8.66038 14.1565 8.44705C14.3918 7.95372 14.3918 7.38038 14.1565 6.88705C14.0545 6.67372 13.8805 6.46972 13.5332 6.06172C13.4387 5.9565 13.3499 5.84634 13.2672 5.73172C13.1338 5.53308 13.0413 5.30984 12.9952 5.07505C12.9726 4.93551 12.9575 4.79487 12.9498 4.65372C12.9072 4.11972 12.8858 3.85239 12.8072 3.62972C12.7174 3.37505 12.5717 3.14374 12.3808 2.9528C12.1898 2.76186 11.9585 2.61615 11.7038 2.52639C11.4812 2.44772 11.2138 2.42639 10.6798 2.38372C10.5387 2.37606 10.398 2.36093 10.2585 2.33839C10.0237 2.29227 9.80047 2.1998 9.60183 2.06639C9.48721 1.98361 9.37706 1.89482 9.27183 1.80039C8.86383 1.45305 8.65983 1.27905 8.4465 1.17705C8.20299 1.0605 7.93646 1 7.6665 1C7.39654 1 7.13001 1.0605 6.8865 1.17705C6.67317 1.27905 6.46917 1.45305 6.06117 1.80039ZM10.2205 5.11372C10.322 5.21546 10.3791 5.35332 10.3791 5.49705C10.3791 5.64078 10.322 5.77865 10.2205 5.88038L5.87983 10.2217C5.83038 10.2758 5.77046 10.3194 5.70371 10.3497C5.63695 10.3801 5.56474 10.3966 5.49144 10.3982C5.41813 10.3999 5.34525 10.3866 5.2772 10.3593C5.20915 10.3321 5.14733 10.2913 5.09548 10.2394C5.04363 10.1876 5.00283 10.1257 4.97554 10.0577C4.94824 9.98963 4.93502 9.91675 4.93668 9.84345C4.93833 9.77014 4.95482 9.69793 4.98515 9.63118C5.01549 9.56442 5.05904 9.50451 5.11317 9.45505L9.45317 5.11438C9.5549 5.01285 9.69277 4.95583 9.8365 4.95583C9.98023 4.95583 10.1181 5.01285 10.2198 5.11438M10.1978 9.47638C10.1978 9.66822 10.1216 9.85221 9.98597 9.98786C9.85032 10.1235 9.66634 10.1997 9.4745 10.1997C9.28266 10.1997 9.09868 10.1235 8.96303 9.98786C8.82737 9.85221 8.75117 9.66822 8.75117 9.47638C8.75117 9.28454 8.82737 9.10056 8.96303 8.96491C9.09868 8.82926 9.28266 8.75305 9.4745 8.75305C9.66634 8.75305 9.85032 8.82926 9.98597 8.96491C10.1216 9.10056 10.1978 9.28454 10.1978 9.47638ZM5.85783 6.58305C6.04967 6.58305 6.23366 6.50684 6.36931 6.37119C6.50496 6.23554 6.58117 6.05156 6.58117 5.85972C6.58117 5.66788 6.50496 5.4839 6.36931 5.34824C6.23366 5.21259 6.04967 5.13639 5.85783 5.13639C5.66599 5.13639 5.48201 5.21259 5.34636 5.34824C5.21071 5.4839 5.1345 5.66788 5.1345 5.85972C5.1345 6.05156 5.21071 6.23554 5.34636 6.37119C5.48201 6.50684 5.66599 6.58305 5.85783 6.58305Z" fill="black"/>
</g>
</svg>
