<svg width="16" height="16" viewBox="0 0 16 16" fill="currentColor" xmlns="http://www.w3.org/2000/svg">
<g id="state=filled">
<path id="Vector" fill-rule="evenodd" clip-rule="evenodd" d="M9.12375 2.0912C8.89007 2 8.59323 2 8.00018 2C7.40713 2 7.11092 2 6.8766 2.0912C6.72243 2.15105 6.58223 2.23927 6.46409 2.35079C6.34594 2.46231 6.25217 2.59492 6.18819 2.741C6.12882 2.8748 6.10608 3.0314 6.09661 3.2588C6.0921 3.4235 6.0436 3.58441 5.95566 3.72641C5.86772 3.86842 5.74322 3.98685 5.59387 4.0706C5.4415 4.15106 5.27022 4.19369 5.09589 4.19453C4.92156 4.19537 4.74983 4.15439 4.59661 4.0754C4.38314 3.9686 4.2284 3.9098 4.07556 3.8906C3.74119 3.84915 3.4031 3.93452 3.13451 4.1282C2.93367 4.2734 2.78525 4.5158 2.48904 5C2.1922 5.4842 2.04441 5.726 2.01094 5.963C1.96673 6.2786 2.05767 6.5978 2.26357 6.8504C2.35704 6.9656 2.48904 7.0622 2.69304 7.1834C2.9943 7.3616 3.18756 7.6652 3.18756 8C3.18756 8.3348 2.9943 8.6384 2.69367 8.816C2.48904 8.9378 2.35704 9.0344 2.26294 9.1496C2.16161 9.27453 2.0872 9.4172 2.04396 9.56947C2.00072 9.72174 1.9895 9.88061 2.01094 10.037C2.04441 10.2734 2.1922 10.5158 2.48904 11C2.78588 11.4842 2.93367 11.726 3.13451 11.8718C3.4023 12.0656 3.74083 12.1508 4.07556 12.1094C4.2284 12.0902 4.38314 12.0314 4.59661 11.9246C4.74991 11.8455 4.92176 11.8045 5.09621 11.8053C5.27065 11.8061 5.44205 11.8488 5.5945 11.9294C5.90145 12.0974 6.08334 12.4064 6.09661 12.7412C6.10608 12.9692 6.12882 13.1252 6.18819 13.259C6.31703 13.553 6.5646 13.787 6.8766 13.9088C7.11029 14 7.40713 14 8.00018 14C8.59323 14 8.89007 14 9.12375 13.9088C9.27793 13.849 9.41813 13.7607 9.53627 13.6492C9.65442 13.5377 9.74818 13.4051 9.81217 13.259C9.87154 13.1252 9.89428 12.9692 9.90375 12.7412C9.91638 12.4064 10.0989 12.0968 10.4065 11.9294C10.5589 11.8489 10.7301 11.8063 10.9045 11.8055C11.0788 11.8046 11.2505 11.8456 11.4037 11.9246C11.6172 12.0314 11.772 12.0902 11.9248 12.1094C12.2595 12.1514 12.5981 12.0656 12.8658 11.8718C13.0667 11.7266 13.2151 11.4842 13.5113 11C13.8082 10.5158 13.9559 10.274 13.9894 10.037C14.0108 9.88057 13.9994 9.72168 13.9561 9.56941C13.9128 9.41714 13.8382 9.27448 13.7368 9.1496C13.6433 9.0344 13.5113 8.9378 13.3073 8.8166C13.0061 8.6384 12.8128 8.3348 12.8128 8C12.8128 7.6652 13.0061 7.3616 13.3067 7.184C13.5113 7.0622 13.6433 6.9656 13.7374 6.8504C13.8387 6.72547 13.9132 6.5828 13.9564 6.43053C13.9996 6.27826 14.0109 6.11939 13.9894 5.963C13.9559 5.7266 13.8082 5.4842 13.5113 5C13.2145 4.5158 13.0667 4.274 12.8658 4.1282C12.5973 3.93452 12.2592 3.84915 11.9248 3.8906C11.772 3.9098 11.6172 3.9686 11.4037 4.0754C11.2504 4.1545 11.0786 4.19553 10.9042 4.19469C10.7297 4.19385 10.5583 4.15117 10.4059 4.0706C10.2566 3.98678 10.1323 3.86831 10.0444 3.72631C9.9566 3.58431 9.90819 3.42344 9.90375 3.2588C9.89428 3.0308 9.87154 2.8748 9.81217 2.741C9.74818 2.59492 9.65442 2.46231 9.53627 2.35079C9.41813 2.23927 9.27793 2.15105 9.12375 2.0912ZM8.00018 9.8C9.05491 9.8 9.90944 8.9942 9.90944 8C9.90944 7.0058 9.05428 6.2 8.00018 6.2C6.94608 6.2 6.09092 7.0058 6.09092 8C6.09092 8.9942 6.94608 9.8 8.00018 9.8Z" fill="black"/>
</g>
</svg>
