<svg width="16" height="16" viewBox="0 0 16 16" fill="currentColor" xmlns="http://www.w3.org/2000/svg">
<g id="state=google">
<path id="Vector" d="M5.99107 2.32514C4.79208 2.74108 3.75808 3.53054 3.04093 4.57758C2.32379 5.62461 1.96131 6.87402 2.00673 8.14229C2.05216 9.41056 2.50309 10.6308 3.2933 11.6239C4.0835 12.6169 5.17134 13.3304 6.39701 13.6595C7.39068 13.9159 8.43176 13.9272 9.43076 13.6923C10.3357 13.489 11.1724 13.0542 11.8589 12.4304C12.5733 11.7614 13.0919 10.9103 13.3589 9.96857C13.6491 8.94451 13.7007 7.86757 13.5098 6.82045H7.92982V9.13514H11.1614C11.0968 9.50431 10.9584 9.85666 10.7545 10.1711C10.5505 10.4855 10.2852 10.7556 9.97451 10.9651C9.57989 11.2262 9.13506 11.4018 8.66857 11.4808C8.2007 11.5678 7.72081 11.5678 7.25294 11.4808C6.77874 11.3827 6.33016 11.187 5.93576 10.9061C5.30214 10.4576 4.82639 9.82038 4.57638 9.08545C4.32214 8.33676 4.32214 7.52508 4.57638 6.77639C4.75434 6.25159 5.04854 5.77376 5.43701 5.37857C5.88156 4.91802 6.44438 4.58882 7.06371 4.42708C7.68305 4.26534 8.33497 4.27732 8.94794 4.4617C9.42679 4.60869 9.86467 4.86551 10.2267 5.2117C10.5911 4.8492 10.9548 4.48576 11.3179 4.12139C11.5054 3.92545 11.7098 3.73889 11.8945 3.53826C11.3419 3.02402 10.6933 2.62388 9.98575 2.36076C8.69735 1.89294 7.28761 1.88037 5.99107 2.32514Z" fill="white"/>
<path id="Vector_2" d="M5.9909 2.3251C7.28733 1.88003 8.69708 1.89227 9.98559 2.35979C10.6932 2.62469 11.3416 3.02676 11.8934 3.54292C11.7059 3.74354 11.5081 3.93104 11.3168 4.12604C10.9531 4.48917 10.5896 4.85104 10.2265 5.21167C9.8645 4.86548 9.42662 4.60866 8.94777 4.46167C8.335 4.27664 7.6831 4.26397 7.0636 4.42505C6.4441 4.58613 5.88094 4.91472 5.4359 5.37479C5.04743 5.76998 4.75324 6.24781 4.57527 6.7726L2.63184 5.26792C3.32747 3.88844 4.53191 2.83325 5.9909 2.3251Z" fill="#E33629"/>
<path id="Vector_3" d="M2.11625 6.75857C2.2207 6.24088 2.39413 5.73953 2.63187 5.26794L4.57531 6.77638C4.32107 7.52508 4.32107 8.33675 4.57531 9.08544C3.92781 9.58544 3.28 10.0879 2.63187 10.5929C2.0367 9.40824 1.85518 8.05841 2.11625 6.75857Z" fill="#F8BD00"/>
<path id="Vector_4" d="M7.92962 6.81946H13.5096C13.7005 7.86658 13.6489 8.94352 13.3587 9.96758C13.0917 10.9093 12.5731 11.7604 11.8587 12.4295C11.2315 11.9401 10.6015 11.4545 9.9743 10.9651C10.2853 10.7553 10.5506 10.485 10.7546 10.1702C10.9585 9.85543 11.0968 9.50272 11.1612 9.13321H7.92962C7.92868 8.36258 7.92962 7.59102 7.92962 6.81946Z" fill="#587DBD"/>
<path id="Vector_5" d="M2.63086 10.5929C3.27898 10.0929 3.9268 9.59045 4.5743 9.08545C4.8248 9.82063 5.30124 10.4578 5.93555 10.9061C6.33118 11.1857 6.78073 11.3798 7.25555 11.4761C7.72341 11.5631 8.20331 11.5631 8.67117 11.4761C9.13767 11.3971 9.5825 11.2215 9.97711 10.9604C10.6043 11.4498 11.2343 11.9354 11.8615 12.4248C11.1751 13.0489 10.3384 13.4841 9.43336 13.6876C8.43437 13.9225 7.39329 13.9112 6.39961 13.6548C5.6137 13.445 4.87962 13.0751 4.24336 12.5683C3.56992 12.0336 3.01988 11.3598 2.63086 10.5929Z" fill="#319F43"/>
</g>
</svg>
