<svg width="26" height="26" viewBox="0 0 16 16" fill="currentColor" xmlns="http://www.w3.org/2000/svg">
<g id="state=telegram">
<path id="Vector" d="M8 2C4.688 2 2 4.688 2 8C2 11.312 4.688 14 8 14C11.312 14 14 11.312 14 8C14 4.688 11.312 2 8 2ZM10.784 6.08C10.694 7.028 10.304 9.332 10.106 10.394C10.022 10.844 9.854 10.994 9.698 11.012C9.35 11.042 9.086 10.784 8.75 10.562C8.222 10.214 7.922 9.998 7.412 9.662C6.818 9.272 7.202 9.056 7.544 8.708C7.634 8.618 9.17 7.22 9.2 7.094C9.20417 7.07492 9.20361 7.0551 9.19838 7.03628C9.19316 7.01746 9.18341 7.0002 9.17 6.986C9.134 6.956 9.086 6.968 9.044 6.974C8.99 6.986 8.15 7.544 6.512 8.648C6.272 8.81 6.056 8.894 5.864 8.888C5.648 8.882 5.24 8.768 4.934 8.666C4.556 8.546 4.262 8.48 4.286 8.27C4.298 8.162 4.448 8.054 4.73 7.94C6.482 7.178 7.646 6.674 8.228 6.434C9.896 5.738 10.238 5.618 10.466 5.618C10.514 5.618 10.628 5.63 10.7 5.69C10.76 5.738 10.778 5.804 10.784 5.852C10.778 5.888 10.79 5.996 10.784 6.08Z" fill="#0d5370"/>
</g>
</svg>
