<svg width="16" height="16" viewBox="0 0 16 16" fill="currentColor" xmlns="http://www.w3.org/2000/svg">
<g id="state=up">
<path id="Vector" fill-rule="evenodd" clip-rule="evenodd" d="M4.62859 3C4.77516 3 4.90887 3.05543 5.0103 3.14629L5.06116 3.196L7.08144 5.21629C7.18863 5.32343 7.24886 5.46877 7.24889 5.62033C7.24891 5.77188 7.18873 5.91724 7.08159 6.02443C6.97444 6.13161 6.8291 6.19184 6.67754 6.19187C6.52599 6.1919 6.38063 6.13172 6.27344 6.02457L5.19973 4.95086V12.7143C5.19973 12.8658 5.13953 13.0112 5.03236 13.1183C4.9252 13.2255 4.77985 13.2857 4.6283 13.2857C4.47675 13.2857 4.3314 13.2255 4.22424 13.1183C4.11708 13.0112 4.05687 12.8658 4.05687 12.7143V4.94286L2.97544 6.02457C2.92237 6.07763 2.85937 6.11971 2.79003 6.14841C2.7207 6.17712 2.64639 6.19188 2.57134 6.19187C2.4963 6.19186 2.42199 6.17706 2.35267 6.14833C2.28334 6.1196 2.22035 6.0775 2.1673 6.02443C2.11425 5.97136 2.07217 5.90835 2.04346 5.83902C2.01475 5.76968 1.99999 5.69537 2 5.62033C2.00003 5.46877 2.06026 5.32343 2.16744 5.21629L4.18744 3.19629L4.2223 3.164L4.25887 3.13543C4.35859 3.05086 4.48773 3 4.62859 3ZM13.7143 11.5714C13.8659 11.5714 14.0112 11.6316 14.1184 11.7388C14.2255 11.846 14.2857 11.9913 14.2857 12.1429C14.2857 12.2944 14.2255 12.4398 14.1184 12.5469C14.0112 12.6541 13.8659 12.7143 13.7143 12.7143H6.85716C6.70561 12.7143 6.56026 12.6541 6.4531 12.5469C6.34593 12.4398 6.28573 12.2944 6.28573 12.1429C6.28573 11.9913 6.34593 11.846 6.4531 11.7388C6.56026 11.6316 6.70561 11.5714 6.85716 11.5714H13.7143ZM11.4286 9.28571C11.5801 9.28571 11.7255 9.34592 11.8326 9.45308C11.9398 9.56024 12 9.70559 12 9.85714C12 10.0087 11.9398 10.154 11.8326 10.2612C11.7255 10.3684 11.5801 10.4286 11.4286 10.4286H6.85716C6.70561 10.4286 6.56026 10.3684 6.4531 10.2612C6.34593 10.154 6.28573 10.0087 6.28573 9.85714C6.28573 9.70559 6.34593 9.56024 6.4531 9.45308C6.56026 9.34592 6.70561 9.28571 6.85716 9.28571H11.4286ZM9.14287 7C9.29442 7 9.43977 7.0602 9.54693 7.16737C9.6541 7.27453 9.7143 7.41988 9.7143 7.57143C9.7143 7.72298 9.6541 7.86833 9.54693 7.97549C9.43977 8.08265 9.29442 8.14286 9.14287 8.14286H6.85716C6.70561 8.14286 6.56026 8.08265 6.4531 7.97549C6.34593 7.86833 6.28573 7.72298 6.28573 7.57143C6.28573 7.41988 6.34593 7.27453 6.4531 7.16737C6.56026 7.0602 6.70561 7 6.85716 7H9.14287Z" fill="black"/>
</g>
</svg>
