<svg width="16" height="16" viewBox="0 0 16 16" fill="currentColor" xmlns="http://www.w3.org/2000/svg">
<g id="state=down">
<path id="Vector" fill-rule="evenodd" clip-rule="evenodd" d="M4.62859 13.2857C4.77516 13.2857 4.90887 13.2303 5.0103 13.1394L5.06116 13.0897L7.08144 11.0694C7.18863 10.9623 7.24886 10.8169 7.24889 10.6654C7.24891 10.5138 7.18873 10.3685 7.08159 10.2613C6.97444 10.1541 6.8291 10.0939 6.67754 10.0938C6.52599 10.0938 6.38063 10.154 6.27344 10.2611L5.19973 11.3348V3.57142C5.19973 3.41987 5.13953 3.27452 5.03236 3.16736C4.9252 3.06019 4.77985 2.99999 4.6283 2.99999C4.47675 2.99999 4.3314 3.06019 4.22424 3.16736C4.11708 3.27452 4.05687 3.41987 4.05687 3.57142V11.3428L2.97544 10.2611C2.92237 10.2081 2.85937 10.166 2.79003 10.1373C2.7207 10.1086 2.64639 10.0938 2.57134 10.0938C2.4963 10.0938 2.42199 10.1086 2.35267 10.1374C2.28334 10.1661 2.22035 10.2082 2.1673 10.2613C2.11425 10.3143 2.07217 10.3774 2.04346 10.4467C2.01475 10.516 1.99999 10.5903 2 10.6654C2.00003 10.8169 2.06026 10.9623 2.16744 11.0694L4.18744 13.0894L4.2223 13.1217L4.25887 13.1503C4.35859 13.2348 4.48773 13.2857 4.62859 13.2857ZM13.7143 4.71428C13.8659 4.71428 14.0112 4.65407 14.1184 4.54691C14.2255 4.43975 14.2857 4.2944 14.2857 4.14285C14.2857 3.9913 14.2255 3.84595 14.1184 3.73879C14.0112 3.63162 13.8659 3.57142 13.7143 3.57142H6.85716C6.70561 3.57142 6.56026 3.63162 6.4531 3.73879C6.34593 3.84595 6.28573 3.9913 6.28573 4.14285C6.28573 4.2944 6.34593 4.43975 6.4531 4.54691C6.56026 4.65407 6.70561 4.71428 6.85716 4.71428H13.7143ZM11.4286 6.99999C11.5801 6.99999 11.7255 6.93979 11.8326 6.83262C11.9398 6.72546 12 6.58012 12 6.42856C12 6.27701 11.9398 6.13167 11.8326 6.0245C11.7255 5.91734 11.5801 5.85713 11.4286 5.85713H6.85716C6.70561 5.85713 6.56026 5.91734 6.4531 6.0245C6.34593 6.13167 6.28573 6.27701 6.28573 6.42856C6.28573 6.58012 6.34593 6.72546 6.4531 6.83262C6.56026 6.93979 6.70561 6.99999 6.85716 6.99999H11.4286ZM9.14287 9.28571C9.29442 9.28571 9.43977 9.2255 9.54693 9.11834C9.6541 9.01117 9.7143 8.86583 9.7143 8.71428C9.7143 8.56273 9.6541 8.41738 9.54693 8.31022C9.43977 8.20305 9.29442 8.14285 9.14287 8.14285H6.85716C6.70561 8.14285 6.56026 8.20305 6.4531 8.31022C6.34593 8.41738 6.28573 8.56273 6.28573 8.71428C6.28573 8.86583 6.34593 9.01117 6.4531 9.11834C6.56026 9.2255 6.70561 9.28571 6.85716 9.28571H9.14287Z" fill="black"/>
</g>
</svg>
