<svg width="24" height="24" viewBox="0 0 24 24" fill="currentColor" xmlns="http://www.w3.org/2000/svg">
<g id="icon/support">
<g id="Group">
<path id="Vector" d="M18.8661 9.60504V8.83613C18.8661 6.9958 18.2148 5.28571 17.0341 4.01681C15.824 2.71429 14.1602 2 12.3451 2H11.7106C9.89548 2 8.23161 2.71429 7.02153 4.01681C5.84085 5.28571 5.18959 6.9958 5.18959 8.83613V9.60504C3.75682 9.70168 2.61816 10.895 2.61816 12.3529V13.5546C2.61816 15.0714 3.85346 16.3067 5.37027 16.3067H6.92069C7.198 16.3067 7.42489 16.0798 7.42489 15.8025V10.1008C7.42489 9.82353 7.198 9.59664 6.92069 9.59664H6.198V8.83613C6.198 5.51261 8.56774 3.0084 11.7064 3.0084H12.3409C15.4837 3.0084 17.8493 5.51261 17.8493 8.83613V9.59664H17.1266C16.8493 9.59664 16.6224 9.82353 16.6224 10.1008V15.7983C16.6224 16.0756 16.8493 16.3025 17.1266 16.3025H17.8325C17.6266 18.9328 15.8156 19.542 14.9753 19.6807C14.7442 18.9706 14.0761 18.458 13.2904 18.458H12.0299C11.0551 18.458 10.261 19.2521 10.261 20.2269C10.261 21.2017 11.0551 22 12.0299 22H13.2946C14.1098 22 14.7946 21.4454 15.0005 20.6975C15.4123 20.6387 16.0635 20.4916 16.7106 20.1134C17.6224 19.5798 18.7022 18.4916 18.8451 16.2983C20.2862 16.2101 21.4291 15.0126 21.4291 13.5504V12.3487C21.4333 10.895 20.2988 9.69748 18.8661 9.60504ZM6.42489 15.2941H5.37867C4.41648 15.2941 3.63497 14.5126 3.63497 13.5504V12.3487C3.63497 11.3866 4.41648 10.605 5.37867 10.605H6.42489V15.2941ZM13.2946 20.9916H12.0299C11.6098 20.9916 11.2694 20.6513 11.2694 20.2311C11.2694 19.8109 11.6098 19.4706 12.0299 19.4706H13.2946C13.7148 19.4706 14.0551 19.8109 14.0551 20.2311C14.0551 20.6513 13.7148 20.9916 13.2946 20.9916ZM20.4249 13.5504C20.4249 14.5126 19.6434 15.2941 18.6812 15.2941H17.635V10.605H18.6812C19.6434 10.605 20.4249 11.3866 20.4249 12.3487V13.5504Z" fill="#1D1F20"/>
</g>
</g>
</svg>
