<svg width="16" height="16" viewBox="0 0 16 16" fill="currentColor" xmlns="http://www.w3.org/2000/svg">
<g id="state=outline">
<path id="Vector" fill-rule="evenodd" clip-rule="evenodd" d="M8.335 1C7.5669 1 6.83026 1.31028 6.28713 1.86257C5.744 2.41487 5.43888 3.16394 5.43888 3.945C5.43888 4.72606 5.744 5.47513 6.28713 6.02743C6.83026 6.57972 7.5669 6.89 8.335 6.89C9.1031 6.89 9.83974 6.57972 10.3829 6.02743C10.926 5.47513 11.2311 4.72606 11.2311 3.945C11.2311 3.16394 10.926 2.41487 10.3829 1.86257C9.83974 1.31028 9.1031 1 8.335 1ZM6.35344 3.945C6.35344 3.41059 6.56221 2.89807 6.93383 2.52018C7.30544 2.14229 7.80946 1.93 8.335 1.93C8.86054 1.93 9.36456 2.14229 9.73617 2.52018C10.1078 2.89807 10.3166 3.41059 10.3166 3.945C10.3166 4.47941 10.1078 4.99193 9.73617 5.36982C9.36456 5.74771 8.86054 5.96 8.335 5.96C7.80946 5.96 7.30544 5.74771 6.93383 5.36982C6.56221 4.99193 6.35344 4.47941 6.35344 3.945ZM8.335 7.82C6.92474 7.82 5.62484 8.14612 4.6621 8.69668C3.71339 9.2398 3.00003 10.0619 3.00003 11.075V11.1382C2.99942 11.8587 2.99881 12.7626 3.77863 13.4087C4.16214 13.7261 4.6993 13.9524 5.42485 14.1012C6.15163 14.2513 7.09973 14.33 8.335 14.33C9.57027 14.33 10.5178 14.2513 11.2458 14.1012C11.9713 13.9524 12.5079 13.7261 12.892 13.4087C13.6718 12.7626 13.6706 11.8587 13.67 11.1382V11.075C13.67 10.0619 12.9566 9.2398 12.0085 8.69668C11.0452 8.14612 9.74587 7.82 8.335 7.82ZM3.9146 11.075C3.9146 10.5474 4.29384 9.9745 5.11024 9.50764C5.91262 9.04884 7.05156 8.75 8.33561 8.75C9.61844 8.75 10.7574 9.04884 11.5598 9.50764C12.3768 9.9745 12.7554 10.5474 12.7554 11.075C12.7554 11.886 12.731 12.3423 12.314 12.687C12.0884 12.8742 11.7104 13.0571 11.0641 13.1898C10.4196 13.3225 9.53857 13.4 8.335 13.4C7.13143 13.4 6.24979 13.3225 5.60594 13.1898C4.95964 13.0571 4.58162 12.8742 4.35603 12.6876C3.93899 12.3423 3.9146 11.886 3.9146 11.075Z" fill="black"/>
</g>
</svg>
