<svg width="16" height="16" viewBox="0 0 16 16" fill="currentColor" xmlns="http://www.w3.org/2000/svg">
<g id="state=alloutline">
<path id="Vector" d="M8.08393 2.00056C4.70966 1.95498 1.95498 4.70953 2.00056 8.08364C2.04556 11.3196 4.68053 13.9544 7.91663 13.9994C11.2915 14.0456 14.0456 11.291 13.9994 7.91692C13.955 4.6804 11.32 2.04555 8.08393 2.00056ZM11.7305 11.4396C11.719 11.452 11.7049 11.4617 11.6892 11.4681C11.6736 11.4745 11.6567 11.4773 11.6398 11.4765C11.6229 11.4756 11.6064 11.471 11.5914 11.463C11.5765 11.4551 11.5635 11.4439 11.5534 11.4303C11.2954 11.0928 10.9794 10.8038 10.6203 10.5769C9.88587 10.1056 8.95533 9.84597 8.00028 9.84597C7.04523 9.84597 6.11469 10.1056 5.38031 10.5769C5.02114 10.8037 4.70517 11.0926 4.44718 11.4301C4.43704 11.4436 4.42405 11.4548 4.40912 11.4627C4.39419 11.4707 4.37769 11.4753 4.36078 11.4762C4.34388 11.4771 4.327 11.4742 4.31132 11.4678C4.29564 11.4615 4.28156 11.4517 4.27007 11.4393C3.42367 10.5256 2.94421 9.33178 2.92359 8.08652C2.87657 5.27977 5.17983 2.93047 7.98788 2.92355C10.7959 2.91663 13.077 5.1967 13.077 7.99999C13.0779 9.27528 12.597 10.5038 11.7305 11.4396Z" fill="black"/>
<path id="Vector_2" d="M7.99979 5C7.41976 5 6.89531 5.20528 6.52264 5.57833C6.14997 5.95139 5.96378 6.46722 6.00585 7.02083C6.09115 8.11111 6.98561 9 7.99979 9C9.01398 9 9.90668 8.11111 9.99374 7.02111C10.0373 6.47278 9.85256 5.96167 9.47371 5.58167C9.09957 5.20667 8.57601 5 7.99979 5Z" fill="black"/>
</g>
</svg>
