<svg width="36" height="36" viewBox="0 0 16 16" fill="currentColor" xmlns="http://www.w3.org/2000/svg">
<g id="state=allfilled">
<path id="Vector" d="M8 2C4.69163 2 2 4.69163 2 8C2 11.3084 4.69163 14 8 14C11.3084 14 14 11.3084 14 8C14 4.69163 11.3084 2 8 2ZM6.55135 5.36981C6.91683 4.9824 7.43115 4.76923 8 4.76923C8.56885 4.76923 9.07856 4.98385 9.44548 5.37327C9.81731 5.76788 9.99817 6.29808 9.95548 6.86808C9.8701 8 8.99317 8.92308 8 8.92308C7.00683 8.92308 6.12817 8 6.04452 6.86779C6.00212 6.29317 6.18269 5.76125 6.55135 5.36981ZM8 13.0769C7.32225 13.0774 6.65132 12.9417 6.02698 12.678C5.40264 12.4143 4.83761 12.0279 4.36538 11.5417C4.63583 11.156 4.98042 10.8281 5.37904 10.5771C6.11433 10.1058 7.0449 9.84615 8 9.84615C8.9551 9.84615 9.88567 10.1058 10.6201 10.5771C11.019 10.828 11.3639 11.156 11.6346 11.5417C11.1624 12.028 10.5974 12.4144 9.97307 12.6781C9.34872 12.9418 8.67776 13.0774 8 13.0769Z" fill="#2a8e9e"/>
</g>
</svg>
