<svg width="16" height="16" viewBox="0 0 16 16" fill="currentColor" xmlns="http://www.w3.org/2000/svg">
<g id="state=filled">
<path id="Vector" fill-rule="evenodd" clip-rule="evenodd" d="M14 8C14 4.6862 11.3138 2 8 2C4.6862 2 2 4.6862 2 8C2 11.3138 4.6862 14 8 14C11.3138 14 14 11.3138 14 8ZM8 5C8.15913 5 8.31174 5.06321 8.42426 5.17574C8.53679 5.28826 8.6 5.44087 8.6 5.6V8.6C8.6 8.75913 8.53679 8.91174 8.42426 9.02426C8.31174 9.13679 8.15913 9.2 8 9.2C7.84087 9.2 7.68826 9.13679 7.57574 9.02426C7.46321 8.91174 7.4 8.75913 7.4 8.6V5.6C7.4 5.44087 7.46321 5.28826 7.57574 5.17574C7.68826 5.06321 7.84087 5 8 5ZM7.4 10.4C7.4 10.2409 7.46321 10.0883 7.57574 9.97574C7.68826 9.86321 7.84087 9.8 8 9.8H8.0048C8.16393 9.8 8.31654 9.86321 8.42906 9.97574C8.54159 10.0883 8.6048 10.2409 8.6048 10.4C8.6048 10.5591 8.54159 10.7117 8.42906 10.8243C8.31654 10.9368 8.16393 11 8.0048 11H8C7.84087 11 7.68826 10.9368 7.57574 10.8243C7.46321 10.7117 7.4 10.5591 7.4 10.4Z" fill="black"/>
</g>
</svg>
