<svg width="16" height="16" viewBox="0 0 16 16" fill="currentColor" xmlns="http://www.w3.org/2000/svg">
<g id="state=plus">
<path id="Vector" d="M12.2857 8.71429H8.71429V12.2857C8.71429 12.4752 8.63903 12.6568 8.50508 12.7908C8.37112 12.9247 8.18944 13 8 13C7.81056 13 7.62888 12.9247 7.49492 12.7908C7.36097 12.6568 7.28571 12.4752 7.28571 12.2857V8.71429H3.71429C3.52485 8.71429 3.34316 8.63903 3.20921 8.50508C3.07526 8.37112 3 8.18944 3 8C3 7.81056 3.07526 7.62888 3.20921 7.49492C3.34316 7.36097 3.52485 7.28571 3.71429 7.28571H7.28571V3.71429C7.28571 3.52485 7.36097 3.34316 7.49492 3.20921C7.62888 3.07525 7.81056 3 8 3C8.18944 3 8.37112 3.07525 8.50508 3.20921C8.63903 3.34316 8.71429 3.52485 8.71429 3.71429V7.28571H12.2857C12.4752 7.28571 12.6568 7.36097 12.7908 7.49492C12.9247 7.62888 13 7.81056 13 8C13 8.18944 12.9247 8.37112 12.7908 8.50508C12.6568 8.63903 12.4752 8.71429 12.2857 8.71429Z" fill="black"/>
</g>
</svg>
